%TF.GenerationSoftware,KiCad,Pcbnew,10.0.3*%
%TF.CreationDate,2026-08-29T11:16:05-04:00*%
%TF.ProjectId,hot_info_orbs,686f745f-696e-4666-9f5f-6f7262732e6b,1.1*%
%TF.SameCoordinates,Original*%
%TF.FileFunction,Copper,L2,Bot*%
%TF.FilePolarity,Positive*%
%FSLAX46Y46*%
G04 Gerber Fmt 4.6, Leading zero omitted, Abs format (unit mm)*
G04 Created by KiCad (PCBNEW 10.0.3) date 2026-08-29 11:16:05*
%MOMM*%
%LPD*%
G01*
G04 APERTURE LIST*
G04 Aperture macros list*
%AMRoundRect*
0 Rectangle with rounded corners*
0 $1 Rounding radius*
0 $2 $3 $4 $5 $6 $7 $8 $9 X,Y pos of 4 corners*
0 Add a 4 corners polygon primitive as box body*
4,1,4,$2,$3,$4,$5,$6,$7,$8,$9,$2,$3,0*
0 Add four circle primitives for the rounded corners*
1,1,$1+$1,$2,$3*
1,1,$1+$1,$4,$5*
1,1,$1+$1,$6,$7*
1,1,$1+$1,$8,$9*
0 Add four rect primitives between the rounded corners*
20,1,$1+$1,$2,$3,$4,$5,0*
20,1,$1+$1,$4,$5,$6,$7,0*
20,1,$1+$1,$6,$7,$8,$9,0*
20,1,$1+$1,$8,$9,$2,$3,0*%
G04 Aperture macros list end*
%TA.AperFunction,ComponentPad*%
%ADD10R,1.700000X1.700000*%
%TD*%
%TA.AperFunction,ComponentPad*%
%ADD11O,1.700000X1.700000*%
%TD*%
%TA.AperFunction,ComponentPad*%
%ADD12RoundRect,0.250000X0.550000X0.550000X-0.550000X0.550000X-0.550000X-0.550000X0.550000X-0.550000X0*%
%TD*%
%TA.AperFunction,ComponentPad*%
%ADD13C,1.600000*%
%TD*%
%TA.AperFunction,ComponentPad*%
%ADD14C,2.000000*%
%TD*%
%TA.AperFunction,ComponentPad*%
%ADD15R,1.508000X1.508000*%
%TD*%
%TA.AperFunction,ComponentPad*%
%ADD16C,1.508000*%
%TD*%
%TA.AperFunction,ViaPad*%
%ADD17C,0.800000*%
%TD*%
%TA.AperFunction,ViaPad*%
%ADD18C,0.600000*%
%TD*%
%TA.AperFunction,Conductor*%
%ADD19C,0.350000*%
%TD*%
%TA.AperFunction,Conductor*%
%ADD20C,0.200000*%
%TD*%
G04 APERTURE END LIST*
D10*
%TO.P,DS4,1,VCC_1*%
%TO.N,+5V*%
X197360000Y-93540000D03*
D11*
%TO.P,DS4,2,GND_2*%
%TO.N,GND*%
X194820000Y-93540000D03*
%TO.P,DS4,3,SCL_3*%
%TO.N,Net-(DS1-SCL)*%
X192280000Y-93540000D03*
%TO.P,DS4,4,SDA_4*%
%TO.N,Net-(DS1-SDA)*%
X189740000Y-93540000D03*
%TO.P,DS4,5,DC_5*%
%TO.N,Net-(DS1-DC)*%
X187200000Y-93540000D03*
%TO.P,DS4,6,CS_6*%
%TO.N,Net-(DS4-CS)*%
X184660000Y-93540000D03*
%TO.P,DS4,7,RST_7*%
%TO.N,Net-(DS1-RST)*%
X182120000Y-93540000D03*
%TD*%
D12*
%TO.P,C1,1*%
%TO.N,+5V*%
X116220000Y-100110000D03*
D13*
%TO.P,C1,2*%
%TO.N,GND*%
X113720000Y-100110000D03*
%TD*%
D14*
%TO.P,SW3,1,1_1*%
%TO.N,/SW3*%
X217170000Y-101280000D03*
X223670000Y-101280000D03*
%TO.P,SW3,2,2_2*%
%TO.N,Net-(U2-3V3)*%
X217170000Y-105780000D03*
X223670000Y-105780000D03*
%TD*%
D10*
%TO.P,DS5,1,VCC_1*%
%TO.N,+5V*%
X236340000Y-93540000D03*
D11*
%TO.P,DS5,2,GND_2*%
%TO.N,GND*%
X233800000Y-93540000D03*
%TO.P,DS5,3,SCL_3*%
%TO.N,Net-(DS1-SCL)*%
X231260000Y-93540000D03*
%TO.P,DS5,4,SDA_4*%
%TO.N,Net-(DS1-SDA)*%
X228720000Y-93540000D03*
%TO.P,DS5,5,DC_5*%
%TO.N,Net-(DS1-DC)*%
X226180000Y-93540000D03*
%TO.P,DS5,6,CS_6*%
%TO.N,Net-(DS5-CS)*%
X223640000Y-93540000D03*
%TO.P,DS5,7,RST_7*%
%TO.N,Net-(DS1-RST)*%
X221100000Y-93540000D03*
%TD*%
D14*
%TO.P,SW2,1,1_1*%
%TO.N,Net-(U2-GPIO_2)*%
X203045000Y-101155000D03*
X209545000Y-101155000D03*
%TO.P,SW2,2,2_2*%
%TO.N,Net-(U2-3V3)*%
X203045000Y-105655000D03*
X209545000Y-105655000D03*
%TD*%
D10*
%TO.P,DS3,1,VCC_1*%
%TO.N,+5V*%
X158430000Y-93480000D03*
D11*
%TO.P,DS3,2,GND_2*%
%TO.N,GND*%
X155890000Y-93480000D03*
%TO.P,DS3,3,SCL_3*%
%TO.N,Net-(DS1-SCL)*%
X153350000Y-93480000D03*
%TO.P,DS3,4,SDA_4*%
%TO.N,Net-(DS1-SDA)*%
X150810000Y-93480000D03*
%TO.P,DS3,5,DC_5*%
%TO.N,Net-(DS1-DC)*%
X148270000Y-93480000D03*
%TO.P,DS3,6,CS_6*%
%TO.N,Net-(DS3-CS)*%
X145730000Y-93480000D03*
%TO.P,DS3,7,RST_7*%
%TO.N,Net-(DS1-RST)*%
X143190000Y-93480000D03*
%TD*%
D10*
%TO.P,DS2,1,VCC_1*%
%TO.N,+5V*%
X119390000Y-93510000D03*
D11*
%TO.P,DS2,2,GND_2*%
%TO.N,GND*%
X116850000Y-93510000D03*
%TO.P,DS2,3,SCL_3*%
%TO.N,Net-(DS1-SCL)*%
X114310000Y-93510000D03*
%TO.P,DS2,4,SDA_4*%
%TO.N,Net-(DS1-SDA)*%
X111770000Y-93510000D03*
%TO.P,DS2,5,DC_5*%
%TO.N,Net-(DS1-DC)*%
X109230000Y-93510000D03*
%TO.P,DS2,6,CS_6*%
%TO.N,Net-(DS2-CS)*%
X106690000Y-93510000D03*
%TO.P,DS2,7,RST_7*%
%TO.N,Net-(DS1-RST)*%
X104150000Y-93510000D03*
%TD*%
D10*
%TO.P,DS1,1,VCC_1*%
%TO.N,+5V*%
X80407500Y-93530000D03*
D11*
%TO.P,DS1,2,GND_2*%
%TO.N,GND*%
X77867500Y-93530000D03*
%TO.P,DS1,3,SCL_3*%
%TO.N,Net-(DS1-SCL)*%
X75327500Y-93530000D03*
%TO.P,DS1,4,SDA_4*%
%TO.N,Net-(DS1-SDA)*%
X72787500Y-93530000D03*
%TO.P,DS1,5,DC_5*%
%TO.N,Net-(DS1-DC)*%
X70247500Y-93530000D03*
%TO.P,DS1,6,CS_6*%
%TO.N,Net-(DS1-CS)*%
X67707500Y-93530000D03*
%TO.P,DS1,7,RST_7*%
%TO.N,Net-(DS1-RST)*%
X65167500Y-93530000D03*
%TD*%
D14*
%TO.P,SW1,1,1_1*%
%TO.N,Net-(U2-GPIO_1)*%
X188920000Y-101030000D03*
X195420000Y-101030000D03*
%TO.P,SW1,2,2_2*%
%TO.N,Net-(U2-3V3)*%
X188920000Y-105530000D03*
X195420000Y-105530000D03*
%TD*%
D15*
%TO.P,U2,1,5V_1*%
%TO.N,+5V*%
X138610000Y-106050000D03*
D16*
%TO.P,U2,2,GND_2*%
%TO.N,GND*%
X138720000Y-103510000D03*
%TO.P,U2,3,3V3_3*%
%TO.N,Net-(U2-3V3)*%
X138720000Y-100970000D03*
%TO.P,U2,4,GPIO_13_4*%
%TO.N,Net-(DS1-RST)*%
X138720000Y-98390000D03*
%TO.P,U2,5,GPIO_12_5*%
%TO.N,Net-(DS1-SCL)*%
X138720000Y-95890000D03*
%TO.P,U2,6,GPIO_11_6*%
%TO.N,Net-(DS1-SDA)*%
X138720000Y-93350000D03*
%TO.P,U2,7,GPIO_10_7*%
%TO.N,/SW3*%
X138720000Y-90810000D03*
%TO.P,U2,8,GPIO_9_8*%
%TO.N,Net-(DS1-DC)*%
X138720000Y-88270000D03*
%TO.P,U2,9,GPIO_8_9*%
%TO.N,Net-(DS5-CS)*%
X138720000Y-85730000D03*
%TO.P,U2,10,GPIO_7_10*%
%TO.N,Net-(DS4-CS)*%
X123480000Y-85730000D03*
%TO.P,U2,11,GPIO_6_11*%
%TO.N,Net-(DS3-CS)*%
X123480000Y-88270000D03*
%TO.P,U2,12,GPIO_5_12*%
%TO.N,Net-(DS2-CS)*%
X123480000Y-90810000D03*
%TO.P,U2,13,GPIO_4_13*%
%TO.N,Net-(DS1-CS)*%
X123480000Y-93350000D03*
%TO.P,U2,14,GPIO_3_14*%
%TO.N,unconnected-(U2-GPIO_3-Pad14)*%
X123480000Y-95890000D03*
%TO.P,U2,15,GPIO_2_15*%
%TO.N,Net-(U2-GPIO_2)*%
X123480000Y-98430000D03*
%TO.P,U2,16,GPIO_1_16*%
%TO.N,Net-(U2-GPIO_1)*%
X123480000Y-100970000D03*
%TO.P,U2,17,RX_17*%
%TO.N,unconnected-(U2-RX-Pad17)*%
X123480000Y-103510000D03*
%TO.P,U2,18,TX_18*%
%TO.N,unconnected-(U2-TX-Pad18)*%
X123440000Y-105932895D03*
%TD*%
D17*
%TO.N,+5V*%
X80407500Y-98077300D03*
%TO.N,GND*%
X77867500Y-100705000D03*
X161355400Y-94560100D03*
D18*
%TO.N,Net-(DS1-SCL)*%
X192281600Y-96491500D03*
X231260000Y-96789700D03*
%TO.N,Net-(DS1-SDA)*%
X195335300Y-96024800D03*
X230216500Y-96147200D03*
%TO.N,Net-(DS1-DC)*%
X217696400Y-89336200D03*
X109230000Y-95866700D03*
X187200000Y-88270000D03*
%TO.N,Net-(DS4-CS)*%
X124604300Y-92078500D03*
X184660000Y-91768900D03*
%TO.N,Net-(DS1-RST)*%
X182120000Y-91267300D03*
X104150000Y-97160000D03*
X149421700Y-91162800D03*
%TO.N,Net-(DS1-CS)*%
X119330000Y-89200000D03*
X67707500Y-89200000D03*
%TO.N,/SW3*%
X136500000Y-97000000D03*
%TD*%
%TO.N,+5V*%
D19*
X119390000Y-93510000D02*
X120666700Y-93510000D01*
X145860000Y-106050000D02*
X158430000Y-93480000D01*
X116220000Y-100110000D02*
X119390000Y-96940000D01*
X128539300Y-97160000D02*
X123040000Y-97160000D01*
X137429300Y-106050000D02*
X128539300Y-97160000D01*
X138610000Y-106050000D02*
X137429300Y-106050000D01*
X119390000Y-96940000D02*
X119390000Y-93510000D01*
X123040000Y-97160000D02*
X120666700Y-94786700D01*
X120666700Y-94786700D02*
X120666700Y-93510000D01*
X138610000Y-106050000D02*
X145860000Y-106050000D01*
X80407500Y-93530000D02*
X80407500Y-98077300D01*
%TO.N,GND*%
X77867500Y-94806700D02*
X77867500Y-100705000D01*
X113720000Y-97916700D02*
X116850000Y-94786700D01*
X155890000Y-93480000D02*
X145860000Y-103510000D01*
X116850000Y-93510000D02*
X116850000Y-94786700D01*
X77867500Y-93530000D02*
X77867500Y-94806700D01*
X145860000Y-103510000D02*
X138720000Y-103510000D01*
X157166700Y-92203300D02*
X159527400Y-92203300D01*
X161355400Y-94031300D02*
X161355400Y-94560100D01*
X155890000Y-93480000D02*
X157166700Y-92203300D01*
X159527400Y-92203300D02*
X161355400Y-94031300D01*
X113720000Y-100110000D02*
X113720000Y-97916700D01*
%TO.N,Net-(DS1-SCL)*%
D20*
X192280000Y-96489900D02*
X192281600Y-96491500D01*
X192280000Y-93540000D02*
X192280000Y-96489900D01*
X231260000Y-93540000D02*
X231260000Y-94691700D01*
X231260000Y-94691700D02*
X231260000Y-96789700D01*
%TO.N,Net-(DS1-SDA)*%
X189740000Y-93540000D02*
X189740000Y-94834800D01*
X192046300Y-97141100D02*
X194219000Y-97141100D01*
X189740000Y-94834800D02*
X192046300Y-97141100D01*
X230216500Y-96147200D02*
X228761000Y-94691700D01*
X194219000Y-97141100D02*
X195335300Y-96024800D01*
X228761000Y-94691700D02*
X228720000Y-94691700D01*
X228720000Y-93540000D02*
X228720000Y-94691700D01*
%TO.N,Net-(DS1-DC)*%
X225028300Y-93540000D02*
X225028300Y-93252100D01*
X225028300Y-93252100D02*
X221112400Y-89336200D01*
X147118300Y-93211500D02*
X147118300Y-93480000D01*
X187200000Y-93540000D02*
X187200000Y-88270000D01*
X109230000Y-93510000D02*
X109230000Y-95866700D01*
X148270000Y-93480000D02*
X147118300Y-93480000D01*
X142176800Y-88270000D02*
X147118300Y-93211500D01*
X221112400Y-89336200D02*
X217696400Y-89336200D01*
X226180000Y-93540000D02*
X225028300Y-93540000D01*
X138720000Y-88270000D02*
X142176800Y-88270000D01*
%TO.N,Net-(DS4-CS)*%
X124604300Y-90360000D02*
X124604300Y-92078500D01*
X122424300Y-88710900D02*
X123111800Y-89398400D01*
X122424300Y-86785700D02*
X122424300Y-88710900D01*
X123480000Y-85730000D02*
X122424300Y-86785700D01*
X123111800Y-89398400D02*
X123642700Y-89398400D01*
X123642700Y-89398400D02*
X124604300Y-90360000D01*
X184660000Y-92388300D02*
X184660000Y-91768900D01*
X184660000Y-93540000D02*
X184660000Y-92388300D01*
%TO.N,Net-(DS1-RST)*%
X149421700Y-94023800D02*
X149421700Y-91162800D01*
X182120000Y-93540000D02*
X182120000Y-92388300D01*
X142478300Y-94631700D02*
X143190000Y-94631700D01*
X182120000Y-92388300D02*
X182120000Y-91267300D01*
X148813800Y-94631700D02*
X149421700Y-94023800D01*
X143190000Y-94631700D02*
X148813800Y-94631700D01*
X143190000Y-93480000D02*
X143190000Y-94631700D01*
X138720000Y-98390000D02*
X142478300Y-94631700D01*
X104150000Y-93510000D02*
X104150000Y-97160000D01*
%TO.N,Net-(DS3-CS)*%
X144578300Y-93211500D02*
X141054800Y-89688000D01*
X144578300Y-93480000D02*
X144578300Y-93211500D01*
X124898000Y-89688000D02*
X123480000Y-88270000D01*
X145730000Y-93480000D02*
X144578300Y-93480000D01*
X141054800Y-89688000D02*
X124898000Y-89688000D01*
%TO.N,Net-(DS1-CS)*%
X123480000Y-93350000D02*
X119330000Y-89200000D01*
X67707500Y-93530000D02*
X67707500Y-89200000D01*
%TO.N,/SW3*%
X136500000Y-97000000D02*
X136500000Y-91500000D01*
X137190000Y-90810000D02*
X138720000Y-90810000D01*
X136500000Y-91500000D02*
X137190000Y-90810000D01*
%TD*%
%TA.AperFunction,Conductor*%
%TO.N,GND*%
G36*
X125337535Y-79850944D02*
G01*
X125404550Y-79870709D01*
X125450241Y-79923568D01*
X125461288Y-79979839D01*
X125339999Y-83049995D01*
X125309999Y-88589999D01*
X125310000Y-88589998D01*
X125310000Y-88590000D01*
X137150000Y-88570000D01*
X137144737Y-85828937D01*
X137715499Y-85828937D01*
X137754101Y-86022996D01*
X137754104Y-86023006D01*
X137829820Y-86205802D01*
X137829827Y-86205815D01*
X137939753Y-86370330D01*
X137939756Y-86370334D01*
X138079665Y-86510243D01*
X138079669Y-86510246D01*
X138244184Y-86620172D01*
X138244197Y-86620179D01*
X138426993Y-86695895D01*
X138426998Y-86695897D01*
X138427002Y-86695897D01*
X138427003Y-86695898D01*
X138621062Y-86734500D01*
X138621065Y-86734500D01*
X138818937Y-86734500D01*
X138949495Y-86708529D01*
X139013002Y-86695897D01*
X139195809Y-86620176D01*
X139360331Y-86510246D01*
X139500246Y-86370331D01*
X139610176Y-86205809D01*
X139685897Y-86023002D01*
X139724500Y-85828935D01*
X139724500Y-85631065D01*
X139724500Y-85631062D01*
X139685898Y-85437003D01*
X139685897Y-85437002D01*
X139685897Y-85436998D01*
X139685895Y-85436993D01*
X139610179Y-85254197D01*
X139610172Y-85254184D01*
X139500246Y-85089669D01*
X139500243Y-85089665D01*
X139360334Y-84949756D01*
X139360330Y-84949753D01*
X139195815Y-84839827D01*
X139195802Y-84839820D01*
X139013006Y-84764104D01*
X139012996Y-84764101D01*
X138818937Y-84725500D01*
X138818935Y-84725500D01*
X138621065Y-84725500D01*
X138621063Y-84725500D01*
X138427003Y-84764101D01*
X138426993Y-84764104D01*
X138244197Y-84839820D01*
X138244184Y-84839827D01*
X138079669Y-84949753D01*
X138079665Y-84949756D01*
X137939756Y-85089665D01*
X137939753Y-85089669D01*
X137829827Y-85254184D01*
X137829820Y-85254197D01*
X137754104Y-85436993D01*
X137754101Y-85437003D01*
X137715500Y-85631062D01*
X137715500Y-85631065D01*
X137715500Y-85828935D01*
X137715500Y-85828937D01*
X137715499Y-85828937D01*
X137144737Y-85828937D01*
X137133526Y-79989487D01*
X137153081Y-79922415D01*
X137205797Y-79876559D01*
X137257672Y-79865254D01*
X246648421Y-79996576D01*
X246715435Y-80016341D01*
X246761126Y-80069200D01*
X246770987Y-80138370D01*
X246741885Y-80201891D01*
X246683062Y-80239595D01*
X246680364Y-80240351D01*
X246507367Y-80286705D01*
X246252982Y-80392075D01*
X246252971Y-80392080D01*
X246014516Y-80529754D01*
X245796073Y-80697370D01*
X245796066Y-80697376D01*
X245601376Y-80892066D01*
X245601370Y-80892073D01*
X245433754Y-81110516D01*
X245296080Y-81348971D01*
X245296075Y-81348982D01*
X245190704Y-81603369D01*
X245119441Y-81869331D01*
X245119438Y-81869344D01*
X245083501Y-82142315D01*
X245083500Y-82142332D01*
X245083500Y-82417667D01*
X245083501Y-82417684D01*
X245119438Y-82690655D01*
X245119439Y-82690660D01*
X245119440Y-82690666D01*
X245119441Y-82690668D01*
X245190704Y-82956630D01*
X245296075Y-83211017D01*
X245296080Y-83211028D01*
X245375809Y-83349121D01*
X245433751Y-83449479D01*
X245433753Y-83449482D01*
X245433754Y-83449483D01*
X245601370Y-83667926D01*
X245601376Y-83667933D01*
X245796066Y-83862623D01*
X245796072Y-83862628D01*
X246014521Y-84030249D01*
X246167778Y-84118732D01*
X246252971Y-84167919D01*
X246252976Y-84167921D01*
X246252979Y-84167923D01*
X246507368Y-84273295D01*
X246773334Y-84344560D01*
X247046326Y-84380500D01*
X247046333Y-84380500D01*
X247321667Y-84380500D01*
X247321674Y-84380500D01*
X247594666Y-84344560D01*
X247860632Y-84273295D01*
X248115021Y-84167923D01*
X248353479Y-84030249D01*
X248571928Y-83862628D01*
X248766628Y-83667928D01*
X248934249Y-83449479D01*
X249071923Y-83211021D01*
X249177295Y-82956632D01*
X249248560Y-82690666D01*
X249253061Y-82656476D01*
X249281327Y-82592580D01*
X249339652Y-82554109D01*
X249409517Y-82553278D01*
X249468740Y-82590350D01*
X249498519Y-82653556D01*
X249500000Y-82672662D01*
X249500000Y-104387337D01*
X249480315Y-104454376D01*
X249427511Y-104500131D01*
X249358353Y-104510075D01*
X249294797Y-104481050D01*
X249257023Y-104422272D01*
X249253061Y-104403523D01*
X249250930Y-104387337D01*
X249248560Y-104369334D01*
X249177295Y-104103368D01*
X249071923Y-103848979D01*
X249071921Y-103848976D01*
X249071919Y-103848971D01*
X249022732Y-103763778D01*
X248934249Y-103610521D01*
X248781202Y-103411065D01*
X248766629Y-103392073D01*
X248766623Y-103392066D01*
X248571933Y-103197376D01*
X248571926Y-103197370D01*
X248353483Y-103029754D01*
X248353482Y-103029753D01*
X248353479Y-103029751D01*
X248258407Y-102974861D01*
X248115028Y-102892080D01*
X248115017Y-102892075D01*
X247860630Y-102786704D01*
X247727649Y-102751072D01*
X247594666Y-102715440D01*
X247594660Y-102715439D01*
X247594655Y-102715438D01*
X247321684Y-102679501D01*
X247321679Y-102679500D01*
X247321674Y-102679500D01*
X247046326Y-102679500D01*
X247046320Y-102679500D01*
X247046315Y-102679501D01*
X246773344Y-102715438D01*
X246773337Y-102715439D01*
X246773334Y-102715440D01*
X246719917Y-102729753D01*
X246507369Y-102786704D01*
X246252982Y-102892075D01*
X246252971Y-102892080D01*
X246014516Y-103029754D01*
X245796073Y-103197370D01*
X245796066Y-103197376D01*
X245601376Y-103392066D01*
X245601370Y-103392073D01*
X245433754Y-103610516D01*
X245296080Y-103848971D01*
X245296075Y-103848982D01*
X245190704Y-104103369D01*
X245119441Y-104369331D01*
X245119438Y-104369344D01*
X245083501Y-104642315D01*
X245083500Y-104642332D01*
X245083500Y-104917667D01*
X245083501Y-104917684D01*
X245119438Y-105190655D01*
X245119439Y-105190660D01*
X245119440Y-105190666D01*
X245141052Y-105271323D01*
X245190704Y-105456630D01*
X245296075Y-105711017D01*
X245296080Y-105711028D01*
X245360628Y-105822826D01*
X245433751Y-105949479D01*
X245433753Y-105949482D01*
X245433754Y-105949483D01*
X245601370Y-106167926D01*
X245601376Y-106167933D01*
X245796066Y-106362623D01*
X245796073Y-106362629D01*
X245890917Y-106435405D01*
X246014521Y-106530249D01*
X246150624Y-106608828D01*
X246252971Y-106667919D01*
X246252976Y-106667921D01*
X246252979Y-106667923D01*
X246478746Y-106761439D01*
X246533149Y-106805280D01*
X246555214Y-106871574D01*
X246537935Y-106939273D01*
X246486798Y-106986884D01*
X246431293Y-107000000D01*
X224499925Y-107000000D01*
X224432886Y-106980315D01*
X224387131Y-106927511D01*
X224377187Y-106858353D01*
X224406212Y-106794797D01*
X224427039Y-106775682D01*
X224484646Y-106733828D01*
X224623828Y-106594646D01*
X224739524Y-106435405D01*
X224828884Y-106260025D01*
X224889709Y-106072826D01*
X224899656Y-106010025D01*
X224920500Y-105878422D01*
X224920500Y-105681577D01*
X224889709Y-105487173D01*
X224828882Y-105299970D01*
X224764015Y-105172662D01*
X224739524Y-105124595D01*
X224623828Y-104965354D01*
X224484646Y-104826172D01*
X224325405Y-104710476D01*
X224292547Y-104693734D01*
X224150029Y-104621117D01*
X223962826Y-104560290D01*
X223768422Y-104529500D01*
X223768417Y-104529500D01*
X223571583Y-104529500D01*
X223571578Y-104529500D01*
X223377173Y-104560290D01*
X223189970Y-104621117D01*
X223014594Y-104710476D01*
X222983424Y-104733123D01*
X222855354Y-104826172D01*
X222855352Y-104826174D01*
X222855351Y-104826174D01*
X222716174Y-104965351D01*
X222716174Y-104965352D01*
X222716172Y-104965354D01*
X222666485Y-105033741D01*
X222600476Y-105124594D01*
X222511117Y-105299970D01*
X222450290Y-105487173D01*
X222419500Y-105681577D01*
X222419500Y-105878422D01*
X222450290Y-106072826D01*
X222511117Y-106260029D01*
X222577588Y-106390485D01*
X222600476Y-106435405D01*
X222716172Y-106594646D01*
X222855354Y-106733828D01*
X222912961Y-106775682D01*
X222955627Y-106831013D01*
X222961605Y-106900626D01*
X222928999Y-106962421D01*
X222868160Y-106996778D01*
X222840075Y-107000000D01*
X217999925Y-107000000D01*
X217932886Y-106980315D01*
X217887131Y-106927511D01*
X217877187Y-106858353D01*
X217906212Y-106794797D01*
X217927039Y-106775682D01*
X217984646Y-106733828D01*
X218123828Y-106594646D01*
X218239524Y-106435405D01*
X218328884Y-106260025D01*
X218389709Y-106072826D01*
X218399656Y-106010025D01*
X218420500Y-105878422D01*
X218420500Y-105681577D01*
X218389709Y-105487173D01*
X218328882Y-105299970D01*
X218264015Y-105172662D01*
X218239524Y-105124595D01*
X218123828Y-104965354D01*
X217984646Y-104826172D01*
X217825405Y-104710476D01*
X217792547Y-104693734D01*
X217650029Y-104621117D01*
X217462826Y-104560290D01*
X217268422Y-104529500D01*
X217268417Y-104529500D01*
X217071583Y-104529500D01*
X217071578Y-104529500D01*
X216877173Y-104560290D01*
X216689970Y-104621117D01*
X216514594Y-104710476D01*
X216483424Y-104733123D01*
X216355354Y-104826172D01*
X216355352Y-104826174D01*
X216355351Y-104826174D01*
X216216174Y-104965351D01*
X216216174Y-104965352D01*
X216216172Y-104965354D01*
X216166485Y-105033741D01*
X216100476Y-105124594D01*
X216011117Y-105299970D01*
X215950290Y-105487173D01*
X215919500Y-105681577D01*
X215919500Y-105878422D01*
X215950290Y-106072826D01*
X216011117Y-106260029D01*
X216077588Y-106390485D01*
X216100476Y-106435405D01*
X216216172Y-106594646D01*
X216355354Y-106733828D01*
X216412961Y-106775682D01*
X216455627Y-106831013D01*
X216461605Y-106900626D01*
X216428999Y-106962421D01*
X216368160Y-106996778D01*
X216340075Y-107000000D01*
X210176250Y-107000000D01*
X210109211Y-106980315D01*
X210063456Y-106927511D01*
X210053512Y-106858353D01*
X210082537Y-106794797D01*
X210119955Y-106765515D01*
X210200405Y-106724524D01*
X210359646Y-106608828D01*
X210498828Y-106469646D01*
X210614524Y-106310405D01*
X210703884Y-106135025D01*
X210764709Y-105947826D01*
X210795500Y-105753422D01*
X210795500Y-105556577D01*
X210764709Y-105362173D01*
X210708982Y-105190666D01*
X210703884Y-105174975D01*
X210703882Y-105174972D01*
X210703882Y-105174970D01*
X210645319Y-105060034D01*
X210614524Y-104999595D01*
X210498828Y-104840354D01*
X210359646Y-104701172D01*
X210200405Y-104585476D01*
X210025029Y-104496117D01*
X209837826Y-104435290D01*
X209643422Y-104404500D01*
X209643417Y-104404500D01*
X209446583Y-104404500D01*
X209446578Y-104404500D01*
X209252173Y-104435290D01*
X209064970Y-104496117D01*
X208889594Y-104585476D01*
X208811363Y-104642315D01*
X208730354Y-104701172D01*
X208730352Y-104701174D01*
X208730351Y-104701174D01*
X208591174Y-104840351D01*
X208591174Y-104840352D01*
X208591172Y-104840354D01*
X208541485Y-104908741D01*
X208475476Y-104999594D01*
X208386117Y-105174970D01*
X208325290Y-105362173D01*
X208294500Y-105556577D01*
X208294500Y-105753422D01*
X208325290Y-105947826D01*
X208386117Y-106135029D01*
X208432414Y-106225891D01*
X208475476Y-106310405D01*
X208591172Y-106469646D01*
X208730354Y-106608828D01*
X208889595Y-106724524D01*
X208962045Y-106761439D01*
X208970045Y-106765515D01*
X209020841Y-106813489D01*
X209037636Y-106881310D01*
X209015099Y-106947445D01*
X208960384Y-106990897D01*
X208913750Y-107000000D01*
X203676250Y-107000000D01*
X203609211Y-106980315D01*
X203563456Y-106927511D01*
X203553512Y-106858353D01*
X203582537Y-106794797D01*
X203619955Y-106765515D01*
X203700405Y-106724524D01*
X203859646Y-106608828D01*
X203998828Y-106469646D01*
X204114524Y-106310405D01*
X204203884Y-106135025D01*
X204264709Y-105947826D01*
X204295500Y-105753422D01*
X204295500Y-105556577D01*
X204264709Y-105362173D01*
X204208982Y-105190666D01*
X204203884Y-105174975D01*
X204203882Y-105174972D01*
X204203882Y-105174970D01*
X204145319Y-105060034D01*
X204114524Y-104999595D01*
X203998828Y-104840354D01*
X203859646Y-104701172D01*
X203700405Y-104585476D01*
X203525029Y-104496117D01*
X203337826Y-104435290D01*
X203143422Y-104404500D01*
X203143417Y-104404500D01*
X202946583Y-104404500D01*
X202946578Y-104404500D01*
X202752173Y-104435290D01*
X202564970Y-104496117D01*
X202389594Y-104585476D01*
X202311363Y-104642315D01*
X202230354Y-104701172D01*
X202230352Y-104701174D01*
X202230351Y-104701174D01*
X202091174Y-104840351D01*
X202091174Y-104840352D01*
X202091172Y-104840354D01*
X202041485Y-104908741D01*
X201975476Y-104999594D01*
X201886117Y-105174970D01*
X201825290Y-105362173D01*
X201794500Y-105556577D01*
X201794500Y-105753422D01*
X201825290Y-105947826D01*
X201886117Y-106135029D01*
X201932414Y-106225891D01*
X201975476Y-106310405D01*
X202091172Y-106469646D01*
X202230354Y-106608828D01*
X202389595Y-106724524D01*
X202462045Y-106761439D01*
X202470045Y-106765515D01*
X202520841Y-106813489D01*
X202537636Y-106881310D01*
X202515099Y-106947445D01*
X202460384Y-106990897D01*
X202413750Y-107000000D01*
X195708119Y-107000000D01*
X195641080Y-106980315D01*
X195595325Y-106927511D01*
X195585381Y-106858353D01*
X195614406Y-106794797D01*
X195673184Y-106757023D01*
X195688721Y-106753527D01*
X195712826Y-106749709D01*
X195761702Y-106733828D01*
X195900025Y-106688884D01*
X196075405Y-106599524D01*
X196234646Y-106483828D01*
X196373828Y-106344646D01*
X196489524Y-106185405D01*
X196578884Y-106010025D01*
X196639709Y-105822826D01*
X196670500Y-105628422D01*
X196670500Y-105431577D01*
X196639709Y-105237173D01*
X196592727Y-105092580D01*
X196578884Y-105049975D01*
X196578882Y-105049972D01*
X196578882Y-105049970D01*
X196511479Y-104917684D01*
X196489524Y-104874595D01*
X196373828Y-104715354D01*
X196234646Y-104576172D01*
X196075405Y-104460476D01*
X196063433Y-104454376D01*
X195900029Y-104371117D01*
X195712826Y-104310290D01*
X195518422Y-104279500D01*
X195518417Y-104279500D01*
X195321583Y-104279500D01*
X195321578Y-104279500D01*
X195127173Y-104310290D01*
X194939970Y-104371117D01*
X194764594Y-104460476D01*
X194696328Y-104510075D01*
X194605354Y-104576172D01*
X194605352Y-104576174D01*
X194605351Y-104576174D01*
X194466174Y-104715351D01*
X194466174Y-104715352D01*
X194466172Y-104715354D01*
X194416485Y-104783741D01*
X194350476Y-104874594D01*
X194261117Y-105049970D01*
X194200290Y-105237173D01*
X194169500Y-105431577D01*
X194169500Y-105628422D01*
X194200290Y-105822826D01*
X194261117Y-106010029D01*
X194324806Y-106135025D01*
X194350476Y-106185405D01*
X194466172Y-106344646D01*
X194605354Y-106483828D01*
X194764595Y-106599524D01*
X194847455Y-106641743D01*
X194939970Y-106688882D01*
X194939972Y-106688882D01*
X194939975Y-106688884D01*
X195014621Y-106713138D01*
X195127173Y-106749709D01*
X195151279Y-106753527D01*
X195214414Y-106783456D01*
X195251345Y-106842768D01*
X195250347Y-106912630D01*
X195211737Y-106970863D01*
X195147774Y-106998977D01*
X195131881Y-107000000D01*
X189208119Y-107000000D01*
X189141080Y-106980315D01*
X189095325Y-106927511D01*
X189085381Y-106858353D01*
X189114406Y-106794797D01*
X189173184Y-106757023D01*
X189188721Y-106753527D01*
X189212826Y-106749709D01*
X189261702Y-106733828D01*
X189400025Y-106688884D01*
X189575405Y-106599524D01*
X189734646Y-106483828D01*
X189873828Y-106344646D01*
X189989524Y-106185405D01*
X190078884Y-106010025D01*
X190139709Y-105822826D01*
X190170500Y-105628422D01*
X190170500Y-105431577D01*
X190139709Y-105237173D01*
X190092727Y-105092580D01*
X190078884Y-105049975D01*
X190078882Y-105049972D01*
X190078882Y-105049970D01*
X190011479Y-104917684D01*
X189989524Y-104874595D01*
X189873828Y-104715354D01*
X189734646Y-104576172D01*
X189575405Y-104460476D01*
X189563433Y-104454376D01*
X189400029Y-104371117D01*
X189212826Y-104310290D01*
X189018422Y-104279500D01*
X189018417Y-104279500D01*
X188821583Y-104279500D01*
X188821578Y-104279500D01*
X188627173Y-104310290D01*
X188439970Y-104371117D01*
X188264594Y-104460476D01*
X188196328Y-104510075D01*
X188105354Y-104576172D01*
X188105352Y-104576174D01*
X188105351Y-104576174D01*
X187966174Y-104715351D01*
X187966174Y-104715352D01*
X187966172Y-104715354D01*
X187916485Y-104783741D01*
X187850476Y-104874594D01*
X187761117Y-105049970D01*
X187700290Y-105237173D01*
X187669500Y-105431577D01*
X187669500Y-105628422D01*
X187700290Y-105822826D01*
X187761117Y-106010029D01*
X187824806Y-106135025D01*
X187850476Y-106185405D01*
X187966172Y-106344646D01*
X188105354Y-106483828D01*
X188264595Y-106599524D01*
X188347455Y-106641743D01*
X188439970Y-106688882D01*
X188439972Y-106688882D01*
X188439975Y-106688884D01*
X188514621Y-106713138D01*
X188627173Y-106749709D01*
X188651279Y-106753527D01*
X188714414Y-106783456D01*
X188751345Y-106842768D01*
X188750347Y-106912630D01*
X188711737Y-106970863D01*
X188647774Y-106998977D01*
X188631881Y-107000000D01*
X139731516Y-107000000D01*
X139664477Y-106980315D01*
X139618722Y-106927511D01*
X139608778Y-106858353D01*
X139609899Y-106851809D01*
X139614499Y-106828678D01*
X139614500Y-106828676D01*
X139614500Y-106599500D01*
X139634185Y-106532461D01*
X139686989Y-106486706D01*
X139738500Y-106475500D01*
X145916016Y-106475500D01*
X145916018Y-106475500D01*
X146024237Y-106446503D01*
X146121263Y-106390485D01*
X151580171Y-100931577D01*
X187669500Y-100931577D01*
X187669500Y-101128422D01*
X187700290Y-101322826D01*
X187761117Y-101510029D01*
X187824806Y-101635025D01*
X187850476Y-101685405D01*
X187966172Y-101844646D01*
X188105354Y-101983828D01*
X188264595Y-102099524D01*
X188347455Y-102141743D01*
X188439970Y-102188882D01*
X188439972Y-102188882D01*
X188439975Y-102188884D01*
X188540317Y-102221487D01*
X188627173Y-102249709D01*
X188821578Y-102280500D01*
X188821583Y-102280500D01*
X189018422Y-102280500D01*
X189212826Y-102249709D01*
X189261702Y-102233828D01*
X189400025Y-102188884D01*
X189575405Y-102099524D01*
X189734646Y-101983828D01*
X189873828Y-101844646D01*
X189989524Y-101685405D01*
X190078884Y-101510025D01*
X190139709Y-101322826D01*
X190140987Y-101314755D01*
X190170500Y-101128422D01*
X190170500Y-100931577D01*
X194169500Y-100931577D01*
X194169500Y-101128422D01*
X194200290Y-101322826D01*
X194261117Y-101510029D01*
X194324806Y-101635025D01*
X194350476Y-101685405D01*
X194466172Y-101844646D01*
X194605354Y-101983828D01*
X194764595Y-102099524D01*
X194847455Y-102141743D01*
X194939970Y-102188882D01*
X194939972Y-102188882D01*
X194939975Y-102188884D01*
X195040317Y-102221487D01*
X195127173Y-102249709D01*
X195321578Y-102280500D01*
X195321583Y-102280500D01*
X195518422Y-102280500D01*
X195712826Y-102249709D01*
X195761702Y-102233828D01*
X195900025Y-102188884D01*
X196075405Y-102099524D01*
X196234646Y-101983828D01*
X196373828Y-101844646D01*
X196489524Y-101685405D01*
X196578884Y-101510025D01*
X196639709Y-101322826D01*
X196640987Y-101314755D01*
X196670500Y-101128422D01*
X196670500Y-101056577D01*
X201794500Y-101056577D01*
X201794500Y-101253422D01*
X201825290Y-101447826D01*
X201886117Y-101635029D01*
X201949806Y-101760025D01*
X201975476Y-101810405D01*
X202091172Y-101969646D01*
X202230354Y-102108828D01*
X202389595Y-102224524D01*
X202439024Y-102249709D01*
X202564970Y-102313882D01*
X202564972Y-102313882D01*
X202564975Y-102313884D01*
X202665317Y-102346487D01*
X202752173Y-102374709D01*
X202946578Y-102405500D01*
X202946583Y-102405500D01*
X203143422Y-102405500D01*
X203337826Y-102374709D01*
X203525025Y-102313884D01*
X203700405Y-102224524D01*
X203859646Y-102108828D01*
X203998828Y-101969646D01*
X204114524Y-101810405D01*
X204203884Y-101635025D01*
X204264709Y-101447826D01*
X204270700Y-101410000D01*
X204295500Y-101253422D01*
X204295500Y-101056577D01*
X208294500Y-101056577D01*
X208294500Y-101253422D01*
X208325290Y-101447826D01*
X208386117Y-101635029D01*
X208449806Y-101760025D01*
X208475476Y-101810405D01*
X208591172Y-101969646D01*
X208730354Y-102108828D01*
X208889595Y-102224524D01*
X208939024Y-102249709D01*
X209064970Y-102313882D01*
X209064972Y-102313882D01*
X209064975Y-102313884D01*
X209165317Y-102346487D01*
X209252173Y-102374709D01*
X209446578Y-102405500D01*
X209446583Y-102405500D01*
X209643422Y-102405500D01*
X209837826Y-102374709D01*
X210025025Y-102313884D01*
X210200405Y-102224524D01*
X210359646Y-102108828D01*
X210498828Y-101969646D01*
X210614524Y-101810405D01*
X210703884Y-101635025D01*
X210764709Y-101447826D01*
X210770700Y-101410000D01*
X210795500Y-101253422D01*
X210795500Y-101181577D01*
X215919500Y-101181577D01*
X215919500Y-101378422D01*
X215950290Y-101572826D01*
X216011117Y-101760029D01*
X216100476Y-101935405D01*
X216216172Y-102094646D01*
X216355354Y-102233828D01*
X216514595Y-102349524D01*
X216564024Y-102374709D01*
X216689970Y-102438882D01*
X216689972Y-102438882D01*
X216689975Y-102438884D01*
X216790317Y-102471487D01*
X216877173Y-102499709D01*
X217071578Y-102530500D01*
X217071583Y-102530500D01*
X217268422Y-102530500D01*
X217462826Y-102499709D01*
X217650025Y-102438884D01*
X217825405Y-102349524D01*
X217984646Y-102233828D01*
X218123828Y-102094646D01*
X218239524Y-101935405D01*
X218328884Y-101760025D01*
X218389709Y-101572826D01*
X218409507Y-101447826D01*
X218420500Y-101378422D01*
X218420500Y-101181577D01*
X222419500Y-101181577D01*
X222419500Y-101378422D01*
X222450290Y-101572826D01*
X222511117Y-101760029D01*
X222600476Y-101935405D01*
X222716172Y-102094646D01*
X222855354Y-102233828D01*
X223014595Y-102349524D01*
X223064024Y-102374709D01*
X223189970Y-102438882D01*
X223189972Y-102438882D01*
X223189975Y-102438884D01*
X223290317Y-102471487D01*
X223377173Y-102499709D01*
X223571578Y-102530500D01*
X223571583Y-102530500D01*
X223768422Y-102530500D01*
X223962826Y-102499709D01*
X224150025Y-102438884D01*
X224325405Y-102349524D01*
X224484646Y-102233828D01*
X224623828Y-102094646D01*
X224739524Y-101935405D01*
X224828884Y-101760025D01*
X224889709Y-101572826D01*
X224909507Y-101447826D01*
X224920500Y-101378422D01*
X224920500Y-101181577D01*
X224889709Y-100987173D01*
X224840564Y-100835922D01*
X224828884Y-100799975D01*
X224828882Y-100799972D01*
X224828882Y-100799970D01*
X224765191Y-100674970D01*
X224739524Y-100624595D01*
X224623828Y-100465354D01*
X224484646Y-100326172D01*
X224325405Y-100210476D01*
X224307145Y-100201172D01*
X224150029Y-100121117D01*
X223962826Y-100060290D01*
X223768422Y-100029500D01*
X223768417Y-100029500D01*
X223571583Y-100029500D01*
X223571578Y-100029500D01*
X223377173Y-100060290D01*
X223189970Y-100121117D01*
X223014594Y-100210476D01*
X222923741Y-100276485D01*
X222855354Y-100326172D01*
X222855352Y-100326174D01*
X222855351Y-100326174D01*
X222716174Y-100465351D01*
X222716174Y-100465352D01*
X222716172Y-100465354D01*
X222683735Y-100510000D01*
X222600476Y-100624594D01*
X222511117Y-100799970D01*
X222450290Y-100987173D01*
X222419500Y-101181577D01*
X218420500Y-101181577D01*
X218389709Y-100987173D01*
X218340564Y-100835922D01*
X218328884Y-100799975D01*
X218328882Y-100799972D01*
X218328882Y-100799970D01*
X218265191Y-100674970D01*
X218239524Y-100624595D01*
X218123828Y-100465354D01*
X217984646Y-100326172D01*
X217825405Y-100210476D01*
X217807145Y-100201172D01*
X217650029Y-100121117D01*
X217462826Y-100060290D01*
X217268422Y-100029500D01*
X217268417Y-100029500D01*
X217071583Y-100029500D01*
X217071578Y-100029500D01*
X216877173Y-100060290D01*
X216689970Y-100121117D01*
X216514594Y-100210476D01*
X216423741Y-100276485D01*
X216355354Y-100326172D01*
X216355352Y-100326174D01*
X216355351Y-100326174D01*
X216216174Y-100465351D01*
X216216174Y-100465352D01*
X216216172Y-100465354D01*
X216183735Y-100510000D01*
X216100476Y-100624594D01*
X216011117Y-100799970D01*
X215950290Y-100987173D01*
X215919500Y-101181577D01*
X210795500Y-101181577D01*
X210795500Y-101056577D01*
X210764709Y-100862173D01*
X210733942Y-100767483D01*
X210703884Y-100674975D01*
X210703882Y-100674972D01*
X210703882Y-100674970D01*
X210622625Y-100515495D01*
X210614524Y-100499595D01*
X210498828Y-100340354D01*
X210359646Y-100201172D01*
X210200405Y-100085476D01*
X210189312Y-100079824D01*
X210025029Y-99996117D01*
X209837826Y-99935290D01*
X209643422Y-99904500D01*
X209643417Y-99904500D01*
X209446583Y-99904500D01*
X209446578Y-99904500D01*
X209252173Y-99935290D01*
X209064970Y-99996117D01*
X208889594Y-100085476D01*
X208798741Y-100151485D01*
X208730354Y-100201172D01*
X208730352Y-100201174D01*
X208730351Y-100201174D01*
X208591174Y-100340351D01*
X208591174Y-100340352D01*
X208591172Y-100340354D01*
X208541485Y-100408741D01*
X208475476Y-100499594D01*
X208386117Y-100674970D01*
X208325290Y-100862173D01*
X208294500Y-101056577D01*
X204295500Y-101056577D01*
X204264709Y-100862173D01*
X204233942Y-100767483D01*
X204203884Y-100674975D01*
X204203882Y-100674972D01*
X204203882Y-100674970D01*
X204122625Y-100515495D01*
X204114524Y-100499595D01*
X203998828Y-100340354D01*
X203859646Y-100201172D01*
X203700405Y-100085476D01*
X203689312Y-100079824D01*
X203525029Y-99996117D01*
X203337826Y-99935290D01*
X203143422Y-99904500D01*
X203143417Y-99904500D01*
X202946583Y-99904500D01*
X202946578Y-99904500D01*
X202752173Y-99935290D01*
X202564970Y-99996117D01*
X202389594Y-100085476D01*
X202298741Y-100151485D01*
X202230354Y-100201172D01*
X202230352Y-100201174D01*
X202230351Y-100201174D01*
X202091174Y-100340351D01*
X202091174Y-100340352D01*
X202091172Y-100340354D01*
X202041485Y-100408741D01*
X201975476Y-100499594D01*
X201886117Y-100674970D01*
X201825290Y-100862173D01*
X201794500Y-101056577D01*
X196670500Y-101056577D01*
X196670500Y-100931577D01*
X196639709Y-100737173D01*
X196598073Y-100609032D01*
X196578884Y-100549975D01*
X196578882Y-100549972D01*
X196578882Y-100549970D01*
X196489523Y-100374594D01*
X196373828Y-100215354D01*
X196234646Y-100076172D01*
X196075405Y-99960476D01*
X196065847Y-99955606D01*
X195900029Y-99871117D01*
X195712826Y-99810290D01*
X195518422Y-99779500D01*
X195518417Y-99779500D01*
X195321583Y-99779500D01*
X195321578Y-99779500D01*
X195127173Y-99810290D01*
X194939970Y-99871117D01*
X194764594Y-99960476D01*
X194699622Y-100007682D01*
X194605354Y-100076172D01*
X194605352Y-100076174D01*
X194605351Y-100076174D01*
X194466174Y-100215351D01*
X194466174Y-100215352D01*
X194466172Y-100215354D01*
X194430542Y-100264394D01*
X194350476Y-100374594D01*
X194261117Y-100549970D01*
X194200290Y-100737173D01*
X194169500Y-100931577D01*
X190170500Y-100931577D01*
X190139709Y-100737173D01*
X190098073Y-100609032D01*
X190078884Y-100549975D01*
X190078882Y-100549972D01*
X190078882Y-100549970D01*
X189989523Y-100374594D01*
X189873828Y-100215354D01*
X189734646Y-100076172D01*
X189575405Y-99960476D01*
X189565847Y-99955606D01*
X189400029Y-99871117D01*
X189212826Y-99810290D01*
X189018422Y-99779500D01*
X189018417Y-99779500D01*
X188821583Y-99779500D01*
X188821578Y-99779500D01*
X188627173Y-99810290D01*
X188439970Y-99871117D01*
X188264594Y-99960476D01*
X188199622Y-100007682D01*
X188105354Y-100076172D01*
X188105352Y-100076174D01*
X188105351Y-100076174D01*
X187966174Y-100215351D01*
X187966174Y-100215352D01*
X187966172Y-100215354D01*
X187930542Y-100264394D01*
X187850476Y-100374594D01*
X187761117Y-100549970D01*
X187700290Y-100737173D01*
X187669500Y-100931577D01*
X151580171Y-100931577D01*
X157894929Y-94616819D01*
X157956252Y-94583334D01*
X157982610Y-94580500D01*
X159304676Y-94580500D01*
X159304677Y-94580499D01*
X159377740Y-94565966D01*
X159460601Y-94510601D01*
X159515966Y-94427740D01*
X159530500Y-94354674D01*
X159530500Y-93453389D01*
X181019500Y-93453389D01*
X181019500Y-93626610D01*
X181045013Y-93787697D01*
X181046598Y-93797701D01*
X181098749Y-93958205D01*
X181100128Y-93962447D01*
X181114337Y-93990334D01*
X181178768Y-94116788D01*
X181280586Y-94256928D01*
X181403072Y-94379414D01*
X181543212Y-94481232D01*
X181697555Y-94559873D01*
X181862299Y-94613402D01*
X182033389Y-94640500D01*
X182033390Y-94640500D01*
X182206610Y-94640500D01*
X182206611Y-94640500D01*
X182377701Y-94613402D01*
X182542445Y-94559873D01*
X182696788Y-94481232D01*
X182836928Y-94379414D01*
X182959414Y-94256928D01*
X183061232Y-94116788D01*
X183139873Y-93962445D01*
X183193402Y-93797701D01*
X183220500Y-93626611D01*
X183220500Y-93453389D01*
X183559500Y-93453389D01*
X183559500Y-93626610D01*
X183585013Y-93787697D01*
X183586598Y-93797701D01*
X183638749Y-93958205D01*
X183640128Y-93962447D01*
X183654337Y-93990334D01*
X183718768Y-94116788D01*
X183820586Y-94256928D01*
X183943072Y-94379414D01*
X184083212Y-94481232D01*
X184237555Y-94559873D01*
X184402299Y-94613402D01*
X184573389Y-94640500D01*
X184573390Y-94640500D01*
X184746610Y-94640500D01*
X184746611Y-94640500D01*
X184917701Y-94613402D01*
X185082445Y-94559873D01*
X185236788Y-94481232D01*
X185376928Y-94379414D01*
X185499414Y-94256928D01*
X185601232Y-94116788D01*
X185679873Y-93962445D01*
X185733402Y-93797701D01*
X185760500Y-93626611D01*
X185760500Y-93453389D01*
X186099500Y-93453389D01*
X186099500Y-93626610D01*
X186125013Y-93787697D01*
X186126598Y-93797701D01*
X186178749Y-93958205D01*
X186180128Y-93962447D01*
X186194337Y-93990334D01*
X186258768Y-94116788D01*
X186360586Y-94256928D01*
X186483072Y-94379414D01*
X186623212Y-94481232D01*
X186777555Y-94559873D01*
X186942299Y-94613402D01*
X187113389Y-94640500D01*
X187113390Y-94640500D01*
X187286610Y-94640500D01*
X187286611Y-94640500D01*
X187457701Y-94613402D01*
X187622445Y-94559873D01*
X187776788Y-94481232D01*
X187916928Y-94379414D01*
X188039414Y-94256928D01*
X188141232Y-94116788D01*
X188219873Y-93962445D01*
X188273402Y-93797701D01*
X188300500Y-93626611D01*
X188300500Y-93453389D01*
X188639500Y-93453389D01*
X188639500Y-93626610D01*
X188665013Y-93787697D01*
X188666598Y-93797701D01*
X188718749Y-93958205D01*
X188720128Y-93962447D01*
X188734337Y-93990334D01*
X188798768Y-94116788D01*
X188900586Y-94256928D01*
X189023072Y-94379414D01*
X189089587Y-94427740D01*
X189163213Y-94481233D01*
X189321794Y-94562033D01*
X189372591Y-94610007D01*
X189389500Y-94672518D01*
X189389500Y-94880944D01*
X189401064Y-94924101D01*
X189408254Y-94950933D01*
X189408254Y-94950935D01*
X189413385Y-94970087D01*
X189459527Y-95050008D01*
X189459529Y-95050011D01*
X189459530Y-95050012D01*
X191831088Y-97421570D01*
X191904758Y-97464103D01*
X191911012Y-97467714D01*
X192000156Y-97491600D01*
X192000157Y-97491600D01*
X192000158Y-97491600D01*
X194265142Y-97491600D01*
X194265144Y-97491600D01*
X194354288Y-97467714D01*
X194360542Y-97464103D01*
X194434212Y-97421570D01*
X195244163Y-96611619D01*
X195305486Y-96578134D01*
X195331844Y-96575300D01*
X195407772Y-96575300D01*
X195407775Y-96575300D01*
X195547785Y-96537784D01*
X195673315Y-96465309D01*
X195775809Y-96362815D01*
X195848284Y-96237285D01*
X195885800Y-96097275D01*
X195885800Y-95952325D01*
X195848284Y-95812315D01*
X195846480Y-95809191D01*
X195775811Y-95686788D01*
X195775806Y-95686782D01*
X195673317Y-95584293D01*
X195673311Y-95584288D01*
X195547788Y-95511817D01*
X195547789Y-95511817D01*
X195536306Y-95508740D01*
X195407775Y-95474300D01*
X195262825Y-95474300D01*
X195134293Y-95508740D01*
X195122811Y-95511817D01*
X194997288Y-95584288D01*
X194997282Y-95584293D01*
X194894793Y-95686782D01*
X194894788Y-95686788D01*
X194822317Y-95812311D01*
X194822316Y-95812315D01*
X194784800Y-95952325D01*
X194784800Y-95952327D01*
X194784800Y-96028256D01*
X194765115Y-96095295D01*
X194748481Y-96115937D01*
X194110137Y-96754281D01*
X194048814Y-96787766D01*
X194022456Y-96790600D01*
X192932975Y-96790600D01*
X192865936Y-96770915D01*
X192820181Y-96718111D01*
X192810237Y-96648953D01*
X192813196Y-96634522D01*
X192832100Y-96563975D01*
X192832100Y-96419025D01*
X192794584Y-96279015D01*
X192763797Y-96225691D01*
X192722111Y-96153488D01*
X192722106Y-96153482D01*
X192666819Y-96098195D01*
X192633334Y-96036872D01*
X192630500Y-96010514D01*
X192630500Y-94672518D01*
X192650185Y-94605479D01*
X192698206Y-94562033D01*
X192856786Y-94481233D01*
X192856785Y-94481233D01*
X192856788Y-94481232D01*
X192996928Y-94379414D01*
X193119414Y-94256928D01*
X193221232Y-94116788D01*
X193299873Y-93962445D01*
X193300896Y-93959294D01*
X193301610Y-93958250D01*
X193301734Y-93957952D01*
X193301796Y-93957977D01*
X193340327Y-93901618D01*
X193404683Y-93874415D01*
X193473530Y-93886323D01*
X193525011Y-93933562D01*
X193536760Y-93959287D01*
X193568904Y-94058217D01*
X193665379Y-94247557D01*
X193790272Y-94419459D01*
X193790276Y-94419464D01*
X193940535Y-94569723D01*
X193940540Y-94569727D01*
X194112442Y-94694620D01*
X194301782Y-94791095D01*
X194503871Y-94856757D01*
X194570000Y-94867231D01*
X194570000Y-93973012D01*
X194627007Y-94005925D01*
X194754174Y-94040000D01*
X194885826Y-94040000D01*
X195012993Y-94005925D01*
X195070000Y-93973012D01*
X195070000Y-94867230D01*
X195136126Y-94856757D01*
X195136129Y-94856757D01*
X195338217Y-94791095D01*
X195527557Y-94694620D01*
X195699459Y-94569727D01*
X195699464Y-94569723D01*
X195849723Y-94419464D01*
X195849727Y-94419459D01*
X195974620Y-94247557D01*
X196025015Y-94148654D01*
X196072990Y-94097858D01*
X196140811Y-94081063D01*
X196206946Y-94103600D01*
X196250397Y-94158315D01*
X196259500Y-94204949D01*
X196259500Y-94414678D01*
X196274032Y-94487735D01*
X196274033Y-94487739D01*
X196282141Y-94499873D01*
X196329399Y-94570601D01*
X196399768Y-94617619D01*
X196412260Y-94625966D01*
X196412264Y-94625967D01*
X196485321Y-94640499D01*
X196485324Y-94640500D01*
X196485326Y-94640500D01*
X198234676Y-94640500D01*
X198234677Y-94640499D01*
X198307740Y-94625966D01*
X198390601Y-94570601D01*
X198445966Y-94487740D01*
X198460500Y-94414674D01*
X198460500Y-93453389D01*
X219999500Y-93453389D01*
X219999500Y-93626610D01*
X220025013Y-93787697D01*
X220026598Y-93797701D01*
X220078749Y-93958205D01*
X220080128Y-93962447D01*
X220094337Y-93990334D01*
X220158768Y-94116788D01*
X220260586Y-94256928D01*
X220383072Y-94379414D01*
X220523212Y-94481232D01*
X220677555Y-94559873D01*
X220842299Y-94613402D01*
X221013389Y-94640500D01*
X221013390Y-94640500D01*
X221186610Y-94640500D01*
X221186611Y-94640500D01*
X221357701Y-94613402D01*
X221522445Y-94559873D01*
X221676788Y-94481232D01*
X221816928Y-94379414D01*
X221939414Y-94256928D01*
X222041232Y-94116788D01*
X222119873Y-93962445D01*
X222173402Y-93797701D01*
X222200500Y-93626611D01*
X222200500Y-93453389D01*
X222173402Y-93282299D01*
X222119873Y-93117555D01*
X222041232Y-92963212D01*
X221939414Y-92823072D01*
X221816928Y-92700586D01*
X221676788Y-92598768D01*
X221522445Y-92520127D01*
X221357701Y-92466598D01*
X221357699Y-92466597D01*
X221357698Y-92466597D01*
X221226271Y-92445781D01*
X221186611Y-92439500D01*
X221013389Y-92439500D01*
X220973728Y-92445781D01*
X220842302Y-92466597D01*
X220677552Y-92520128D01*
X220523211Y-92598768D01*
X220465652Y-92640588D01*
X220383072Y-92700586D01*
X220383070Y-92700588D01*
X220383069Y-92700588D01*
X220260588Y-92823069D01*
X220260588Y-92823070D01*
X220260586Y-92823072D01*
X220224238Y-92873101D01*
X220158768Y-92963211D01*
X220080128Y-93117552D01*
X220026597Y-93282302D01*
X219999500Y-93453389D01*
X198460500Y-93453389D01*
X198460500Y-92665326D01*
X198460500Y-92665323D01*
X198460499Y-92665321D01*
X198445967Y-92592264D01*
X198445966Y-92592260D01*
X198390601Y-92509399D01*
X198323434Y-92464520D01*
X198307739Y-92454033D01*
X198307735Y-92454032D01*
X198234677Y-92439500D01*
X198234674Y-92439500D01*
X196485326Y-92439500D01*
X196485323Y-92439500D01*
X196412264Y-92454032D01*
X196412260Y-92454033D01*
X196329399Y-92509399D01*
X196274033Y-92592260D01*
X196274032Y-92592264D01*
X196259500Y-92665321D01*
X196259500Y-92875050D01*
X196239815Y-92942089D01*
X196187011Y-92987844D01*
X196117853Y-92997788D01*
X196054297Y-92968763D01*
X196025015Y-92931345D01*
X195974620Y-92832442D01*
X195849727Y-92660540D01*
X195849723Y-92660535D01*
X195699464Y-92510276D01*
X195699459Y-92510272D01*
X195527557Y-92385379D01*
X195338215Y-92288903D01*
X195136124Y-92223241D01*
X195070000Y-92212768D01*
X195070000Y-93106988D01*
X195012993Y-93074075D01*
X194885826Y-93040000D01*
X194754174Y-93040000D01*
X194627007Y-93074075D01*
X194570000Y-93106988D01*
X194570000Y-92212768D01*
X194569999Y-92212768D01*
X194503875Y-92223241D01*
X194301784Y-92288903D01*
X194112442Y-92385379D01*
X193940540Y-92510272D01*
X193940535Y-92510276D01*
X193790276Y-92660535D01*
X193790272Y-92660540D01*
X193665379Y-92832442D01*
X193568904Y-93021783D01*
X193536760Y-93120712D01*
X193497322Y-93178388D01*
X193432964Y-93205586D01*
X193364117Y-93193671D01*
X193312642Y-93146427D01*
X193300898Y-93120712D01*
X193299873Y-93117555D01*
X193221232Y-92963212D01*
X193119414Y-92823072D01*
X192996928Y-92700586D01*
X192856788Y-92598768D01*
X192702445Y-92520127D01*
X192537701Y-92466598D01*
X192537699Y-92466597D01*
X192537698Y-92466597D01*
X192406271Y-92445781D01*
X192366611Y-92439500D01*
X192193389Y-92439500D01*
X192153728Y-92445781D01*
X192022302Y-92466597D01*
X191857552Y-92520128D01*
X191703211Y-92598768D01*
X191645652Y-92640588D01*
X191563072Y-92700586D01*
X191563070Y-92700588D01*
X191563069Y-92700588D01*
X191440588Y-92823069D01*
X191440588Y-92823070D01*
X191440586Y-92823072D01*
X191404238Y-92873101D01*
X191338768Y-92963211D01*
X191260128Y-93117552D01*
X191206597Y-93282302D01*
X191179500Y-93453389D01*
X191179500Y-93626610D01*
X191205013Y-93787697D01*
X191206598Y-93797701D01*
X191258749Y-93958205D01*
X191260128Y-93962447D01*
X191274337Y-93990334D01*
X191338768Y-94116788D01*
X191440586Y-94256928D01*
X191563072Y-94379414D01*
X191629587Y-94427740D01*
X191703213Y-94481233D01*
X191861794Y-94562033D01*
X191912591Y-94610007D01*
X191929500Y-94672518D01*
X191929500Y-96013714D01*
X191922694Y-96036890D01*
X191920165Y-96060915D01*
X191912077Y-96073047D01*
X191909815Y-96080753D01*
X191902222Y-96091308D01*
X191897978Y-96096597D01*
X191841091Y-96153485D01*
X191812207Y-96203512D01*
X191806277Y-96210905D01*
X191785079Y-96225691D01*
X191766374Y-96243527D01*
X191756891Y-96245354D01*
X191748972Y-96250879D01*
X191723144Y-96251858D01*
X191697767Y-96256749D01*
X191688802Y-96253160D01*
X191679153Y-96253526D01*
X191656897Y-96240387D01*
X191632902Y-96230781D01*
X191621874Y-96220992D01*
X190149516Y-94748634D01*
X190116031Y-94687311D01*
X190121015Y-94617619D01*
X190162887Y-94561686D01*
X190180900Y-94550469D01*
X190316788Y-94481232D01*
X190456928Y-94379414D01*
X190579414Y-94256928D01*
X190681232Y-94116788D01*
X190759873Y-93962445D01*
X190813402Y-93797701D01*
X190840500Y-93626611D01*
X190840500Y-93453389D01*
X190813402Y-93282299D01*
X190759873Y-93117555D01*
X190681232Y-92963212D01*
X190579414Y-92823072D01*
X190456928Y-92700586D01*
X190316788Y-92598768D01*
X190162445Y-92520127D01*
X189997701Y-92466598D01*
X189997699Y-92466597D01*
X189997698Y-92466597D01*
X189866271Y-92445781D01*
X189826611Y-92439500D01*
X189653389Y-92439500D01*
X189613728Y-92445781D01*
X189482302Y-92466597D01*
X189317552Y-92520128D01*
X189163211Y-92598768D01*
X189105652Y-92640588D01*
X189023072Y-92700586D01*
X189023070Y-92700588D01*
X189023069Y-92700588D01*
X188900588Y-92823069D01*
X188900588Y-92823070D01*
X188900586Y-92823072D01*
X188864238Y-92873101D01*
X188798768Y-92963211D01*
X188720128Y-93117552D01*
X188666597Y-93282302D01*
X188639500Y-93453389D01*
X188300500Y-93453389D01*
X188273402Y-93282299D01*
X188219873Y-93117555D01*
X188141232Y-92963212D01*
X188039414Y-92823072D01*
X187916928Y-92700586D01*
X187776788Y-92598768D01*
X187722767Y-92571243D01*
X187618205Y-92517966D01*
X187567409Y-92469991D01*
X187550500Y-92407481D01*
X187550500Y-89263725D01*
X217145900Y-89263725D01*
X217145900Y-89408675D01*
X217183416Y-89548685D01*
X217183417Y-89548688D01*
X217255888Y-89674211D01*
X217255890Y-89674213D01*
X217255891Y-89674215D01*
X217358385Y-89776709D01*
X217358386Y-89776710D01*
X217358388Y-89776711D01*
X217483911Y-89849182D01*
X217483912Y-89849182D01*
X217483915Y-89849184D01*
X217623925Y-89886700D01*
X217623928Y-89886700D01*
X217768872Y-89886700D01*
X217768875Y-89886700D01*
X217908885Y-89849184D01*
X218034415Y-89776709D01*
X218088105Y-89723019D01*
X218149428Y-89689534D01*
X218175786Y-89686700D01*
X220915856Y-89686700D01*
X220982895Y-89706385D01*
X221003537Y-89723019D01*
X223525151Y-92244633D01*
X223558636Y-92305956D01*
X223553652Y-92375648D01*
X223511780Y-92431581D01*
X223456868Y-92454787D01*
X223382302Y-92466597D01*
X223217552Y-92520128D01*
X223063211Y-92598768D01*
X223005652Y-92640588D01*
X222923072Y-92700586D01*
X222923070Y-92700588D01*
X222923069Y-92700588D01*
X222800588Y-92823069D01*
X222800588Y-92823070D01*
X222800586Y-92823072D01*
X222764238Y-92873101D01*
X222698768Y-92963211D01*
X222620128Y-93117552D01*
X222566597Y-93282302D01*
X222539500Y-93453389D01*
X222539500Y-93626610D01*
X222565013Y-93787697D01*
X222566598Y-93797701D01*
X222618749Y-93958205D01*
X222620128Y-93962447D01*
X222634337Y-93990334D01*
X222698768Y-94116788D01*
X222800586Y-94256928D01*
X222923072Y-94379414D01*
X223063212Y-94481232D01*
X223217555Y-94559873D01*
X223382299Y-94613402D01*
X223553389Y-94640500D01*
X223553390Y-94640500D01*
X223726610Y-94640500D01*
X223726611Y-94640500D01*
X223897701Y-94613402D01*
X224062445Y-94559873D01*
X224216788Y-94481232D01*
X224356928Y-94379414D01*
X224479414Y-94256928D01*
X224581232Y-94116788D01*
X224659873Y-93962445D01*
X224675600Y-93914042D01*
X224715036Y-93856368D01*
X224779394Y-93829169D01*
X224848241Y-93841083D01*
X224855531Y-93844974D01*
X224871240Y-93854044D01*
X224893012Y-93866614D01*
X224982156Y-93890500D01*
X225047481Y-93890500D01*
X225114520Y-93910185D01*
X225157966Y-93958205D01*
X225226953Y-94093600D01*
X225238768Y-94116788D01*
X225340586Y-94256928D01*
X225463072Y-94379414D01*
X225603212Y-94481232D01*
X225757555Y-94559873D01*
X225922299Y-94613402D01*
X226093389Y-94640500D01*
X226093390Y-94640500D01*
X226266610Y-94640500D01*
X226266611Y-94640500D01*
X226437701Y-94613402D01*
X226602445Y-94559873D01*
X226756788Y-94481232D01*
X226896928Y-94379414D01*
X227019414Y-94256928D01*
X227121232Y-94116788D01*
X227199873Y-93962445D01*
X227253402Y-93797701D01*
X227280500Y-93626611D01*
X227280500Y-93453389D01*
X227619500Y-93453389D01*
X227619500Y-93626610D01*
X227645013Y-93787697D01*
X227646598Y-93797701D01*
X227698749Y-93958205D01*
X227700128Y-93962447D01*
X227714337Y-93990334D01*
X227778768Y-94116788D01*
X227880586Y-94256928D01*
X228003072Y-94379414D01*
X228069587Y-94427740D01*
X228143213Y-94481233D01*
X228301794Y-94562033D01*
X228352591Y-94610007D01*
X228369500Y-94672518D01*
X228369500Y-94737844D01*
X228393324Y-94826757D01*
X228393387Y-94826990D01*
X228393388Y-94826993D01*
X228439526Y-94906905D01*
X228439529Y-94906909D01*
X228439531Y-94906912D01*
X228504788Y-94972169D01*
X228584712Y-95018314D01*
X228584714Y-95018314D01*
X228587658Y-95020014D01*
X228613338Y-95039720D01*
X229629681Y-96056063D01*
X229663166Y-96117386D01*
X229666000Y-96143744D01*
X229666000Y-96219675D01*
X229690287Y-96310314D01*
X229703517Y-96359688D01*
X229775988Y-96485211D01*
X229775990Y-96485213D01*
X229775991Y-96485215D01*
X229878485Y-96587709D01*
X229878486Y-96587710D01*
X229878488Y-96587711D01*
X230004011Y-96660182D01*
X230004012Y-96660182D01*
X230004015Y-96660184D01*
X230144025Y-96697700D01*
X230144028Y-96697700D01*
X230288972Y-96697700D01*
X230288975Y-96697700D01*
X230428985Y-96660184D01*
X230523502Y-96605614D01*
X230591399Y-96589142D01*
X230657426Y-96611994D01*
X230700617Y-96666915D01*
X230709500Y-96713002D01*
X230709500Y-96717225D01*
X230709500Y-96862175D01*
X230732366Y-96947511D01*
X230747017Y-97002188D01*
X230819488Y-97127711D01*
X230819490Y-97127713D01*
X230819491Y-97127715D01*
X230921985Y-97230209D01*
X230921986Y-97230210D01*
X230921988Y-97230211D01*
X231047511Y-97302682D01*
X231047512Y-97302682D01*
X231047515Y-97302684D01*
X231187525Y-97340200D01*
X231187528Y-97340200D01*
X231332472Y-97340200D01*
X231332475Y-97340200D01*
X231472485Y-97302684D01*
X231598015Y-97230209D01*
X231700509Y-97127715D01*
X231772984Y-97002185D01*
X231810500Y-96862175D01*
X231810500Y-96717225D01*
X231772984Y-96577215D01*
X231771878Y-96575300D01*
X231700511Y-96451688D01*
X231700506Y-96451682D01*
X231646819Y-96397995D01*
X231613334Y-96336672D01*
X231610500Y-96310314D01*
X231610500Y-94672518D01*
X231630185Y-94605479D01*
X231678206Y-94562033D01*
X231836786Y-94481233D01*
X231836785Y-94481233D01*
X231836788Y-94481232D01*
X231976928Y-94379414D01*
X232099414Y-94256928D01*
X232201232Y-94116788D01*
X232279873Y-93962445D01*
X232280896Y-93959294D01*
X232281610Y-93958250D01*
X232281734Y-93957952D01*
X232281796Y-93957977D01*
X232320327Y-93901618D01*
X232384683Y-93874415D01*
X232453530Y-93886323D01*
X232505011Y-93933562D01*
X232516760Y-93959287D01*
X232548904Y-94058217D01*
X232645379Y-94247557D01*
X232770272Y-94419459D01*
X232770276Y-94419464D01*
X232920535Y-94569723D01*
X232920540Y-94569727D01*
X233092442Y-94694620D01*
X233281782Y-94791095D01*
X233483871Y-94856757D01*
X233550000Y-94867231D01*
X233550000Y-93973012D01*
X233607007Y-94005925D01*
X233734174Y-94040000D01*
X233865826Y-94040000D01*
X233992993Y-94005925D01*
X234050000Y-93973012D01*
X234050000Y-94867230D01*
X234116126Y-94856757D01*
X234116129Y-94856757D01*
X234318217Y-94791095D01*
X234507557Y-94694620D01*
X234679459Y-94569727D01*
X234679464Y-94569723D01*
X234829723Y-94419464D01*
X234829727Y-94419459D01*
X234954620Y-94247557D01*
X235005015Y-94148654D01*
X235052990Y-94097858D01*
X235120811Y-94081063D01*
X235186946Y-94103600D01*
X235230397Y-94158315D01*
X235239500Y-94204949D01*
X235239500Y-94414678D01*
X235254032Y-94487735D01*
X235254033Y-94487739D01*
X235262141Y-94499873D01*
X235309399Y-94570601D01*
X235379768Y-94617619D01*
X235392260Y-94625966D01*
X235392264Y-94625967D01*
X235465321Y-94640499D01*
X235465324Y-94640500D01*
X235465326Y-94640500D01*
X237214676Y-94640500D01*
X237214677Y-94640499D01*
X237287740Y-94625966D01*
X237370601Y-94570601D01*
X237425966Y-94487740D01*
X237440500Y-94414674D01*
X237440500Y-92665326D01*
X237440500Y-92665323D01*
X237440499Y-92665321D01*
X237425967Y-92592264D01*
X237425966Y-92592260D01*
X237370601Y-92509399D01*
X237303434Y-92464520D01*
X237287739Y-92454033D01*
X237287735Y-92454032D01*
X237214677Y-92439500D01*
X237214674Y-92439500D01*
X235465326Y-92439500D01*
X235465323Y-92439500D01*
X235392264Y-92454032D01*
X235392260Y-92454033D01*
X235309399Y-92509399D01*
X235254033Y-92592260D01*
X235254032Y-92592264D01*
X235239500Y-92665321D01*
X235239500Y-92875050D01*
X235219815Y-92942089D01*
X235167011Y-92987844D01*
X235097853Y-92997788D01*
X235034297Y-92968763D01*
X235005015Y-92931345D01*
X234954620Y-92832442D01*
X234829727Y-92660540D01*
X234829723Y-92660535D01*
X234679464Y-92510276D01*
X234679459Y-92510272D01*
X234507557Y-92385379D01*
X234318215Y-92288903D01*
X234116124Y-92223241D01*
X234050000Y-92212768D01*
X234050000Y-93106988D01*
X233992993Y-93074075D01*
X233865826Y-93040000D01*
X233734174Y-93040000D01*
X233607007Y-93074075D01*
X233550000Y-93106988D01*
X233550000Y-92212768D01*
X233549999Y-92212768D01*
X233483875Y-92223241D01*
X233281784Y-92288903D01*
X233092442Y-92385379D01*
X232920540Y-92510272D01*
X232920535Y-92510276D01*
X232770276Y-92660535D01*
X232770272Y-92660540D01*
X232645379Y-92832442D01*
X232548904Y-93021783D01*
X232516760Y-93120712D01*
X232477322Y-93178388D01*
X232412964Y-93205586D01*
X232344117Y-93193671D01*
X232292642Y-93146427D01*
X232280898Y-93120712D01*
X232279873Y-93117555D01*
X232201232Y-92963212D01*
X232099414Y-92823072D01*
X231976928Y-92700586D01*
X231836788Y-92598768D01*
X231682445Y-92520127D01*
X231517701Y-92466598D01*
X231517699Y-92466597D01*
X231517698Y-92466597D01*
X231386271Y-92445781D01*
X231346611Y-92439500D01*
X231173389Y-92439500D01*
X231133728Y-92445781D01*
X231002302Y-92466597D01*
X230837552Y-92520128D01*
X230683211Y-92598768D01*
X230625652Y-92640588D01*
X230543072Y-92700586D01*
X230543070Y-92700588D01*
X230543069Y-92700588D01*
X230420588Y-92823069D01*
X230420588Y-92823070D01*
X230420586Y-92823072D01*
X230384238Y-92873101D01*
X230318768Y-92963211D01*
X230240128Y-93117552D01*
X230186597Y-93282302D01*
X230159500Y-93453389D01*
X230159500Y-93626610D01*
X230185013Y-93787697D01*
X230186598Y-93797701D01*
X230238749Y-93958205D01*
X230240128Y-93962447D01*
X230254337Y-93990334D01*
X230318768Y-94116788D01*
X230420586Y-94256928D01*
X230543072Y-94379414D01*
X230609587Y-94427740D01*
X230683213Y-94481233D01*
X230841794Y-94562033D01*
X230892591Y-94610007D01*
X230909500Y-94672518D01*
X230909500Y-95783737D01*
X230889815Y-95850776D01*
X230837011Y-95896531D01*
X230767853Y-95906475D01*
X230704297Y-95877450D01*
X230678114Y-95845738D01*
X230657013Y-95809191D01*
X230657010Y-95809188D01*
X230657009Y-95809185D01*
X230554515Y-95706691D01*
X230554513Y-95706690D01*
X230554511Y-95706688D01*
X230428988Y-95634217D01*
X230428989Y-95634217D01*
X230417506Y-95631140D01*
X230288975Y-95596700D01*
X230288972Y-95596700D01*
X230213044Y-95596700D01*
X230146005Y-95577015D01*
X230125363Y-95560381D01*
X229251475Y-94686493D01*
X229217990Y-94625170D01*
X229222974Y-94555478D01*
X229264846Y-94499545D01*
X229282861Y-94488328D01*
X229296788Y-94481232D01*
X229436928Y-94379414D01*
X229559414Y-94256928D01*
X229661232Y-94116788D01*
X229739873Y-93962445D01*
X229793402Y-93797701D01*
X229820500Y-93626611D01*
X229820500Y-93453389D01*
X229793402Y-93282299D01*
X229739873Y-93117555D01*
X229661232Y-92963212D01*
X229559414Y-92823072D01*
X229436928Y-92700586D01*
X229296788Y-92598768D01*
X229142445Y-92520127D01*
X228977701Y-92466598D01*
X228977699Y-92466597D01*
X228977698Y-92466597D01*
X228846271Y-92445781D01*
X228806611Y-92439500D01*
X228633389Y-92439500D01*
X228593728Y-92445781D01*
X228462302Y-92466597D01*
X228297552Y-92520128D01*
X228143211Y-92598768D01*
X228085652Y-92640588D01*
X228003072Y-92700586D01*
X228003070Y-92700588D01*
X228003069Y-92700588D01*
X227880588Y-92823069D01*
X227880588Y-92823070D01*
X227880586Y-92823072D01*
X227844238Y-92873101D01*
X227778768Y-92963211D01*
X227700128Y-93117552D01*
X227646597Y-93282302D01*
X227619500Y-93453389D01*
X227280500Y-93453389D01*
X227253402Y-93282299D01*
X227199873Y-93117555D01*
X227121232Y-92963212D01*
X227019414Y-92823072D01*
X226896928Y-92700586D01*
X226756788Y-92598768D01*
X226602445Y-92520127D01*
X226437701Y-92466598D01*
X226437699Y-92466597D01*
X226437698Y-92466597D01*
X226306271Y-92445781D01*
X226266611Y-92439500D01*
X226093389Y-92439500D01*
X226053728Y-92445781D01*
X225922302Y-92466597D01*
X225757552Y-92520128D01*
X225603211Y-92598768D01*
X225545652Y-92640588D01*
X225463072Y-92700586D01*
X225463070Y-92700588D01*
X225463069Y-92700588D01*
X225340588Y-92823069D01*
X225340588Y-92823070D01*
X225340586Y-92823072D01*
X225333778Y-92832442D01*
X225322557Y-92847886D01*
X225267225Y-92890550D01*
X225197612Y-92896526D01*
X225135818Y-92863918D01*
X225134560Y-92862678D01*
X221327613Y-89055731D01*
X221327608Y-89055727D01*
X221247690Y-89009587D01*
X221247689Y-89009586D01*
X221247688Y-89009586D01*
X221158544Y-88985700D01*
X221158543Y-88985700D01*
X218175786Y-88985700D01*
X218108747Y-88966015D01*
X218088105Y-88949381D01*
X218034417Y-88895693D01*
X218034411Y-88895688D01*
X217908888Y-88823217D01*
X217908889Y-88823217D01*
X217897406Y-88820140D01*
X217768875Y-88785700D01*
X217623925Y-88785700D01*
X217495393Y-88820140D01*
X217483911Y-88823217D01*
X217358388Y-88895688D01*
X217358382Y-88895693D01*
X217255893Y-88998182D01*
X217255888Y-88998188D01*
X217183417Y-89123711D01*
X217183416Y-89123715D01*
X217145900Y-89263725D01*
X187550500Y-89263725D01*
X187550500Y-88749386D01*
X187570185Y-88682347D01*
X187586819Y-88661705D01*
X187608339Y-88640185D01*
X187640509Y-88608015D01*
X187712984Y-88482485D01*
X187750500Y-88342475D01*
X187750500Y-88197525D01*
X187712984Y-88057515D01*
X187673733Y-87989531D01*
X187640511Y-87931988D01*
X187640506Y-87931982D01*
X187538017Y-87829493D01*
X187538011Y-87829488D01*
X187412488Y-87757017D01*
X187412489Y-87757017D01*
X187401006Y-87753940D01*
X187272475Y-87719500D01*
X187127525Y-87719500D01*
X186998993Y-87753940D01*
X186987511Y-87757017D01*
X186861988Y-87829488D01*
X186861982Y-87829493D01*
X186759493Y-87931982D01*
X186759488Y-87931988D01*
X186687017Y-88057511D01*
X186687016Y-88057515D01*
X186649500Y-88197525D01*
X186649500Y-88342475D01*
X186656591Y-88368937D01*
X186687017Y-88482488D01*
X186759488Y-88608011D01*
X186759493Y-88608017D01*
X186813181Y-88661705D01*
X186846666Y-88723028D01*
X186849500Y-88749386D01*
X186849500Y-92407481D01*
X186829815Y-92474520D01*
X186781795Y-92517966D01*
X186623211Y-92598768D01*
X186565652Y-92640588D01*
X186483072Y-92700586D01*
X186483070Y-92700588D01*
X186483069Y-92700588D01*
X186360588Y-92823069D01*
X186360588Y-92823070D01*
X186360586Y-92823072D01*
X186324238Y-92873101D01*
X186258768Y-92963211D01*
X186180128Y-93117552D01*
X186126597Y-93282302D01*
X186099500Y-93453389D01*
X185760500Y-93453389D01*
X185733402Y-93282299D01*
X185679873Y-93117555D01*
X185601232Y-92963212D01*
X185499414Y-92823072D01*
X185376928Y-92700586D01*
X185236788Y-92598768D01*
X185182767Y-92571243D01*
X185078205Y-92517966D01*
X185067140Y-92507516D01*
X185053297Y-92501194D01*
X185042255Y-92484013D01*
X185027409Y-92469991D01*
X185023167Y-92454311D01*
X185015523Y-92442416D01*
X185010500Y-92407481D01*
X185010500Y-92248286D01*
X185030185Y-92181247D01*
X185046819Y-92160605D01*
X185056452Y-92150972D01*
X185100509Y-92106915D01*
X185172984Y-91981385D01*
X185210500Y-91841375D01*
X185210500Y-91696425D01*
X185172984Y-91556415D01*
X185171881Y-91554505D01*
X185100511Y-91430888D01*
X185100506Y-91430882D01*
X184998017Y-91328393D01*
X184998011Y-91328388D01*
X184872488Y-91255917D01*
X184872489Y-91255917D01*
X184861006Y-91252840D01*
X184732475Y-91218400D01*
X184587525Y-91218400D01*
X184458993Y-91252840D01*
X184447511Y-91255917D01*
X184321988Y-91328388D01*
X184321982Y-91328393D01*
X184219493Y-91430882D01*
X184219488Y-91430888D01*
X184147017Y-91556411D01*
X184147016Y-91556415D01*
X184109500Y-91696425D01*
X184109500Y-91841375D01*
X184147016Y-91981385D01*
X184147017Y-91981388D01*
X184219488Y-92106911D01*
X184219493Y-92106917D01*
X184273181Y-92160605D01*
X184287884Y-92187532D01*
X184304477Y-92213351D01*
X184305368Y-92219551D01*
X184306666Y-92221928D01*
X184309500Y-92248286D01*
X184309500Y-92407481D01*
X184289815Y-92474520D01*
X184241795Y-92517966D01*
X184083211Y-92598768D01*
X184025652Y-92640588D01*
X183943072Y-92700586D01*
X183943070Y-92700588D01*
X183943069Y-92700588D01*
X183820588Y-92823069D01*
X183820588Y-92823070D01*
X183820586Y-92823072D01*
X183784238Y-92873101D01*
X183718768Y-92963211D01*
X183640128Y-93117552D01*
X183586597Y-93282302D01*
X183559500Y-93453389D01*
X183220500Y-93453389D01*
X183193402Y-93282299D01*
X183139873Y-93117555D01*
X183061232Y-92963212D01*
X182959414Y-92823072D01*
X182836928Y-92700586D01*
X182696788Y-92598768D01*
X182642767Y-92571243D01*
X182538205Y-92517966D01*
X182487409Y-92469991D01*
X182470500Y-92407481D01*
X182470500Y-91746686D01*
X182490185Y-91679647D01*
X182506819Y-91659005D01*
X182523638Y-91642186D01*
X182560509Y-91605315D01*
X182632984Y-91479785D01*
X182670500Y-91339775D01*
X182670500Y-91194825D01*
X182632984Y-91054815D01*
X182572648Y-90950311D01*
X182560511Y-90929288D01*
X182560506Y-90929282D01*
X182458017Y-90826793D01*
X182458011Y-90826788D01*
X182332488Y-90754317D01*
X182332489Y-90754317D01*
X182321006Y-90751240D01*
X182192475Y-90716800D01*
X182047525Y-90716800D01*
X181918993Y-90751240D01*
X181907511Y-90754317D01*
X181781988Y-90826788D01*
X181781982Y-90826793D01*
X181679493Y-90929282D01*
X181679488Y-90929288D01*
X181607017Y-91054811D01*
X181607016Y-91054815D01*
X181569500Y-91194825D01*
X181569500Y-91339775D01*
X181600851Y-91456777D01*
X181607017Y-91479788D01*
X181679488Y-91605311D01*
X181679493Y-91605317D01*
X181733181Y-91659005D01*
X181766666Y-91720328D01*
X181769500Y-91746686D01*
X181769500Y-92407481D01*
X181749815Y-92474520D01*
X181701795Y-92517966D01*
X181543211Y-92598768D01*
X181485652Y-92640588D01*
X181403072Y-92700586D01*
X181403070Y-92700588D01*
X181403069Y-92700588D01*
X181280588Y-92823069D01*
X181280588Y-92823070D01*
X181280586Y-92823072D01*
X181244238Y-92873101D01*
X181178768Y-92963211D01*
X181100128Y-93117552D01*
X181046597Y-93282302D01*
X181019500Y-93453389D01*
X159530500Y-93453389D01*
X159530500Y-92605326D01*
X159530500Y-92605323D01*
X159530499Y-92605321D01*
X159515967Y-92532264D01*
X159515966Y-92532260D01*
X159500691Y-92509399D01*
X159460601Y-92449399D01*
X159377740Y-92394034D01*
X159377739Y-92394033D01*
X159377735Y-92394032D01*
X159304677Y-92379500D01*
X159304674Y-92379500D01*
X157555326Y-92379500D01*
X157555323Y-92379500D01*
X157482264Y-92394032D01*
X157482260Y-92394033D01*
X157399399Y-92449399D01*
X157344033Y-92532260D01*
X157344032Y-92532264D01*
X157329500Y-92605321D01*
X157329500Y-92815050D01*
X157309815Y-92882089D01*
X157257011Y-92927844D01*
X157187853Y-92937788D01*
X157124297Y-92908763D01*
X157095015Y-92871345D01*
X157044620Y-92772442D01*
X156919727Y-92600540D01*
X156919723Y-92600535D01*
X156769464Y-92450276D01*
X156769459Y-92450272D01*
X156597557Y-92325379D01*
X156408215Y-92228903D01*
X156206124Y-92163241D01*
X156140000Y-92152768D01*
X156140000Y-93046988D01*
X156082993Y-93014075D01*
X155955826Y-92980000D01*
X155824174Y-92980000D01*
X155697007Y-93014075D01*
X155640000Y-93046988D01*
X155640000Y-92152768D01*
X155639999Y-92152768D01*
X155573875Y-92163241D01*
X155371784Y-92228903D01*
X155182442Y-92325379D01*
X155010540Y-92450272D01*
X155010535Y-92450276D01*
X154860276Y-92600535D01*
X154860272Y-92600540D01*
X154735379Y-92772442D01*
X154638904Y-92961783D01*
X154606760Y-93060712D01*
X154567322Y-93118388D01*
X154502964Y-93145586D01*
X154434117Y-93133671D01*
X154382642Y-93086427D01*
X154370898Y-93060712D01*
X154369873Y-93057555D01*
X154291232Y-92903212D01*
X154189414Y-92763072D01*
X154066928Y-92640586D01*
X153926788Y-92538768D01*
X153772445Y-92460127D01*
X153607701Y-92406598D01*
X153607699Y-92406597D01*
X153607698Y-92406597D01*
X153476271Y-92385781D01*
X153436611Y-92379500D01*
X153263389Y-92379500D01*
X153223728Y-92385781D01*
X153092302Y-92406597D01*
X152927552Y-92460128D01*
X152773211Y-92538768D01*
X152713345Y-92582264D01*
X152633072Y-92640586D01*
X152633070Y-92640588D01*
X152633069Y-92640588D01*
X152510588Y-92763069D01*
X152510588Y-92763070D01*
X152510586Y-92763072D01*
X152495917Y-92783262D01*
X152408768Y-92903211D01*
X152330128Y-93057552D01*
X152276597Y-93222302D01*
X152258430Y-93337007D01*
X152249500Y-93393389D01*
X152249500Y-93566611D01*
X152276598Y-93737701D01*
X152329858Y-93901618D01*
X152330128Y-93902447D01*
X152353466Y-93948250D01*
X152408768Y-94056788D01*
X152510586Y-94196928D01*
X152633072Y-94319414D01*
X152773212Y-94421232D01*
X152927555Y-94499873D01*
X153092299Y-94553402D01*
X153263389Y-94580500D01*
X153263390Y-94580500D01*
X153436610Y-94580500D01*
X153436611Y-94580500D01*
X153607701Y-94553402D01*
X153772445Y-94499873D01*
X153926788Y-94421232D01*
X154066928Y-94319414D01*
X154189414Y-94196928D01*
X154291232Y-94056788D01*
X154369873Y-93902445D01*
X154370896Y-93899294D01*
X154371610Y-93898250D01*
X154371734Y-93897952D01*
X154371796Y-93897977D01*
X154410327Y-93841618D01*
X154474683Y-93814415D01*
X154543530Y-93826323D01*
X154595011Y-93873562D01*
X154606760Y-93899287D01*
X154638904Y-93998217D01*
X154735379Y-94187557D01*
X154860272Y-94359459D01*
X154860276Y-94359464D01*
X155010535Y-94509723D01*
X155010540Y-94509727D01*
X155182442Y-94634620D01*
X155371782Y-94731095D01*
X155573871Y-94796757D01*
X155640000Y-94807231D01*
X155640000Y-93913012D01*
X155697007Y-93945925D01*
X155824174Y-93980000D01*
X155955826Y-93980000D01*
X156082993Y-93945925D01*
X156140000Y-93913012D01*
X156140000Y-94807230D01*
X156192027Y-94798990D01*
X156261321Y-94807944D01*
X156314773Y-94852940D01*
X156335413Y-94919691D01*
X156316689Y-94987005D01*
X156299107Y-95009144D01*
X145720071Y-105588181D01*
X145658748Y-105621666D01*
X145632390Y-105624500D01*
X139738500Y-105624500D01*
X139671461Y-105604815D01*
X139625706Y-105552011D01*
X139614500Y-105500500D01*
X139614500Y-105271323D01*
X139614499Y-105271321D01*
X139599967Y-105198264D01*
X139599966Y-105198260D01*
X139594892Y-105190666D01*
X139544601Y-105115399D01*
X139461740Y-105060034D01*
X139461739Y-105060033D01*
X139461735Y-105060032D01*
X139388677Y-105045500D01*
X139388674Y-105045500D01*
X137831326Y-105045500D01*
X137831323Y-105045500D01*
X137758264Y-105060032D01*
X137758260Y-105060033D01*
X137675399Y-105115399D01*
X137620033Y-105198260D01*
X137620032Y-105198264D01*
X137605500Y-105271321D01*
X137605500Y-105325090D01*
X137585815Y-105392129D01*
X137533011Y-105437884D01*
X137463853Y-105447828D01*
X137400297Y-105418803D01*
X137393819Y-105412771D01*
X135392350Y-103411302D01*
X137466000Y-103411302D01*
X137466000Y-103608697D01*
X137496876Y-103803646D01*
X137557873Y-103991373D01*
X137647483Y-104167239D01*
X137673457Y-104202988D01*
X137673457Y-104202989D01*
X138237037Y-103639409D01*
X138254075Y-103702993D01*
X138319901Y-103817007D01*
X138412993Y-103910099D01*
X138527007Y-103975925D01*
X138590590Y-103992962D01*
X138027009Y-104556541D01*
X138027010Y-104556542D01*
X138062755Y-104582512D01*
X138062768Y-104582520D01*
X138238626Y-104672126D01*
X138426353Y-104733123D01*
X138621303Y-104764000D01*
X138818697Y-104764000D01*
X139013646Y-104733123D01*
X139201373Y-104672126D01*
X139377241Y-104582516D01*
X139412988Y-104556543D01*
X139412988Y-104556541D01*
X138849410Y-103992962D01*
X138912993Y-103975925D01*
X139027007Y-103910099D01*
X139120099Y-103817007D01*
X139185925Y-103702993D01*
X139202962Y-103639409D01*
X139766541Y-104202988D01*
X139766543Y-104202988D01*
X139792516Y-104167241D01*
X139882126Y-103991373D01*
X139943123Y-103803646D01*
X139974000Y-103608697D01*
X139974000Y-103411302D01*
X139943123Y-103216353D01*
X139882126Y-103028626D01*
X139792520Y-102852768D01*
X139792512Y-102852755D01*
X139766542Y-102817010D01*
X139766541Y-102817009D01*
X139202962Y-103380589D01*
X139185925Y-103317007D01*
X139120099Y-103202993D01*
X139027007Y-103109901D01*
X138912993Y-103044075D01*
X138849409Y-103027037D01*
X139412989Y-102463457D01*
X139377239Y-102437483D01*
X139201373Y-102347873D01*
X139013646Y-102286876D01*
X138818697Y-102256000D01*
X138621303Y-102256000D01*
X138426353Y-102286876D01*
X138238626Y-102347873D01*
X138062762Y-102437482D01*
X138062760Y-102437483D01*
X138027010Y-102463456D01*
X138027010Y-102463457D01*
X138590591Y-103027037D01*
X138527007Y-103044075D01*
X138412993Y-103109901D01*
X138319901Y-103202993D01*
X138254075Y-103317007D01*
X138237037Y-103380590D01*
X137673457Y-102817010D01*
X137673456Y-102817010D01*
X137647483Y-102852760D01*
X137647482Y-102852762D01*
X137557873Y-103028626D01*
X137496876Y-103216353D01*
X137466000Y-103411302D01*
X135392350Y-103411302D01*
X133049985Y-101068937D01*
X137715499Y-101068937D01*
X137754101Y-101262996D01*
X137754104Y-101263006D01*
X137829820Y-101445802D01*
X137829827Y-101445815D01*
X137939753Y-101610330D01*
X137939756Y-101610334D01*
X138079665Y-101750243D01*
X138079669Y-101750246D01*
X138244184Y-101860172D01*
X138244197Y-101860179D01*
X138425810Y-101935405D01*
X138426998Y-101935897D01*
X138427002Y-101935897D01*
X138427003Y-101935898D01*
X138621062Y-101974500D01*
X138621065Y-101974500D01*
X138818937Y-101974500D01*
X138949495Y-101948529D01*
X139013002Y-101935897D01*
X139195809Y-101860176D01*
X139360331Y-101750246D01*
X139500246Y-101610331D01*
X139610176Y-101445809D01*
X139685897Y-101263002D01*
X139706286Y-101160500D01*
X139724500Y-101068937D01*
X139724500Y-100871062D01*
X139685898Y-100677003D01*
X139685897Y-100677002D01*
X139685897Y-100676998D01*
X139643501Y-100574644D01*
X139610179Y-100494197D01*
X139610172Y-100494184D01*
X139500246Y-100329669D01*
X139500243Y-100329665D01*
X139360334Y-100189756D01*
X139360330Y-100189753D01*
X139195815Y-100079827D01*
X139195802Y-100079820D01*
X139013006Y-100004104D01*
X139012996Y-100004101D01*
X138818937Y-99965500D01*
X138818935Y-99965500D01*
X138621065Y-99965500D01*
X138621063Y-99965500D01*
X138427003Y-100004101D01*
X138426993Y-100004104D01*
X138244197Y-100079820D01*
X138244184Y-100079827D01*
X138079669Y-100189753D01*
X138079665Y-100189756D01*
X137939756Y-100329665D01*
X137939753Y-100329669D01*
X137829827Y-100494184D01*
X137829820Y-100494197D01*
X137754104Y-100676993D01*
X137754101Y-100677003D01*
X137715500Y-100871062D01*
X137715500Y-100871065D01*
X137715500Y-101068935D01*
X137715500Y-101068937D01*
X137715499Y-101068937D01*
X133049985Y-101068937D01*
X128800565Y-96819517D01*
X128800563Y-96819515D01*
X128731130Y-96779428D01*
X128703539Y-96763498D01*
X128703538Y-96763497D01*
X128703537Y-96763497D01*
X128595318Y-96734500D01*
X128595317Y-96734500D01*
X124354865Y-96734500D01*
X124287826Y-96714815D01*
X124242071Y-96662011D01*
X124232127Y-96592853D01*
X124257311Y-96535696D01*
X124256862Y-96535396D01*
X124258569Y-96532840D01*
X124259013Y-96531834D01*
X124260245Y-96530332D01*
X124260247Y-96530330D01*
X124370176Y-96365809D01*
X124445897Y-96183002D01*
X124459237Y-96115937D01*
X124484500Y-95988937D01*
X124484500Y-95791062D01*
X124445898Y-95597003D01*
X124445897Y-95597002D01*
X124445897Y-95596998D01*
X124445774Y-95596700D01*
X124370179Y-95414197D01*
X124370172Y-95414184D01*
X124260246Y-95249669D01*
X124260243Y-95249665D01*
X124120334Y-95109756D01*
X124120330Y-95109753D01*
X123955815Y-94999827D01*
X123955802Y-94999820D01*
X123773006Y-94924104D01*
X123772996Y-94924101D01*
X123578937Y-94885500D01*
X123578935Y-94885500D01*
X123381065Y-94885500D01*
X123381063Y-94885500D01*
X123187003Y-94924101D01*
X123186993Y-94924104D01*
X123004197Y-94999820D01*
X123004184Y-94999827D01*
X122839669Y-95109753D01*
X122839665Y-95109756D01*
X122699756Y-95249665D01*
X122699753Y-95249669D01*
X122589827Y-95414184D01*
X122589820Y-95414197D01*
X122514104Y-95596993D01*
X122514101Y-95597003D01*
X122487130Y-95732595D01*
X122454745Y-95794506D01*
X122394029Y-95829080D01*
X122324259Y-95825340D01*
X122277832Y-95796084D01*
X121128519Y-94646771D01*
X121095034Y-94585448D01*
X121092200Y-94559090D01*
X121092200Y-93453984D01*
X121092200Y-93453982D01*
X121063203Y-93345763D01*
X121007185Y-93248737D01*
X120927963Y-93169515D01*
X120843434Y-93120712D01*
X120830939Y-93113498D01*
X120830938Y-93113497D01*
X120830937Y-93113497D01*
X120722718Y-93084500D01*
X120722717Y-93084500D01*
X120614500Y-93084500D01*
X120547461Y-93064815D01*
X120501706Y-93012011D01*
X120490500Y-92960500D01*
X120490500Y-92635323D01*
X120490499Y-92635321D01*
X120475967Y-92562264D01*
X120475966Y-92562260D01*
X120460269Y-92538768D01*
X120420601Y-92479399D01*
X120337740Y-92424034D01*
X120337739Y-92424033D01*
X120337735Y-92424032D01*
X120264677Y-92409500D01*
X120264674Y-92409500D01*
X118515326Y-92409500D01*
X118515323Y-92409500D01*
X118442264Y-92424032D01*
X118442260Y-92424033D01*
X118359399Y-92479399D01*
X118304033Y-92562260D01*
X118304032Y-92562264D01*
X118289500Y-92635321D01*
X118289500Y-92845050D01*
X118269815Y-92912089D01*
X118217011Y-92957844D01*
X118147853Y-92967788D01*
X118084297Y-92938763D01*
X118055015Y-92901345D01*
X118004620Y-92802442D01*
X117879727Y-92630540D01*
X117879723Y-92630535D01*
X117729464Y-92480276D01*
X117729459Y-92480272D01*
X117557557Y-92355379D01*
X117368215Y-92258903D01*
X117166124Y-92193241D01*
X117100000Y-92182768D01*
X117100000Y-93076988D01*
X117042993Y-93044075D01*
X116915826Y-93010000D01*
X116784174Y-93010000D01*
X116657007Y-93044075D01*
X116600000Y-93076988D01*
X116600000Y-92182768D01*
X116599999Y-92182768D01*
X116533875Y-92193241D01*
X116331784Y-92258903D01*
X116142442Y-92355379D01*
X115970540Y-92480272D01*
X115970535Y-92480276D01*
X115820276Y-92630535D01*
X115820272Y-92630540D01*
X115695379Y-92802442D01*
X115598904Y-92991783D01*
X115566760Y-93090712D01*
X115527322Y-93148388D01*
X115462964Y-93175586D01*
X115394117Y-93163671D01*
X115342642Y-93116427D01*
X115330898Y-93090712D01*
X115329873Y-93087555D01*
X115251232Y-92933212D01*
X115149414Y-92793072D01*
X115026928Y-92670586D01*
X114886788Y-92568768D01*
X114752356Y-92500272D01*
X114732447Y-92490128D01*
X114732446Y-92490127D01*
X114732445Y-92490127D01*
X114567701Y-92436598D01*
X114567699Y-92436597D01*
X114567698Y-92436597D01*
X114436271Y-92415781D01*
X114396611Y-92409500D01*
X114223389Y-92409500D01*
X114183728Y-92415781D01*
X114052302Y-92436597D01*
X113887552Y-92490128D01*
X113733211Y-92568768D01*
X113653256Y-92626859D01*
X113593072Y-92670586D01*
X113593070Y-92670588D01*
X113593069Y-92670588D01*
X113470588Y-92793069D01*
X113470588Y-92793070D01*
X113470586Y-92793072D01*
X113448792Y-92823069D01*
X113368768Y-92933211D01*
X113290128Y-93087552D01*
X113236597Y-93252302D01*
X113209500Y-93423389D01*
X113209500Y-93596610D01*
X113235452Y-93760469D01*
X113236598Y-93767701D01*
X113290127Y-93932445D01*
X113368768Y-94086788D01*
X113470586Y-94226928D01*
X113593072Y-94349414D01*
X113733212Y-94451232D01*
X113887555Y-94529873D01*
X114052299Y-94583402D01*
X114223389Y-94610500D01*
X114223390Y-94610500D01*
X114396610Y-94610500D01*
X114396611Y-94610500D01*
X114567701Y-94583402D01*
X114732445Y-94529873D01*
X114886788Y-94451232D01*
X115026928Y-94349414D01*
X115149414Y-94226928D01*
X115251232Y-94086788D01*
X115329873Y-93932445D01*
X115330896Y-93929294D01*
X115331610Y-93928250D01*
X115331734Y-93927952D01*
X115331796Y-93927977D01*
X115370327Y-93871618D01*
X115434683Y-93844415D01*
X115503530Y-93856323D01*
X115555011Y-93903562D01*
X115566760Y-93929287D01*
X115598904Y-94028217D01*
X115695379Y-94217557D01*
X115820272Y-94389459D01*
X115820276Y-94389464D01*
X115970535Y-94539723D01*
X115970540Y-94539727D01*
X116142442Y-94664620D01*
X116331782Y-94761095D01*
X116533871Y-94826757D01*
X116600000Y-94837231D01*
X116600000Y-93943012D01*
X116657007Y-93975925D01*
X116784174Y-94010000D01*
X116915826Y-94010000D01*
X117042993Y-93975925D01*
X117100000Y-93943012D01*
X117100000Y-94837230D01*
X117166126Y-94826757D01*
X117166129Y-94826757D01*
X117368217Y-94761095D01*
X117557557Y-94664620D01*
X117729459Y-94539727D01*
X117729464Y-94539723D01*
X117879723Y-94389464D01*
X117879727Y-94389459D01*
X118004620Y-94217557D01*
X118055015Y-94118654D01*
X118102990Y-94067858D01*
X118170811Y-94051063D01*
X118236946Y-94073600D01*
X118280397Y-94128315D01*
X118289500Y-94174949D01*
X118289500Y-94384678D01*
X118304032Y-94457735D01*
X118304033Y-94457739D01*
X118304034Y-94457740D01*
X118359399Y-94540601D01*
X118442260Y-94595966D01*
X118442264Y-94595967D01*
X118515321Y-94610499D01*
X118515324Y-94610500D01*
X118515326Y-94610500D01*
X118840500Y-94610500D01*
X118907539Y-94630185D01*
X118953294Y-94682989D01*
X118964500Y-94734500D01*
X118964500Y-96712389D01*
X118944815Y-96779428D01*
X118928181Y-96800070D01*
X116705069Y-99023181D01*
X116643746Y-99056666D01*
X116617388Y-99059500D01*
X115622129Y-99059500D01*
X115622123Y-99059501D01*
X115562516Y-99065908D01*
X115427671Y-99116202D01*
X115427664Y-99116206D01*
X115312455Y-99202452D01*
X115312452Y-99202455D01*
X115226206Y-99317664D01*
X115226202Y-99317671D01*
X115175908Y-99452517D01*
X115169501Y-99512116D01*
X115169500Y-99512135D01*
X115169500Y-99581310D01*
X115149815Y-99648349D01*
X115097011Y-99694104D01*
X115027853Y-99704048D01*
X114964297Y-99675023D01*
X114927569Y-99619629D01*
X114924755Y-99610968D01*
X114831859Y-99428650D01*
X114799474Y-99384077D01*
X114799474Y-99384076D01*
X114120000Y-100063551D01*
X114120000Y-100057339D01*
X114092741Y-99955606D01*
X114040080Y-99864394D01*
X113965606Y-99789920D01*
X113874394Y-99737259D01*
X113772661Y-99710000D01*
X113766446Y-99710000D01*
X114445922Y-99030524D01*
X114445921Y-99030523D01*
X114401359Y-98998147D01*
X114401350Y-98998141D01*
X114219031Y-98905244D01*
X114024417Y-98842009D01*
X113822317Y-98810000D01*
X113617683Y-98810000D01*
X113415582Y-98842009D01*
X113220968Y-98905244D01*
X113038644Y-98998143D01*
X112994077Y-99030523D01*
X112994077Y-99030524D01*
X113673554Y-99710000D01*
X113667339Y-99710000D01*
X113565606Y-99737259D01*
X113474394Y-99789920D01*
X113399920Y-99864394D01*
X113347259Y-99955606D01*
X113320000Y-100057339D01*
X113320000Y-100063553D01*
X112640524Y-99384077D01*
X112640523Y-99384077D01*
X112608143Y-99428644D01*
X112515244Y-99610968D01*
X112452009Y-99805582D01*
X112420000Y-100007682D01*
X112420000Y-100212317D01*
X112452009Y-100414417D01*
X112515244Y-100609031D01*
X112608141Y-100791350D01*
X112608147Y-100791359D01*
X112640523Y-100835921D01*
X112640524Y-100835922D01*
X113320000Y-100156446D01*
X113320000Y-100162661D01*
X113347259Y-100264394D01*
X113399920Y-100355606D01*
X113474394Y-100430080D01*
X113565606Y-100482741D01*
X113667339Y-100510000D01*
X113673553Y-100510000D01*
X112994076Y-101189474D01*
X113038650Y-101221859D01*
X113220968Y-101314755D01*
X113415582Y-101377990D01*
X113617683Y-101410000D01*
X113822317Y-101410000D01*
X114024417Y-101377990D01*
X114219031Y-101314755D01*
X114401349Y-101221859D01*
X114445921Y-101189474D01*
X113766447Y-100510000D01*
X113772661Y-100510000D01*
X113874394Y-100482741D01*
X113965606Y-100430080D01*
X114040080Y-100355606D01*
X114092741Y-100264394D01*
X114120000Y-100162661D01*
X114120000Y-100156447D01*
X114799474Y-100835921D01*
X114831859Y-100791349D01*
X114924754Y-100609032D01*
X114927566Y-100600377D01*
X114966999Y-100542699D01*
X115031355Y-100515495D01*
X115100203Y-100527404D01*
X115151682Y-100574644D01*
X115169500Y-100638684D01*
X115169500Y-100707869D01*
X115169501Y-100707876D01*
X115175908Y-100767483D01*
X115226202Y-100902328D01*
X115226206Y-100902335D01*
X115312452Y-101017544D01*
X115312455Y-101017547D01*
X115427664Y-101103793D01*
X115427671Y-101103797D01*
X115562517Y-101154091D01*
X115562516Y-101154091D01*
X115569444Y-101154835D01*
X115622127Y-101160500D01*
X116817872Y-101160499D01*
X116877483Y-101154091D01*
X117012331Y-101103796D01*
X117058897Y-101068937D01*
X122475499Y-101068937D01*
X122514101Y-101262996D01*
X122514104Y-101263006D01*
X122589820Y-101445802D01*
X122589827Y-101445815D01*
X122699753Y-101610330D01*
X122699756Y-101610334D01*
X122839665Y-101750243D01*
X122839669Y-101750246D01*
X123004184Y-101860172D01*
X123004197Y-101860179D01*
X123185810Y-101935405D01*
X123186998Y-101935897D01*
X123187002Y-101935897D01*
X123187003Y-101935898D01*
X123381062Y-101974500D01*
X123381065Y-101974500D01*
X123578937Y-101974500D01*
X123709495Y-101948529D01*
X123773002Y-101935897D01*
X123955809Y-101860176D01*
X124120331Y-101750246D01*
X124260246Y-101610331D01*
X124370176Y-101445809D01*
X124445897Y-101263002D01*
X124466286Y-101160500D01*
X124484500Y-101068937D01*
X124484500Y-100871062D01*
X124445898Y-100677003D01*
X124445897Y-100677002D01*
X124445897Y-100676998D01*
X124403501Y-100574644D01*
X124370179Y-100494197D01*
X124370172Y-100494184D01*
X124260246Y-100329669D01*
X124260243Y-100329665D01*
X124120334Y-100189756D01*
X124120330Y-100189753D01*
X123955815Y-100079827D01*
X123955802Y-100079820D01*
X123773006Y-100004104D01*
X123772996Y-100004101D01*
X123578937Y-99965500D01*
X123578935Y-99965500D01*
X123381065Y-99965500D01*
X123381063Y-99965500D01*
X123187003Y-100004101D01*
X123186993Y-100004104D01*
X123004197Y-100079820D01*
X123004184Y-100079827D01*
X122839669Y-100189753D01*
X122839665Y-100189756D01*
X122699756Y-100329665D01*
X122699753Y-100329669D01*
X122589827Y-100494184D01*
X122589820Y-100494197D01*
X122514104Y-100676993D01*
X122514101Y-100677003D01*
X122475500Y-100871062D01*
X122475500Y-100871065D01*
X122475500Y-101068935D01*
X122475500Y-101068937D01*
X122475499Y-101068937D01*
X117058897Y-101068937D01*
X117127546Y-101017546D01*
X117213796Y-100902331D01*
X117264091Y-100767483D01*
X117270500Y-100707873D01*
X117270499Y-99712608D01*
X117290183Y-99645570D01*
X117306813Y-99624933D01*
X119730485Y-97201263D01*
X119786503Y-97104237D01*
X119815500Y-96996018D01*
X119815500Y-96883982D01*
X119815500Y-94734500D01*
X119818050Y-94725814D01*
X119816762Y-94716853D01*
X119827740Y-94692812D01*
X119835185Y-94667461D01*
X119842025Y-94661533D01*
X119845787Y-94653297D01*
X119868021Y-94639007D01*
X119887989Y-94621706D01*
X119898503Y-94619418D01*
X119904565Y-94615523D01*
X119939500Y-94610500D01*
X120117200Y-94610500D01*
X120184239Y-94630185D01*
X120229994Y-94682989D01*
X120241200Y-94734500D01*
X120241200Y-94842718D01*
X120270197Y-94950937D01*
X120326215Y-95047963D01*
X122778737Y-97500485D01*
X122778740Y-97500487D01*
X122785186Y-97505433D01*
X122783057Y-97508206D01*
X122820186Y-97547037D01*
X122833504Y-97615625D01*
X122807626Y-97680526D01*
X122797731Y-97691691D01*
X122699753Y-97789669D01*
X122589827Y-97954184D01*
X122589820Y-97954197D01*
X122514104Y-98136993D01*
X122514101Y-98137003D01*
X122475500Y-98331062D01*
X122475500Y-98331065D01*
X122475500Y-98528935D01*
X122475500Y-98528937D01*
X122475499Y-98528937D01*
X122514101Y-98722996D01*
X122514104Y-98723006D01*
X122589820Y-98905802D01*
X122589827Y-98905815D01*
X122699753Y-99070330D01*
X122699756Y-99070334D01*
X122839665Y-99210243D01*
X122839669Y-99210246D01*
X123004184Y-99320172D01*
X123004197Y-99320179D01*
X123158462Y-99384077D01*
X123186998Y-99395897D01*
X123187002Y-99395897D01*
X123187003Y-99395898D01*
X123381062Y-99434500D01*
X123381065Y-99434500D01*
X123578937Y-99434500D01*
X123709495Y-99408529D01*
X123773002Y-99395897D01*
X123955809Y-99320176D01*
X124120331Y-99210246D01*
X124260246Y-99070331D01*
X124370176Y-98905809D01*
X124445897Y-98723002D01*
X124484500Y-98528935D01*
X124484500Y-98331065D01*
X124484500Y-98331062D01*
X124445898Y-98137003D01*
X124445897Y-98137002D01*
X124445897Y-98136998D01*
X124429331Y-98097003D01*
X124370179Y-97954197D01*
X124370172Y-97954184D01*
X124260245Y-97789667D01*
X124259013Y-97788166D01*
X124258613Y-97787225D01*
X124256862Y-97784604D01*
X124257359Y-97784271D01*
X124231699Y-97723856D01*
X124243489Y-97654989D01*
X124290641Y-97603428D01*
X124354865Y-97585500D01*
X128311690Y-97585500D01*
X128378729Y-97605185D01*
X128399371Y-97621819D01*
X137088815Y-106311263D01*
X137168037Y-106390485D01*
X137265063Y-106446503D01*
X137373282Y-106475500D01*
X137481500Y-106475500D01*
X137548539Y-106495185D01*
X137594294Y-106547989D01*
X137605500Y-106599500D01*
X137605500Y-106828678D01*
X137610101Y-106851809D01*
X137603874Y-106921401D01*
X137561010Y-106976578D01*
X137495120Y-106999822D01*
X137488484Y-107000000D01*
X124059790Y-107000000D01*
X123992751Y-106980315D01*
X123946996Y-106927511D01*
X123937052Y-106858353D01*
X123966077Y-106794797D01*
X123990899Y-106772898D01*
X124028945Y-106747475D01*
X124080331Y-106713141D01*
X124220246Y-106573226D01*
X124330176Y-106408704D01*
X124405897Y-106225897D01*
X124432981Y-106089741D01*
X124444500Y-106031832D01*
X124444500Y-105833957D01*
X124405898Y-105639898D01*
X124405897Y-105639897D01*
X124405897Y-105639893D01*
X124401146Y-105628422D01*
X124330179Y-105457092D01*
X124330172Y-105457079D01*
X124220246Y-105292564D01*
X124220243Y-105292560D01*
X124080334Y-105152651D01*
X124080330Y-105152648D01*
X123915815Y-105042722D01*
X123915802Y-105042715D01*
X123733006Y-104966999D01*
X123732996Y-104966996D01*
X123538937Y-104928395D01*
X123538935Y-104928395D01*
X123341065Y-104928395D01*
X123341063Y-104928395D01*
X123147003Y-104966996D01*
X123146993Y-104966999D01*
X122964197Y-105042715D01*
X122964184Y-105042722D01*
X122799669Y-105152648D01*
X122799665Y-105152651D01*
X122659756Y-105292560D01*
X122659753Y-105292564D01*
X122549827Y-105457079D01*
X122549820Y-105457092D01*
X122474104Y-105639888D01*
X122474101Y-105639898D01*
X122435500Y-105833957D01*
X122435500Y-105833960D01*
X122435500Y-106031830D01*
X122435500Y-106031832D01*
X122435499Y-106031832D01*
X122474101Y-106225891D01*
X122474104Y-106225901D01*
X122549820Y-106408697D01*
X122549827Y-106408710D01*
X122659753Y-106573225D01*
X122659756Y-106573229D01*
X122799665Y-106713138D01*
X122799669Y-106713141D01*
X122889101Y-106772898D01*
X122933906Y-106826510D01*
X122942613Y-106895835D01*
X122912459Y-106958863D01*
X122853016Y-106995582D01*
X122820210Y-107000000D01*
X55118707Y-107000000D01*
X55051668Y-106980315D01*
X55005913Y-106927511D01*
X54995969Y-106858353D01*
X55024994Y-106794797D01*
X55071252Y-106761439D01*
X55297021Y-106667923D01*
X55535479Y-106530249D01*
X55753928Y-106362628D01*
X55948628Y-106167928D01*
X56116249Y-105949479D01*
X56253923Y-105711021D01*
X56359295Y-105456632D01*
X56430560Y-105190666D01*
X56466500Y-104917674D01*
X56466500Y-104642326D01*
X56430560Y-104369334D01*
X56359295Y-104103368D01*
X56253923Y-103848979D01*
X56253921Y-103848976D01*
X56253919Y-103848971D01*
X56204732Y-103763778D01*
X56116249Y-103610521D01*
X56115034Y-103608937D01*
X122475499Y-103608937D01*
X122514101Y-103802996D01*
X122514104Y-103803006D01*
X122589820Y-103985802D01*
X122589827Y-103985815D01*
X122699753Y-104150330D01*
X122699756Y-104150334D01*
X122839665Y-104290243D01*
X122839669Y-104290246D01*
X123004184Y-104400172D01*
X123004197Y-104400179D01*
X123149768Y-104460476D01*
X123186998Y-104475897D01*
X123187002Y-104475897D01*
X123187003Y-104475898D01*
X123381062Y-104514500D01*
X123381065Y-104514500D01*
X123578937Y-104514500D01*
X123709495Y-104488529D01*
X123773002Y-104475897D01*
X123955809Y-104400176D01*
X124120331Y-104290246D01*
X124260246Y-104150331D01*
X124370176Y-103985809D01*
X124445897Y-103803002D01*
X124465790Y-103702993D01*
X124484500Y-103608937D01*
X124484500Y-103411062D01*
X124445898Y-103217003D01*
X124445897Y-103217002D01*
X124445897Y-103216998D01*
X124401536Y-103109901D01*
X124370179Y-103034197D01*
X124370172Y-103034184D01*
X124260246Y-102869669D01*
X124260243Y-102869665D01*
X124120334Y-102729756D01*
X124120330Y-102729753D01*
X123955815Y-102619827D01*
X123955802Y-102619820D01*
X123773006Y-102544104D01*
X123772996Y-102544101D01*
X123578937Y-102505500D01*
X123578935Y-102505500D01*
X123381065Y-102505500D01*
X123381063Y-102505500D01*
X123187003Y-102544101D01*
X123186993Y-102544104D01*
X123004197Y-102619820D01*
X123004184Y-102619827D01*
X122839669Y-102729753D01*
X122839665Y-102729756D01*
X122699756Y-102869665D01*
X122699753Y-102869669D01*
X122589827Y-103034184D01*
X122589820Y-103034197D01*
X122514104Y-103216993D01*
X122514101Y-103217003D01*
X122475500Y-103411062D01*
X122475500Y-103411065D01*
X122475500Y-103608935D01*
X122475500Y-103608937D01*
X122475499Y-103608937D01*
X56115034Y-103608937D01*
X56089627Y-103575826D01*
X56016450Y-103480459D01*
X55948629Y-103392073D01*
X55948623Y-103392066D01*
X55753933Y-103197376D01*
X55753926Y-103197370D01*
X55535483Y-103029754D01*
X55535482Y-103029753D01*
X55535479Y-103029751D01*
X55440407Y-102974861D01*
X55297028Y-102892080D01*
X55297017Y-102892075D01*
X55042630Y-102786704D01*
X54909649Y-102751072D01*
X54776666Y-102715440D01*
X54776660Y-102715439D01*
X54776655Y-102715438D01*
X54503684Y-102679501D01*
X54503679Y-102679500D01*
X54503674Y-102679500D01*
X54228326Y-102679500D01*
X54228320Y-102679500D01*
X54228315Y-102679501D01*
X53955344Y-102715438D01*
X53955337Y-102715439D01*
X53955334Y-102715440D01*
X53901917Y-102729753D01*
X53689369Y-102786704D01*
X53434982Y-102892075D01*
X53434971Y-102892080D01*
X53196516Y-103029754D01*
X52978073Y-103197370D01*
X52978066Y-103197376D01*
X52783376Y-103392066D01*
X52783370Y-103392073D01*
X52726709Y-103465916D01*
X52670281Y-103507119D01*
X52600535Y-103511274D01*
X52539615Y-103477062D01*
X52506862Y-103415344D01*
X52504333Y-103390281D01*
X52504536Y-103221802D01*
X52516275Y-93443389D01*
X64067000Y-93443389D01*
X64067000Y-93616610D01*
X64093049Y-93781083D01*
X64094098Y-93787701D01*
X64147627Y-93952445D01*
X64226268Y-94106788D01*
X64328086Y-94246928D01*
X64450572Y-94369414D01*
X64590712Y-94471232D01*
X64745055Y-94549873D01*
X64909799Y-94603402D01*
X65080889Y-94630500D01*
X65080890Y-94630500D01*
X65254110Y-94630500D01*
X65254111Y-94630500D01*
X65425201Y-94603402D01*
X65589945Y-94549873D01*
X65744288Y-94471232D01*
X65884428Y-94369414D01*
X66006914Y-94246928D01*
X66108732Y-94106788D01*
X66187373Y-93952445D01*
X66240902Y-93787701D01*
X66268000Y-93616611D01*
X66268000Y-93443389D01*
X66607000Y-93443389D01*
X66607000Y-93616610D01*
X66633049Y-93781083D01*
X66634098Y-93787701D01*
X66687627Y-93952445D01*
X66766268Y-94106788D01*
X66868086Y-94246928D01*
X66990572Y-94369414D01*
X67130712Y-94471232D01*
X67285055Y-94549873D01*
X67449799Y-94603402D01*
X67620889Y-94630500D01*
X67620890Y-94630500D01*
X67794110Y-94630500D01*
X67794111Y-94630500D01*
X67965201Y-94603402D01*
X68129945Y-94549873D01*
X68284288Y-94471232D01*
X68424428Y-94369414D01*
X68546914Y-94246928D01*
X68648732Y-94106788D01*
X68727373Y-93952445D01*
X68780902Y-93787701D01*
X68808000Y-93616611D01*
X68808000Y-93443389D01*
X69147000Y-93443389D01*
X69147000Y-93616610D01*
X69173049Y-93781083D01*
X69174098Y-93787701D01*
X69227627Y-93952445D01*
X69306268Y-94106788D01*
X69408086Y-94246928D01*
X69530572Y-94369414D01*
X69670712Y-94471232D01*
X69825055Y-94549873D01*
X69989799Y-94603402D01*
X70160889Y-94630500D01*
X70160890Y-94630500D01*
X70334110Y-94630500D01*
X70334111Y-94630500D01*
X70505201Y-94603402D01*
X70669945Y-94549873D01*
X70824288Y-94471232D01*
X70964428Y-94369414D01*
X71086914Y-94246928D01*
X71188732Y-94106788D01*
X71267373Y-93952445D01*
X71320902Y-93787701D01*
X71348000Y-93616611D01*
X71348000Y-93443389D01*
X71687000Y-93443389D01*
X71687000Y-93616610D01*
X71713049Y-93781083D01*
X71714098Y-93787701D01*
X71767627Y-93952445D01*
X71846268Y-94106788D01*
X71948086Y-94246928D01*
X72070572Y-94369414D01*
X72210712Y-94471232D01*
X72365055Y-94549873D01*
X72529799Y-94603402D01*
X72700889Y-94630500D01*
X72700890Y-94630500D01*
X72874110Y-94630500D01*
X72874111Y-94630500D01*
X73045201Y-94603402D01*
X73209945Y-94549873D01*
X73364288Y-94471232D01*
X73504428Y-94369414D01*
X73626914Y-94246928D01*
X73728732Y-94106788D01*
X73807373Y-93952445D01*
X73860902Y-93787701D01*
X73888000Y-93616611D01*
X73888000Y-93443389D01*
X74227000Y-93443389D01*
X74227000Y-93616610D01*
X74253049Y-93781083D01*
X74254098Y-93787701D01*
X74307627Y-93952445D01*
X74386268Y-94106788D01*
X74488086Y-94246928D01*
X74610572Y-94369414D01*
X74750712Y-94471232D01*
X74905055Y-94549873D01*
X75069799Y-94603402D01*
X75240889Y-94630500D01*
X75240890Y-94630500D01*
X75414110Y-94630500D01*
X75414111Y-94630500D01*
X75585201Y-94603402D01*
X75749945Y-94549873D01*
X75904288Y-94471232D01*
X76044428Y-94369414D01*
X76166914Y-94246928D01*
X76268732Y-94106788D01*
X76347373Y-93952445D01*
X76348396Y-93949294D01*
X76349110Y-93948250D01*
X76349234Y-93947952D01*
X76349296Y-93947977D01*
X76387827Y-93891618D01*
X76452183Y-93864415D01*
X76521030Y-93876323D01*
X76572511Y-93923562D01*
X76584260Y-93949287D01*
X76616404Y-94048217D01*
X76712879Y-94237557D01*
X76837772Y-94409459D01*
X76837776Y-94409464D01*
X76988035Y-94559723D01*
X76988040Y-94559727D01*
X77159942Y-94684620D01*
X77349282Y-94781095D01*
X77551371Y-94846757D01*
X77617500Y-94857231D01*
X77617500Y-93963012D01*
X77674507Y-93995925D01*
X77801674Y-94030000D01*
X77933326Y-94030000D01*
X78060493Y-93995925D01*
X78117500Y-93963012D01*
X78117500Y-94857230D01*
X78183626Y-94846757D01*
X78183629Y-94846757D01*
X78385717Y-94781095D01*
X78575057Y-94684620D01*
X78746959Y-94559727D01*
X78746964Y-94559723D01*
X78897223Y-94409464D01*
X78897227Y-94409459D01*
X79022120Y-94237557D01*
X79072515Y-94138654D01*
X79120490Y-94087858D01*
X79188311Y-94071063D01*
X79254446Y-94093600D01*
X79297897Y-94148315D01*
X79307000Y-94194949D01*
X79307000Y-94404678D01*
X79321532Y-94477735D01*
X79321533Y-94477739D01*
X79339905Y-94505235D01*
X79376899Y-94560601D01*
X79455923Y-94613402D01*
X79459760Y-94615966D01*
X79459764Y-94615967D01*
X79532821Y-94630499D01*
X79532824Y-94630500D01*
X79532826Y-94630500D01*
X79858000Y-94630500D01*
X79925039Y-94650185D01*
X79970794Y-94702989D01*
X79982000Y-94754500D01*
X79982000Y-97531492D01*
X79962315Y-97598531D01*
X79945681Y-97619173D01*
X79902226Y-97662627D01*
X79902223Y-97662631D01*
X79831038Y-97769166D01*
X79831033Y-97769175D01*
X79781999Y-97887555D01*
X79781997Y-97887561D01*
X79757000Y-98013228D01*
X79757000Y-98013231D01*
X79757000Y-98141369D01*
X79757000Y-98141371D01*
X79756999Y-98141371D01*
X79781997Y-98267038D01*
X79781999Y-98267044D01*
X79831033Y-98385424D01*
X79831038Y-98385433D01*
X79902223Y-98491968D01*
X79902226Y-98491972D01*
X79992827Y-98582573D01*
X79992831Y-98582576D01*
X80099366Y-98653761D01*
X80099372Y-98653764D01*
X80099373Y-98653765D01*
X80217756Y-98702801D01*
X80217760Y-98702801D01*
X80217761Y-98702802D01*
X80343428Y-98727800D01*
X80343431Y-98727800D01*
X80471571Y-98727800D01*
X80556115Y-98710982D01*
X80597244Y-98702801D01*
X80715627Y-98653765D01*
X80822169Y-98582576D01*
X80912776Y-98491969D01*
X80983965Y-98385427D01*
X81033001Y-98267044D01*
X81058000Y-98141369D01*
X81058000Y-98013231D01*
X81058000Y-98013228D01*
X81033002Y-97887561D01*
X81033001Y-97887560D01*
X81033001Y-97887556D01*
X80983965Y-97769173D01*
X80983964Y-97769172D01*
X80983961Y-97769166D01*
X80912776Y-97662631D01*
X80912773Y-97662627D01*
X80869319Y-97619173D01*
X80835834Y-97557850D01*
X80833000Y-97531492D01*
X80833000Y-94754500D01*
X80852685Y-94687461D01*
X80905489Y-94641706D01*
X80957000Y-94630500D01*
X81282176Y-94630500D01*
X81282177Y-94630499D01*
X81355240Y-94615966D01*
X81438101Y-94560601D01*
X81493466Y-94477740D01*
X81508000Y-94404674D01*
X81508000Y-93423389D01*
X103049500Y-93423389D01*
X103049500Y-93596610D01*
X103075452Y-93760469D01*
X103076598Y-93767701D01*
X103130127Y-93932445D01*
X103208768Y-94086788D01*
X103310586Y-94226928D01*
X103433072Y-94349414D01*
X103522897Y-94414676D01*
X103573213Y-94451233D01*
X103731794Y-94532033D01*
X103782591Y-94580007D01*
X103799500Y-94642518D01*
X103799500Y-96680614D01*
X103779815Y-96747653D01*
X103763181Y-96768295D01*
X103709493Y-96821982D01*
X103709488Y-96821988D01*
X103637017Y-96947511D01*
X103637016Y-96947515D01*
X103599500Y-97087525D01*
X103599500Y-97232475D01*
X103628365Y-97340200D01*
X103637017Y-97372488D01*
X103709488Y-97498011D01*
X103709490Y-97498013D01*
X103709491Y-97498015D01*
X103811985Y-97600509D01*
X103811986Y-97600510D01*
X103811988Y-97600511D01*
X103937511Y-97672982D01*
X103937512Y-97672982D01*
X103937515Y-97672984D01*
X104077525Y-97710500D01*
X104077528Y-97710500D01*
X104222472Y-97710500D01*
X104222475Y-97710500D01*
X104362485Y-97672984D01*
X104488015Y-97600509D01*
X104590509Y-97498015D01*
X104662984Y-97372485D01*
X104700500Y-97232475D01*
X104700500Y-97087525D01*
X104662984Y-96947515D01*
X104590509Y-96821985D01*
X104536819Y-96768295D01*
X104503334Y-96706972D01*
X104500500Y-96680614D01*
X104500500Y-94642518D01*
X104520185Y-94575479D01*
X104568206Y-94532033D01*
X104726786Y-94451233D01*
X104726785Y-94451233D01*
X104726788Y-94451232D01*
X104866928Y-94349414D01*
X104989414Y-94226928D01*
X105091232Y-94086788D01*
X105169873Y-93932445D01*
X105223402Y-93767701D01*
X105250500Y-93596611D01*
X105250500Y-93423389D01*
X105589500Y-93423389D01*
X105589500Y-93596610D01*
X105615452Y-93760469D01*
X105616598Y-93767701D01*
X105670127Y-93932445D01*
X105748768Y-94086788D01*
X105850586Y-94226928D01*
X105973072Y-94349414D01*
X106113212Y-94451232D01*
X106267555Y-94529873D01*
X106432299Y-94583402D01*
X106603389Y-94610500D01*
X106603390Y-94610500D01*
X106776610Y-94610500D01*
X106776611Y-94610500D01*
X106947701Y-94583402D01*
X107112445Y-94529873D01*
X107266788Y-94451232D01*
X107406928Y-94349414D01*
X107529414Y-94226928D01*
X107631232Y-94086788D01*
X107709873Y-93932445D01*
X107763402Y-93767701D01*
X107790500Y-93596611D01*
X107790500Y-93423389D01*
X108129500Y-93423389D01*
X108129500Y-93596610D01*
X108155452Y-93760469D01*
X108156598Y-93767701D01*
X108210127Y-93932445D01*
X108288768Y-94086788D01*
X108390586Y-94226928D01*
X108513072Y-94349414D01*
X108602897Y-94414676D01*
X108653213Y-94451233D01*
X108811794Y-94532033D01*
X108862591Y-94580007D01*
X108879500Y-94642518D01*
X108879500Y-95387314D01*
X108859815Y-95454353D01*
X108843181Y-95474995D01*
X108789493Y-95528682D01*
X108789488Y-95528688D01*
X108717017Y-95654211D01*
X108717016Y-95654215D01*
X108679500Y-95794225D01*
X108679500Y-95939175D01*
X108715821Y-96074725D01*
X108717017Y-96079188D01*
X108789488Y-96204711D01*
X108789490Y-96204713D01*
X108789491Y-96204715D01*
X108891985Y-96307209D01*
X108891986Y-96307210D01*
X108891988Y-96307211D01*
X109017511Y-96379682D01*
X109017512Y-96379682D01*
X109017515Y-96379684D01*
X109157525Y-96417200D01*
X109157528Y-96417200D01*
X109302472Y-96417200D01*
X109302475Y-96417200D01*
X109442485Y-96379684D01*
X109568015Y-96307209D01*
X109670509Y-96204715D01*
X109742984Y-96079185D01*
X109780500Y-95939175D01*
X109780500Y-95794225D01*
X109742984Y-95654215D01*
X109702614Y-95584293D01*
X109670511Y-95528688D01*
X109670506Y-95528682D01*
X109616819Y-95474995D01*
X109583334Y-95413672D01*
X109580500Y-95387314D01*
X109580500Y-94642518D01*
X109600185Y-94575479D01*
X109648206Y-94532033D01*
X109806786Y-94451233D01*
X109806785Y-94451233D01*
X109806788Y-94451232D01*
X109946928Y-94349414D01*
X110069414Y-94226928D01*
X110171232Y-94086788D01*
X110249873Y-93932445D01*
X110303402Y-93767701D01*
X110330500Y-93596611D01*
X110330500Y-93423389D01*
X110669500Y-93423389D01*
X110669500Y-93596610D01*
X110695452Y-93760469D01*
X110696598Y-93767701D01*
X110750127Y-93932445D01*
X110828768Y-94086788D01*
X110930586Y-94226928D01*
X111053072Y-94349414D01*
X111193212Y-94451232D01*
X111347555Y-94529873D01*
X111512299Y-94583402D01*
X111683389Y-94610500D01*
X111683390Y-94610500D01*
X111856610Y-94610500D01*
X111856611Y-94610500D01*
X112027701Y-94583402D01*
X112192445Y-94529873D01*
X112346788Y-94451232D01*
X112486928Y-94349414D01*
X112609414Y-94226928D01*
X112711232Y-94086788D01*
X112789873Y-93932445D01*
X112843402Y-93767701D01*
X112870500Y-93596611D01*
X112870500Y-93423389D01*
X112843402Y-93252299D01*
X112789873Y-93087555D01*
X112711232Y-92933212D01*
X112609414Y-92793072D01*
X112486928Y-92670586D01*
X112346788Y-92568768D01*
X112212356Y-92500272D01*
X112192447Y-92490128D01*
X112192446Y-92490127D01*
X112192445Y-92490127D01*
X112027701Y-92436598D01*
X112027699Y-92436597D01*
X112027698Y-92436597D01*
X111896271Y-92415781D01*
X111856611Y-92409500D01*
X111683389Y-92409500D01*
X111643728Y-92415781D01*
X111512302Y-92436597D01*
X111347552Y-92490128D01*
X111193211Y-92568768D01*
X111113256Y-92626859D01*
X111053072Y-92670586D01*
X111053070Y-92670588D01*
X111053069Y-92670588D01*
X110930588Y-92793069D01*
X110930588Y-92793070D01*
X110930586Y-92793072D01*
X110908792Y-92823069D01*
X110828768Y-92933211D01*
X110750128Y-93087552D01*
X110696597Y-93252302D01*
X110669500Y-93423389D01*
X110330500Y-93423389D01*
X110303402Y-93252299D01*
X110249873Y-93087555D01*
X110171232Y-92933212D01*
X110069414Y-92793072D01*
X109946928Y-92670586D01*
X109806788Y-92568768D01*
X109672356Y-92500272D01*
X109652447Y-92490128D01*
X109652446Y-92490127D01*
X109652445Y-92490127D01*
X109487701Y-92436598D01*
X109487699Y-92436597D01*
X109487698Y-92436597D01*
X109356271Y-92415781D01*
X109316611Y-92409500D01*
X109143389Y-92409500D01*
X109103728Y-92415781D01*
X108972302Y-92436597D01*
X108807552Y-92490128D01*
X108653211Y-92568768D01*
X108573256Y-92626859D01*
X108513072Y-92670586D01*
X108513070Y-92670588D01*
X108513069Y-92670588D01*
X108390588Y-92793069D01*
X108390588Y-92793070D01*
X108390586Y-92793072D01*
X108368792Y-92823069D01*
X108288768Y-92933211D01*
X108210128Y-93087552D01*
X108156597Y-93252302D01*
X108129500Y-93423389D01*
X107790500Y-93423389D01*
X107763402Y-93252299D01*
X107709873Y-93087555D01*
X107631232Y-92933212D01*
X107529414Y-92793072D01*
X107406928Y-92670586D01*
X107266788Y-92568768D01*
X107132356Y-92500272D01*
X107112447Y-92490128D01*
X107112446Y-92490127D01*
X107112445Y-92490127D01*
X106947701Y-92436598D01*
X106947699Y-92436597D01*
X106947698Y-92436597D01*
X106816271Y-92415781D01*
X106776611Y-92409500D01*
X106603389Y-92409500D01*
X106563728Y-92415781D01*
X106432302Y-92436597D01*
X106267552Y-92490128D01*
X106113211Y-92568768D01*
X106033256Y-92626859D01*
X105973072Y-92670586D01*
X105973070Y-92670588D01*
X105973069Y-92670588D01*
X105850588Y-92793069D01*
X105850588Y-92793070D01*
X105850586Y-92793072D01*
X105828792Y-92823069D01*
X105748768Y-92933211D01*
X105670128Y-93087552D01*
X105616597Y-93252302D01*
X105589500Y-93423389D01*
X105250500Y-93423389D01*
X105223402Y-93252299D01*
X105169873Y-93087555D01*
X105091232Y-92933212D01*
X104989414Y-92793072D01*
X104866928Y-92670586D01*
X104726788Y-92568768D01*
X104592356Y-92500272D01*
X104572447Y-92490128D01*
X104572446Y-92490127D01*
X104572445Y-92490127D01*
X104407701Y-92436598D01*
X104407699Y-92436597D01*
X104407698Y-92436597D01*
X104276271Y-92415781D01*
X104236611Y-92409500D01*
X104063389Y-92409500D01*
X104023728Y-92415781D01*
X103892302Y-92436597D01*
X103727552Y-92490128D01*
X103573211Y-92568768D01*
X103493256Y-92626859D01*
X103433072Y-92670586D01*
X103433070Y-92670588D01*
X103433069Y-92670588D01*
X103310588Y-92793069D01*
X103310588Y-92793070D01*
X103310586Y-92793072D01*
X103288792Y-92823069D01*
X103208768Y-92933211D01*
X103130128Y-93087552D01*
X103076597Y-93252302D01*
X103049500Y-93423389D01*
X81508000Y-93423389D01*
X81508000Y-92655326D01*
X81508000Y-92655323D01*
X81507999Y-92655321D01*
X81493467Y-92582264D01*
X81493466Y-92582260D01*
X81480105Y-92562264D01*
X81438101Y-92499399D01*
X81370621Y-92454311D01*
X81355239Y-92444033D01*
X81355235Y-92444032D01*
X81282177Y-92429500D01*
X81282174Y-92429500D01*
X79532826Y-92429500D01*
X79532823Y-92429500D01*
X79459764Y-92444032D01*
X79459760Y-92444033D01*
X79376899Y-92499399D01*
X79321533Y-92582260D01*
X79321532Y-92582264D01*
X79307000Y-92655321D01*
X79307000Y-92865050D01*
X79287315Y-92932089D01*
X79234511Y-92977844D01*
X79165353Y-92987788D01*
X79101797Y-92958763D01*
X79072515Y-92921345D01*
X79022120Y-92822442D01*
X78897227Y-92650540D01*
X78897223Y-92650535D01*
X78746964Y-92500276D01*
X78746959Y-92500272D01*
X78575057Y-92375379D01*
X78385715Y-92278903D01*
X78183624Y-92213241D01*
X78117500Y-92202768D01*
X78117500Y-93096988D01*
X78060493Y-93064075D01*
X77933326Y-93030000D01*
X77801674Y-93030000D01*
X77674507Y-93064075D01*
X77617500Y-93096988D01*
X77617500Y-92202768D01*
X77617499Y-92202768D01*
X77551375Y-92213241D01*
X77349284Y-92278903D01*
X77159942Y-92375379D01*
X76988040Y-92500272D01*
X76988035Y-92500276D01*
X76837776Y-92650535D01*
X76837772Y-92650540D01*
X76712879Y-92822442D01*
X76616404Y-93011783D01*
X76584260Y-93110712D01*
X76544822Y-93168388D01*
X76480464Y-93195586D01*
X76411617Y-93183671D01*
X76360142Y-93136427D01*
X76348398Y-93110712D01*
X76347373Y-93107555D01*
X76268732Y-92953212D01*
X76166914Y-92813072D01*
X76044428Y-92690586D01*
X75904288Y-92588768D01*
X75749945Y-92510127D01*
X75585201Y-92456598D01*
X75585199Y-92456597D01*
X75585198Y-92456597D01*
X75453771Y-92435781D01*
X75414111Y-92429500D01*
X75240889Y-92429500D01*
X75201228Y-92435781D01*
X75069802Y-92456597D01*
X74905052Y-92510128D01*
X74750711Y-92588768D01*
X74679391Y-92640586D01*
X74610572Y-92690586D01*
X74610570Y-92690588D01*
X74610569Y-92690588D01*
X74488088Y-92813069D01*
X74488088Y-92813070D01*
X74488086Y-92813072D01*
X74480823Y-92823069D01*
X74386268Y-92953211D01*
X74307628Y-93107552D01*
X74254097Y-93272302D01*
X74227000Y-93443389D01*
X73888000Y-93443389D01*
X73860902Y-93272299D01*
X73807373Y-93107555D01*
X73728732Y-92953212D01*
X73626914Y-92813072D01*
X73504428Y-92690586D01*
X73364288Y-92588768D01*
X73209945Y-92510127D01*
X73045201Y-92456598D01*
X73045199Y-92456597D01*
X73045198Y-92456597D01*
X72913771Y-92435781D01*
X72874111Y-92429500D01*
X72700889Y-92429500D01*
X72661228Y-92435781D01*
X72529802Y-92456597D01*
X72365052Y-92510128D01*
X72210711Y-92588768D01*
X72139391Y-92640586D01*
X72070572Y-92690586D01*
X72070570Y-92690588D01*
X72070569Y-92690588D01*
X71948088Y-92813069D01*
X71948088Y-92813070D01*
X71948086Y-92813072D01*
X71940823Y-92823069D01*
X71846268Y-92953211D01*
X71767628Y-93107552D01*
X71714097Y-93272302D01*
X71687000Y-93443389D01*
X71348000Y-93443389D01*
X71320902Y-93272299D01*
X71267373Y-93107555D01*
X71188732Y-92953212D01*
X71086914Y-92813072D01*
X70964428Y-92690586D01*
X70824288Y-92588768D01*
X70669945Y-92510127D01*
X70505201Y-92456598D01*
X70505199Y-92456597D01*
X70505198Y-92456597D01*
X70373771Y-92435781D01*
X70334111Y-92429500D01*
X70160889Y-92429500D01*
X70121228Y-92435781D01*
X69989802Y-92456597D01*
X69825052Y-92510128D01*
X69670711Y-92588768D01*
X69599391Y-92640586D01*
X69530572Y-92690586D01*
X69530570Y-92690588D01*
X69530569Y-92690588D01*
X69408088Y-92813069D01*
X69408088Y-92813070D01*
X69408086Y-92813072D01*
X69400823Y-92823069D01*
X69306268Y-92953211D01*
X69227628Y-93107552D01*
X69174097Y-93272302D01*
X69147000Y-93443389D01*
X68808000Y-93443389D01*
X68780902Y-93272299D01*
X68727373Y-93107555D01*
X68648732Y-92953212D01*
X68546914Y-92813072D01*
X68424428Y-92690586D01*
X68284288Y-92588768D01*
X68246969Y-92569753D01*
X68125705Y-92507966D01*
X68074909Y-92459991D01*
X68058000Y-92397481D01*
X68058000Y-89679386D01*
X68077685Y-89612347D01*
X68094319Y-89591705D01*
X68148009Y-89538015D01*
X68220484Y-89412485D01*
X68258000Y-89272475D01*
X68258000Y-89127525D01*
X118779500Y-89127525D01*
X118779500Y-89272475D01*
X118815995Y-89408675D01*
X118817017Y-89412488D01*
X118889488Y-89538011D01*
X118889490Y-89538013D01*
X118889491Y-89538015D01*
X118991985Y-89640509D01*
X118991986Y-89640510D01*
X118991988Y-89640511D01*
X119117511Y-89712982D01*
X119117512Y-89712982D01*
X119117515Y-89712984D01*
X119257525Y-89750500D01*
X119333456Y-89750500D01*
X119400495Y-89770185D01*
X119421137Y-89786819D01*
X120974093Y-91339775D01*
X122507420Y-92873101D01*
X122540905Y-92934424D01*
X122535921Y-93004116D01*
X122534301Y-93008231D01*
X122514104Y-93056992D01*
X122514101Y-93057004D01*
X122475500Y-93251062D01*
X122475500Y-93251065D01*
X122475500Y-93448935D01*
X122475500Y-93448937D01*
X122475499Y-93448937D01*
X122514101Y-93642996D01*
X122514104Y-93643006D01*
X122589820Y-93825802D01*
X122589827Y-93825815D01*
X122699753Y-93990330D01*
X122699756Y-93990334D01*
X122839665Y-94130243D01*
X122839669Y-94130246D01*
X123004184Y-94240172D01*
X123004197Y-94240179D01*
X123160898Y-94305086D01*
X123186998Y-94315897D01*
X123187002Y-94315897D01*
X123187003Y-94315898D01*
X123381062Y-94354500D01*
X123381065Y-94354500D01*
X123578937Y-94354500D01*
X123709495Y-94328529D01*
X123773002Y-94315897D01*
X123937990Y-94247557D01*
X123955802Y-94240179D01*
X123955802Y-94240178D01*
X123955809Y-94240176D01*
X124120331Y-94130246D01*
X124260246Y-93990331D01*
X124370176Y-93825809D01*
X124445897Y-93643002D01*
X124484500Y-93448935D01*
X124484500Y-93251065D01*
X124484500Y-93251062D01*
X124445898Y-93057003D01*
X124445897Y-93057002D01*
X124445897Y-93056998D01*
X124434714Y-93030000D01*
X124370179Y-92874197D01*
X124370172Y-92874184D01*
X124318401Y-92796704D01*
X124297523Y-92730027D01*
X124316007Y-92662647D01*
X124367986Y-92615956D01*
X124436956Y-92604780D01*
X124453588Y-92608036D01*
X124531825Y-92629000D01*
X124531828Y-92629000D01*
X124676772Y-92629000D01*
X124676775Y-92629000D01*
X124816785Y-92591484D01*
X124942315Y-92519009D01*
X125044809Y-92416515D01*
X125117284Y-92290985D01*
X125154800Y-92150975D01*
X125154800Y-92006025D01*
X125117284Y-91866015D01*
X125113357Y-91859214D01*
X125044811Y-91740488D01*
X125044806Y-91740482D01*
X124991119Y-91686795D01*
X124957634Y-91625472D01*
X124954800Y-91599114D01*
X124954800Y-90313858D01*
X124954800Y-90313856D01*
X124930914Y-90224712D01*
X124930788Y-90224495D01*
X124930739Y-90224291D01*
X124927803Y-90217202D01*
X124928908Y-90216743D01*
X124914320Y-90156595D01*
X124937174Y-90090569D01*
X124992097Y-90047381D01*
X125038179Y-90038500D01*
X137795410Y-90038500D01*
X137801355Y-90040245D01*
X137807445Y-90039085D01*
X137834489Y-90049975D01*
X137862449Y-90058185D01*
X137866506Y-90062867D01*
X137872257Y-90065183D01*
X137889119Y-90088964D01*
X137908204Y-90110989D01*
X137909085Y-90117123D01*
X137912671Y-90122179D01*
X137913999Y-90151296D01*
X137918148Y-90180147D01*
X137915645Y-90187355D01*
X137915856Y-90191976D01*
X137907249Y-90211534D01*
X137902673Y-90224715D01*
X137900695Y-90228123D01*
X137829824Y-90334191D01*
X137806467Y-90390578D01*
X137802328Y-90397715D01*
X137782737Y-90416319D01*
X137765785Y-90437356D01*
X137757780Y-90440020D01*
X137751664Y-90445829D01*
X137725125Y-90450888D01*
X137699491Y-90459421D01*
X137695065Y-90459500D01*
X137143856Y-90459500D01*
X137054712Y-90483386D01*
X137054711Y-90483386D01*
X137054709Y-90483387D01*
X137054706Y-90483388D01*
X136974794Y-90529526D01*
X136974785Y-90529533D01*
X136219531Y-91284786D01*
X136219527Y-91284791D01*
X136173387Y-91364709D01*
X136173386Y-91364712D01*
X136149500Y-91453856D01*
X136149500Y-96520614D01*
X136129815Y-96587653D01*
X136113181Y-96608295D01*
X136059493Y-96661982D01*
X136059488Y-96661988D01*
X135987017Y-96787511D01*
X135987016Y-96787515D01*
X135949500Y-96927525D01*
X135949500Y-97072475D01*
X135984008Y-97201259D01*
X135987017Y-97212488D01*
X136059488Y-97338011D01*
X136059490Y-97338013D01*
X136059491Y-97338015D01*
X136161985Y-97440509D01*
X136161986Y-97440510D01*
X136161988Y-97440511D01*
X136287511Y-97512982D01*
X136287512Y-97512982D01*
X136287515Y-97512984D01*
X136427525Y-97550500D01*
X136427528Y-97550500D01*
X136572472Y-97550500D01*
X136572475Y-97550500D01*
X136712485Y-97512984D01*
X136838015Y-97440509D01*
X136940509Y-97338015D01*
X137012984Y-97212485D01*
X137050500Y-97072475D01*
X137050500Y-96927525D01*
X137012984Y-96787515D01*
X137001887Y-96768295D01*
X136940511Y-96661988D01*
X136940506Y-96661982D01*
X136886819Y-96608295D01*
X136853334Y-96546972D01*
X136850500Y-96520614D01*
X136850500Y-95988937D01*
X137715499Y-95988937D01*
X137754101Y-96182996D01*
X137754104Y-96183006D01*
X137829820Y-96365802D01*
X137829827Y-96365815D01*
X137939753Y-96530330D01*
X137939756Y-96530334D01*
X138079665Y-96670243D01*
X138079669Y-96670246D01*
X138244184Y-96780172D01*
X138244197Y-96780179D01*
X138345134Y-96821988D01*
X138426998Y-96855897D01*
X138427002Y-96855897D01*
X138427003Y-96855898D01*
X138621062Y-96894500D01*
X138621065Y-96894500D01*
X138818937Y-96894500D01*
X138949495Y-96868529D01*
X139013002Y-96855897D01*
X139195809Y-96780176D01*
X139360331Y-96670246D01*
X139500246Y-96530331D01*
X139610176Y-96365809D01*
X139685897Y-96183002D01*
X139699237Y-96115937D01*
X139724500Y-95988937D01*
X139724500Y-95791062D01*
X139685898Y-95597003D01*
X139685897Y-95597002D01*
X139685897Y-95596998D01*
X139685774Y-95596700D01*
X139610179Y-95414197D01*
X139610172Y-95414184D01*
X139500246Y-95249669D01*
X139500243Y-95249665D01*
X139360334Y-95109756D01*
X139360330Y-95109753D01*
X139195815Y-94999827D01*
X139195802Y-94999820D01*
X139013006Y-94924104D01*
X139012996Y-94924101D01*
X138818937Y-94885500D01*
X138818935Y-94885500D01*
X138621065Y-94885500D01*
X138621063Y-94885500D01*
X138427003Y-94924101D01*
X138426993Y-94924104D01*
X138244197Y-94999820D01*
X138244184Y-94999827D01*
X138079669Y-95109753D01*
X138079665Y-95109756D01*
X137939756Y-95249665D01*
X137939753Y-95249669D01*
X137829827Y-95414184D01*
X137829820Y-95414197D01*
X137754104Y-95596993D01*
X137754101Y-95597003D01*
X137715500Y-95791062D01*
X137715500Y-95791065D01*
X137715500Y-95988935D01*
X137715500Y-95988937D01*
X137715499Y-95988937D01*
X136850500Y-95988937D01*
X136850500Y-93448937D01*
X137715499Y-93448937D01*
X137754101Y-93642996D01*
X137754104Y-93643006D01*
X137829820Y-93825802D01*
X137829827Y-93825815D01*
X137939753Y-93990330D01*
X137939756Y-93990334D01*
X138079665Y-94130243D01*
X138079669Y-94130246D01*
X138244184Y-94240172D01*
X138244197Y-94240179D01*
X138400898Y-94305086D01*
X138426998Y-94315897D01*
X138427002Y-94315897D01*
X138427003Y-94315898D01*
X138621062Y-94354500D01*
X138621065Y-94354500D01*
X138818937Y-94354500D01*
X138949495Y-94328529D01*
X139013002Y-94315897D01*
X139177990Y-94247557D01*
X139195802Y-94240179D01*
X139195802Y-94240178D01*
X139195809Y-94240176D01*
X139360331Y-94130246D01*
X139500246Y-93990331D01*
X139610176Y-93825809D01*
X139685897Y-93643002D01*
X139724500Y-93448935D01*
X139724500Y-93251065D01*
X139724500Y-93251062D01*
X139685898Y-93057003D01*
X139685897Y-93057002D01*
X139685897Y-93056998D01*
X139674714Y-93030000D01*
X139610179Y-92874197D01*
X139610172Y-92874184D01*
X139500246Y-92709669D01*
X139500243Y-92709665D01*
X139360334Y-92569756D01*
X139360330Y-92569753D01*
X139195815Y-92459827D01*
X139195802Y-92459820D01*
X139013006Y-92384104D01*
X139012996Y-92384101D01*
X138818937Y-92345500D01*
X138818935Y-92345500D01*
X138621065Y-92345500D01*
X138621063Y-92345500D01*
X138427003Y-92384101D01*
X138426993Y-92384104D01*
X138244197Y-92459820D01*
X138244184Y-92459827D01*
X138079669Y-92569753D01*
X138079665Y-92569756D01*
X137939756Y-92709665D01*
X137939753Y-92709669D01*
X137829827Y-92874184D01*
X137829820Y-92874197D01*
X137754104Y-93056993D01*
X137754101Y-93057003D01*
X137715500Y-93251062D01*
X137715500Y-93251065D01*
X137715500Y-93448935D01*
X137715500Y-93448937D01*
X137715499Y-93448937D01*
X136850500Y-93448937D01*
X136850500Y-91696543D01*
X136870185Y-91629504D01*
X136886819Y-91608862D01*
X137298862Y-91196819D01*
X137360185Y-91163334D01*
X137386543Y-91160500D01*
X137695065Y-91160500D01*
X137762104Y-91180185D01*
X137807859Y-91232989D01*
X137809626Y-91237047D01*
X137829822Y-91285806D01*
X137829827Y-91285815D01*
X137939753Y-91450330D01*
X137939756Y-91450334D01*
X138079665Y-91590243D01*
X138079669Y-91590246D01*
X138244184Y-91700172D01*
X138244197Y-91700179D01*
X138356476Y-91746686D01*
X138426998Y-91775897D01*
X138427002Y-91775897D01*
X138427003Y-91775898D01*
X138621062Y-91814500D01*
X138621065Y-91814500D01*
X138818937Y-91814500D01*
X138949495Y-91788529D01*
X139013002Y-91775897D01*
X139195809Y-91700176D01*
X139360331Y-91590246D01*
X139500246Y-91450331D01*
X139610176Y-91285809D01*
X139685897Y-91103002D01*
X139716270Y-90950311D01*
X139724500Y-90908937D01*
X139724500Y-90711062D01*
X139685898Y-90517003D01*
X139685897Y-90517002D01*
X139685897Y-90516998D01*
X139671975Y-90483387D01*
X139610179Y-90334197D01*
X139610172Y-90334184D01*
X139541488Y-90231391D01*
X139520610Y-90164713D01*
X139539095Y-90097333D01*
X139591074Y-90050643D01*
X139644590Y-90038500D01*
X140858256Y-90038500D01*
X140925295Y-90058185D01*
X140945937Y-90074819D01*
X143058403Y-92187285D01*
X143091888Y-92248608D01*
X143086904Y-92318300D01*
X143045032Y-92374233D01*
X142990122Y-92397439D01*
X142932300Y-92406597D01*
X142767552Y-92460128D01*
X142613211Y-92538768D01*
X142553345Y-92582264D01*
X142473072Y-92640586D01*
X142473070Y-92640588D01*
X142473069Y-92640588D01*
X142350588Y-92763069D01*
X142350588Y-92763070D01*
X142350586Y-92763072D01*
X142335917Y-92783262D01*
X142248768Y-92903211D01*
X142170128Y-93057552D01*
X142116597Y-93222302D01*
X142098430Y-93337007D01*
X142089500Y-93393389D01*
X142089500Y-93566611D01*
X142116598Y-93737701D01*
X142170127Y-93902445D01*
X142240214Y-94040000D01*
X142248770Y-94056791D01*
X142322759Y-94158629D01*
X142346239Y-94224435D01*
X142330413Y-94292489D01*
X142284442Y-94338900D01*
X142263094Y-94351225D01*
X142263086Y-94351231D01*
X139196896Y-97417420D01*
X139135573Y-97450905D01*
X139065881Y-97445921D01*
X139061763Y-97444300D01*
X139013006Y-97424104D01*
X139012996Y-97424101D01*
X138818937Y-97385500D01*
X138818935Y-97385500D01*
X138621065Y-97385500D01*
X138621063Y-97385500D01*
X138427003Y-97424101D01*
X138426993Y-97424104D01*
X138244197Y-97499820D01*
X138244184Y-97499827D01*
X138079669Y-97609753D01*
X138079665Y-97609756D01*
X137939756Y-97749665D01*
X137939753Y-97749669D01*
X137829827Y-97914184D01*
X137829820Y-97914197D01*
X137754104Y-98096993D01*
X137754101Y-98097003D01*
X137715500Y-98291062D01*
X137715500Y-98291065D01*
X137715500Y-98488935D01*
X137715500Y-98488937D01*
X137715499Y-98488937D01*
X137754101Y-98682996D01*
X137754104Y-98683006D01*
X137829820Y-98865802D01*
X137829827Y-98865815D01*
X137939753Y-99030330D01*
X137939756Y-99030334D01*
X138079665Y-99170243D01*
X138079669Y-99170246D01*
X138244184Y-99280172D01*
X138244197Y-99280179D01*
X138426993Y-99355895D01*
X138426998Y-99355897D01*
X138427002Y-99355897D01*
X138427003Y-99355898D01*
X138621062Y-99394500D01*
X138621065Y-99394500D01*
X138818937Y-99394500D01*
X138949495Y-99368529D01*
X139013002Y-99355897D01*
X139195809Y-99280176D01*
X139360331Y-99170246D01*
X139500246Y-99030331D01*
X139610176Y-98865809D01*
X139685897Y-98683002D01*
X139716543Y-98528937D01*
X139724500Y-98488937D01*
X139724500Y-98291062D01*
X139685898Y-98097003D01*
X139685895Y-98096992D01*
X139665699Y-98048237D01*
X139658229Y-97978768D01*
X139689503Y-97916288D01*
X139692549Y-97913131D01*
X142587163Y-95018519D01*
X142648486Y-94985034D01*
X142674844Y-94982200D01*
X148859942Y-94982200D01*
X148859944Y-94982200D01*
X148949088Y-94958314D01*
X148961865Y-94950937D01*
X149029012Y-94912170D01*
X149702169Y-94239012D01*
X149739090Y-94175063D01*
X149789657Y-94126850D01*
X149858264Y-94113628D01*
X149923129Y-94139596D01*
X149946793Y-94164180D01*
X149970586Y-94196928D01*
X150093072Y-94319414D01*
X150233212Y-94421232D01*
X150387555Y-94499873D01*
X150552299Y-94553402D01*
X150723389Y-94580500D01*
X150723390Y-94580500D01*
X150896610Y-94580500D01*
X150896611Y-94580500D01*
X151067701Y-94553402D01*
X151232445Y-94499873D01*
X151386788Y-94421232D01*
X151526928Y-94319414D01*
X151649414Y-94196928D01*
X151751232Y-94056788D01*
X151829873Y-93902445D01*
X151883402Y-93737701D01*
X151910500Y-93566611D01*
X151910500Y-93393389D01*
X151883402Y-93222299D01*
X151829873Y-93057555D01*
X151751232Y-92903212D01*
X151649414Y-92763072D01*
X151526928Y-92640586D01*
X151386788Y-92538768D01*
X151232445Y-92460127D01*
X151067701Y-92406598D01*
X151067699Y-92406597D01*
X151067698Y-92406597D01*
X150936271Y-92385781D01*
X150896611Y-92379500D01*
X150723389Y-92379500D01*
X150683728Y-92385781D01*
X150552302Y-92406597D01*
X150387552Y-92460128D01*
X150233211Y-92538768D01*
X150173345Y-92582264D01*
X150093072Y-92640586D01*
X150093070Y-92640588D01*
X150093069Y-92640588D01*
X149983881Y-92749777D01*
X149922558Y-92783262D01*
X149852866Y-92778278D01*
X149796933Y-92736406D01*
X149772516Y-92670942D01*
X149772200Y-92662096D01*
X149772200Y-91642186D01*
X149791885Y-91575147D01*
X149808519Y-91554505D01*
X149862209Y-91500815D01*
X149934684Y-91375285D01*
X149972200Y-91235275D01*
X149972200Y-91090325D01*
X149934684Y-90950315D01*
X149922542Y-90929285D01*
X149862211Y-90824788D01*
X149862206Y-90824782D01*
X149759717Y-90722293D01*
X149759711Y-90722288D01*
X149634188Y-90649817D01*
X149634189Y-90649817D01*
X149622706Y-90646740D01*
X149494175Y-90612300D01*
X149349225Y-90612300D01*
X149220693Y-90646740D01*
X149209211Y-90649817D01*
X149083688Y-90722288D01*
X149083682Y-90722293D01*
X148981193Y-90824782D01*
X148981188Y-90824788D01*
X148908717Y-90950311D01*
X148908716Y-90950315D01*
X148871200Y-91090325D01*
X148871200Y-91235275D01*
X148899201Y-91339775D01*
X148908717Y-91375288D01*
X148981188Y-91500811D01*
X148981193Y-91500817D01*
X149034881Y-91554505D01*
X149068366Y-91615828D01*
X149071200Y-91642186D01*
X149071200Y-92458449D01*
X149051515Y-92525488D01*
X148998711Y-92571243D01*
X148929553Y-92581187D01*
X148874314Y-92558767D01*
X148846788Y-92538768D01*
X148692447Y-92460128D01*
X148692446Y-92460127D01*
X148692445Y-92460127D01*
X148527701Y-92406598D01*
X148527699Y-92406597D01*
X148527698Y-92406597D01*
X148396271Y-92385781D01*
X148356611Y-92379500D01*
X148183389Y-92379500D01*
X148143728Y-92385781D01*
X148012302Y-92406597D01*
X147847552Y-92460128D01*
X147693211Y-92538768D01*
X147633345Y-92582264D01*
X147553072Y-92640586D01*
X147553070Y-92640588D01*
X147553069Y-92640588D01*
X147430588Y-92763069D01*
X147430585Y-92763073D01*
X147404394Y-92799121D01*
X147349063Y-92841786D01*
X147279449Y-92847764D01*
X147217655Y-92815157D01*
X147216396Y-92813915D01*
X144853369Y-90450888D01*
X142392012Y-87989530D01*
X142392011Y-87989529D01*
X142392008Y-87989527D01*
X142312090Y-87943387D01*
X142312089Y-87943386D01*
X142312088Y-87943386D01*
X142222944Y-87919500D01*
X142222943Y-87919500D01*
X139744935Y-87919500D01*
X139677896Y-87899815D01*
X139632141Y-87847011D01*
X139630374Y-87842953D01*
X139610177Y-87794193D01*
X139610172Y-87794184D01*
X139500246Y-87629669D01*
X139500243Y-87629665D01*
X139360334Y-87489756D01*
X139360330Y-87489753D01*
X139195815Y-87379827D01*
X139195802Y-87379820D01*
X139013006Y-87304104D01*
X139012996Y-87304101D01*
X138818937Y-87265500D01*
X138818935Y-87265500D01*
X138621065Y-87265500D01*
X138621063Y-87265500D01*
X138427003Y-87304101D01*
X138426993Y-87304104D01*
X138244197Y-87379820D01*
X138244184Y-87379827D01*
X138079669Y-87489753D01*
X138079665Y-87489756D01*
X137939756Y-87629665D01*
X137939753Y-87629669D01*
X137829827Y-87794184D01*
X137829820Y-87794197D01*
X137754104Y-87976993D01*
X137754101Y-87977003D01*
X137715500Y-88171062D01*
X137715500Y-88171065D01*
X137715500Y-88368935D01*
X137715500Y-88368937D01*
X137715499Y-88368937D01*
X137754101Y-88562996D01*
X137754104Y-88563006D01*
X137829820Y-88745802D01*
X137829827Y-88745815D01*
X137939753Y-88910330D01*
X137939756Y-88910334D01*
X138079665Y-89050243D01*
X138079669Y-89050246D01*
X138169692Y-89110398D01*
X138214497Y-89164010D01*
X138223204Y-89233335D01*
X138193049Y-89296363D01*
X138133606Y-89333082D01*
X138100801Y-89337500D01*
X125094544Y-89337500D01*
X125027505Y-89317815D01*
X125006863Y-89301181D01*
X124452579Y-88746897D01*
X124419094Y-88685574D01*
X124424078Y-88615882D01*
X124425699Y-88611763D01*
X124427251Y-88608017D01*
X124445897Y-88563002D01*
X124484500Y-88368935D01*
X124484500Y-88171065D01*
X124484500Y-88171062D01*
X124445898Y-87977003D01*
X124445897Y-87977002D01*
X124445897Y-87976998D01*
X124431975Y-87943387D01*
X124370179Y-87794197D01*
X124370172Y-87794184D01*
X124260246Y-87629669D01*
X124260243Y-87629665D01*
X124120334Y-87489756D01*
X124120330Y-87489753D01*
X123955815Y-87379827D01*
X123955802Y-87379820D01*
X123773006Y-87304104D01*
X123772996Y-87304101D01*
X123578937Y-87265500D01*
X123578935Y-87265500D01*
X123381065Y-87265500D01*
X123381063Y-87265500D01*
X123187003Y-87304101D01*
X123186993Y-87304104D01*
X123004197Y-87379820D01*
X123004181Y-87379829D01*
X122967689Y-87404212D01*
X122901012Y-87425089D01*
X122833632Y-87406603D01*
X122786942Y-87354624D01*
X122774800Y-87301109D01*
X122774800Y-86982243D01*
X122794485Y-86915204D01*
X122811119Y-86894562D01*
X123003104Y-86702576D01*
X123064425Y-86669093D01*
X123134116Y-86674077D01*
X123138217Y-86675691D01*
X123160587Y-86684957D01*
X123186992Y-86695895D01*
X123186995Y-86695895D01*
X123186998Y-86695897D01*
X123187002Y-86695897D01*
X123187003Y-86695898D01*
X123381062Y-86734500D01*
X123381065Y-86734500D01*
X123578937Y-86734500D01*
X123709495Y-86708529D01*
X123773002Y-86695897D01*
X123955809Y-86620176D01*
X124120331Y-86510246D01*
X124260246Y-86370331D01*
X124370176Y-86205809D01*
X124445897Y-86023002D01*
X124484500Y-85828935D01*
X124484500Y-85631065D01*
X124484500Y-85631062D01*
X124445898Y-85437003D01*
X124445897Y-85437002D01*
X124445897Y-85436998D01*
X124445895Y-85436993D01*
X124370179Y-85254197D01*
X124370172Y-85254184D01*
X124260246Y-85089669D01*
X124260243Y-85089665D01*
X124120334Y-84949756D01*
X124120330Y-84949753D01*
X123955815Y-84839827D01*
X123955802Y-84839820D01*
X123773006Y-84764104D01*
X123772996Y-84764101D01*
X123578937Y-84725500D01*
X123578935Y-84725500D01*
X123381065Y-84725500D01*
X123381063Y-84725500D01*
X123187003Y-84764101D01*
X123186993Y-84764104D01*
X123004197Y-84839820D01*
X123004184Y-84839827D01*
X122839669Y-84949753D01*
X122839665Y-84949756D01*
X122699756Y-85089665D01*
X122699753Y-85089669D01*
X122589827Y-85254184D01*
X122589820Y-85254197D01*
X122514104Y-85436993D01*
X122514101Y-85437003D01*
X122475500Y-85631062D01*
X122475500Y-85631065D01*
X122475500Y-85828935D01*
X122475500Y-85828937D01*
X122475499Y-85828937D01*
X122514101Y-86022996D01*
X122514104Y-86023006D01*
X122534300Y-86071763D01*
X122541769Y-86141232D01*
X122510494Y-86203711D01*
X122507420Y-86206896D01*
X122143831Y-86570486D01*
X122143827Y-86570491D01*
X122115143Y-86620175D01*
X122115143Y-86620176D01*
X122097686Y-86650410D01*
X122073800Y-86739556D01*
X122073800Y-88757043D01*
X122090802Y-88820499D01*
X122097684Y-88846183D01*
X122097687Y-88846190D01*
X122143827Y-88926108D01*
X122143829Y-88926111D01*
X122143830Y-88926112D01*
X122896588Y-89678870D01*
X122975075Y-89724184D01*
X123023290Y-89774750D01*
X123036514Y-89843357D01*
X123010546Y-89908222D01*
X122981966Y-89934673D01*
X122839669Y-90029753D01*
X122839665Y-90029756D01*
X122699756Y-90169665D01*
X122699753Y-90169669D01*
X122589827Y-90334184D01*
X122589820Y-90334197D01*
X122514104Y-90516993D01*
X122514101Y-90517003D01*
X122475500Y-90711062D01*
X122475500Y-90711065D01*
X122475500Y-90908935D01*
X122475500Y-90908937D01*
X122475499Y-90908937D01*
X122514101Y-91102996D01*
X122514104Y-91103006D01*
X122589820Y-91285802D01*
X122589827Y-91285815D01*
X122699753Y-91450330D01*
X122699756Y-91450334D01*
X122839665Y-91590243D01*
X122839669Y-91590246D01*
X123004184Y-91700172D01*
X123004197Y-91700179D01*
X123116476Y-91746686D01*
X123186998Y-91775897D01*
X123187002Y-91775897D01*
X123187003Y-91775898D01*
X123381062Y-91814500D01*
X123381065Y-91814500D01*
X123578937Y-91814500D01*
X123709495Y-91788529D01*
X123773002Y-91775897D01*
X123925911Y-91712559D01*
X123995379Y-91705091D01*
X124057859Y-91736366D01*
X124093511Y-91796455D01*
X124093138Y-91859214D01*
X124053800Y-92006025D01*
X124053800Y-92150975D01*
X124091316Y-92290985D01*
X124091317Y-92290986D01*
X124093420Y-92298835D01*
X124090703Y-92299562D01*
X124096702Y-92355465D01*
X124065414Y-92417938D01*
X124005317Y-92453577D01*
X123935492Y-92451068D01*
X123927225Y-92447983D01*
X123773006Y-92384104D01*
X123772996Y-92384101D01*
X123578937Y-92345500D01*
X123578935Y-92345500D01*
X123381065Y-92345500D01*
X123381063Y-92345500D01*
X123187004Y-92384101D01*
X123186992Y-92384104D01*
X123138231Y-92404301D01*
X123068762Y-92411768D01*
X123006283Y-92380491D01*
X123003101Y-92377420D01*
X119916819Y-89291137D01*
X119883334Y-89229814D01*
X119880500Y-89203456D01*
X119880500Y-89127527D01*
X119880500Y-89127525D01*
X119842984Y-88987515D01*
X119820967Y-88949381D01*
X119770511Y-88861988D01*
X119770506Y-88861982D01*
X119668017Y-88759493D01*
X119668011Y-88759488D01*
X119542488Y-88687017D01*
X119542489Y-88687017D01*
X119525060Y-88682347D01*
X119402475Y-88649500D01*
X119257525Y-88649500D01*
X119134940Y-88682347D01*
X119117511Y-88687017D01*
X118991988Y-88759488D01*
X118991982Y-88759493D01*
X118889493Y-88861982D01*
X118889488Y-88861988D01*
X118817017Y-88987511D01*
X118817016Y-88987515D01*
X118779500Y-89127525D01*
X68258000Y-89127525D01*
X68220484Y-88987515D01*
X68198467Y-88949381D01*
X68148011Y-88861988D01*
X68148006Y-88861982D01*
X68045517Y-88759493D01*
X68045511Y-88759488D01*
X67919988Y-88687017D01*
X67919989Y-88687017D01*
X67902560Y-88682347D01*
X67779975Y-88649500D01*
X67635025Y-88649500D01*
X67512440Y-88682347D01*
X67495011Y-88687017D01*
X67369488Y-88759488D01*
X67369482Y-88759493D01*
X67266993Y-88861982D01*
X67266988Y-88861988D01*
X67194517Y-88987511D01*
X67194516Y-88987515D01*
X67157000Y-89127525D01*
X67157000Y-89272475D01*
X67193495Y-89408675D01*
X67194517Y-89412488D01*
X67266988Y-89538011D01*
X67266993Y-89538017D01*
X67320681Y-89591705D01*
X67354166Y-89653028D01*
X67357000Y-89679386D01*
X67357000Y-92397481D01*
X67337315Y-92464520D01*
X67289295Y-92507966D01*
X67130711Y-92588768D01*
X67059391Y-92640586D01*
X66990572Y-92690586D01*
X66990570Y-92690588D01*
X66990569Y-92690588D01*
X66868088Y-92813069D01*
X66868088Y-92813070D01*
X66868086Y-92813072D01*
X66860823Y-92823069D01*
X66766268Y-92953211D01*
X66687628Y-93107552D01*
X66634097Y-93272302D01*
X66607000Y-93443389D01*
X66268000Y-93443389D01*
X66240902Y-93272299D01*
X66187373Y-93107555D01*
X66108732Y-92953212D01*
X66006914Y-92813072D01*
X65884428Y-92690586D01*
X65744288Y-92588768D01*
X65589945Y-92510127D01*
X65425201Y-92456598D01*
X65425199Y-92456597D01*
X65425198Y-92456597D01*
X65293771Y-92435781D01*
X65254111Y-92429500D01*
X65080889Y-92429500D01*
X65041228Y-92435781D01*
X64909802Y-92456597D01*
X64745052Y-92510128D01*
X64590711Y-92588768D01*
X64519391Y-92640586D01*
X64450572Y-92690586D01*
X64450570Y-92690588D01*
X64450569Y-92690588D01*
X64328088Y-92813069D01*
X64328088Y-92813070D01*
X64328086Y-92813072D01*
X64320823Y-92823069D01*
X64226268Y-92953211D01*
X64147628Y-93107552D01*
X64094097Y-93272302D01*
X64067000Y-93443389D01*
X52516275Y-93443389D01*
X52527971Y-83700221D01*
X52547735Y-83633209D01*
X52600594Y-83587518D01*
X52669764Y-83577657D01*
X52733285Y-83606759D01*
X52750346Y-83624888D01*
X52783370Y-83667926D01*
X52783376Y-83667933D01*
X52978066Y-83862623D01*
X52978072Y-83862628D01*
X53196521Y-84030249D01*
X53349778Y-84118732D01*
X53434971Y-84167919D01*
X53434976Y-84167921D01*
X53434979Y-84167923D01*
X53689368Y-84273295D01*
X53955334Y-84344560D01*
X54228326Y-84380500D01*
X54228333Y-84380500D01*
X54503667Y-84380500D01*
X54503674Y-84380500D01*
X54776666Y-84344560D01*
X55042632Y-84273295D01*
X55297021Y-84167923D01*
X55535479Y-84030249D01*
X55753928Y-83862628D01*
X55948628Y-83667928D01*
X56116249Y-83449479D01*
X56253923Y-83211021D01*
X56359295Y-82956632D01*
X56430560Y-82690666D01*
X56466500Y-82417674D01*
X56466500Y-82142326D01*
X56430560Y-81869334D01*
X56359295Y-81603368D01*
X56253923Y-81348979D01*
X56253921Y-81348976D01*
X56253919Y-81348971D01*
X56204732Y-81263778D01*
X56116249Y-81110521D01*
X56013041Y-80976017D01*
X55948629Y-80892073D01*
X55948623Y-80892066D01*
X55753933Y-80697376D01*
X55753926Y-80697370D01*
X55535483Y-80529754D01*
X55535482Y-80529753D01*
X55535479Y-80529751D01*
X55440407Y-80474861D01*
X55297028Y-80392080D01*
X55297017Y-80392075D01*
X55042630Y-80286704D01*
X54874457Y-80241643D01*
X54776666Y-80215440D01*
X54776660Y-80215439D01*
X54776655Y-80215438D01*
X54503684Y-80179501D01*
X54503679Y-80179500D01*
X54503674Y-80179500D01*
X54228326Y-80179500D01*
X54228320Y-80179500D01*
X54228315Y-80179501D01*
X53955344Y-80215438D01*
X53955337Y-80215439D01*
X53955334Y-80215440D01*
X53899125Y-80230500D01*
X53689369Y-80286704D01*
X53434982Y-80392075D01*
X53434971Y-80392080D01*
X53196516Y-80529754D01*
X52978073Y-80697370D01*
X52978066Y-80697376D01*
X52783376Y-80892066D01*
X52783367Y-80892076D01*
X52753761Y-80930660D01*
X52697333Y-80971863D01*
X52627587Y-80976017D01*
X52566667Y-80941804D01*
X52533914Y-80880086D01*
X52531386Y-80855030D01*
X52532528Y-79904351D01*
X52552293Y-79837335D01*
X52605152Y-79791644D01*
X52656528Y-79780500D01*
X66657779Y-79780500D01*
X125337535Y-79850944D01*
G37*
%TD.AperFunction*%
%TD*%
M02*
