M48
; DRILL file KiCad 10.0.3 date 2026-08-28T22:21:42
; FORMAT={-:-/ absolute / metric / decimal}
; #@! TF.CreationDate,2026-08-28T22:21:42-04:00
; #@! TF.GenerationSoftware,Kicad,Pcbnew,10.0.3
; #@! TF.FileFunction,MixedPlating,1,2
FMAT,2
METRIC
; #@! TA.AperFunction,Plated,PTH,ViaDrill
T1C0.300
; #@! TA.AperFunction,Plated,PTH,ComponentDrill
T2C0.800
; #@! TA.AperFunction,Plated,PTH,ComponentDrill
T3C1.000
; #@! TA.AperFunction,Plated,PTH,ComponentDrill
T4C1.100
%
G90
G05
T1
X70.248Y-95.686
X75.328Y-91.037
X77.867Y-86.355
X101.503Y-94.55
X108.869Y-95.686
X136.815Y-89.225
X139.5Y-92.5
X148.27Y-97.326
X153.35Y-90.088
X155.89Y-82.358
X162.275Y-95.049
X184.66Y-101.33
X185.93Y-87.172
X188.47Y-85.946
X189.74Y-96.615
X192.28Y-90.088
X199.528Y-94.572
X203.045Y-88.63
X215.204Y-91.17
X221.724Y-97.835
X223.062Y-99.725
T2
X118.06Y-82.428
X118.06Y-84.928
T3
X65.168Y-93.53
X67.707Y-93.53
X70.248Y-93.53
X72.787Y-93.53
X75.328Y-93.53
X77.867Y-93.53
X80.407Y-93.53
X104.15Y-93.51
X106.69Y-93.51
X109.23Y-93.51
X111.77Y-93.51
X114.31Y-93.51
X116.85Y-93.51
X119.39Y-93.51
X123.44Y-83.55
X123.44Y-86.09
X123.44Y-88.67
X123.44Y-91.17
X123.44Y-93.71
X123.44Y-96.25
X123.44Y-98.79
X123.44Y-101.33
X123.55Y-81.01
X138.68Y-83.55
X138.68Y-86.09
X138.68Y-88.63
X138.68Y-91.17
X138.68Y-93.71
X138.68Y-96.25
X138.68Y-98.79
X138.68Y-101.33
X138.72Y-81.127
X143.19Y-93.48
X145.73Y-93.48
X148.27Y-93.48
X150.81Y-93.48
X153.35Y-93.48
X155.89Y-93.48
X158.43Y-93.48
X182.12Y-93.54
X184.66Y-93.54
X187.2Y-93.54
X189.74Y-93.54
X192.28Y-93.54
X194.82Y-93.54
X197.36Y-93.54
X221.1Y-93.54
X223.64Y-93.54
X226.18Y-93.54
X228.72Y-93.54
X231.26Y-93.54
X233.8Y-93.54
X236.34Y-93.54
T4
X188.92Y-101.03
X188.92Y-105.53
X195.42Y-101.03
X195.42Y-105.53
X203.045Y-101.155
X203.045Y-105.655
X209.545Y-101.155
X209.545Y-105.655
X217.17Y-101.28
X217.17Y-105.78
X223.67Y-101.28
X223.67Y-105.78
M30
