%TF.GenerationSoftware,KiCad,Pcbnew,10.0.3*%
%TF.CreationDate,2026-08-29T11:16:05-04:00*%
%TF.ProjectId,hot_info_orbs,686f745f-696e-4666-9f5f-6f7262732e6b,1.1*%
%TF.SameCoordinates,Original*%
%TF.FileFunction,Legend,Bot*%
%TF.FilePolarity,Positive*%
%FSLAX46Y46*%
G04 Gerber Fmt 4.6, Leading zero omitted, Abs format (unit mm)*
G04 Created by KiCad (PCBNEW 10.0.3) date 2026-08-29 11:16:05*
%MOMM*%
%LPD*%
G01*
G04 APERTURE LIST*
%ADD10C,0.100000*%
%ADD11C,0.160000*%
%ADD12C,0.250000*%
%ADD13C,0.300000*%
%ADD14C,0.150000*%
%ADD15C,0.127000*%
%ADD16C,0.200000*%
G04 APERTURE END LIST*
D10*
X125280000Y-82930000D02*
X137150000Y-82930000D01*
X137150000Y-88590000D01*
X125280000Y-88590000D01*
X125280000Y-82930000D01*
X174633104Y-94598972D02*
X173833104Y-94265639D01*
X173833104Y-94265639D02*
X174633104Y-93932306D01*
X173909295Y-93027544D02*
X173871200Y-93075163D01*
X173871200Y-93075163D02*
X173833104Y-93218020D01*
X173833104Y-93218020D02*
X173833104Y-93313258D01*
X173833104Y-93313258D02*
X173871200Y-93456115D01*
X173871200Y-93456115D02*
X173947390Y-93551353D01*
X173947390Y-93551353D02*
X174023580Y-93598972D01*
X174023580Y-93598972D02*
X174175961Y-93646591D01*
X174175961Y-93646591D02*
X174290247Y-93646591D01*
X174290247Y-93646591D02*
X174442628Y-93598972D01*
X174442628Y-93598972D02*
X174518819Y-93551353D01*
X174518819Y-93551353D02*
X174595009Y-93456115D01*
X174595009Y-93456115D02*
X174633104Y-93313258D01*
X174633104Y-93313258D02*
X174633104Y-93218020D01*
X174633104Y-93218020D02*
X174595009Y-93075163D01*
X174595009Y-93075163D02*
X174556914Y-93027544D01*
X173909295Y-92027544D02*
X173871200Y-92075163D01*
X173871200Y-92075163D02*
X173833104Y-92218020D01*
X173833104Y-92218020D02*
X173833104Y-92313258D01*
X173833104Y-92313258D02*
X173871200Y-92456115D01*
X173871200Y-92456115D02*
X173947390Y-92551353D01*
X173947390Y-92551353D02*
X174023580Y-92598972D01*
X174023580Y-92598972D02*
X174175961Y-92646591D01*
X174175961Y-92646591D02*
X174290247Y-92646591D01*
X174290247Y-92646591D02*
X174442628Y-92598972D01*
X174442628Y-92598972D02*
X174518819Y-92551353D01*
X174518819Y-92551353D02*
X174595009Y-92456115D01*
X174595009Y-92456115D02*
X174633104Y-92313258D01*
X174633104Y-92313258D02*
X174633104Y-92218020D01*
X174633104Y-92218020D02*
X174595009Y-92075163D01*
X174595009Y-92075163D02*
X174556914Y-92027544D01*
X166955009Y-94022306D02*
X166993104Y-94117544D01*
X166993104Y-94117544D02*
X166993104Y-94260401D01*
X166993104Y-94260401D02*
X166955009Y-94403258D01*
X166955009Y-94403258D02*
X166878819Y-94498496D01*
X166878819Y-94498496D02*
X166802628Y-94546115D01*
X166802628Y-94546115D02*
X166650247Y-94593734D01*
X166650247Y-94593734D02*
X166535961Y-94593734D01*
X166535961Y-94593734D02*
X166383580Y-94546115D01*
X166383580Y-94546115D02*
X166307390Y-94498496D01*
X166307390Y-94498496D02*
X166231200Y-94403258D01*
X166231200Y-94403258D02*
X166193104Y-94260401D01*
X166193104Y-94260401D02*
X166193104Y-94165163D01*
X166193104Y-94165163D02*
X166231200Y-94022306D01*
X166231200Y-94022306D02*
X166269295Y-93974687D01*
X166269295Y-93974687D02*
X166535961Y-93974687D01*
X166535961Y-93974687D02*
X166535961Y-94165163D01*
X166193104Y-93546115D02*
X166993104Y-93546115D01*
X166993104Y-93546115D02*
X166193104Y-92974687D01*
X166193104Y-92974687D02*
X166993104Y-92974687D01*
X166193104Y-92498496D02*
X166993104Y-92498496D01*
X166993104Y-92498496D02*
X166993104Y-92260401D01*
X166993104Y-92260401D02*
X166955009Y-92117544D01*
X166955009Y-92117544D02*
X166878819Y-92022306D01*
X166878819Y-92022306D02*
X166802628Y-91974687D01*
X166802628Y-91974687D02*
X166650247Y-91927068D01*
X166650247Y-91927068D02*
X166535961Y-91927068D01*
X166535961Y-91927068D02*
X166383580Y-91974687D01*
X166383580Y-91974687D02*
X166307390Y-92022306D01*
X166307390Y-92022306D02*
X166231200Y-92117544D01*
X166231200Y-92117544D02*
X166193104Y-92260401D01*
X166193104Y-92260401D02*
X166193104Y-92498496D01*
D11*
X134476641Y-103418817D02*
X134143308Y-103418817D01*
X134000451Y-103837865D02*
X134476641Y-103837865D01*
X134476641Y-103837865D02*
X134476641Y-103037865D01*
X134476641Y-103037865D02*
X134000451Y-103037865D01*
X133619498Y-103799770D02*
X133476641Y-103837865D01*
X133476641Y-103837865D02*
X133238546Y-103837865D01*
X133238546Y-103837865D02*
X133143308Y-103799770D01*
X133143308Y-103799770D02*
X133095689Y-103761674D01*
X133095689Y-103761674D02*
X133048070Y-103685484D01*
X133048070Y-103685484D02*
X133048070Y-103609293D01*
X133048070Y-103609293D02*
X133095689Y-103533103D01*
X133095689Y-103533103D02*
X133143308Y-103495008D01*
X133143308Y-103495008D02*
X133238546Y-103456912D01*
X133238546Y-103456912D02*
X133429022Y-103418817D01*
X133429022Y-103418817D02*
X133524260Y-103380722D01*
X133524260Y-103380722D02*
X133571879Y-103342627D01*
X133571879Y-103342627D02*
X133619498Y-103266436D01*
X133619498Y-103266436D02*
X133619498Y-103190246D01*
X133619498Y-103190246D02*
X133571879Y-103114055D01*
X133571879Y-103114055D02*
X133524260Y-103075960D01*
X133524260Y-103075960D02*
X133429022Y-103037865D01*
X133429022Y-103037865D02*
X133190927Y-103037865D01*
X133190927Y-103037865D02*
X133048070Y-103075960D01*
X132619498Y-103837865D02*
X132619498Y-103037865D01*
X132619498Y-103037865D02*
X132238546Y-103037865D01*
X132238546Y-103037865D02*
X132143308Y-103075960D01*
X132143308Y-103075960D02*
X132095689Y-103114055D01*
X132095689Y-103114055D02*
X132048070Y-103190246D01*
X132048070Y-103190246D02*
X132048070Y-103304531D01*
X132048070Y-103304531D02*
X132095689Y-103380722D01*
X132095689Y-103380722D02*
X132143308Y-103418817D01*
X132143308Y-103418817D02*
X132238546Y-103456912D01*
X132238546Y-103456912D02*
X132619498Y-103456912D01*
X131714736Y-103037865D02*
X131095689Y-103037865D01*
X131095689Y-103037865D02*
X131429022Y-103342627D01*
X131429022Y-103342627D02*
X131286165Y-103342627D01*
X131286165Y-103342627D02*
X131190927Y-103380722D01*
X131190927Y-103380722D02*
X131143308Y-103418817D01*
X131143308Y-103418817D02*
X131095689Y-103495008D01*
X131095689Y-103495008D02*
X131095689Y-103685484D01*
X131095689Y-103685484D02*
X131143308Y-103761674D01*
X131143308Y-103761674D02*
X131190927Y-103799770D01*
X131190927Y-103799770D02*
X131286165Y-103837865D01*
X131286165Y-103837865D02*
X131571879Y-103837865D01*
X131571879Y-103837865D02*
X131667117Y-103799770D01*
X131667117Y-103799770D02*
X131714736Y-103761674D01*
X130714736Y-103114055D02*
X130667117Y-103075960D01*
X130667117Y-103075960D02*
X130571879Y-103037865D01*
X130571879Y-103037865D02*
X130333784Y-103037865D01*
X130333784Y-103037865D02*
X130238546Y-103075960D01*
X130238546Y-103075960D02*
X130190927Y-103114055D01*
X130190927Y-103114055D02*
X130143308Y-103190246D01*
X130143308Y-103190246D02*
X130143308Y-103266436D01*
X130143308Y-103266436D02*
X130190927Y-103380722D01*
X130190927Y-103380722D02*
X130762355Y-103837865D01*
X130762355Y-103837865D02*
X130143308Y-103837865D01*
X133952832Y-104363915D02*
X134048070Y-104325820D01*
X134048070Y-104325820D02*
X134190927Y-104325820D01*
X134190927Y-104325820D02*
X134333784Y-104363915D01*
X134333784Y-104363915D02*
X134429022Y-104440105D01*
X134429022Y-104440105D02*
X134476641Y-104516296D01*
X134476641Y-104516296D02*
X134524260Y-104668677D01*
X134524260Y-104668677D02*
X134524260Y-104782963D01*
X134524260Y-104782963D02*
X134476641Y-104935344D01*
X134476641Y-104935344D02*
X134429022Y-105011534D01*
X134429022Y-105011534D02*
X134333784Y-105087725D01*
X134333784Y-105087725D02*
X134190927Y-105125820D01*
X134190927Y-105125820D02*
X134095689Y-105125820D01*
X134095689Y-105125820D02*
X133952832Y-105087725D01*
X133952832Y-105087725D02*
X133905213Y-105049629D01*
X133905213Y-105049629D02*
X133905213Y-104782963D01*
X133905213Y-104782963D02*
X134095689Y-104782963D01*
X133286165Y-104325820D02*
X133095689Y-104325820D01*
X133095689Y-104325820D02*
X133000451Y-104363915D01*
X133000451Y-104363915D02*
X132905213Y-104440105D01*
X132905213Y-104440105D02*
X132857594Y-104592486D01*
X132857594Y-104592486D02*
X132857594Y-104859153D01*
X132857594Y-104859153D02*
X132905213Y-105011534D01*
X132905213Y-105011534D02*
X133000451Y-105087725D01*
X133000451Y-105087725D02*
X133095689Y-105125820D01*
X133095689Y-105125820D02*
X133286165Y-105125820D01*
X133286165Y-105125820D02*
X133381403Y-105087725D01*
X133381403Y-105087725D02*
X133476641Y-105011534D01*
X133476641Y-105011534D02*
X133524260Y-104859153D01*
X133524260Y-104859153D02*
X133524260Y-104592486D01*
X133524260Y-104592486D02*
X133476641Y-104440105D01*
X133476641Y-104440105D02*
X133381403Y-104363915D01*
X133381403Y-104363915D02*
X133286165Y-104325820D01*
X132429022Y-104706772D02*
X132095689Y-104706772D01*
X131952832Y-105125820D02*
X132429022Y-105125820D01*
X132429022Y-105125820D02*
X132429022Y-104325820D01*
X132429022Y-104325820D02*
X131952832Y-104325820D01*
X131571879Y-105087725D02*
X131429022Y-105125820D01*
X131429022Y-105125820D02*
X131190927Y-105125820D01*
X131190927Y-105125820D02*
X131095689Y-105087725D01*
X131095689Y-105087725D02*
X131048070Y-105049629D01*
X131048070Y-105049629D02*
X131000451Y-104973439D01*
X131000451Y-104973439D02*
X131000451Y-104897248D01*
X131000451Y-104897248D02*
X131048070Y-104821058D01*
X131048070Y-104821058D02*
X131095689Y-104782963D01*
X131095689Y-104782963D02*
X131190927Y-104744867D01*
X131190927Y-104744867D02*
X131381403Y-104706772D01*
X131381403Y-104706772D02*
X131476641Y-104668677D01*
X131476641Y-104668677D02*
X131524260Y-104630582D01*
X131524260Y-104630582D02*
X131571879Y-104554391D01*
X131571879Y-104554391D02*
X131571879Y-104478201D01*
X131571879Y-104478201D02*
X131524260Y-104402010D01*
X131524260Y-104402010D02*
X131476641Y-104363915D01*
X131476641Y-104363915D02*
X131381403Y-104325820D01*
X131381403Y-104325820D02*
X131143308Y-104325820D01*
X131143308Y-104325820D02*
X131000451Y-104363915D01*
X129619498Y-104325820D02*
X129429022Y-104325820D01*
X129429022Y-104325820D02*
X129333784Y-104363915D01*
X129333784Y-104363915D02*
X129238546Y-104440105D01*
X129238546Y-104440105D02*
X129190927Y-104592486D01*
X129190927Y-104592486D02*
X129190927Y-104859153D01*
X129190927Y-104859153D02*
X129238546Y-105011534D01*
X129238546Y-105011534D02*
X129333784Y-105087725D01*
X129333784Y-105087725D02*
X129429022Y-105125820D01*
X129429022Y-105125820D02*
X129619498Y-105125820D01*
X129619498Y-105125820D02*
X129714736Y-105087725D01*
X129714736Y-105087725D02*
X129809974Y-105011534D01*
X129809974Y-105011534D02*
X129857593Y-104859153D01*
X129857593Y-104859153D02*
X129857593Y-104592486D01*
X129857593Y-104592486D02*
X129809974Y-104440105D01*
X129809974Y-104440105D02*
X129714736Y-104363915D01*
X129714736Y-104363915D02*
X129619498Y-104325820D01*
X128762355Y-105125820D02*
X128762355Y-104325820D01*
X128762355Y-104325820D02*
X128190927Y-105125820D01*
X128190927Y-105125820D02*
X128190927Y-104325820D01*
X134619498Y-105613775D02*
X134048070Y-105613775D01*
X134333784Y-106413775D02*
X134333784Y-105613775D01*
X133714736Y-106413775D02*
X133714736Y-105613775D01*
X133714736Y-105994727D02*
X133143308Y-105994727D01*
X133143308Y-106413775D02*
X133143308Y-105613775D01*
X132667117Y-106413775D02*
X132667117Y-105613775D01*
X132238546Y-106375680D02*
X132095689Y-106413775D01*
X132095689Y-106413775D02*
X131857594Y-106413775D01*
X131857594Y-106413775D02*
X131762356Y-106375680D01*
X131762356Y-106375680D02*
X131714737Y-106337584D01*
X131714737Y-106337584D02*
X131667118Y-106261394D01*
X131667118Y-106261394D02*
X131667118Y-106185203D01*
X131667118Y-106185203D02*
X131714737Y-106109013D01*
X131714737Y-106109013D02*
X131762356Y-106070918D01*
X131762356Y-106070918D02*
X131857594Y-106032822D01*
X131857594Y-106032822D02*
X132048070Y-105994727D01*
X132048070Y-105994727D02*
X132143308Y-105956632D01*
X132143308Y-105956632D02*
X132190927Y-105918537D01*
X132190927Y-105918537D02*
X132238546Y-105842346D01*
X132238546Y-105842346D02*
X132238546Y-105766156D01*
X132238546Y-105766156D02*
X132190927Y-105689965D01*
X132190927Y-105689965D02*
X132143308Y-105651870D01*
X132143308Y-105651870D02*
X132048070Y-105613775D01*
X132048070Y-105613775D02*
X131809975Y-105613775D01*
X131809975Y-105613775D02*
X131667118Y-105651870D01*
X130524260Y-106375680D02*
X130381403Y-106413775D01*
X130381403Y-106413775D02*
X130143308Y-106413775D01*
X130143308Y-106413775D02*
X130048070Y-106375680D01*
X130048070Y-106375680D02*
X130000451Y-106337584D01*
X130000451Y-106337584D02*
X129952832Y-106261394D01*
X129952832Y-106261394D02*
X129952832Y-106185203D01*
X129952832Y-106185203D02*
X130000451Y-106109013D01*
X130000451Y-106109013D02*
X130048070Y-106070918D01*
X130048070Y-106070918D02*
X130143308Y-106032822D01*
X130143308Y-106032822D02*
X130333784Y-105994727D01*
X130333784Y-105994727D02*
X130429022Y-105956632D01*
X130429022Y-105956632D02*
X130476641Y-105918537D01*
X130476641Y-105918537D02*
X130524260Y-105842346D01*
X130524260Y-105842346D02*
X130524260Y-105766156D01*
X130524260Y-105766156D02*
X130476641Y-105689965D01*
X130476641Y-105689965D02*
X130429022Y-105651870D01*
X130429022Y-105651870D02*
X130333784Y-105613775D01*
X130333784Y-105613775D02*
X130095689Y-105613775D01*
X130095689Y-105613775D02*
X129952832Y-105651870D01*
X129524260Y-106413775D02*
X129524260Y-105613775D01*
X129048070Y-106413775D02*
X129048070Y-105613775D01*
X129048070Y-105613775D02*
X128809975Y-105613775D01*
X128809975Y-105613775D02*
X128667118Y-105651870D01*
X128667118Y-105651870D02*
X128571880Y-105728060D01*
X128571880Y-105728060D02*
X128524261Y-105804251D01*
X128524261Y-105804251D02*
X128476642Y-105956632D01*
X128476642Y-105956632D02*
X128476642Y-106070918D01*
X128476642Y-106070918D02*
X128524261Y-106223299D01*
X128524261Y-106223299D02*
X128571880Y-106299489D01*
X128571880Y-106299489D02*
X128667118Y-106375680D01*
X128667118Y-106375680D02*
X128809975Y-106413775D01*
X128809975Y-106413775D02*
X129048070Y-106413775D01*
X128048070Y-105994727D02*
X127714737Y-105994727D01*
X127571880Y-106413775D02*
X128048070Y-106413775D01*
X128048070Y-106413775D02*
X128048070Y-105613775D01*
X128048070Y-105613775D02*
X127571880Y-105613775D01*
D12*
X133385050Y-85858904D02*
X132908860Y-85858904D01*
X133480288Y-86144619D02*
X133146955Y-85144619D01*
X133146955Y-85144619D02*
X132813622Y-86144619D01*
X132480288Y-85477952D02*
X132480288Y-86144619D01*
X132480288Y-85573190D02*
X132432669Y-85525571D01*
X132432669Y-85525571D02*
X132337431Y-85477952D01*
X132337431Y-85477952D02*
X132194574Y-85477952D01*
X132194574Y-85477952D02*
X132099336Y-85525571D01*
X132099336Y-85525571D02*
X132051717Y-85620809D01*
X132051717Y-85620809D02*
X132051717Y-86144619D01*
X131718383Y-85477952D02*
X131337431Y-85477952D01*
X131575526Y-85144619D02*
X131575526Y-86001761D01*
X131575526Y-86001761D02*
X131527907Y-86097000D01*
X131527907Y-86097000D02*
X131432669Y-86144619D01*
X131432669Y-86144619D02*
X131337431Y-86144619D01*
X130623145Y-86097000D02*
X130718383Y-86144619D01*
X130718383Y-86144619D02*
X130908859Y-86144619D01*
X130908859Y-86144619D02*
X131004097Y-86097000D01*
X131004097Y-86097000D02*
X131051716Y-86001761D01*
X131051716Y-86001761D02*
X131051716Y-85620809D01*
X131051716Y-85620809D02*
X131004097Y-85525571D01*
X131004097Y-85525571D02*
X130908859Y-85477952D01*
X130908859Y-85477952D02*
X130718383Y-85477952D01*
X130718383Y-85477952D02*
X130623145Y-85525571D01*
X130623145Y-85525571D02*
X130575526Y-85620809D01*
X130575526Y-85620809D02*
X130575526Y-85716047D01*
X130575526Y-85716047D02*
X131051716Y-85811285D01*
X130146954Y-85477952D02*
X130146954Y-86144619D01*
X130146954Y-85573190D02*
X130099335Y-85525571D01*
X130099335Y-85525571D02*
X130004097Y-85477952D01*
X130004097Y-85477952D02*
X129861240Y-85477952D01*
X129861240Y-85477952D02*
X129766002Y-85525571D01*
X129766002Y-85525571D02*
X129718383Y-85620809D01*
X129718383Y-85620809D02*
X129718383Y-86144619D01*
X129242192Y-85477952D02*
X129242192Y-86144619D01*
X129242192Y-85573190D02*
X129194573Y-85525571D01*
X129194573Y-85525571D02*
X129099335Y-85477952D01*
X129099335Y-85477952D02*
X128956478Y-85477952D01*
X128956478Y-85477952D02*
X128861240Y-85525571D01*
X128861240Y-85525571D02*
X128813621Y-85620809D01*
X128813621Y-85620809D02*
X128813621Y-86144619D01*
X127908859Y-86144619D02*
X127908859Y-85620809D01*
X127908859Y-85620809D02*
X127956478Y-85525571D01*
X127956478Y-85525571D02*
X128051716Y-85477952D01*
X128051716Y-85477952D02*
X128242192Y-85477952D01*
X128242192Y-85477952D02*
X128337430Y-85525571D01*
X127908859Y-86097000D02*
X128004097Y-86144619D01*
X128004097Y-86144619D02*
X128242192Y-86144619D01*
X128242192Y-86144619D02*
X128337430Y-86097000D01*
X128337430Y-86097000D02*
X128385049Y-86001761D01*
X128385049Y-86001761D02*
X128385049Y-85906523D01*
X128385049Y-85906523D02*
X128337430Y-85811285D01*
X128337430Y-85811285D02*
X128242192Y-85763666D01*
X128242192Y-85763666D02*
X128004097Y-85763666D01*
X128004097Y-85763666D02*
X127908859Y-85716047D01*
D13*
X240365489Y-82465114D02*
X240151203Y-82536542D01*
X240151203Y-82536542D02*
X240079774Y-82607971D01*
X240079774Y-82607971D02*
X240008346Y-82750828D01*
X240008346Y-82750828D02*
X240008346Y-82965114D01*
X240008346Y-82965114D02*
X240079774Y-83107971D01*
X240079774Y-83107971D02*
X240151203Y-83179400D01*
X240151203Y-83179400D02*
X240294060Y-83250828D01*
X240294060Y-83250828D02*
X240865489Y-83250828D01*
X240865489Y-83250828D02*
X240865489Y-81750828D01*
X240865489Y-81750828D02*
X240365489Y-81750828D01*
X240365489Y-81750828D02*
X240222632Y-81822257D01*
X240222632Y-81822257D02*
X240151203Y-81893685D01*
X240151203Y-81893685D02*
X240079774Y-82036542D01*
X240079774Y-82036542D02*
X240079774Y-82179400D01*
X240079774Y-82179400D02*
X240151203Y-82322257D01*
X240151203Y-82322257D02*
X240222632Y-82393685D01*
X240222632Y-82393685D02*
X240365489Y-82465114D01*
X240365489Y-82465114D02*
X240865489Y-82465114D01*
X238722632Y-83250828D02*
X238722632Y-82465114D01*
X238722632Y-82465114D02*
X238794060Y-82322257D01*
X238794060Y-82322257D02*
X238936917Y-82250828D01*
X238936917Y-82250828D02*
X239222632Y-82250828D01*
X239222632Y-82250828D02*
X239365489Y-82322257D01*
X238722632Y-83179400D02*
X238865489Y-83250828D01*
X238865489Y-83250828D02*
X239222632Y-83250828D01*
X239222632Y-83250828D02*
X239365489Y-83179400D01*
X239365489Y-83179400D02*
X239436917Y-83036542D01*
X239436917Y-83036542D02*
X239436917Y-82893685D01*
X239436917Y-82893685D02*
X239365489Y-82750828D01*
X239365489Y-82750828D02*
X239222632Y-82679400D01*
X239222632Y-82679400D02*
X238865489Y-82679400D01*
X238865489Y-82679400D02*
X238722632Y-82607971D01*
X238079774Y-83179400D02*
X237936917Y-83250828D01*
X237936917Y-83250828D02*
X237651203Y-83250828D01*
X237651203Y-83250828D02*
X237508346Y-83179400D01*
X237508346Y-83179400D02*
X237436917Y-83036542D01*
X237436917Y-83036542D02*
X237436917Y-82965114D01*
X237436917Y-82965114D02*
X237508346Y-82822257D01*
X237508346Y-82822257D02*
X237651203Y-82750828D01*
X237651203Y-82750828D02*
X237865489Y-82750828D01*
X237865489Y-82750828D02*
X238008346Y-82679400D01*
X238008346Y-82679400D02*
X238079774Y-82536542D01*
X238079774Y-82536542D02*
X238079774Y-82465114D01*
X238079774Y-82465114D02*
X238008346Y-82322257D01*
X238008346Y-82322257D02*
X237865489Y-82250828D01*
X237865489Y-82250828D02*
X237651203Y-82250828D01*
X237651203Y-82250828D02*
X237508346Y-82322257D01*
X236222631Y-83179400D02*
X236365488Y-83250828D01*
X236365488Y-83250828D02*
X236651203Y-83250828D01*
X236651203Y-83250828D02*
X236794060Y-83179400D01*
X236794060Y-83179400D02*
X236865488Y-83036542D01*
X236865488Y-83036542D02*
X236865488Y-82465114D01*
X236865488Y-82465114D02*
X236794060Y-82322257D01*
X236794060Y-82322257D02*
X236651203Y-82250828D01*
X236651203Y-82250828D02*
X236365488Y-82250828D01*
X236365488Y-82250828D02*
X236222631Y-82322257D01*
X236222631Y-82322257D02*
X236151203Y-82465114D01*
X236151203Y-82465114D02*
X236151203Y-82607971D01*
X236151203Y-82607971D02*
X236865488Y-82750828D01*
X234865489Y-83250828D02*
X234865489Y-81750828D01*
X234865489Y-83179400D02*
X235008346Y-83250828D01*
X235008346Y-83250828D02*
X235294060Y-83250828D01*
X235294060Y-83250828D02*
X235436917Y-83179400D01*
X235436917Y-83179400D02*
X235508346Y-83107971D01*
X235508346Y-83107971D02*
X235579774Y-82965114D01*
X235579774Y-82965114D02*
X235579774Y-82536542D01*
X235579774Y-82536542D02*
X235508346Y-82393685D01*
X235508346Y-82393685D02*
X235436917Y-82322257D01*
X235436917Y-82322257D02*
X235294060Y-82250828D01*
X235294060Y-82250828D02*
X235008346Y-82250828D01*
X235008346Y-82250828D02*
X234865489Y-82322257D01*
X232794060Y-83250828D02*
X232936917Y-83179400D01*
X232936917Y-83179400D02*
X233008346Y-83107971D01*
X233008346Y-83107971D02*
X233079774Y-82965114D01*
X233079774Y-82965114D02*
X233079774Y-82536542D01*
X233079774Y-82536542D02*
X233008346Y-82393685D01*
X233008346Y-82393685D02*
X232936917Y-82322257D01*
X232936917Y-82322257D02*
X232794060Y-82250828D01*
X232794060Y-82250828D02*
X232579774Y-82250828D01*
X232579774Y-82250828D02*
X232436917Y-82322257D01*
X232436917Y-82322257D02*
X232365489Y-82393685D01*
X232365489Y-82393685D02*
X232294060Y-82536542D01*
X232294060Y-82536542D02*
X232294060Y-82965114D01*
X232294060Y-82965114D02*
X232365489Y-83107971D01*
X232365489Y-83107971D02*
X232436917Y-83179400D01*
X232436917Y-83179400D02*
X232579774Y-83250828D01*
X232579774Y-83250828D02*
X232794060Y-83250828D01*
X231651203Y-82250828D02*
X231651203Y-83250828D01*
X231651203Y-82393685D02*
X231579774Y-82322257D01*
X231579774Y-82322257D02*
X231436917Y-82250828D01*
X231436917Y-82250828D02*
X231222631Y-82250828D01*
X231222631Y-82250828D02*
X231079774Y-82322257D01*
X231079774Y-82322257D02*
X231008346Y-82465114D01*
X231008346Y-82465114D02*
X231008346Y-83250828D01*
X229151203Y-83250828D02*
X229151203Y-81750828D01*
X228508346Y-83250828D02*
X228508346Y-82465114D01*
X228508346Y-82465114D02*
X228579774Y-82322257D01*
X228579774Y-82322257D02*
X228722631Y-82250828D01*
X228722631Y-82250828D02*
X228936917Y-82250828D01*
X228936917Y-82250828D02*
X229079774Y-82322257D01*
X229079774Y-82322257D02*
X229151203Y-82393685D01*
X228008345Y-82250828D02*
X227436917Y-82250828D01*
X227794060Y-81750828D02*
X227794060Y-83036542D01*
X227794060Y-83036542D02*
X227722631Y-83179400D01*
X227722631Y-83179400D02*
X227579774Y-83250828D01*
X227579774Y-83250828D02*
X227436917Y-83250828D01*
X227151202Y-82250828D02*
X226579774Y-82250828D01*
X226936917Y-81750828D02*
X226936917Y-83036542D01*
X226936917Y-83036542D02*
X226865488Y-83179400D01*
X226865488Y-83179400D02*
X226722631Y-83250828D01*
X226722631Y-83250828D02*
X226579774Y-83250828D01*
X226079774Y-82250828D02*
X226079774Y-83750828D01*
X226079774Y-82322257D02*
X225936917Y-82250828D01*
X225936917Y-82250828D02*
X225651202Y-82250828D01*
X225651202Y-82250828D02*
X225508345Y-82322257D01*
X225508345Y-82322257D02*
X225436917Y-82393685D01*
X225436917Y-82393685D02*
X225365488Y-82536542D01*
X225365488Y-82536542D02*
X225365488Y-82965114D01*
X225365488Y-82965114D02*
X225436917Y-83107971D01*
X225436917Y-83107971D02*
X225508345Y-83179400D01*
X225508345Y-83179400D02*
X225651202Y-83250828D01*
X225651202Y-83250828D02*
X225936917Y-83250828D01*
X225936917Y-83250828D02*
X226079774Y-83179400D01*
X224794059Y-83179400D02*
X224651202Y-83250828D01*
X224651202Y-83250828D02*
X224365488Y-83250828D01*
X224365488Y-83250828D02*
X224222631Y-83179400D01*
X224222631Y-83179400D02*
X224151202Y-83036542D01*
X224151202Y-83036542D02*
X224151202Y-82965114D01*
X224151202Y-82965114D02*
X224222631Y-82822257D01*
X224222631Y-82822257D02*
X224365488Y-82750828D01*
X224365488Y-82750828D02*
X224579774Y-82750828D01*
X224579774Y-82750828D02*
X224722631Y-82679400D01*
X224722631Y-82679400D02*
X224794059Y-82536542D01*
X224794059Y-82536542D02*
X224794059Y-82465114D01*
X224794059Y-82465114D02*
X224722631Y-82322257D01*
X224722631Y-82322257D02*
X224579774Y-82250828D01*
X224579774Y-82250828D02*
X224365488Y-82250828D01*
X224365488Y-82250828D02*
X224222631Y-82322257D01*
X223508345Y-83107971D02*
X223436916Y-83179400D01*
X223436916Y-83179400D02*
X223508345Y-83250828D01*
X223508345Y-83250828D02*
X223579773Y-83179400D01*
X223579773Y-83179400D02*
X223508345Y-83107971D01*
X223508345Y-83107971D02*
X223508345Y-83250828D01*
X223508345Y-82322257D02*
X223436916Y-82393685D01*
X223436916Y-82393685D02*
X223508345Y-82465114D01*
X223508345Y-82465114D02*
X223579773Y-82393685D01*
X223579773Y-82393685D02*
X223508345Y-82322257D01*
X223508345Y-82322257D02*
X223508345Y-82465114D01*
X221722630Y-81679400D02*
X223008344Y-83607971D01*
X220151201Y-81679400D02*
X221436915Y-83607971D01*
X219008344Y-82250828D02*
X219008344Y-83465114D01*
X219008344Y-83465114D02*
X219079772Y-83607971D01*
X219079772Y-83607971D02*
X219151201Y-83679400D01*
X219151201Y-83679400D02*
X219294058Y-83750828D01*
X219294058Y-83750828D02*
X219508344Y-83750828D01*
X219508344Y-83750828D02*
X219651201Y-83679400D01*
X219008344Y-83179400D02*
X219151201Y-83250828D01*
X219151201Y-83250828D02*
X219436915Y-83250828D01*
X219436915Y-83250828D02*
X219579772Y-83179400D01*
X219579772Y-83179400D02*
X219651201Y-83107971D01*
X219651201Y-83107971D02*
X219722629Y-82965114D01*
X219722629Y-82965114D02*
X219722629Y-82536542D01*
X219722629Y-82536542D02*
X219651201Y-82393685D01*
X219651201Y-82393685D02*
X219579772Y-82322257D01*
X219579772Y-82322257D02*
X219436915Y-82250828D01*
X219436915Y-82250828D02*
X219151201Y-82250828D01*
X219151201Y-82250828D02*
X219008344Y-82322257D01*
X218294058Y-83250828D02*
X218294058Y-82250828D01*
X218294058Y-81750828D02*
X218365486Y-81822257D01*
X218365486Y-81822257D02*
X218294058Y-81893685D01*
X218294058Y-81893685D02*
X218222629Y-81822257D01*
X218222629Y-81822257D02*
X218294058Y-81750828D01*
X218294058Y-81750828D02*
X218294058Y-81893685D01*
X217794057Y-82250828D02*
X217222629Y-82250828D01*
X217579772Y-81750828D02*
X217579772Y-83036542D01*
X217579772Y-83036542D02*
X217508343Y-83179400D01*
X217508343Y-83179400D02*
X217365486Y-83250828D01*
X217365486Y-83250828D02*
X217222629Y-83250828D01*
X216722629Y-83250828D02*
X216722629Y-81750828D01*
X216079772Y-83250828D02*
X216079772Y-82465114D01*
X216079772Y-82465114D02*
X216151200Y-82322257D01*
X216151200Y-82322257D02*
X216294057Y-82250828D01*
X216294057Y-82250828D02*
X216508343Y-82250828D01*
X216508343Y-82250828D02*
X216651200Y-82322257D01*
X216651200Y-82322257D02*
X216722629Y-82393685D01*
X214722629Y-82250828D02*
X214722629Y-83250828D01*
X215365486Y-82250828D02*
X215365486Y-83036542D01*
X215365486Y-83036542D02*
X215294057Y-83179400D01*
X215294057Y-83179400D02*
X215151200Y-83250828D01*
X215151200Y-83250828D02*
X214936914Y-83250828D01*
X214936914Y-83250828D02*
X214794057Y-83179400D01*
X214794057Y-83179400D02*
X214722629Y-83107971D01*
X214008343Y-83250828D02*
X214008343Y-81750828D01*
X214008343Y-82322257D02*
X213865486Y-82250828D01*
X213865486Y-82250828D02*
X213579771Y-82250828D01*
X213579771Y-82250828D02*
X213436914Y-82322257D01*
X213436914Y-82322257D02*
X213365486Y-82393685D01*
X213365486Y-82393685D02*
X213294057Y-82536542D01*
X213294057Y-82536542D02*
X213294057Y-82965114D01*
X213294057Y-82965114D02*
X213365486Y-83107971D01*
X213365486Y-83107971D02*
X213436914Y-83179400D01*
X213436914Y-83179400D02*
X213579771Y-83250828D01*
X213579771Y-83250828D02*
X213865486Y-83250828D01*
X213865486Y-83250828D02*
X214008343Y-83179400D01*
X212651200Y-83107971D02*
X212579771Y-83179400D01*
X212579771Y-83179400D02*
X212651200Y-83250828D01*
X212651200Y-83250828D02*
X212722628Y-83179400D01*
X212722628Y-83179400D02*
X212651200Y-83107971D01*
X212651200Y-83107971D02*
X212651200Y-83250828D01*
X211294057Y-83179400D02*
X211436914Y-83250828D01*
X211436914Y-83250828D02*
X211722628Y-83250828D01*
X211722628Y-83250828D02*
X211865485Y-83179400D01*
X211865485Y-83179400D02*
X211936914Y-83107971D01*
X211936914Y-83107971D02*
X212008342Y-82965114D01*
X212008342Y-82965114D02*
X212008342Y-82536542D01*
X212008342Y-82536542D02*
X211936914Y-82393685D01*
X211936914Y-82393685D02*
X211865485Y-82322257D01*
X211865485Y-82322257D02*
X211722628Y-82250828D01*
X211722628Y-82250828D02*
X211436914Y-82250828D01*
X211436914Y-82250828D02*
X211294057Y-82322257D01*
X210436914Y-83250828D02*
X210579771Y-83179400D01*
X210579771Y-83179400D02*
X210651200Y-83107971D01*
X210651200Y-83107971D02*
X210722628Y-82965114D01*
X210722628Y-82965114D02*
X210722628Y-82536542D01*
X210722628Y-82536542D02*
X210651200Y-82393685D01*
X210651200Y-82393685D02*
X210579771Y-82322257D01*
X210579771Y-82322257D02*
X210436914Y-82250828D01*
X210436914Y-82250828D02*
X210222628Y-82250828D01*
X210222628Y-82250828D02*
X210079771Y-82322257D01*
X210079771Y-82322257D02*
X210008343Y-82393685D01*
X210008343Y-82393685D02*
X209936914Y-82536542D01*
X209936914Y-82536542D02*
X209936914Y-82965114D01*
X209936914Y-82965114D02*
X210008343Y-83107971D01*
X210008343Y-83107971D02*
X210079771Y-83179400D01*
X210079771Y-83179400D02*
X210222628Y-83250828D01*
X210222628Y-83250828D02*
X210436914Y-83250828D01*
X209294057Y-83250828D02*
X209294057Y-82250828D01*
X209294057Y-82393685D02*
X209222628Y-82322257D01*
X209222628Y-82322257D02*
X209079771Y-82250828D01*
X209079771Y-82250828D02*
X208865485Y-82250828D01*
X208865485Y-82250828D02*
X208722628Y-82322257D01*
X208722628Y-82322257D02*
X208651200Y-82465114D01*
X208651200Y-82465114D02*
X208651200Y-83250828D01*
X208651200Y-82465114D02*
X208579771Y-82322257D01*
X208579771Y-82322257D02*
X208436914Y-82250828D01*
X208436914Y-82250828D02*
X208222628Y-82250828D01*
X208222628Y-82250828D02*
X208079771Y-82322257D01*
X208079771Y-82322257D02*
X208008342Y-82465114D01*
X208008342Y-82465114D02*
X208008342Y-83250828D01*
X206222628Y-81679400D02*
X207508342Y-83607971D01*
X205722628Y-83250828D02*
X205722628Y-81750828D01*
X205722628Y-82322257D02*
X205579771Y-82250828D01*
X205579771Y-82250828D02*
X205294056Y-82250828D01*
X205294056Y-82250828D02*
X205151199Y-82322257D01*
X205151199Y-82322257D02*
X205079771Y-82393685D01*
X205079771Y-82393685D02*
X205008342Y-82536542D01*
X205008342Y-82536542D02*
X205008342Y-82965114D01*
X205008342Y-82965114D02*
X205079771Y-83107971D01*
X205079771Y-83107971D02*
X205151199Y-83179400D01*
X205151199Y-83179400D02*
X205294056Y-83250828D01*
X205294056Y-83250828D02*
X205579771Y-83250828D01*
X205579771Y-83250828D02*
X205722628Y-83179400D01*
X204365485Y-83250828D02*
X204365485Y-82250828D01*
X204365485Y-82536542D02*
X204294056Y-82393685D01*
X204294056Y-82393685D02*
X204222628Y-82322257D01*
X204222628Y-82322257D02*
X204079770Y-82250828D01*
X204079770Y-82250828D02*
X203936913Y-82250828D01*
X202865485Y-83179400D02*
X203008342Y-83250828D01*
X203008342Y-83250828D02*
X203294057Y-83250828D01*
X203294057Y-83250828D02*
X203436914Y-83179400D01*
X203436914Y-83179400D02*
X203508342Y-83036542D01*
X203508342Y-83036542D02*
X203508342Y-82465114D01*
X203508342Y-82465114D02*
X203436914Y-82322257D01*
X203436914Y-82322257D02*
X203294057Y-82250828D01*
X203294057Y-82250828D02*
X203008342Y-82250828D01*
X203008342Y-82250828D02*
X202865485Y-82322257D01*
X202865485Y-82322257D02*
X202794057Y-82465114D01*
X202794057Y-82465114D02*
X202794057Y-82607971D01*
X202794057Y-82607971D02*
X203508342Y-82750828D01*
X202365485Y-82250828D02*
X201794057Y-82250828D01*
X202151200Y-81750828D02*
X202151200Y-83036542D01*
X202151200Y-83036542D02*
X202079771Y-83179400D01*
X202079771Y-83179400D02*
X201936914Y-83250828D01*
X201936914Y-83250828D02*
X201794057Y-83250828D01*
X201508342Y-82250828D02*
X200936914Y-82250828D01*
X201294057Y-81750828D02*
X201294057Y-83036542D01*
X201294057Y-83036542D02*
X201222628Y-83179400D01*
X201222628Y-83179400D02*
X201079771Y-83250828D01*
X201079771Y-83250828D02*
X200936914Y-83250828D01*
X199794057Y-83250828D02*
X199794057Y-81750828D01*
X199794057Y-83179400D02*
X199936914Y-83250828D01*
X199936914Y-83250828D02*
X200222628Y-83250828D01*
X200222628Y-83250828D02*
X200365485Y-83179400D01*
X200365485Y-83179400D02*
X200436914Y-83107971D01*
X200436914Y-83107971D02*
X200508342Y-82965114D01*
X200508342Y-82965114D02*
X200508342Y-82536542D01*
X200508342Y-82536542D02*
X200436914Y-82393685D01*
X200436914Y-82393685D02*
X200365485Y-82322257D01*
X200365485Y-82322257D02*
X200222628Y-82250828D01*
X200222628Y-82250828D02*
X199936914Y-82250828D01*
X199936914Y-82250828D02*
X199794057Y-82322257D01*
X198865485Y-83250828D02*
X199008342Y-83179400D01*
X199008342Y-83179400D02*
X199079771Y-83107971D01*
X199079771Y-83107971D02*
X199151199Y-82965114D01*
X199151199Y-82965114D02*
X199151199Y-82536542D01*
X199151199Y-82536542D02*
X199079771Y-82393685D01*
X199079771Y-82393685D02*
X199008342Y-82322257D01*
X199008342Y-82322257D02*
X198865485Y-82250828D01*
X198865485Y-82250828D02*
X198651199Y-82250828D01*
X198651199Y-82250828D02*
X198508342Y-82322257D01*
X198508342Y-82322257D02*
X198436914Y-82393685D01*
X198436914Y-82393685D02*
X198365485Y-82536542D01*
X198365485Y-82536542D02*
X198365485Y-82965114D01*
X198365485Y-82965114D02*
X198436914Y-83107971D01*
X198436914Y-83107971D02*
X198508342Y-83179400D01*
X198508342Y-83179400D02*
X198651199Y-83250828D01*
X198651199Y-83250828D02*
X198865485Y-83250828D01*
X197936913Y-82250828D02*
X197365485Y-82250828D01*
X197722628Y-81750828D02*
X197722628Y-83036542D01*
X197722628Y-83036542D02*
X197651199Y-83179400D01*
X197651199Y-83179400D02*
X197508342Y-83250828D01*
X197508342Y-83250828D02*
X197365485Y-83250828D01*
X197079770Y-82250828D02*
X196508342Y-82250828D01*
X196865485Y-81750828D02*
X196865485Y-83036542D01*
X196865485Y-83036542D02*
X196794056Y-83179400D01*
X196794056Y-83179400D02*
X196651199Y-83250828D01*
X196651199Y-83250828D02*
X196508342Y-83250828D01*
X195436913Y-83179400D02*
X195579770Y-83250828D01*
X195579770Y-83250828D02*
X195865485Y-83250828D01*
X195865485Y-83250828D02*
X196008342Y-83179400D01*
X196008342Y-83179400D02*
X196079770Y-83036542D01*
X196079770Y-83036542D02*
X196079770Y-82465114D01*
X196079770Y-82465114D02*
X196008342Y-82322257D01*
X196008342Y-82322257D02*
X195865485Y-82250828D01*
X195865485Y-82250828D02*
X195579770Y-82250828D01*
X195579770Y-82250828D02*
X195436913Y-82322257D01*
X195436913Y-82322257D02*
X195365485Y-82465114D01*
X195365485Y-82465114D02*
X195365485Y-82607971D01*
X195365485Y-82607971D02*
X196079770Y-82750828D01*
X194079771Y-83179400D02*
X194222628Y-83250828D01*
X194222628Y-83250828D02*
X194508342Y-83250828D01*
X194508342Y-83250828D02*
X194651199Y-83179400D01*
X194651199Y-83179400D02*
X194722628Y-83107971D01*
X194722628Y-83107971D02*
X194794056Y-82965114D01*
X194794056Y-82965114D02*
X194794056Y-82536542D01*
X194794056Y-82536542D02*
X194722628Y-82393685D01*
X194722628Y-82393685D02*
X194651199Y-82322257D01*
X194651199Y-82322257D02*
X194508342Y-82250828D01*
X194508342Y-82250828D02*
X194222628Y-82250828D01*
X194222628Y-82250828D02*
X194079771Y-82322257D01*
X193436914Y-83250828D02*
X193436914Y-81750828D01*
X192794057Y-83250828D02*
X192794057Y-82465114D01*
X192794057Y-82465114D02*
X192865485Y-82322257D01*
X192865485Y-82322257D02*
X193008342Y-82250828D01*
X193008342Y-82250828D02*
X193222628Y-82250828D01*
X193222628Y-82250828D02*
X193365485Y-82322257D01*
X193365485Y-82322257D02*
X193436914Y-82393685D01*
X191008342Y-81679400D02*
X192294056Y-83607971D01*
X190508342Y-83250828D02*
X190508342Y-82250828D01*
X190508342Y-81750828D02*
X190579770Y-81822257D01*
X190579770Y-81822257D02*
X190508342Y-81893685D01*
X190508342Y-81893685D02*
X190436913Y-81822257D01*
X190436913Y-81822257D02*
X190508342Y-81750828D01*
X190508342Y-81750828D02*
X190508342Y-81893685D01*
X189794056Y-82250828D02*
X189794056Y-83250828D01*
X189794056Y-82393685D02*
X189722627Y-82322257D01*
X189722627Y-82322257D02*
X189579770Y-82250828D01*
X189579770Y-82250828D02*
X189365484Y-82250828D01*
X189365484Y-82250828D02*
X189222627Y-82322257D01*
X189222627Y-82322257D02*
X189151199Y-82465114D01*
X189151199Y-82465114D02*
X189151199Y-83250828D01*
X188651198Y-82250828D02*
X188079770Y-82250828D01*
X188436913Y-83250828D02*
X188436913Y-81965114D01*
X188436913Y-81965114D02*
X188365484Y-81822257D01*
X188365484Y-81822257D02*
X188222627Y-81750828D01*
X188222627Y-81750828D02*
X188079770Y-81750828D01*
X187365484Y-83250828D02*
X187508341Y-83179400D01*
X187508341Y-83179400D02*
X187579770Y-83107971D01*
X187579770Y-83107971D02*
X187651198Y-82965114D01*
X187651198Y-82965114D02*
X187651198Y-82536542D01*
X187651198Y-82536542D02*
X187579770Y-82393685D01*
X187579770Y-82393685D02*
X187508341Y-82322257D01*
X187508341Y-82322257D02*
X187365484Y-82250828D01*
X187365484Y-82250828D02*
X187151198Y-82250828D01*
X187151198Y-82250828D02*
X187008341Y-82322257D01*
X187008341Y-82322257D02*
X186936913Y-82393685D01*
X186936913Y-82393685D02*
X186865484Y-82536542D01*
X186865484Y-82536542D02*
X186865484Y-82965114D01*
X186865484Y-82965114D02*
X186936913Y-83107971D01*
X186936913Y-83107971D02*
X187008341Y-83179400D01*
X187008341Y-83179400D02*
X187151198Y-83250828D01*
X187151198Y-83250828D02*
X187365484Y-83250828D01*
X186222627Y-82679400D02*
X185079770Y-82679400D01*
X184151198Y-83250828D02*
X184294055Y-83179400D01*
X184294055Y-83179400D02*
X184365484Y-83107971D01*
X184365484Y-83107971D02*
X184436912Y-82965114D01*
X184436912Y-82965114D02*
X184436912Y-82536542D01*
X184436912Y-82536542D02*
X184365484Y-82393685D01*
X184365484Y-82393685D02*
X184294055Y-82322257D01*
X184294055Y-82322257D02*
X184151198Y-82250828D01*
X184151198Y-82250828D02*
X183936912Y-82250828D01*
X183936912Y-82250828D02*
X183794055Y-82322257D01*
X183794055Y-82322257D02*
X183722627Y-82393685D01*
X183722627Y-82393685D02*
X183651198Y-82536542D01*
X183651198Y-82536542D02*
X183651198Y-82965114D01*
X183651198Y-82965114D02*
X183722627Y-83107971D01*
X183722627Y-83107971D02*
X183794055Y-83179400D01*
X183794055Y-83179400D02*
X183936912Y-83250828D01*
X183936912Y-83250828D02*
X184151198Y-83250828D01*
X183008341Y-83250828D02*
X183008341Y-82250828D01*
X183008341Y-82536542D02*
X182936912Y-82393685D01*
X182936912Y-82393685D02*
X182865484Y-82322257D01*
X182865484Y-82322257D02*
X182722626Y-82250828D01*
X182722626Y-82250828D02*
X182579769Y-82250828D01*
X182079770Y-83250828D02*
X182079770Y-81750828D01*
X182079770Y-82322257D02*
X181936913Y-82250828D01*
X181936913Y-82250828D02*
X181651198Y-82250828D01*
X181651198Y-82250828D02*
X181508341Y-82322257D01*
X181508341Y-82322257D02*
X181436913Y-82393685D01*
X181436913Y-82393685D02*
X181365484Y-82536542D01*
X181365484Y-82536542D02*
X181365484Y-82965114D01*
X181365484Y-82965114D02*
X181436913Y-83107971D01*
X181436913Y-83107971D02*
X181508341Y-83179400D01*
X181508341Y-83179400D02*
X181651198Y-83250828D01*
X181651198Y-83250828D02*
X181936913Y-83250828D01*
X181936913Y-83250828D02*
X182079770Y-83179400D01*
X180794055Y-83179400D02*
X180651198Y-83250828D01*
X180651198Y-83250828D02*
X180365484Y-83250828D01*
X180365484Y-83250828D02*
X180222627Y-83179400D01*
X180222627Y-83179400D02*
X180151198Y-83036542D01*
X180151198Y-83036542D02*
X180151198Y-82965114D01*
X180151198Y-82965114D02*
X180222627Y-82822257D01*
X180222627Y-82822257D02*
X180365484Y-82750828D01*
X180365484Y-82750828D02*
X180579770Y-82750828D01*
X180579770Y-82750828D02*
X180722627Y-82679400D01*
X180722627Y-82679400D02*
X180794055Y-82536542D01*
X180794055Y-82536542D02*
X180794055Y-82465114D01*
X180794055Y-82465114D02*
X180722627Y-82322257D01*
X180722627Y-82322257D02*
X180579770Y-82250828D01*
X180579770Y-82250828D02*
X180365484Y-82250828D01*
X180365484Y-82250828D02*
X180222627Y-82322257D01*
D14*
X131591904Y-100264819D02*
X131591904Y-101074342D01*
X131591904Y-101074342D02*
X131544285Y-101169580D01*
X131544285Y-101169580D02*
X131496666Y-101217200D01*
X131496666Y-101217200D02*
X131401428Y-101264819D01*
X131401428Y-101264819D02*
X131210952Y-101264819D01*
X131210952Y-101264819D02*
X131115714Y-101217200D01*
X131115714Y-101217200D02*
X131068095Y-101169580D01*
X131068095Y-101169580D02*
X131020476Y-101074342D01*
X131020476Y-101074342D02*
X131020476Y-100264819D01*
X130591904Y-100360057D02*
X130544285Y-100312438D01*
X130544285Y-100312438D02*
X130449047Y-100264819D01*
X130449047Y-100264819D02*
X130210952Y-100264819D01*
X130210952Y-100264819D02*
X130115714Y-100312438D01*
X130115714Y-100312438D02*
X130068095Y-100360057D01*
X130068095Y-100360057D02*
X130020476Y-100455295D01*
X130020476Y-100455295D02*
X130020476Y-100550533D01*
X130020476Y-100550533D02*
X130068095Y-100693390D01*
X130068095Y-100693390D02*
X130639523Y-101264819D01*
X130639523Y-101264819D02*
X130020476Y-101264819D01*
%TO.C,DS4*%
D10*
X180188750Y-89250000D02*
X198908750Y-89250000D01*
X198908750Y-95290000D01*
X180188750Y-95290000D01*
X180188750Y-89250000D01*
%TO.C,DS5*%
X219168750Y-89250000D02*
X237888750Y-89250000D01*
X237888750Y-95290000D01*
X219168750Y-95290000D01*
X219168750Y-89250000D01*
%TO.C,DS3*%
X141258750Y-89190000D02*
X159978750Y-89190000D01*
X159978750Y-95230000D01*
X141258750Y-95230000D01*
X141258750Y-89190000D01*
%TO.C,DS2*%
X102218750Y-89220000D02*
X120938750Y-89220000D01*
X120938750Y-95260000D01*
X102218750Y-95260000D01*
X102218750Y-89220000D01*
%TO.C,DS1*%
X63236250Y-89240000D02*
X81956250Y-89240000D01*
X81956250Y-95280000D01*
X63236250Y-95280000D01*
X63236250Y-89240000D01*
%TO.C,U2*%
D15*
X122100000Y-85140000D02*
X122100000Y-106640000D01*
X123100000Y-107640000D02*
X126490000Y-107640000D01*
X126490000Y-107640000D02*
X135430000Y-107640000D01*
X135430000Y-107640000D02*
X139100000Y-107640000D01*
X139100000Y-84140000D02*
X123100000Y-84140000D01*
X140100000Y-106640000D02*
X140100000Y-85140000D01*
X122100000Y-85140000D02*
G75*
G02*
X123100000Y-84140000I999999J1D01*
G01*
X123100000Y-107640000D02*
G75*
G02*
X122100000Y-106640000I-1J999999D01*
G01*
X139100000Y-84140000D02*
G75*
G02*
X140100000Y-85140000I0J-1000000D01*
G01*
X140100000Y-106640000D02*
G75*
G02*
X139100000Y-107640000I-1000000J0D01*
G01*
D16*
X121450000Y-106050000D02*
G75*
G02*
X121250000Y-106050000I-100000J0D01*
G01*
X121250000Y-106050000D02*
G75*
G02*
X121450000Y-106050000I100000J0D01*
G01*
%TD*%
M02*
