M48
; DRILL file KiCad 10.0.3 date 2026-08-29T11:16:05
; FORMAT={-:-/ absolute / metric / decimal}
; #@! TF.CreationDate,2026-08-29T11:16:05-04:00
; #@! TF.GenerationSoftware,Kicad,Pcbnew,10.0.3
; #@! TF.FileFunction,MixedPlating,1,2
FMAT,2
METRIC
; #@! TA.AperFunction,Plated,PTH,ViaDrill
T1C0.300
; #@! TA.AperFunction,Plated,PTH,ComponentDrill
T2C0.800
; #@! TA.AperFunction,Plated,PTH,ComponentDrill
T3C1.000
; #@! TA.AperFunction,Plated,PTH,ComponentDrill
T4C1.100
%
G90
G05
T1
X67.707Y-89.2
X77.867Y-100.705
X80.407Y-98.077
X104.15Y-97.16
X109.23Y-95.867
X119.33Y-89.2
X124.604Y-92.078
X136.5Y-97.0
X149.422Y-91.163
X161.355Y-94.56
X182.12Y-91.267
X184.66Y-91.769
X187.2Y-88.27
X192.282Y-96.492
X195.335Y-96.025
X217.696Y-89.336
X230.216Y-96.147
X231.26Y-96.79
T2
X113.72Y-100.11
X116.22Y-100.11
T3
X65.168Y-93.53
X67.707Y-93.53
X70.248Y-93.53
X72.787Y-93.53
X75.328Y-93.53
X77.867Y-93.53
X80.407Y-93.53
X104.15Y-93.51
X106.69Y-93.51
X109.23Y-93.51
X111.77Y-93.51
X114.31Y-93.51
X116.85Y-93.51
X119.39Y-93.51
X123.44Y-105.933
X123.48Y-85.73
X123.48Y-88.27
X123.48Y-90.81
X123.48Y-93.35
X123.48Y-95.89
X123.48Y-98.43
X123.48Y-100.97
X123.48Y-103.51
X138.61Y-106.05
X138.72Y-85.73
X138.72Y-88.27
X138.72Y-90.81
X138.72Y-93.35
X138.72Y-95.89
X138.72Y-98.39
X138.72Y-100.97
X138.72Y-103.51
X143.19Y-93.48
X145.73Y-93.48
X148.27Y-93.48
X150.81Y-93.48
X153.35Y-93.48
X155.89Y-93.48
X158.43Y-93.48
X182.12Y-93.54
X184.66Y-93.54
X187.2Y-93.54
X189.74Y-93.54
X192.28Y-93.54
X194.82Y-93.54
X197.36Y-93.54
X221.1Y-93.54
X223.64Y-93.54
X226.18Y-93.54
X228.72Y-93.54
X231.26Y-93.54
X233.8Y-93.54
X236.34Y-93.54
T4
X188.92Y-101.03
X188.92Y-105.53
X195.42Y-101.03
X195.42Y-105.53
X203.045Y-101.155
X203.045Y-105.655
X209.545Y-101.155
X209.545Y-105.655
X217.17Y-101.28
X217.17Y-105.78
X223.67Y-101.28
X223.67Y-105.78
M30
