%TF.GenerationSoftware,KiCad,Pcbnew,10.0.3*%
%TF.CreationDate,2026-08-28T22:21:34-04:00*%
%TF.ProjectId,hot_info_orbs,686f745f-696e-4666-9f5f-6f7262732e6b,rev?*%
%TF.SameCoordinates,Original*%
%TF.FileFunction,Soldermask,Top*%
%TF.FilePolarity,Negative*%
%FSLAX46Y46*%
G04 Gerber Fmt 4.6, Leading zero omitted, Abs format (unit mm)*
G04 Created by KiCad (PCBNEW 10.0.3) date 2026-08-28 22:21:34*
%MOMM*%
%LPD*%
G01*
G04 APERTURE LIST*
G04 Aperture macros list*
%AMRoundRect*
0 Rectangle with rounded corners*
0 $1 Rounding radius*
0 $2 $3 $4 $5 $6 $7 $8 $9 X,Y pos of 4 corners*
0 Add a 4 corners polygon primitive as box body*
4,1,4,$2,$3,$4,$5,$6,$7,$8,$9,$2,$3,0*
0 Add four circle primitives for the rounded corners*
1,1,$1+$1,$2,$3*
1,1,$1+$1,$4,$5*
1,1,$1+$1,$6,$7*
1,1,$1+$1,$8,$9*
0 Add four rect primitives between the rounded corners*
20,1,$1+$1,$2,$3,$4,$5,0*
20,1,$1+$1,$4,$5,$6,$7,0*
20,1,$1+$1,$6,$7,$8,$9,0*
20,1,$1+$1,$8,$9,$2,$3,0*%
G04 Aperture macros list end*
%ADD10R,1.700000X1.700000*%
%ADD11O,1.700000X1.700000*%
%ADD12RoundRect,0.250000X-0.550000X0.550000X-0.550000X-0.550000X0.550000X-0.550000X0.550000X0.550000X0*%
%ADD13C,1.600000*%
%ADD14C,2.000000*%
%ADD15RoundRect,0.102000X0.754000X0.754000X-0.754000X0.754000X-0.754000X-0.754000X0.754000X-0.754000X0*%
%ADD16C,1.712000*%
G04 APERTURE END LIST*
D10*
%TO.C,DS4*%
X197360000Y-93540000D03*
D11*
X194820000Y-93540000D03*
X192280000Y-93540000D03*
X189740000Y-93540000D03*
X187200000Y-93540000D03*
X184660000Y-93540000D03*
X182120000Y-93540000D03*
%TD*%
D12*
%TO.C,C1*%
X118060000Y-82427600D03*
D13*
X118060000Y-84927600D03*
%TD*%
D14*
%TO.C,SW3*%
X217170000Y-101280000D03*
X223670000Y-101280000D03*
X217170000Y-105780000D03*
X223670000Y-105780000D03*
%TD*%
D10*
%TO.C,DS5*%
X236340000Y-93540000D03*
D11*
X233800000Y-93540000D03*
X231260000Y-93540000D03*
X228720000Y-93540000D03*
X226180000Y-93540000D03*
X223640000Y-93540000D03*
X221100000Y-93540000D03*
%TD*%
D14*
%TO.C,SW2*%
X203045000Y-101155000D03*
X209545000Y-101155000D03*
X203045000Y-105655000D03*
X209545000Y-105655000D03*
%TD*%
D10*
%TO.C,DS3*%
X158430000Y-93480000D03*
D11*
X155890000Y-93480000D03*
X153350000Y-93480000D03*
X150810000Y-93480000D03*
X148270000Y-93480000D03*
X145730000Y-93480000D03*
X143190000Y-93480000D03*
%TD*%
D10*
%TO.C,DS2*%
X119390000Y-93510000D03*
D11*
X116850000Y-93510000D03*
X114310000Y-93510000D03*
X111770000Y-93510000D03*
X109230000Y-93510000D03*
X106690000Y-93510000D03*
X104150000Y-93510000D03*
%TD*%
D10*
%TO.C,DS1*%
X80407500Y-93530000D03*
D11*
X77867500Y-93530000D03*
X75327500Y-93530000D03*
X72787500Y-93530000D03*
X70247500Y-93530000D03*
X67707500Y-93530000D03*
X65167500Y-93530000D03*
%TD*%
D14*
%TO.C,SW1*%
X188920000Y-101030000D03*
X195420000Y-101030000D03*
X188920000Y-105530000D03*
X195420000Y-105530000D03*
%TD*%
D15*
%TO.C,U2*%
X123550000Y-81010000D03*
D16*
X123440000Y-83550000D03*
X123440000Y-86090000D03*
X123440000Y-88670000D03*
X123440000Y-91170000D03*
X123440000Y-93710000D03*
X123440000Y-96250000D03*
X123440000Y-98790000D03*
X123440000Y-101330000D03*
X138680000Y-101330000D03*
X138680000Y-98790000D03*
X138680000Y-96250000D03*
X138680000Y-93710000D03*
X138680000Y-91170000D03*
X138680000Y-88630000D03*
X138680000Y-86090000D03*
X138680000Y-83550000D03*
X138720000Y-81127105D03*
%TD*%
M02*
