%TF.GenerationSoftware,KiCad,Pcbnew,10.0.3*%
%TF.CreationDate,2026-08-28T22:21:34-04:00*%
%TF.ProjectId,hot_info_orbs,686f745f-696e-4666-9f5f-6f7262732e6b,rev?*%
%TF.SameCoordinates,Original*%
%TF.FileFunction,Copper,L2,Bot*%
%TF.FilePolarity,Positive*%
%FSLAX46Y46*%
G04 Gerber Fmt 4.6, Leading zero omitted, Abs format (unit mm)*
G04 Created by KiCad (PCBNEW 10.0.3) date 2026-08-28 22:21:34*
%MOMM*%
%LPD*%
G01*
G04 APERTURE LIST*
G04 Aperture macros list*
%AMRoundRect*
0 Rectangle with rounded corners*
0 $1 Rounding radius*
0 $2 $3 $4 $5 $6 $7 $8 $9 X,Y pos of 4 corners*
0 Add a 4 corners polygon primitive as box body*
4,1,4,$2,$3,$4,$5,$6,$7,$8,$9,$2,$3,0*
0 Add four circle primitives for the rounded corners*
1,1,$1+$1,$2,$3*
1,1,$1+$1,$4,$5*
1,1,$1+$1,$6,$7*
1,1,$1+$1,$8,$9*
0 Add four rect primitives between the rounded corners*
20,1,$1+$1,$2,$3,$4,$5,0*
20,1,$1+$1,$4,$5,$6,$7,0*
20,1,$1+$1,$6,$7,$8,$9,0*
20,1,$1+$1,$8,$9,$2,$3,0*%
G04 Aperture macros list end*
%TA.AperFunction,ComponentPad*%
%ADD10R,1.700000X1.700000*%
%TD*%
%TA.AperFunction,ComponentPad*%
%ADD11O,1.700000X1.700000*%
%TD*%
%TA.AperFunction,ComponentPad*%
%ADD12RoundRect,0.250000X-0.550000X0.550000X-0.550000X-0.550000X0.550000X-0.550000X0.550000X0.550000X0*%
%TD*%
%TA.AperFunction,ComponentPad*%
%ADD13C,1.600000*%
%TD*%
%TA.AperFunction,ComponentPad*%
%ADD14C,2.000000*%
%TD*%
%TA.AperFunction,ComponentPad*%
%ADD15R,1.508000X1.508000*%
%TD*%
%TA.AperFunction,ComponentPad*%
%ADD16C,1.508000*%
%TD*%
%TA.AperFunction,ViaPad*%
%ADD17C,0.800000*%
%TD*%
%TA.AperFunction,ViaPad*%
%ADD18C,0.600000*%
%TD*%
%TA.AperFunction,Conductor*%
%ADD19C,0.350000*%
%TD*%
%TA.AperFunction,Conductor*%
%ADD20C,0.200000*%
%TD*%
G04 APERTURE END LIST*
D10*
%TO.P,DS4,1,VCC_1*%
%TO.N,+5V*%
X197360000Y-93540000D03*
D11*
%TO.P,DS4,2,GND_2*%
%TO.N,GND*%
X194820000Y-93540000D03*
%TO.P,DS4,3,SCL_3*%
%TO.N,Net-(DS1-SCL)*%
X192280000Y-93540000D03*
%TO.P,DS4,4,SDA_4*%
%TO.N,Net-(DS1-SDA)*%
X189740000Y-93540000D03*
%TO.P,DS4,5,DC_5*%
%TO.N,Net-(DS1-DC)*%
X187200000Y-93540000D03*
%TO.P,DS4,6,CS_6*%
%TO.N,Net-(DS4-CS)*%
X184660000Y-93540000D03*
%TO.P,DS4,7,RST_7*%
%TO.N,Net-(DS1-RST)*%
X182120000Y-93540000D03*
%TD*%
D12*
%TO.P,C1,1*%
%TO.N,+5V*%
X118060000Y-82427600D03*
D13*
%TO.P,C1,2*%
%TO.N,GND*%
X118060000Y-84927600D03*
%TD*%
D14*
%TO.P,SW3,1,1_1*%
%TO.N,/SW3*%
X217170000Y-101280000D03*
X223670000Y-101280000D03*
%TO.P,SW3,2,2_2*%
%TO.N,Net-(U2-3V3)*%
X217170000Y-105780000D03*
X223670000Y-105780000D03*
%TD*%
D10*
%TO.P,DS5,1,VCC_1*%
%TO.N,+5V*%
X236340000Y-93540000D03*
D11*
%TO.P,DS5,2,GND_2*%
%TO.N,GND*%
X233800000Y-93540000D03*
%TO.P,DS5,3,SCL_3*%
%TO.N,Net-(DS1-SCL)*%
X231260000Y-93540000D03*
%TO.P,DS5,4,SDA_4*%
%TO.N,Net-(DS1-SDA)*%
X228720000Y-93540000D03*
%TO.P,DS5,5,DC_5*%
%TO.N,Net-(DS1-DC)*%
X226180000Y-93540000D03*
%TO.P,DS5,6,CS_6*%
%TO.N,Net-(DS5-CS)*%
X223640000Y-93540000D03*
%TO.P,DS5,7,RST_7*%
%TO.N,Net-(DS1-RST)*%
X221100000Y-93540000D03*
%TD*%
D14*
%TO.P,SW2,1,1_1*%
%TO.N,Net-(U2-GPIO_2)*%
X203045000Y-101155000D03*
X209545000Y-101155000D03*
%TO.P,SW2,2,2_2*%
%TO.N,Net-(U2-3V3)*%
X203045000Y-105655000D03*
X209545000Y-105655000D03*
%TD*%
D10*
%TO.P,DS3,1,VCC_1*%
%TO.N,+5V*%
X158430000Y-93480000D03*
D11*
%TO.P,DS3,2,GND_2*%
%TO.N,GND*%
X155890000Y-93480000D03*
%TO.P,DS3,3,SCL_3*%
%TO.N,Net-(DS1-SCL)*%
X153350000Y-93480000D03*
%TO.P,DS3,4,SDA_4*%
%TO.N,Net-(DS1-SDA)*%
X150810000Y-93480000D03*
%TO.P,DS3,5,DC_5*%
%TO.N,Net-(DS1-DC)*%
X148270000Y-93480000D03*
%TO.P,DS3,6,CS_6*%
%TO.N,Net-(DS3-CS)*%
X145730000Y-93480000D03*
%TO.P,DS3,7,RST_7*%
%TO.N,Net-(DS1-RST)*%
X143190000Y-93480000D03*
%TD*%
D10*
%TO.P,DS2,1,VCC_1*%
%TO.N,+5V*%
X119390000Y-93510000D03*
D11*
%TO.P,DS2,2,GND_2*%
%TO.N,GND*%
X116850000Y-93510000D03*
%TO.P,DS2,3,SCL_3*%
%TO.N,Net-(DS1-SCL)*%
X114310000Y-93510000D03*
%TO.P,DS2,4,SDA_4*%
%TO.N,Net-(DS1-SDA)*%
X111770000Y-93510000D03*
%TO.P,DS2,5,DC_5*%
%TO.N,Net-(DS1-DC)*%
X109230000Y-93510000D03*
%TO.P,DS2,6,CS_6*%
%TO.N,Net-(DS2-CS)*%
X106690000Y-93510000D03*
%TO.P,DS2,7,RST_7*%
%TO.N,Net-(DS1-RST)*%
X104150000Y-93510000D03*
%TD*%
D10*
%TO.P,DS1,1,VCC_1*%
%TO.N,+5V*%
X80407500Y-93530000D03*
D11*
%TO.P,DS1,2,GND_2*%
%TO.N,GND*%
X77867500Y-93530000D03*
%TO.P,DS1,3,SCL_3*%
%TO.N,Net-(DS1-SCL)*%
X75327500Y-93530000D03*
%TO.P,DS1,4,SDA_4*%
%TO.N,Net-(DS1-SDA)*%
X72787500Y-93530000D03*
%TO.P,DS1,5,DC_5*%
%TO.N,Net-(DS1-DC)*%
X70247500Y-93530000D03*
%TO.P,DS1,6,CS_6*%
%TO.N,Net-(DS1-CS)*%
X67707500Y-93530000D03*
%TO.P,DS1,7,RST_7*%
%TO.N,Net-(DS1-RST)*%
X65167500Y-93530000D03*
%TD*%
D14*
%TO.P,SW1,1,1_1*%
%TO.N,Net-(U2-GPIO_1)*%
X188920000Y-101030000D03*
X195420000Y-101030000D03*
%TO.P,SW1,2,2_2*%
%TO.N,Net-(U2-3V3)*%
X188920000Y-105530000D03*
X195420000Y-105530000D03*
%TD*%
D15*
%TO.P,U2,1,5V_1*%
%TO.N,+5V*%
X123550000Y-81010000D03*
D16*
%TO.P,U2,2,GND_2*%
%TO.N,GND*%
X123440000Y-83550000D03*
%TO.P,U2,3,3V3_3*%
%TO.N,Net-(U2-3V3)*%
X123440000Y-86090000D03*
%TO.P,U2,4,GPIO_13_4*%
%TO.N,Net-(DS1-RST)*%
X123440000Y-88670000D03*
%TO.P,U2,5,GPIO_12_5*%
%TO.N,Net-(DS1-SCL)*%
X123440000Y-91170000D03*
%TO.P,U2,6,GPIO_11_6*%
%TO.N,Net-(DS1-SDA)*%
X123440000Y-93710000D03*
%TO.P,U2,7,GPIO_10_7*%
%TO.N,/SW3*%
X123440000Y-96250000D03*
%TO.P,U2,8,GPIO_9_8*%
%TO.N,Net-(DS1-DC)*%
X123440000Y-98790000D03*
%TO.P,U2,9,GPIO_8_9*%
%TO.N,Net-(DS5-CS)*%
X123440000Y-101330000D03*
%TO.P,U2,10,GPIO_7_10*%
%TO.N,Net-(DS4-CS)*%
X138680000Y-101330000D03*
%TO.P,U2,11,GPIO_6_11*%
%TO.N,Net-(DS3-CS)*%
X138680000Y-98790000D03*
%TO.P,U2,12,GPIO_5_12*%
%TO.N,Net-(DS2-CS)*%
X138680000Y-96250000D03*
%TO.P,U2,13,GPIO_4_13*%
%TO.N,Net-(DS1-CS)*%
X138680000Y-93710000D03*
%TO.P,U2,14,GPIO_3_14*%
%TO.N,unconnected-(U2-GPIO_3-Pad14)*%
X138680000Y-91170000D03*
%TO.P,U2,15,GPIO_2_15*%
%TO.N,Net-(U2-GPIO_2)*%
X138680000Y-88630000D03*
%TO.P,U2,16,GPIO_1_16*%
%TO.N,Net-(U2-GPIO_1)*%
X138680000Y-86090000D03*
%TO.P,U2,17,RX_17*%
%TO.N,unconnected-(U2-RX-Pad17)*%
X138680000Y-83550000D03*
%TO.P,U2,18,TX_18*%
%TO.N,unconnected-(U2-TX-Pad18)*%
X138720000Y-81127105D03*
%TD*%
D17*
%TO.N,GND*%
X199528300Y-94571700D03*
X77867500Y-86355000D03*
X155890000Y-82358500D03*
X162274700Y-95049200D03*
D18*
%TO.N,Net-(DS1-SCL)*%
X192280000Y-90088400D03*
X75327500Y-91036900D03*
X153350000Y-90088400D03*
%TO.N,Net-(DS1-SDA)*%
X221723500Y-97835000D03*
X189740000Y-96614800D03*
X101502900Y-94550500D03*
%TO.N,Net-(DS1-DC)*%
X148270000Y-97326400D03*
X108868600Y-95685600D03*
X70247500Y-95685600D03*
%TO.N,Net-(DS4-CS)*%
X184660000Y-101330000D03*
%TO.N,Net-(DS1-RST)*%
X136814600Y-89225000D03*
%TO.N,Net-(U2-3V3)*%
X185930000Y-87171600D03*
%TO.N,Net-(DS5-CS)*%
X223062500Y-99725000D03*
%TO.N,Net-(U2-GPIO_2)*%
X203045000Y-88630000D03*
%TO.N,Net-(U2-GPIO_1)*%
X188470000Y-85945800D03*
%TO.N,/SW3*%
X139500000Y-92500000D03*
X215203800Y-91170000D03*
%TD*%
%TO.N,+5V*%
D19*
X143561700Y-81481700D02*
X140297600Y-84745800D01*
X125271700Y-93596400D02*
X123947500Y-94920600D01*
X125271700Y-84745800D02*
X125271700Y-93596400D01*
X122077300Y-94920600D02*
X120666700Y-93510000D01*
X119390000Y-93510000D02*
X120666700Y-93510000D01*
X156212300Y-81481700D02*
X143561700Y-81481700D01*
X123550000Y-81010000D02*
X122369300Y-81010000D01*
X123830100Y-82190700D02*
X125271700Y-83632300D01*
X123550000Y-82190700D02*
X123830100Y-82190700D01*
X122369300Y-81010000D02*
X120951700Y-82427600D01*
X123550000Y-81010000D02*
X123550000Y-82190700D01*
X125271700Y-83632300D02*
X125271700Y-84745800D01*
X120951700Y-82427600D02*
X118060000Y-82427600D01*
X123947500Y-94920600D02*
X122077300Y-94920600D01*
X158430000Y-93480000D02*
X158430000Y-83699400D01*
X140297600Y-84745800D02*
X125271700Y-84745800D01*
X158430000Y-83699400D02*
X156212300Y-81481700D01*
%TO.N,GND*%
X124670000Y-91648300D02*
X123929600Y-92388700D01*
X123440000Y-83550000D02*
X119437600Y-83550000D01*
X194820000Y-93540000D02*
X196096700Y-94816700D01*
X162274700Y-95049200D02*
X157459200Y-95049200D01*
X124670000Y-84780000D02*
X124670000Y-91648300D01*
X123929600Y-92388700D02*
X122414700Y-92388700D01*
X122414700Y-92388700D02*
X122259300Y-92233300D01*
X123440000Y-83550000D02*
X124670000Y-84780000D01*
X122259300Y-92233300D02*
X118126700Y-92233300D01*
X157459200Y-95049200D02*
X155890000Y-93480000D01*
X77867500Y-93530000D02*
X77867500Y-86355000D01*
X196096700Y-94816700D02*
X199283300Y-94816700D01*
X119437600Y-83550000D02*
X118060000Y-84927600D01*
X199283300Y-94816700D02*
X199528300Y-94571700D01*
X155890000Y-93480000D02*
X155890000Y-82358500D01*
X118126700Y-92233300D02*
X116850000Y-93510000D01*
%TO.N,Net-(DS1-SCL)*%
D20*
X153350000Y-93480000D02*
X153350000Y-90088400D01*
X192280000Y-93540000D02*
X192280000Y-90088400D01*
X123440000Y-91170000D02*
X117443700Y-91170000D01*
X75327500Y-93530000D02*
X75327500Y-91036900D01*
X115461700Y-93152000D02*
X115461700Y-93510000D01*
X117443700Y-91170000D02*
X115461700Y-93152000D01*
X114310000Y-93510000D02*
X115461700Y-93510000D01*
%TO.N,Net-(DS1-SDA)*%
X107960000Y-93077500D02*
X107960000Y-93903900D01*
X223196600Y-92351200D02*
X222488300Y-93059500D01*
X222488300Y-93059500D02*
X222488300Y-97070200D01*
X110618300Y-93222000D02*
X109754600Y-92358300D01*
X101632500Y-94680100D02*
X101502900Y-94550500D01*
X227568300Y-93252100D02*
X226667400Y-92351200D01*
X227568300Y-93540000D02*
X227568300Y-93252100D01*
X110618300Y-93510000D02*
X110618300Y-93222000D01*
X226667400Y-92351200D02*
X223196600Y-92351200D01*
X109754600Y-92358300D02*
X108679200Y-92358300D01*
X228720000Y-93540000D02*
X227568300Y-93540000D01*
X107183800Y-94680100D02*
X101632500Y-94680100D01*
X189740000Y-93540000D02*
X189740000Y-96614800D01*
X111770000Y-93510000D02*
X110618300Y-93510000D01*
X108679200Y-92358300D02*
X107960000Y-93077500D01*
X222488300Y-97070200D02*
X221723500Y-97835000D01*
X107960000Y-93903900D02*
X107183800Y-94680100D01*
%TO.N,Net-(DS1-DC)*%
X237829673Y-85329673D02*
X215861927Y-85329673D01*
X120335600Y-95685600D02*
X123440000Y-98790000D01*
X238500000Y-96000000D02*
X238500000Y-86000000D01*
X215861927Y-85329673D02*
X215845800Y-85345800D01*
X238500000Y-86000000D02*
X237829673Y-85329673D01*
X148270000Y-97326400D02*
X176673600Y-97326400D01*
X177500000Y-96500000D02*
X177500000Y-88000000D01*
X148270000Y-93480000D02*
X148270000Y-97326400D01*
X176673600Y-97326400D02*
X177500000Y-96500000D01*
X226180000Y-93540000D02*
X226180000Y-95680000D01*
X226180000Y-95680000D02*
X226500000Y-96000000D01*
X70247500Y-93530000D02*
X70247500Y-94681700D01*
X177500000Y-88000000D02*
X180154200Y-85345800D01*
X70247500Y-94681700D02*
X70247500Y-95685600D01*
X109230000Y-93510000D02*
X109230000Y-95324200D01*
X108868600Y-95685600D02*
X120335600Y-95685600D01*
X226500000Y-96000000D02*
X238500000Y-96000000D01*
X109230000Y-95324200D02*
X108868600Y-95685600D01*
X180154200Y-85345800D02*
X215845800Y-85345800D01*
%TO.N,Net-(DS4-CS)*%
X184660000Y-93540000D02*
X184660000Y-101330000D01*
%TO.N,Net-(DS1-RST)*%
X143190000Y-93480000D02*
X142038300Y-93480000D01*
X137703900Y-90114300D02*
X136814600Y-89225000D01*
X105301700Y-93222100D02*
X109853800Y-88670000D01*
X109853800Y-88670000D02*
X123440000Y-88670000D01*
X142038300Y-92976100D02*
X139176500Y-90114300D01*
X142038300Y-93480000D02*
X142038300Y-92976100D01*
X139176500Y-90114300D02*
X137703900Y-90114300D01*
X105301700Y-93510000D02*
X105301700Y-93222100D01*
X104150000Y-93510000D02*
X105301700Y-93510000D01*
%TO.N,Net-(U2-3V3)*%
X185930000Y-102540000D02*
X185930000Y-87171600D01*
X188920000Y-105530000D02*
X185930000Y-102540000D01*
%TO.N,Net-(DS5-CS)*%
X223062500Y-95269200D02*
X223640000Y-94691700D01*
X223062500Y-99725000D02*
X223062500Y-95269200D01*
X223640000Y-93540000D02*
X223640000Y-94691700D01*
%TO.N,Net-(U2-GPIO_2)*%
X203045000Y-101155000D02*
X203045000Y-88630000D01*
%TO.N,Net-(DS3-CS)*%
X144578300Y-93748500D02*
X144578300Y-93480000D01*
X145730000Y-93480000D02*
X144578300Y-93480000D01*
X138680000Y-98790000D02*
X139536800Y-98790000D01*
X139536800Y-98790000D02*
X144578300Y-93748500D01*
%TO.N,Net-(U2-GPIO_1)*%
X188470000Y-100580000D02*
X188470000Y-85945800D01*
X188920000Y-101030000D02*
X188470000Y-100580000D01*
%TO.N,/SW3*%
X215203800Y-99313800D02*
X215203800Y-91170000D01*
X217170000Y-101280000D02*
X215203800Y-99313800D01*
X137500000Y-92500000D02*
X133750000Y-96250000D01*
X133750000Y-96250000D02*
X123440000Y-96250000D01*
X139500000Y-92500000D02*
X137500000Y-92500000D01*
%TD*%
%TA.AperFunction,Conductor*%
%TO.N,GND*%
G36*
X122547707Y-79847595D02*
G01*
X122614723Y-79867360D01*
X122660414Y-79920219D01*
X122670275Y-79989389D01*
X122641173Y-80052910D01*
X122616453Y-80074694D01*
X122615401Y-80075396D01*
X122560033Y-80158260D01*
X122560032Y-80158264D01*
X122545500Y-80231321D01*
X122545500Y-80460500D01*
X122525815Y-80527539D01*
X122473011Y-80573294D01*
X122421500Y-80584500D01*
X122313281Y-80584500D01*
X122205063Y-80613497D01*
X122205061Y-80613498D01*
X122205060Y-80613498D01*
X122108040Y-80669513D01*
X122108034Y-80669517D01*
X120811771Y-81965781D01*
X120750448Y-81999266D01*
X120724090Y-82002100D01*
X119234499Y-82002100D01*
X119167460Y-81982415D01*
X119121705Y-81929611D01*
X119110499Y-81878100D01*
X119110499Y-81829729D01*
X119110498Y-81829723D01*
X119110497Y-81829716D01*
X119104091Y-81770117D01*
X119103092Y-81767439D01*
X119053797Y-81635271D01*
X119053793Y-81635264D01*
X118967547Y-81520055D01*
X118967544Y-81520052D01*
X118852335Y-81433806D01*
X118852328Y-81433802D01*
X118717482Y-81383508D01*
X118717483Y-81383508D01*
X118657883Y-81377101D01*
X118657881Y-81377100D01*
X118657873Y-81377100D01*
X118657864Y-81377100D01*
X117462129Y-81377100D01*
X117462123Y-81377101D01*
X117402516Y-81383508D01*
X117267671Y-81433802D01*
X117267664Y-81433806D01*
X117152455Y-81520052D01*
X117152452Y-81520055D01*
X117066206Y-81635264D01*
X117066202Y-81635271D01*
X117015908Y-81770117D01*
X117013913Y-81788678D01*
X117009501Y-81829723D01*
X117009500Y-81829735D01*
X117009500Y-83025470D01*
X117009501Y-83025476D01*
X117015908Y-83085083D01*
X117066202Y-83219928D01*
X117066206Y-83219935D01*
X117152452Y-83335144D01*
X117152455Y-83335147D01*
X117267664Y-83421393D01*
X117267671Y-83421397D01*
X117402517Y-83471691D01*
X117402516Y-83471691D01*
X117409444Y-83472435D01*
X117462127Y-83478100D01*
X117531311Y-83478099D01*
X117598348Y-83497783D01*
X117644104Y-83550586D01*
X117654048Y-83619744D01*
X117625024Y-83683300D01*
X117569637Y-83720027D01*
X117560973Y-83722842D01*
X117378644Y-83815743D01*
X117334077Y-83848123D01*
X117334077Y-83848124D01*
X118013554Y-84527600D01*
X118007339Y-84527600D01*
X117905606Y-84554859D01*
X117814394Y-84607520D01*
X117739920Y-84681994D01*
X117687259Y-84773206D01*
X117660000Y-84874939D01*
X117660000Y-84881153D01*
X116980524Y-84201677D01*
X116980523Y-84201677D01*
X116948143Y-84246244D01*
X116855244Y-84428568D01*
X116792009Y-84623182D01*
X116760000Y-84825282D01*
X116760000Y-85029917D01*
X116792009Y-85232017D01*
X116855244Y-85426631D01*
X116948141Y-85608950D01*
X116948147Y-85608959D01*
X116980523Y-85653521D01*
X116980524Y-85653522D01*
X117660000Y-84974046D01*
X117660000Y-84980261D01*
X117687259Y-85081994D01*
X117739920Y-85173206D01*
X117814394Y-85247680D01*
X117905606Y-85300341D01*
X118007339Y-85327600D01*
X118013553Y-85327600D01*
X117334076Y-86007074D01*
X117378650Y-86039459D01*
X117560968Y-86132355D01*
X117755582Y-86195590D01*
X117957683Y-86227600D01*
X118162317Y-86227600D01*
X118364417Y-86195590D01*
X118384892Y-86188937D01*
X122435499Y-86188937D01*
X122474101Y-86382996D01*
X122474104Y-86383006D01*
X122549820Y-86565802D01*
X122549827Y-86565815D01*
X122659753Y-86730330D01*
X122659756Y-86730334D01*
X122799665Y-86870243D01*
X122799669Y-86870246D01*
X122964184Y-86980172D01*
X122964197Y-86980179D01*
X123146993Y-87055895D01*
X123146998Y-87055897D01*
X123147002Y-87055897D01*
X123147003Y-87055898D01*
X123341062Y-87094500D01*
X123341065Y-87094500D01*
X123538937Y-87094500D01*
X123669495Y-87068529D01*
X123733002Y-87055897D01*
X123915809Y-86980176D01*
X124080331Y-86870246D01*
X124220246Y-86730331D01*
X124330176Y-86565809D01*
X124405897Y-86383002D01*
X124418529Y-86319495D01*
X124444500Y-86188937D01*
X124444500Y-85991062D01*
X124405898Y-85797003D01*
X124405897Y-85797002D01*
X124405897Y-85796998D01*
X124400841Y-85784791D01*
X124330179Y-85614197D01*
X124330172Y-85614184D01*
X124220246Y-85449669D01*
X124220243Y-85449665D01*
X124080334Y-85309756D01*
X124080330Y-85309753D01*
X123915815Y-85199827D01*
X123915802Y-85199820D01*
X123733006Y-85124104D01*
X123732996Y-85124101D01*
X123538937Y-85085500D01*
X123538935Y-85085500D01*
X123341065Y-85085500D01*
X123341063Y-85085500D01*
X123147003Y-85124101D01*
X123146993Y-85124104D01*
X122964197Y-85199820D01*
X122964184Y-85199827D01*
X122799669Y-85309753D01*
X122799665Y-85309756D01*
X122659756Y-85449665D01*
X122659753Y-85449669D01*
X122549827Y-85614184D01*
X122549820Y-85614197D01*
X122474104Y-85796993D01*
X122474101Y-85797003D01*
X122435500Y-85991062D01*
X122435500Y-85991065D01*
X122435500Y-86188935D01*
X122435500Y-86188937D01*
X122435499Y-86188937D01*
X118384892Y-86188937D01*
X118559031Y-86132355D01*
X118741349Y-86039459D01*
X118785921Y-86007074D01*
X118106447Y-85327600D01*
X118112661Y-85327600D01*
X118214394Y-85300341D01*
X118305606Y-85247680D01*
X118380080Y-85173206D01*
X118432741Y-85081994D01*
X118460000Y-84980261D01*
X118460000Y-84974047D01*
X119139474Y-85653521D01*
X119171859Y-85608949D01*
X119264755Y-85426631D01*
X119327990Y-85232017D01*
X119360000Y-85029917D01*
X119360000Y-84825282D01*
X119327989Y-84623181D01*
X119327989Y-84623178D01*
X119316429Y-84587600D01*
X119264755Y-84428568D01*
X119171859Y-84246250D01*
X119139474Y-84201677D01*
X119139474Y-84201676D01*
X118460000Y-84881151D01*
X118460000Y-84874939D01*
X118432741Y-84773206D01*
X118380080Y-84681994D01*
X118305606Y-84607520D01*
X118214394Y-84554859D01*
X118112661Y-84527600D01*
X118106446Y-84527600D01*
X118785922Y-83848124D01*
X118785921Y-83848123D01*
X118741359Y-83815747D01*
X118741350Y-83815741D01*
X118559028Y-83722843D01*
X118550369Y-83720030D01*
X118492693Y-83680594D01*
X118465494Y-83616235D01*
X118477408Y-83547389D01*
X118524652Y-83495912D01*
X118588685Y-83478099D01*
X118657872Y-83478099D01*
X118717483Y-83471691D01*
X118852331Y-83421396D01*
X118967546Y-83335146D01*
X119053796Y-83219931D01*
X119104091Y-83085083D01*
X119110500Y-83025473D01*
X119110500Y-82977100D01*
X119130185Y-82910061D01*
X119182989Y-82864306D01*
X119234500Y-82853100D01*
X121007716Y-82853100D01*
X121007718Y-82853100D01*
X121115937Y-82824103D01*
X121212963Y-82768085D01*
X122333819Y-81647229D01*
X122395142Y-81613744D01*
X122464834Y-81618728D01*
X122520767Y-81660600D01*
X122545184Y-81726064D01*
X122545500Y-81734910D01*
X122545500Y-81788678D01*
X122560032Y-81861735D01*
X122560033Y-81861739D01*
X122560034Y-81861740D01*
X122615399Y-81944601D01*
X122668916Y-81980359D01*
X122698260Y-81999966D01*
X122698264Y-81999967D01*
X122771321Y-82014499D01*
X122771324Y-82014500D01*
X122771326Y-82014500D01*
X123000500Y-82014500D01*
X123009185Y-82017050D01*
X123018147Y-82015762D01*
X123042187Y-82026740D01*
X123067539Y-82034185D01*
X123073466Y-82041025D01*
X123081703Y-82044787D01*
X123095992Y-82067021D01*
X123113294Y-82086989D01*
X123115581Y-82097503D01*
X123119477Y-82103565D01*
X123124500Y-82138500D01*
X123124500Y-82243886D01*
X123104815Y-82310925D01*
X123052011Y-82356680D01*
X123038819Y-82361817D01*
X122958632Y-82387872D01*
X122782762Y-82477482D01*
X122782760Y-82477483D01*
X122747010Y-82503456D01*
X122747010Y-82503457D01*
X123310591Y-83067037D01*
X123247007Y-83084075D01*
X123132993Y-83149901D01*
X123039901Y-83242993D01*
X122974075Y-83357007D01*
X122957037Y-83420590D01*
X122393457Y-82857010D01*
X122393456Y-82857010D01*
X122367483Y-82892760D01*
X122367482Y-82892762D01*
X122277873Y-83068626D01*
X122216876Y-83256353D01*
X122186000Y-83451302D01*
X122186000Y-83648697D01*
X122216876Y-83843646D01*
X122277873Y-84031373D01*
X122367483Y-84207239D01*
X122393457Y-84242988D01*
X122393457Y-84242989D01*
X122957037Y-83679409D01*
X122974075Y-83742993D01*
X123039901Y-83857007D01*
X123132993Y-83950099D01*
X123247007Y-84015925D01*
X123310590Y-84032962D01*
X122747009Y-84596541D01*
X122747010Y-84596542D01*
X122782755Y-84622512D01*
X122782768Y-84622520D01*
X122958626Y-84712126D01*
X123146353Y-84773123D01*
X123341303Y-84804000D01*
X123538697Y-84804000D01*
X123733646Y-84773123D01*
X123921373Y-84712126D01*
X124097241Y-84622516D01*
X124132988Y-84596543D01*
X124132988Y-84596541D01*
X123569410Y-84032962D01*
X123632993Y-84015925D01*
X123747007Y-83950099D01*
X123840099Y-83857007D01*
X123905925Y-83742993D01*
X123922962Y-83679408D01*
X124486541Y-84242988D01*
X124486543Y-84242988D01*
X124512516Y-84207241D01*
X124602125Y-84031373D01*
X124604268Y-84024780D01*
X124643705Y-83967104D01*
X124708063Y-83939905D01*
X124776909Y-83951818D01*
X124828386Y-83999061D01*
X124846200Y-84063096D01*
X124846200Y-93368789D01*
X124837555Y-93398229D01*
X124831032Y-93428216D01*
X124827277Y-93433231D01*
X124826515Y-93435828D01*
X124809881Y-93456471D01*
X124643511Y-93622840D01*
X124582188Y-93656324D01*
X124512496Y-93651340D01*
X124456563Y-93609468D01*
X124434213Y-93559349D01*
X124413749Y-93456471D01*
X124405897Y-93416998D01*
X124372764Y-93337007D01*
X124330179Y-93234197D01*
X124330172Y-93234184D01*
X124220246Y-93069669D01*
X124220243Y-93069665D01*
X124080334Y-92929756D01*
X124080330Y-92929753D01*
X123915815Y-92819827D01*
X123915802Y-92819820D01*
X123733006Y-92744104D01*
X123732996Y-92744101D01*
X123538937Y-92705500D01*
X123538935Y-92705500D01*
X123341065Y-92705500D01*
X123341063Y-92705500D01*
X123147003Y-92744101D01*
X123146993Y-92744104D01*
X122964197Y-92819820D01*
X122964184Y-92819827D01*
X122799669Y-92929753D01*
X122799665Y-92929756D01*
X122659756Y-93069665D01*
X122659753Y-93069669D01*
X122549827Y-93234184D01*
X122549820Y-93234197D01*
X122474104Y-93416993D01*
X122474101Y-93417003D01*
X122435500Y-93611062D01*
X122435500Y-93611065D01*
X122435500Y-93808935D01*
X122435500Y-93808937D01*
X122435499Y-93808937D01*
X122474101Y-94002996D01*
X122474104Y-94003006D01*
X122549820Y-94185802D01*
X122549827Y-94185815D01*
X122627600Y-94302209D01*
X122630637Y-94311909D01*
X122637292Y-94319589D01*
X122640900Y-94344686D01*
X122648478Y-94368886D01*
X122645789Y-94378686D01*
X122647236Y-94388747D01*
X122636701Y-94411813D01*
X122629994Y-94436266D01*
X122622433Y-94443057D01*
X122618211Y-94452303D01*
X122596878Y-94466012D01*
X122578015Y-94482957D01*
X122566417Y-94485588D01*
X122559433Y-94490077D01*
X122524498Y-94495100D01*
X122304910Y-94495100D01*
X122237871Y-94475415D01*
X122217229Y-94458781D01*
X120927965Y-93169517D01*
X120927963Y-93169515D01*
X120843434Y-93120712D01*
X120830939Y-93113498D01*
X120830938Y-93113497D01*
X120830937Y-93113497D01*
X120722718Y-93084500D01*
X120722717Y-93084500D01*
X120614500Y-93084500D01*
X120547461Y-93064815D01*
X120501706Y-93012011D01*
X120490500Y-92960500D01*
X120490500Y-92635323D01*
X120490499Y-92635321D01*
X120475967Y-92562264D01*
X120475966Y-92562260D01*
X120460269Y-92538768D01*
X120420601Y-92479399D01*
X120337740Y-92424034D01*
X120337739Y-92424033D01*
X120337735Y-92424032D01*
X120264677Y-92409500D01*
X120264674Y-92409500D01*
X118515326Y-92409500D01*
X118515323Y-92409500D01*
X118442264Y-92424032D01*
X118442260Y-92424033D01*
X118359399Y-92479399D01*
X118304033Y-92562260D01*
X118304032Y-92562264D01*
X118289500Y-92635321D01*
X118289500Y-92845050D01*
X118269815Y-92912089D01*
X118217011Y-92957844D01*
X118147853Y-92967788D01*
X118084297Y-92938763D01*
X118055015Y-92901345D01*
X118004620Y-92802442D01*
X117879727Y-92630540D01*
X117879723Y-92630535D01*
X117729464Y-92480276D01*
X117729459Y-92480272D01*
X117557557Y-92355379D01*
X117368217Y-92258904D01*
X117169891Y-92194464D01*
X117112215Y-92155026D01*
X117085017Y-92090668D01*
X117096932Y-92021821D01*
X117120525Y-91988855D01*
X117552562Y-91556819D01*
X117613885Y-91523334D01*
X117640243Y-91520500D01*
X122415065Y-91520500D01*
X122482104Y-91540185D01*
X122527859Y-91592989D01*
X122529626Y-91597047D01*
X122549822Y-91645806D01*
X122549827Y-91645815D01*
X122659753Y-91810330D01*
X122659756Y-91810334D01*
X122799665Y-91950243D01*
X122799669Y-91950246D01*
X122964184Y-92060172D01*
X122964197Y-92060179D01*
X123146993Y-92135895D01*
X123146998Y-92135897D01*
X123147002Y-92135897D01*
X123147003Y-92135898D01*
X123341062Y-92174500D01*
X123341065Y-92174500D01*
X123538937Y-92174500D01*
X123669495Y-92148529D01*
X123733002Y-92135897D01*
X123915809Y-92060176D01*
X124080331Y-91950246D01*
X124220246Y-91810331D01*
X124330176Y-91645809D01*
X124405897Y-91463002D01*
X124424286Y-91370555D01*
X124444500Y-91268937D01*
X124444500Y-91071062D01*
X124405898Y-90877003D01*
X124405897Y-90877002D01*
X124405897Y-90876998D01*
X124391975Y-90843387D01*
X124330179Y-90694197D01*
X124330172Y-90694184D01*
X124220246Y-90529669D01*
X124220243Y-90529665D01*
X124080334Y-90389756D01*
X124080330Y-90389753D01*
X123915815Y-90279827D01*
X123915802Y-90279820D01*
X123733006Y-90204104D01*
X123732996Y-90204101D01*
X123538937Y-90165500D01*
X123538935Y-90165500D01*
X123341065Y-90165500D01*
X123341063Y-90165500D01*
X123147003Y-90204101D01*
X123146993Y-90204104D01*
X122964197Y-90279820D01*
X122964184Y-90279827D01*
X122799669Y-90389753D01*
X122799665Y-90389756D01*
X122659756Y-90529665D01*
X122659753Y-90529669D01*
X122549827Y-90694184D01*
X122549822Y-90694193D01*
X122529626Y-90742953D01*
X122485785Y-90797356D01*
X122419491Y-90819421D01*
X122415065Y-90819500D01*
X117397556Y-90819500D01*
X117308412Y-90843386D01*
X117308411Y-90843386D01*
X117308409Y-90843387D01*
X117308406Y-90843388D01*
X117228494Y-90889526D01*
X117228485Y-90889533D01*
X115324860Y-92793156D01*
X115263537Y-92826641D01*
X115193845Y-92821657D01*
X115149498Y-92793156D01*
X115026930Y-92670588D01*
X115026928Y-92670586D01*
X114886788Y-92568768D01*
X114752356Y-92500272D01*
X114732447Y-92490128D01*
X114732446Y-92490127D01*
X114732445Y-92490127D01*
X114567701Y-92436598D01*
X114567699Y-92436597D01*
X114567698Y-92436597D01*
X114428306Y-92414520D01*
X114396611Y-92409500D01*
X114223389Y-92409500D01*
X114191694Y-92414520D01*
X114052302Y-92436597D01*
X113887552Y-92490128D01*
X113733211Y-92568768D01*
X113682894Y-92605326D01*
X113593072Y-92670586D01*
X113593070Y-92670588D01*
X113593069Y-92670588D01*
X113470588Y-92793069D01*
X113470588Y-92793070D01*
X113470586Y-92793072D01*
X113434059Y-92843347D01*
X113368768Y-92933211D01*
X113290128Y-93087552D01*
X113236597Y-93252302D01*
X113210513Y-93416993D01*
X113209500Y-93423389D01*
X113209500Y-93596611D01*
X113212459Y-93615293D01*
X113235452Y-93760469D01*
X113236598Y-93767701D01*
X113290127Y-93932445D01*
X113368768Y-94086788D01*
X113470586Y-94226928D01*
X113593072Y-94349414D01*
X113733212Y-94451232D01*
X113887555Y-94529873D01*
X114052299Y-94583402D01*
X114223389Y-94610500D01*
X114223390Y-94610500D01*
X114396610Y-94610500D01*
X114396611Y-94610500D01*
X114567701Y-94583402D01*
X114732445Y-94529873D01*
X114886788Y-94451232D01*
X115026928Y-94349414D01*
X115149414Y-94226928D01*
X115251232Y-94086788D01*
X115314586Y-93962448D01*
X115332034Y-93928205D01*
X115342483Y-93917140D01*
X115348806Y-93903297D01*
X115365986Y-93892255D01*
X115380009Y-93877409D01*
X115395688Y-93873167D01*
X115407584Y-93865523D01*
X115442519Y-93860500D01*
X115454319Y-93860500D01*
X115521358Y-93880185D01*
X115567113Y-93932989D01*
X115572250Y-93946182D01*
X115598904Y-94028217D01*
X115695379Y-94217557D01*
X115820272Y-94389459D01*
X115820276Y-94389464D01*
X115970535Y-94539723D01*
X115970540Y-94539727D01*
X116142442Y-94664620D01*
X116331782Y-94761095D01*
X116533871Y-94826757D01*
X116600000Y-94837231D01*
X116600000Y-93943012D01*
X116657007Y-93975925D01*
X116784174Y-94010000D01*
X116915826Y-94010000D01*
X117042993Y-93975925D01*
X117100000Y-93943012D01*
X117100000Y-94837230D01*
X117166126Y-94826757D01*
X117166129Y-94826757D01*
X117368217Y-94761095D01*
X117557557Y-94664620D01*
X117729459Y-94539727D01*
X117729464Y-94539723D01*
X117879723Y-94389464D01*
X117879727Y-94389459D01*
X118004620Y-94217557D01*
X118055015Y-94118654D01*
X118102990Y-94067858D01*
X118170811Y-94051063D01*
X118236946Y-94073600D01*
X118280397Y-94128315D01*
X118289500Y-94174949D01*
X118289500Y-94384678D01*
X118304032Y-94457735D01*
X118304033Y-94457739D01*
X118315818Y-94475377D01*
X118359399Y-94540601D01*
X118435419Y-94591395D01*
X118442260Y-94595966D01*
X118442264Y-94595967D01*
X118515321Y-94610499D01*
X118515324Y-94610500D01*
X118515326Y-94610500D01*
X120264676Y-94610500D01*
X120264677Y-94610499D01*
X120337740Y-94595966D01*
X120420601Y-94540601D01*
X120475966Y-94457740D01*
X120490500Y-94384674D01*
X120490500Y-94234910D01*
X120510185Y-94167871D01*
X120562989Y-94122116D01*
X120632147Y-94112172D01*
X120695703Y-94141197D01*
X120702181Y-94147229D01*
X121736815Y-95181863D01*
X121816037Y-95261085D01*
X121913063Y-95317103D01*
X122021282Y-95346100D01*
X122623960Y-95346100D01*
X122690999Y-95365785D01*
X122736754Y-95418589D01*
X122746698Y-95487747D01*
X122717673Y-95551303D01*
X122711641Y-95557781D01*
X122659756Y-95609665D01*
X122659753Y-95609669D01*
X122549827Y-95774184D01*
X122549820Y-95774197D01*
X122474104Y-95956993D01*
X122474101Y-95957003D01*
X122435500Y-96151062D01*
X122435500Y-96151065D01*
X122435500Y-96348935D01*
X122435500Y-96348937D01*
X122435499Y-96348937D01*
X122474101Y-96542996D01*
X122474104Y-96543006D01*
X122549820Y-96725802D01*
X122549827Y-96725815D01*
X122659753Y-96890330D01*
X122659756Y-96890334D01*
X122799665Y-97030243D01*
X122799669Y-97030246D01*
X122964184Y-97140172D01*
X122964197Y-97140179D01*
X123146993Y-97215895D01*
X123146998Y-97215897D01*
X123147002Y-97215897D01*
X123147003Y-97215898D01*
X123341062Y-97254500D01*
X123341065Y-97254500D01*
X123538937Y-97254500D01*
X123669495Y-97228529D01*
X123733002Y-97215897D01*
X123915809Y-97140176D01*
X124080331Y-97030246D01*
X124220246Y-96890331D01*
X124330176Y-96725809D01*
X124350374Y-96677046D01*
X124394215Y-96622644D01*
X124460509Y-96600579D01*
X124464935Y-96600500D01*
X133796142Y-96600500D01*
X133796144Y-96600500D01*
X133885288Y-96576614D01*
X133965212Y-96530470D01*
X134146745Y-96348937D01*
X137675499Y-96348937D01*
X137714101Y-96542996D01*
X137714104Y-96543006D01*
X137789820Y-96725802D01*
X137789827Y-96725815D01*
X137899753Y-96890330D01*
X137899756Y-96890334D01*
X138039665Y-97030243D01*
X138039669Y-97030246D01*
X138204184Y-97140172D01*
X138204197Y-97140179D01*
X138386993Y-97215895D01*
X138386998Y-97215897D01*
X138387002Y-97215897D01*
X138387003Y-97215898D01*
X138581062Y-97254500D01*
X138581065Y-97254500D01*
X138778937Y-97254500D01*
X138909495Y-97228529D01*
X138973002Y-97215897D01*
X139155809Y-97140176D01*
X139320331Y-97030246D01*
X139460246Y-96890331D01*
X139570176Y-96725809D01*
X139645897Y-96543002D01*
X139673883Y-96402311D01*
X139684500Y-96348937D01*
X139684500Y-96151062D01*
X139645898Y-95957003D01*
X139645897Y-95957002D01*
X139645897Y-95956998D01*
X139621496Y-95898088D01*
X139570179Y-95774197D01*
X139570172Y-95774184D01*
X139460246Y-95609669D01*
X139460243Y-95609665D01*
X139320334Y-95469756D01*
X139320330Y-95469753D01*
X139155815Y-95359827D01*
X139155802Y-95359820D01*
X138973006Y-95284104D01*
X138972996Y-95284101D01*
X138778937Y-95245500D01*
X138778935Y-95245500D01*
X138581065Y-95245500D01*
X138581063Y-95245500D01*
X138387003Y-95284101D01*
X138386993Y-95284104D01*
X138204197Y-95359820D01*
X138204184Y-95359827D01*
X138039669Y-95469753D01*
X138039665Y-95469756D01*
X137899756Y-95609665D01*
X137899753Y-95609669D01*
X137789827Y-95774184D01*
X137789820Y-95774197D01*
X137714104Y-95956993D01*
X137714101Y-95957003D01*
X137675500Y-96151062D01*
X137675500Y-96151065D01*
X137675500Y-96348935D01*
X137675500Y-96348937D01*
X137675499Y-96348937D01*
X134146745Y-96348937D01*
X137608863Y-92886819D01*
X137635790Y-92872115D01*
X137661609Y-92855523D01*
X137667809Y-92854631D01*
X137670186Y-92853334D01*
X137696544Y-92850500D01*
X137819560Y-92850500D01*
X137886599Y-92870185D01*
X137932354Y-92922989D01*
X137942298Y-92992147D01*
X137913273Y-93055703D01*
X137907241Y-93062181D01*
X137899756Y-93069665D01*
X137899753Y-93069669D01*
X137789827Y-93234184D01*
X137789820Y-93234197D01*
X137714104Y-93416993D01*
X137714101Y-93417003D01*
X137675500Y-93611062D01*
X137675500Y-93611065D01*
X137675500Y-93808935D01*
X137675500Y-93808937D01*
X137675499Y-93808937D01*
X137714101Y-94002996D01*
X137714104Y-94003006D01*
X137789820Y-94185802D01*
X137789827Y-94185815D01*
X137899753Y-94350330D01*
X137899756Y-94350334D01*
X138039665Y-94490243D01*
X138039669Y-94490246D01*
X138204184Y-94600172D01*
X138204197Y-94600179D01*
X138354698Y-94662518D01*
X138386998Y-94675897D01*
X138387002Y-94675897D01*
X138387003Y-94675898D01*
X138581062Y-94714500D01*
X138581065Y-94714500D01*
X138778937Y-94714500D01*
X138929149Y-94684620D01*
X138973002Y-94675897D01*
X139117686Y-94615967D01*
X139155802Y-94600179D01*
X139155802Y-94600178D01*
X139155809Y-94600176D01*
X139157354Y-94599144D01*
X139185994Y-94580007D01*
X139320331Y-94490246D01*
X139460246Y-94350331D01*
X139570176Y-94185809D01*
X139585707Y-94148315D01*
X139598765Y-94116788D01*
X139645897Y-94003002D01*
X139664377Y-93910099D01*
X139684500Y-93808937D01*
X139684500Y-93611062D01*
X139645898Y-93417003D01*
X139645897Y-93417002D01*
X139645897Y-93416998D01*
X139612764Y-93337007D01*
X139570179Y-93234197D01*
X139570174Y-93234188D01*
X139562562Y-93222796D01*
X139541683Y-93156119D01*
X139560166Y-93088738D01*
X139612144Y-93042047D01*
X139633559Y-93034132D01*
X139712485Y-93012984D01*
X139838015Y-92940509D01*
X139940509Y-92838015D01*
X140012984Y-92712485D01*
X140050500Y-92572475D01*
X140050500Y-92427525D01*
X140012984Y-92287515D01*
X139996465Y-92258904D01*
X139940511Y-92161988D01*
X139940506Y-92161982D01*
X139838017Y-92059493D01*
X139838011Y-92059488D01*
X139712488Y-91987017D01*
X139712489Y-91987017D01*
X139565564Y-91947648D01*
X139505903Y-91911282D01*
X139475375Y-91848435D01*
X139483670Y-91779060D01*
X139494556Y-91758982D01*
X139570176Y-91645809D01*
X139645897Y-91463002D01*
X139664286Y-91370554D01*
X139696670Y-91308644D01*
X139757386Y-91274070D01*
X139827156Y-91277809D01*
X139873584Y-91307065D01*
X141651481Y-93084962D01*
X141684966Y-93146285D01*
X141687800Y-93172643D01*
X141687800Y-93526144D01*
X141710554Y-93611065D01*
X141711687Y-93615290D01*
X141711688Y-93615293D01*
X141757826Y-93695205D01*
X141757829Y-93695209D01*
X141757831Y-93695212D01*
X141823088Y-93760469D01*
X141823091Y-93760470D01*
X141823094Y-93760473D01*
X141903006Y-93806611D01*
X141903007Y-93806611D01*
X141903012Y-93806614D01*
X141992156Y-93830500D01*
X142057481Y-93830500D01*
X142124520Y-93850185D01*
X142167966Y-93898205D01*
X142238949Y-94037517D01*
X142248768Y-94056788D01*
X142350586Y-94196928D01*
X142473072Y-94319414D01*
X142613212Y-94421232D01*
X142767555Y-94499873D01*
X142932299Y-94553402D01*
X142977752Y-94560601D01*
X142990120Y-94562560D01*
X143053254Y-94592489D01*
X143090186Y-94651800D01*
X143089188Y-94721663D01*
X143058403Y-94772714D01*
X139655687Y-98175429D01*
X139594364Y-98208914D01*
X139524672Y-98203930D01*
X139468739Y-98162058D01*
X139464906Y-98156641D01*
X139460250Y-98149674D01*
X139460243Y-98149665D01*
X139320334Y-98009756D01*
X139320330Y-98009753D01*
X139155815Y-97899827D01*
X139155802Y-97899820D01*
X138973006Y-97824104D01*
X138972996Y-97824101D01*
X138778937Y-97785500D01*
X138778935Y-97785500D01*
X138581065Y-97785500D01*
X138581063Y-97785500D01*
X138387003Y-97824101D01*
X138386993Y-97824104D01*
X138204197Y-97899820D01*
X138204184Y-97899827D01*
X138039669Y-98009753D01*
X138039665Y-98009756D01*
X137899756Y-98149665D01*
X137899753Y-98149669D01*
X137789827Y-98314184D01*
X137789820Y-98314197D01*
X137714104Y-98496993D01*
X137714101Y-98497003D01*
X137675500Y-98691062D01*
X137675500Y-98691065D01*
X137675500Y-98888935D01*
X137675500Y-98888937D01*
X137675499Y-98888937D01*
X137714101Y-99082996D01*
X137714104Y-99083006D01*
X137789820Y-99265802D01*
X137789827Y-99265815D01*
X137899752Y-99430329D01*
X137899755Y-99430333D01*
X138039665Y-99570243D01*
X138039669Y-99570246D01*
X138204184Y-99680172D01*
X138204197Y-99680179D01*
X138386993Y-99755895D01*
X138386998Y-99755897D01*
X138387002Y-99755897D01*
X138387003Y-99755898D01*
X138581062Y-99794500D01*
X138581065Y-99794500D01*
X138778937Y-99794500D01*
X138953305Y-99759815D01*
X138973002Y-99755897D01*
X139155809Y-99680176D01*
X139320331Y-99570246D01*
X139378066Y-99512511D01*
X139460245Y-99430333D01*
X139460248Y-99430329D01*
X139538876Y-99312653D01*
X139570176Y-99265809D01*
X139604011Y-99184122D01*
X139647850Y-99129721D01*
X139671126Y-99117012D01*
X139672080Y-99116616D01*
X139672088Y-99116614D01*
X139752012Y-99070470D01*
X144676398Y-94146082D01*
X144737719Y-94112599D01*
X144807411Y-94117583D01*
X144863344Y-94159455D01*
X144864394Y-94160879D01*
X144884065Y-94187953D01*
X144890586Y-94196928D01*
X145013072Y-94319414D01*
X145153212Y-94421232D01*
X145307555Y-94499873D01*
X145472299Y-94553402D01*
X145643389Y-94580500D01*
X145643390Y-94580500D01*
X145816610Y-94580500D01*
X145816611Y-94580500D01*
X145987701Y-94553402D01*
X146152445Y-94499873D01*
X146306788Y-94421232D01*
X146446928Y-94319414D01*
X146569414Y-94196928D01*
X146671232Y-94056788D01*
X146749873Y-93902445D01*
X146803402Y-93737701D01*
X146830500Y-93566611D01*
X146830500Y-93393389D01*
X146803402Y-93222299D01*
X146749873Y-93057555D01*
X146671232Y-92903212D01*
X146569414Y-92763072D01*
X146446928Y-92640586D01*
X146306788Y-92538768D01*
X146152445Y-92460127D01*
X145987701Y-92406598D01*
X145987699Y-92406597D01*
X145987698Y-92406597D01*
X145856271Y-92385781D01*
X145816611Y-92379500D01*
X145643389Y-92379500D01*
X145603728Y-92385781D01*
X145472302Y-92406597D01*
X145307552Y-92460128D01*
X145153211Y-92538768D01*
X145093345Y-92582264D01*
X145013072Y-92640586D01*
X145013070Y-92640588D01*
X145013069Y-92640588D01*
X144890588Y-92763069D01*
X144890588Y-92763070D01*
X144890586Y-92763072D01*
X144854261Y-92813069D01*
X144788768Y-92903211D01*
X144707966Y-93061795D01*
X144659991Y-93112591D01*
X144597481Y-93129500D01*
X144532156Y-93129500D01*
X144443009Y-93153386D01*
X144405529Y-93175026D01*
X144337629Y-93191497D01*
X144271602Y-93168645D01*
X144228412Y-93113723D01*
X144225604Y-93105971D01*
X144209873Y-93057555D01*
X144131232Y-92903212D01*
X144029414Y-92763072D01*
X143906928Y-92640586D01*
X143766788Y-92538768D01*
X143612445Y-92460127D01*
X143447701Y-92406598D01*
X143447699Y-92406597D01*
X143447698Y-92406597D01*
X143316271Y-92385781D01*
X143276611Y-92379500D01*
X143103389Y-92379500D01*
X143063728Y-92385781D01*
X142932302Y-92406597D01*
X142767552Y-92460128D01*
X142613211Y-92538768D01*
X142553345Y-92582264D01*
X142473072Y-92640586D01*
X142473070Y-92640588D01*
X142473068Y-92640589D01*
X142423449Y-92690208D01*
X142362126Y-92723692D01*
X142292434Y-92718707D01*
X142248088Y-92690207D01*
X139391713Y-89833831D01*
X139391708Y-89833827D01*
X139311790Y-89787687D01*
X139311789Y-89787686D01*
X139311788Y-89787686D01*
X139222644Y-89763800D01*
X139222643Y-89763800D01*
X139191039Y-89763800D01*
X139124000Y-89744115D01*
X139078245Y-89691311D01*
X139068301Y-89622153D01*
X139097326Y-89558597D01*
X139143587Y-89525239D01*
X139155802Y-89520179D01*
X139155802Y-89520178D01*
X139155809Y-89520176D01*
X139320331Y-89410246D01*
X139460246Y-89270331D01*
X139570176Y-89105809D01*
X139645897Y-88923002D01*
X139676543Y-88768937D01*
X139684500Y-88728937D01*
X139684500Y-88531062D01*
X139645898Y-88337003D01*
X139645897Y-88337002D01*
X139645897Y-88336998D01*
X139627251Y-88291982D01*
X139570179Y-88154197D01*
X139570172Y-88154184D01*
X139460246Y-87989669D01*
X139460243Y-87989665D01*
X139320334Y-87849756D01*
X139320330Y-87849753D01*
X139155815Y-87739827D01*
X139155802Y-87739820D01*
X138973006Y-87664104D01*
X138972996Y-87664101D01*
X138778937Y-87625500D01*
X138778935Y-87625500D01*
X138581065Y-87625500D01*
X138581063Y-87625500D01*
X138387003Y-87664101D01*
X138386993Y-87664104D01*
X138204197Y-87739820D01*
X138204184Y-87739827D01*
X138039669Y-87849753D01*
X138039665Y-87849756D01*
X137899756Y-87989665D01*
X137899753Y-87989669D01*
X137789827Y-88154184D01*
X137789820Y-88154197D01*
X137714104Y-88336993D01*
X137714101Y-88337003D01*
X137675500Y-88531062D01*
X137675500Y-88531065D01*
X137675500Y-88728935D01*
X137675500Y-88728937D01*
X137675499Y-88728937D01*
X137714101Y-88922996D01*
X137714104Y-88923006D01*
X137789820Y-89105802D01*
X137789827Y-89105815D01*
X137899753Y-89270330D01*
X137899756Y-89270334D01*
X138039665Y-89410243D01*
X138039669Y-89410246D01*
X138204184Y-89520172D01*
X138204197Y-89520179D01*
X138216413Y-89525239D01*
X138270817Y-89569079D01*
X138292882Y-89635373D01*
X138275603Y-89703073D01*
X138224466Y-89750684D01*
X138168961Y-89763800D01*
X137900444Y-89763800D01*
X137833405Y-89744115D01*
X137812763Y-89727481D01*
X137401419Y-89316137D01*
X137367934Y-89254814D01*
X137365100Y-89228456D01*
X137365100Y-89152527D01*
X137365100Y-89152525D01*
X137327584Y-89012515D01*
X137275903Y-88923002D01*
X137255111Y-88886988D01*
X137255106Y-88886982D01*
X137152617Y-88784493D01*
X137152611Y-88784488D01*
X137027088Y-88712017D01*
X137027089Y-88712017D01*
X137015606Y-88708940D01*
X136887075Y-88674500D01*
X136742125Y-88674500D01*
X136613593Y-88708940D01*
X136602111Y-88712017D01*
X136476588Y-88784488D01*
X136476582Y-88784493D01*
X136374093Y-88886982D01*
X136374088Y-88886988D01*
X136301617Y-89012511D01*
X136298717Y-89023334D01*
X136264100Y-89152525D01*
X136264100Y-89297475D01*
X136301616Y-89437485D01*
X136301617Y-89437488D01*
X136374088Y-89563011D01*
X136374090Y-89563013D01*
X136374091Y-89563015D01*
X136476585Y-89665509D01*
X136476586Y-89665510D01*
X136476588Y-89665511D01*
X136602111Y-89737982D01*
X136602112Y-89737982D01*
X136602115Y-89737984D01*
X136742125Y-89775500D01*
X136818056Y-89775500D01*
X136885095Y-89795185D01*
X136905737Y-89811819D01*
X137488688Y-90394770D01*
X137543499Y-90426415D01*
X137568612Y-90440914D01*
X137657756Y-90464800D01*
X137725754Y-90464800D01*
X137739994Y-90468211D01*
X137758112Y-90478601D01*
X137778149Y-90484485D01*
X137787807Y-90495631D01*
X137800604Y-90502970D01*
X137810228Y-90521507D01*
X137823904Y-90537289D01*
X137826003Y-90551887D01*
X137832801Y-90564980D01*
X137830875Y-90585776D01*
X137833848Y-90606447D01*
X137827406Y-90623257D01*
X137826361Y-90634552D01*
X137819922Y-90642788D01*
X137814212Y-90657691D01*
X137789827Y-90694184D01*
X137789820Y-90694197D01*
X137714104Y-90876993D01*
X137714101Y-90877003D01*
X137675500Y-91071062D01*
X137675500Y-91071065D01*
X137675500Y-91268935D01*
X137675500Y-91268937D01*
X137675499Y-91268937D01*
X137714101Y-91462996D01*
X137714104Y-91463006D01*
X137789820Y-91645802D01*
X137789827Y-91645815D01*
X137899753Y-91810330D01*
X137899756Y-91810334D01*
X138027241Y-91937819D01*
X138060726Y-91999142D01*
X138055742Y-92068834D01*
X138013870Y-92124767D01*
X137948406Y-92149184D01*
X137939560Y-92149500D01*
X137453856Y-92149500D01*
X137364712Y-92173386D01*
X137364709Y-92173387D01*
X137284791Y-92219527D01*
X137284786Y-92219531D01*
X133641137Y-95863181D01*
X133579814Y-95896666D01*
X133553456Y-95899500D01*
X124464935Y-95899500D01*
X124397896Y-95879815D01*
X124352141Y-95827011D01*
X124350374Y-95822953D01*
X124330177Y-95774193D01*
X124330172Y-95774184D01*
X124220246Y-95609669D01*
X124220243Y-95609665D01*
X124109318Y-95498740D01*
X124075833Y-95437417D01*
X124080817Y-95367725D01*
X124122689Y-95311792D01*
X124134986Y-95303679D01*
X124208763Y-95261085D01*
X125612185Y-93857663D01*
X125668203Y-93760637D01*
X125697200Y-93652418D01*
X125697200Y-93540381D01*
X125697200Y-85295300D01*
X125716885Y-85228261D01*
X125769689Y-85182506D01*
X125821200Y-85171300D01*
X137878760Y-85171300D01*
X137945799Y-85190985D01*
X137991554Y-85243789D01*
X138001498Y-85312947D01*
X137972473Y-85376503D01*
X137966441Y-85382981D01*
X137899756Y-85449665D01*
X137899753Y-85449669D01*
X137789827Y-85614184D01*
X137789820Y-85614197D01*
X137714104Y-85796993D01*
X137714101Y-85797003D01*
X137675500Y-85991062D01*
X137675500Y-85991065D01*
X137675500Y-86188935D01*
X137675500Y-86188937D01*
X137675499Y-86188937D01*
X137714101Y-86382996D01*
X137714104Y-86383006D01*
X137789820Y-86565802D01*
X137789827Y-86565815D01*
X137899753Y-86730330D01*
X137899756Y-86730334D01*
X138039665Y-86870243D01*
X138039669Y-86870246D01*
X138204184Y-86980172D01*
X138204197Y-86980179D01*
X138386993Y-87055895D01*
X138386998Y-87055897D01*
X138387002Y-87055897D01*
X138387003Y-87055898D01*
X138581062Y-87094500D01*
X138581065Y-87094500D01*
X138778937Y-87094500D01*
X138909495Y-87068529D01*
X138973002Y-87055897D01*
X139155809Y-86980176D01*
X139320331Y-86870246D01*
X139460246Y-86730331D01*
X139570176Y-86565809D01*
X139645897Y-86383002D01*
X139658529Y-86319495D01*
X139684500Y-86188937D01*
X139684500Y-85991062D01*
X139645898Y-85797003D01*
X139645897Y-85797002D01*
X139645897Y-85796998D01*
X139640841Y-85784791D01*
X139570179Y-85614197D01*
X139570172Y-85614184D01*
X139460246Y-85449669D01*
X139460243Y-85449665D01*
X139393559Y-85382981D01*
X139360074Y-85321658D01*
X139365058Y-85251966D01*
X139406930Y-85196033D01*
X139472394Y-85171616D01*
X139481240Y-85171300D01*
X140353616Y-85171300D01*
X140353618Y-85171300D01*
X140461837Y-85142303D01*
X140558863Y-85086285D01*
X143701629Y-81943519D01*
X143762952Y-81910034D01*
X143789310Y-81907200D01*
X155984690Y-81907200D01*
X156051729Y-81926885D01*
X156072371Y-81943519D01*
X157968181Y-83839329D01*
X158001666Y-83900652D01*
X158004500Y-83927010D01*
X158004500Y-92255500D01*
X157984815Y-92322539D01*
X157932011Y-92368294D01*
X157880500Y-92379500D01*
X157555323Y-92379500D01*
X157482264Y-92394032D01*
X157482260Y-92394033D01*
X157399399Y-92449399D01*
X157344033Y-92532260D01*
X157344032Y-92532264D01*
X157329500Y-92605321D01*
X157329500Y-92815050D01*
X157309815Y-92882089D01*
X157257011Y-92927844D01*
X157187853Y-92937788D01*
X157124297Y-92908763D01*
X157095015Y-92871345D01*
X157044620Y-92772442D01*
X156919727Y-92600540D01*
X156919723Y-92600535D01*
X156769464Y-92450276D01*
X156769459Y-92450272D01*
X156597557Y-92325379D01*
X156408215Y-92228903D01*
X156206124Y-92163241D01*
X156140000Y-92152768D01*
X156140000Y-93046988D01*
X156082993Y-93014075D01*
X155955826Y-92980000D01*
X155824174Y-92980000D01*
X155697007Y-93014075D01*
X155640000Y-93046988D01*
X155640000Y-92152768D01*
X155639999Y-92152768D01*
X155573875Y-92163241D01*
X155371784Y-92228903D01*
X155182442Y-92325379D01*
X155010540Y-92450272D01*
X155010535Y-92450276D01*
X154860276Y-92600535D01*
X154860272Y-92600540D01*
X154735379Y-92772442D01*
X154638904Y-92961783D01*
X154606760Y-93060712D01*
X154567322Y-93118388D01*
X154502964Y-93145586D01*
X154434117Y-93133671D01*
X154382642Y-93086427D01*
X154370898Y-93060712D01*
X154369873Y-93057555D01*
X154291232Y-92903212D01*
X154189414Y-92763072D01*
X154066928Y-92640586D01*
X153926788Y-92538768D01*
X153890203Y-92520127D01*
X153768205Y-92457966D01*
X153717409Y-92409991D01*
X153700500Y-92347481D01*
X153700500Y-90567786D01*
X153720185Y-90500747D01*
X153736819Y-90480105D01*
X153752124Y-90464800D01*
X153790509Y-90426415D01*
X153862984Y-90300885D01*
X153900500Y-90160875D01*
X153900500Y-90015925D01*
X153862984Y-89875915D01*
X153838684Y-89833827D01*
X153790511Y-89750388D01*
X153790506Y-89750382D01*
X153688017Y-89647893D01*
X153688011Y-89647888D01*
X153562488Y-89575417D01*
X153562489Y-89575417D01*
X153538835Y-89569079D01*
X153422475Y-89537900D01*
X153277525Y-89537900D01*
X153161165Y-89569079D01*
X153137511Y-89575417D01*
X153011988Y-89647888D01*
X153011982Y-89647893D01*
X152909493Y-89750382D01*
X152909488Y-89750388D01*
X152837017Y-89875911D01*
X152837016Y-89875915D01*
X152799500Y-90015925D01*
X152799500Y-90160875D01*
X152837016Y-90300885D01*
X152837017Y-90300888D01*
X152909488Y-90426411D01*
X152909493Y-90426417D01*
X152963181Y-90480105D01*
X152996666Y-90541428D01*
X152999500Y-90567786D01*
X152999500Y-92347481D01*
X152979815Y-92414520D01*
X152931795Y-92457966D01*
X152773211Y-92538768D01*
X152713345Y-92582264D01*
X152633072Y-92640586D01*
X152633070Y-92640588D01*
X152633069Y-92640588D01*
X152510588Y-92763069D01*
X152510588Y-92763070D01*
X152510586Y-92763072D01*
X152474261Y-92813069D01*
X152408768Y-92903211D01*
X152330128Y-93057552D01*
X152276597Y-93222302D01*
X152258430Y-93337007D01*
X152249500Y-93393389D01*
X152249500Y-93566611D01*
X152250960Y-93575826D01*
X152269868Y-93695214D01*
X152276598Y-93737701D01*
X152329858Y-93901618D01*
X152330128Y-93902447D01*
X152353466Y-93948250D01*
X152408768Y-94056788D01*
X152510586Y-94196928D01*
X152633072Y-94319414D01*
X152773212Y-94421232D01*
X152927555Y-94499873D01*
X153092299Y-94553402D01*
X153263389Y-94580500D01*
X153263390Y-94580500D01*
X153436610Y-94580500D01*
X153436611Y-94580500D01*
X153607701Y-94553402D01*
X153772445Y-94499873D01*
X153926788Y-94421232D01*
X154066928Y-94319414D01*
X154189414Y-94196928D01*
X154291232Y-94056788D01*
X154369873Y-93902445D01*
X154370896Y-93899294D01*
X154371610Y-93898250D01*
X154371734Y-93897952D01*
X154371796Y-93897977D01*
X154410327Y-93841618D01*
X154474683Y-93814415D01*
X154543530Y-93826323D01*
X154595011Y-93873562D01*
X154606760Y-93899287D01*
X154638904Y-93998217D01*
X154735379Y-94187557D01*
X154860272Y-94359459D01*
X154860276Y-94359464D01*
X155010535Y-94509723D01*
X155010540Y-94509727D01*
X155182442Y-94634620D01*
X155371782Y-94731095D01*
X155573871Y-94796757D01*
X155640000Y-94807231D01*
X155640000Y-93913012D01*
X155697007Y-93945925D01*
X155824174Y-93980000D01*
X155955826Y-93980000D01*
X156082993Y-93945925D01*
X156140000Y-93913012D01*
X156140000Y-94807230D01*
X156206126Y-94796757D01*
X156206129Y-94796757D01*
X156408217Y-94731095D01*
X156597557Y-94634620D01*
X156769459Y-94509727D01*
X156769464Y-94509723D01*
X156919723Y-94359464D01*
X156919727Y-94359459D01*
X157044620Y-94187557D01*
X157095015Y-94088654D01*
X157142990Y-94037858D01*
X157210811Y-94021063D01*
X157276946Y-94043600D01*
X157320397Y-94098315D01*
X157329500Y-94144949D01*
X157329500Y-94354678D01*
X157344032Y-94427735D01*
X157344033Y-94427739D01*
X157344034Y-94427740D01*
X157399399Y-94510601D01*
X157482260Y-94565966D01*
X157482264Y-94565967D01*
X157555321Y-94580499D01*
X157555324Y-94580500D01*
X157555326Y-94580500D01*
X159304676Y-94580500D01*
X159304677Y-94580499D01*
X159377740Y-94565966D01*
X159460601Y-94510601D01*
X159515966Y-94427740D01*
X159530500Y-94354674D01*
X159530500Y-92605326D01*
X159530500Y-92605323D01*
X159530499Y-92605321D01*
X159515967Y-92532264D01*
X159515966Y-92532260D01*
X159500691Y-92509399D01*
X159460601Y-92449399D01*
X159382899Y-92397481D01*
X159377739Y-92394033D01*
X159377735Y-92394032D01*
X159304677Y-92379500D01*
X159304674Y-92379500D01*
X158979500Y-92379500D01*
X158912461Y-92359815D01*
X158866706Y-92307011D01*
X158855500Y-92255500D01*
X158855500Y-83643383D01*
X158855500Y-83643382D01*
X158837520Y-83576281D01*
X158826503Y-83535163D01*
X158770485Y-83438137D01*
X158691263Y-83358915D01*
X156473563Y-81141215D01*
X156376537Y-81085197D01*
X156268318Y-81056200D01*
X143617718Y-81056200D01*
X143505681Y-81056200D01*
X143402238Y-81083916D01*
X143402239Y-81083917D01*
X143397463Y-81085196D01*
X143397459Y-81085198D01*
X143300440Y-81141212D01*
X143300434Y-81141217D01*
X140157671Y-84283981D01*
X140096348Y-84317466D01*
X140069990Y-84320300D01*
X139605392Y-84320300D01*
X139538353Y-84300615D01*
X139492598Y-84247811D01*
X139482654Y-84178653D01*
X139502290Y-84127409D01*
X139570172Y-84025815D01*
X139570172Y-84025814D01*
X139570176Y-84025809D01*
X139645897Y-83843002D01*
X139670359Y-83720027D01*
X139684500Y-83648937D01*
X139684500Y-83451062D01*
X139645898Y-83257003D01*
X139645897Y-83257002D01*
X139645897Y-83256998D01*
X139630545Y-83219935D01*
X139570179Y-83074197D01*
X139570172Y-83074184D01*
X139460246Y-82909669D01*
X139460243Y-82909665D01*
X139320334Y-82769756D01*
X139320330Y-82769753D01*
X139155815Y-82659827D01*
X139155802Y-82659820D01*
X138973006Y-82584104D01*
X138972996Y-82584101D01*
X138778937Y-82545500D01*
X138778935Y-82545500D01*
X138581065Y-82545500D01*
X138581063Y-82545500D01*
X138387003Y-82584101D01*
X138386993Y-82584104D01*
X138204197Y-82659820D01*
X138204184Y-82659827D01*
X138039669Y-82769753D01*
X138039665Y-82769756D01*
X137899756Y-82909665D01*
X137899753Y-82909669D01*
X137789827Y-83074184D01*
X137789820Y-83074197D01*
X137714104Y-83256993D01*
X137714101Y-83257003D01*
X137675500Y-83451062D01*
X137675500Y-83451065D01*
X137675500Y-83648935D01*
X137675500Y-83648937D01*
X137675499Y-83648937D01*
X137714101Y-83842996D01*
X137714104Y-83843006D01*
X137789820Y-84025802D01*
X137789827Y-84025815D01*
X137857710Y-84127409D01*
X137878588Y-84194087D01*
X137860103Y-84261467D01*
X137808124Y-84308157D01*
X137754608Y-84320300D01*
X125821200Y-84320300D01*
X125754161Y-84300615D01*
X125708406Y-84247811D01*
X125697200Y-84196300D01*
X125697200Y-83576284D01*
X125697199Y-83576281D01*
X125668203Y-83468063D01*
X125612185Y-83371037D01*
X125532963Y-83291815D01*
X125532962Y-83291814D01*
X125528632Y-83287484D01*
X125528621Y-83287474D01*
X124412291Y-82171143D01*
X124378806Y-82109820D01*
X124383790Y-82040128D01*
X124425662Y-81984195D01*
X124431058Y-81980376D01*
X124484601Y-81944601D01*
X124539966Y-81861740D01*
X124554500Y-81788674D01*
X124554500Y-81226042D01*
X137715499Y-81226042D01*
X137754101Y-81420101D01*
X137754104Y-81420111D01*
X137829820Y-81602907D01*
X137829827Y-81602920D01*
X137939753Y-81767435D01*
X137939756Y-81767439D01*
X138079665Y-81907348D01*
X138079669Y-81907351D01*
X138244184Y-82017277D01*
X138244197Y-82017284D01*
X138310596Y-82044787D01*
X138426998Y-82093002D01*
X138427002Y-82093002D01*
X138427003Y-82093003D01*
X138621062Y-82131605D01*
X138621065Y-82131605D01*
X138818937Y-82131605D01*
X138990374Y-82097503D01*
X139013002Y-82093002D01*
X139195809Y-82017281D01*
X139360331Y-81907351D01*
X139500246Y-81767436D01*
X139610176Y-81602914D01*
X139685897Y-81420107D01*
X139700045Y-81348982D01*
X139724500Y-81226042D01*
X139724500Y-81028167D01*
X139685898Y-80834108D01*
X139685897Y-80834107D01*
X139685897Y-80834103D01*
X139629263Y-80697376D01*
X139610179Y-80651302D01*
X139610172Y-80651289D01*
X139500246Y-80486774D01*
X139500243Y-80486770D01*
X139360334Y-80346861D01*
X139360330Y-80346858D01*
X139195815Y-80236932D01*
X139195802Y-80236925D01*
X139013006Y-80161209D01*
X139012996Y-80161206D01*
X138818937Y-80122605D01*
X138818935Y-80122605D01*
X138621065Y-80122605D01*
X138621063Y-80122605D01*
X138427003Y-80161206D01*
X138426993Y-80161209D01*
X138244197Y-80236925D01*
X138244184Y-80236932D01*
X138079669Y-80346858D01*
X138079665Y-80346861D01*
X137939756Y-80486770D01*
X137939753Y-80486774D01*
X137829827Y-80651289D01*
X137829820Y-80651302D01*
X137754104Y-80834098D01*
X137754101Y-80834108D01*
X137715500Y-81028167D01*
X137715500Y-81028170D01*
X137715500Y-81226040D01*
X137715500Y-81226042D01*
X137715499Y-81226042D01*
X124554500Y-81226042D01*
X124554500Y-80231326D01*
X124554500Y-80231323D01*
X124554499Y-80231321D01*
X124539967Y-80158264D01*
X124539966Y-80158260D01*
X124484601Y-80075399D01*
X124484599Y-80075397D01*
X124484598Y-80075396D01*
X124475965Y-80066763D01*
X124477353Y-80065374D01*
X124442354Y-80023498D01*
X124433645Y-79954173D01*
X124463799Y-79891145D01*
X124523242Y-79854425D01*
X124556195Y-79850006D01*
X246648421Y-79996576D01*
X246715435Y-80016341D01*
X246761126Y-80069200D01*
X246770987Y-80138370D01*
X246741885Y-80201891D01*
X246683062Y-80239595D01*
X246680364Y-80240351D01*
X246507367Y-80286705D01*
X246252982Y-80392075D01*
X246252971Y-80392080D01*
X246014516Y-80529754D01*
X245796073Y-80697370D01*
X245796066Y-80697376D01*
X245601376Y-80892066D01*
X245601370Y-80892073D01*
X245433754Y-81110516D01*
X245296080Y-81348971D01*
X245296075Y-81348982D01*
X245190704Y-81603369D01*
X245146025Y-81770116D01*
X245130051Y-81829735D01*
X245119441Y-81869331D01*
X245119438Y-81869344D01*
X245083501Y-82142315D01*
X245083500Y-82142332D01*
X245083500Y-82417667D01*
X245083501Y-82417684D01*
X245119438Y-82690655D01*
X245119439Y-82690660D01*
X245119440Y-82690666D01*
X245140632Y-82769756D01*
X245190704Y-82956630D01*
X245296075Y-83211017D01*
X245296080Y-83211028D01*
X245367741Y-83335146D01*
X245433751Y-83449479D01*
X245433753Y-83449482D01*
X245433754Y-83449483D01*
X245601370Y-83667926D01*
X245601376Y-83667933D01*
X245796066Y-83862623D01*
X245796072Y-83862628D01*
X246014521Y-84030249D01*
X246167778Y-84118732D01*
X246252971Y-84167919D01*
X246252976Y-84167921D01*
X246252979Y-84167923D01*
X246507368Y-84273295D01*
X246773334Y-84344560D01*
X247046326Y-84380500D01*
X247046333Y-84380500D01*
X247321667Y-84380500D01*
X247321674Y-84380500D01*
X247594666Y-84344560D01*
X247860632Y-84273295D01*
X248115021Y-84167923D01*
X248353479Y-84030249D01*
X248571928Y-83862628D01*
X248766628Y-83667928D01*
X248934249Y-83449479D01*
X249071923Y-83211021D01*
X249177295Y-82956632D01*
X249248560Y-82690666D01*
X249253061Y-82656476D01*
X249281327Y-82592580D01*
X249339652Y-82554109D01*
X249409517Y-82553278D01*
X249468740Y-82590350D01*
X249498519Y-82653556D01*
X249500000Y-82672662D01*
X249500000Y-104387337D01*
X249480315Y-104454376D01*
X249427511Y-104500131D01*
X249358353Y-104510075D01*
X249294797Y-104481050D01*
X249257023Y-104422272D01*
X249253061Y-104403523D01*
X249249788Y-104378664D01*
X249248560Y-104369334D01*
X249177295Y-104103368D01*
X249071923Y-103848979D01*
X249071921Y-103848976D01*
X249071919Y-103848971D01*
X249022732Y-103763778D01*
X248934249Y-103610521D01*
X248766628Y-103392072D01*
X248766623Y-103392066D01*
X248571933Y-103197376D01*
X248571926Y-103197370D01*
X248353483Y-103029754D01*
X248353482Y-103029753D01*
X248353479Y-103029751D01*
X248258407Y-102974861D01*
X248115028Y-102892080D01*
X248115017Y-102892075D01*
X247860630Y-102786704D01*
X247727649Y-102751072D01*
X247594666Y-102715440D01*
X247594660Y-102715439D01*
X247594655Y-102715438D01*
X247321684Y-102679501D01*
X247321679Y-102679500D01*
X247321674Y-102679500D01*
X247046326Y-102679500D01*
X247046320Y-102679500D01*
X247046315Y-102679501D01*
X246773344Y-102715438D01*
X246773337Y-102715439D01*
X246773334Y-102715440D01*
X246717125Y-102730500D01*
X246507369Y-102786704D01*
X246252982Y-102892075D01*
X246252971Y-102892080D01*
X246014516Y-103029754D01*
X245796073Y-103197370D01*
X245796066Y-103197376D01*
X245601376Y-103392066D01*
X245601370Y-103392073D01*
X245433754Y-103610516D01*
X245296080Y-103848971D01*
X245296075Y-103848982D01*
X245190704Y-104103369D01*
X245119441Y-104369331D01*
X245119438Y-104369344D01*
X245083501Y-104642315D01*
X245083500Y-104642332D01*
X245083500Y-104917667D01*
X245083501Y-104917684D01*
X245119438Y-105190655D01*
X245119439Y-105190660D01*
X245119440Y-105190666D01*
X245131902Y-105237174D01*
X245190704Y-105456630D01*
X245296075Y-105711017D01*
X245296080Y-105711028D01*
X245360628Y-105822826D01*
X245433751Y-105949479D01*
X245433753Y-105949482D01*
X245433754Y-105949483D01*
X245601370Y-106167926D01*
X245601376Y-106167933D01*
X245796066Y-106362623D01*
X245796072Y-106362628D01*
X246014521Y-106530249D01*
X246150624Y-106608828D01*
X246252971Y-106667919D01*
X246252976Y-106667921D01*
X246252979Y-106667923D01*
X246478746Y-106761439D01*
X246533149Y-106805280D01*
X246555214Y-106871574D01*
X246537935Y-106939273D01*
X246486798Y-106986884D01*
X246431293Y-107000000D01*
X224499925Y-107000000D01*
X224432886Y-106980315D01*
X224387131Y-106927511D01*
X224377187Y-106858353D01*
X224406212Y-106794797D01*
X224427039Y-106775682D01*
X224484646Y-106733828D01*
X224623828Y-106594646D01*
X224739524Y-106435405D01*
X224828884Y-106260025D01*
X224889709Y-106072826D01*
X224899656Y-106010025D01*
X224920500Y-105878422D01*
X224920500Y-105681577D01*
X224889709Y-105487173D01*
X224828882Y-105299970D01*
X224764015Y-105172662D01*
X224739524Y-105124595D01*
X224623828Y-104965354D01*
X224484646Y-104826172D01*
X224325405Y-104710476D01*
X224292547Y-104693734D01*
X224150029Y-104621117D01*
X223962826Y-104560290D01*
X223768422Y-104529500D01*
X223768417Y-104529500D01*
X223571583Y-104529500D01*
X223571578Y-104529500D01*
X223377173Y-104560290D01*
X223189970Y-104621117D01*
X223014594Y-104710476D01*
X222923741Y-104776485D01*
X222855354Y-104826172D01*
X222855352Y-104826174D01*
X222855351Y-104826174D01*
X222716174Y-104965351D01*
X222716174Y-104965352D01*
X222716172Y-104965354D01*
X222684535Y-105008898D01*
X222600476Y-105124594D01*
X222511117Y-105299970D01*
X222450290Y-105487173D01*
X222419500Y-105681577D01*
X222419500Y-105878422D01*
X222450290Y-106072826D01*
X222511117Y-106260029D01*
X222563395Y-106362629D01*
X222600476Y-106435405D01*
X222716172Y-106594646D01*
X222855354Y-106733828D01*
X222912961Y-106775682D01*
X222955627Y-106831013D01*
X222961605Y-106900626D01*
X222928999Y-106962421D01*
X222868160Y-106996778D01*
X222840075Y-107000000D01*
X217999925Y-107000000D01*
X217932886Y-106980315D01*
X217887131Y-106927511D01*
X217877187Y-106858353D01*
X217906212Y-106794797D01*
X217927039Y-106775682D01*
X217984646Y-106733828D01*
X218123828Y-106594646D01*
X218239524Y-106435405D01*
X218328884Y-106260025D01*
X218389709Y-106072826D01*
X218399656Y-106010025D01*
X218420500Y-105878422D01*
X218420500Y-105681577D01*
X218389709Y-105487173D01*
X218328882Y-105299970D01*
X218264015Y-105172662D01*
X218239524Y-105124595D01*
X218123828Y-104965354D01*
X217984646Y-104826172D01*
X217825405Y-104710476D01*
X217792547Y-104693734D01*
X217650029Y-104621117D01*
X217462826Y-104560290D01*
X217268422Y-104529500D01*
X217268417Y-104529500D01*
X217071583Y-104529500D01*
X217071578Y-104529500D01*
X216877173Y-104560290D01*
X216689970Y-104621117D01*
X216514594Y-104710476D01*
X216423741Y-104776485D01*
X216355354Y-104826172D01*
X216355352Y-104826174D01*
X216355351Y-104826174D01*
X216216174Y-104965351D01*
X216216174Y-104965352D01*
X216216172Y-104965354D01*
X216184535Y-105008898D01*
X216100476Y-105124594D01*
X216011117Y-105299970D01*
X215950290Y-105487173D01*
X215919500Y-105681577D01*
X215919500Y-105878422D01*
X215950290Y-106072826D01*
X216011117Y-106260029D01*
X216063395Y-106362629D01*
X216100476Y-106435405D01*
X216216172Y-106594646D01*
X216355354Y-106733828D01*
X216412961Y-106775682D01*
X216455627Y-106831013D01*
X216461605Y-106900626D01*
X216428999Y-106962421D01*
X216368160Y-106996778D01*
X216340075Y-107000000D01*
X210176250Y-107000000D01*
X210109211Y-106980315D01*
X210063456Y-106927511D01*
X210053512Y-106858353D01*
X210082537Y-106794797D01*
X210119955Y-106765515D01*
X210200405Y-106724524D01*
X210359646Y-106608828D01*
X210498828Y-106469646D01*
X210614524Y-106310405D01*
X210703884Y-106135025D01*
X210764709Y-105947826D01*
X210795500Y-105753422D01*
X210795500Y-105556577D01*
X210764709Y-105362173D01*
X210708982Y-105190666D01*
X210703884Y-105174975D01*
X210703882Y-105174972D01*
X210703882Y-105174970D01*
X210640191Y-105049970D01*
X210614524Y-104999595D01*
X210498828Y-104840354D01*
X210359646Y-104701172D01*
X210200405Y-104585476D01*
X210182145Y-104576172D01*
X210025029Y-104496117D01*
X209837826Y-104435290D01*
X209643422Y-104404500D01*
X209643417Y-104404500D01*
X209446583Y-104404500D01*
X209446578Y-104404500D01*
X209252173Y-104435290D01*
X209064970Y-104496117D01*
X208889594Y-104585476D01*
X208811363Y-104642315D01*
X208730354Y-104701172D01*
X208730352Y-104701174D01*
X208730351Y-104701174D01*
X208591174Y-104840351D01*
X208591174Y-104840352D01*
X208591172Y-104840354D01*
X208541485Y-104908741D01*
X208475476Y-104999594D01*
X208386117Y-105174970D01*
X208325290Y-105362173D01*
X208294500Y-105556577D01*
X208294500Y-105753422D01*
X208325290Y-105947826D01*
X208386117Y-106135029D01*
X208449806Y-106260025D01*
X208475476Y-106310405D01*
X208591172Y-106469646D01*
X208730354Y-106608828D01*
X208889595Y-106724524D01*
X208962045Y-106761439D01*
X208970045Y-106765515D01*
X209020841Y-106813489D01*
X209037636Y-106881310D01*
X209015099Y-106947445D01*
X208960384Y-106990897D01*
X208913750Y-107000000D01*
X203676250Y-107000000D01*
X203609211Y-106980315D01*
X203563456Y-106927511D01*
X203553512Y-106858353D01*
X203582537Y-106794797D01*
X203619955Y-106765515D01*
X203700405Y-106724524D01*
X203859646Y-106608828D01*
X203998828Y-106469646D01*
X204114524Y-106310405D01*
X204203884Y-106135025D01*
X204264709Y-105947826D01*
X204295500Y-105753422D01*
X204295500Y-105556577D01*
X204264709Y-105362173D01*
X204208982Y-105190666D01*
X204203884Y-105174975D01*
X204203882Y-105174972D01*
X204203882Y-105174970D01*
X204140191Y-105049970D01*
X204114524Y-104999595D01*
X203998828Y-104840354D01*
X203859646Y-104701172D01*
X203700405Y-104585476D01*
X203682145Y-104576172D01*
X203525029Y-104496117D01*
X203337826Y-104435290D01*
X203143422Y-104404500D01*
X203143417Y-104404500D01*
X202946583Y-104404500D01*
X202946578Y-104404500D01*
X202752173Y-104435290D01*
X202564970Y-104496117D01*
X202389594Y-104585476D01*
X202311363Y-104642315D01*
X202230354Y-104701172D01*
X202230352Y-104701174D01*
X202230351Y-104701174D01*
X202091174Y-104840351D01*
X202091174Y-104840352D01*
X202091172Y-104840354D01*
X202041485Y-104908741D01*
X201975476Y-104999594D01*
X201886117Y-105174970D01*
X201825290Y-105362173D01*
X201794500Y-105556577D01*
X201794500Y-105753422D01*
X201825290Y-105947826D01*
X201886117Y-106135029D01*
X201949806Y-106260025D01*
X201975476Y-106310405D01*
X202091172Y-106469646D01*
X202230354Y-106608828D01*
X202389595Y-106724524D01*
X202462045Y-106761439D01*
X202470045Y-106765515D01*
X202520841Y-106813489D01*
X202537636Y-106881310D01*
X202515099Y-106947445D01*
X202460384Y-106990897D01*
X202413750Y-107000000D01*
X195708119Y-107000000D01*
X195641080Y-106980315D01*
X195595325Y-106927511D01*
X195585381Y-106858353D01*
X195614406Y-106794797D01*
X195673184Y-106757023D01*
X195688721Y-106753527D01*
X195712826Y-106749709D01*
X195761702Y-106733828D01*
X195900025Y-106688884D01*
X196075405Y-106599524D01*
X196234646Y-106483828D01*
X196373828Y-106344646D01*
X196489524Y-106185405D01*
X196578884Y-106010025D01*
X196639709Y-105822826D01*
X196670500Y-105628422D01*
X196670500Y-105431577D01*
X196639709Y-105237173D01*
X196592727Y-105092580D01*
X196578884Y-105049975D01*
X196578882Y-105049972D01*
X196578882Y-105049970D01*
X196531743Y-104957455D01*
X196489524Y-104874595D01*
X196373828Y-104715354D01*
X196234646Y-104576172D01*
X196075405Y-104460476D01*
X196063433Y-104454376D01*
X195900029Y-104371117D01*
X195712826Y-104310290D01*
X195518422Y-104279500D01*
X195518417Y-104279500D01*
X195321583Y-104279500D01*
X195321578Y-104279500D01*
X195127173Y-104310290D01*
X194939970Y-104371117D01*
X194764594Y-104460476D01*
X194696328Y-104510075D01*
X194605354Y-104576172D01*
X194605352Y-104576174D01*
X194605351Y-104576174D01*
X194466174Y-104715351D01*
X194466174Y-104715352D01*
X194466172Y-104715354D01*
X194416485Y-104783741D01*
X194350476Y-104874594D01*
X194261117Y-105049970D01*
X194200290Y-105237173D01*
X194169500Y-105431577D01*
X194169500Y-105628422D01*
X194200290Y-105822826D01*
X194261117Y-106010029D01*
X194324806Y-106135025D01*
X194350476Y-106185405D01*
X194466172Y-106344646D01*
X194605354Y-106483828D01*
X194764595Y-106599524D01*
X194847455Y-106641743D01*
X194939970Y-106688882D01*
X194939972Y-106688882D01*
X194939975Y-106688884D01*
X195040317Y-106721487D01*
X195127173Y-106749709D01*
X195151279Y-106753527D01*
X195214414Y-106783456D01*
X195251345Y-106842768D01*
X195250347Y-106912630D01*
X195211737Y-106970863D01*
X195147774Y-106998977D01*
X195131881Y-107000000D01*
X189208119Y-107000000D01*
X189141080Y-106980315D01*
X189095325Y-106927511D01*
X189085381Y-106858353D01*
X189114406Y-106794797D01*
X189173184Y-106757023D01*
X189188721Y-106753527D01*
X189212826Y-106749709D01*
X189261702Y-106733828D01*
X189400025Y-106688884D01*
X189575405Y-106599524D01*
X189734646Y-106483828D01*
X189873828Y-106344646D01*
X189989524Y-106185405D01*
X190078884Y-106010025D01*
X190139709Y-105822826D01*
X190170500Y-105628422D01*
X190170500Y-105431577D01*
X190139709Y-105237173D01*
X190092727Y-105092580D01*
X190078884Y-105049975D01*
X190078882Y-105049972D01*
X190078882Y-105049970D01*
X190031743Y-104957455D01*
X189989524Y-104874595D01*
X189873828Y-104715354D01*
X189734646Y-104576172D01*
X189575405Y-104460476D01*
X189563433Y-104454376D01*
X189400029Y-104371117D01*
X189212826Y-104310290D01*
X189018422Y-104279500D01*
X189018417Y-104279500D01*
X188821583Y-104279500D01*
X188821578Y-104279500D01*
X188627173Y-104310290D01*
X188439974Y-104371116D01*
X188439967Y-104371119D01*
X188398898Y-104392045D01*
X188330228Y-104404941D01*
X188265488Y-104378664D01*
X188254923Y-104369241D01*
X186316819Y-102431137D01*
X186283334Y-102369814D01*
X186280500Y-102343456D01*
X186280500Y-94475377D01*
X186300185Y-94408338D01*
X186352989Y-94362583D01*
X186422147Y-94352639D01*
X186478106Y-94377960D01*
X186479131Y-94376550D01*
X186483069Y-94379411D01*
X186483072Y-94379414D01*
X186623212Y-94481232D01*
X186777555Y-94559873D01*
X186942299Y-94613402D01*
X187113389Y-94640500D01*
X187113390Y-94640500D01*
X187286610Y-94640500D01*
X187286611Y-94640500D01*
X187457701Y-94613402D01*
X187622445Y-94559873D01*
X187776788Y-94481232D01*
X187916928Y-94379414D01*
X187916930Y-94379411D01*
X187920869Y-94376550D01*
X187921909Y-94377982D01*
X187978704Y-94352520D01*
X188047792Y-94362942D01*
X188100278Y-94409062D01*
X188119500Y-94475377D01*
X188119500Y-100010663D01*
X188099815Y-100077702D01*
X188083182Y-100098344D01*
X187966171Y-100215355D01*
X187850476Y-100374594D01*
X187761117Y-100549970D01*
X187700290Y-100737173D01*
X187669500Y-100931577D01*
X187669500Y-101128422D01*
X187700290Y-101322826D01*
X187761117Y-101510029D01*
X187818677Y-101622996D01*
X187850476Y-101685405D01*
X187966172Y-101844646D01*
X188105354Y-101983828D01*
X188264595Y-102099524D01*
X188347455Y-102141743D01*
X188439970Y-102188882D01*
X188439972Y-102188882D01*
X188439975Y-102188884D01*
X188536269Y-102220172D01*
X188627173Y-102249709D01*
X188821578Y-102280500D01*
X188821583Y-102280500D01*
X189018422Y-102280500D01*
X189212826Y-102249709D01*
X189261702Y-102233828D01*
X189400025Y-102188884D01*
X189575405Y-102099524D01*
X189734646Y-101983828D01*
X189873828Y-101844646D01*
X189989524Y-101685405D01*
X190078884Y-101510025D01*
X190139709Y-101322826D01*
X190150052Y-101257525D01*
X190170500Y-101128422D01*
X190170500Y-100931577D01*
X194169500Y-100931577D01*
X194169500Y-101128422D01*
X194200290Y-101322826D01*
X194261117Y-101510029D01*
X194318677Y-101622996D01*
X194350476Y-101685405D01*
X194466172Y-101844646D01*
X194605354Y-101983828D01*
X194764595Y-102099524D01*
X194847455Y-102141743D01*
X194939970Y-102188882D01*
X194939972Y-102188882D01*
X194939975Y-102188884D01*
X195036269Y-102220172D01*
X195127173Y-102249709D01*
X195321578Y-102280500D01*
X195321583Y-102280500D01*
X195518422Y-102280500D01*
X195712826Y-102249709D01*
X195761702Y-102233828D01*
X195900025Y-102188884D01*
X196075405Y-102099524D01*
X196234646Y-101983828D01*
X196373828Y-101844646D01*
X196489524Y-101685405D01*
X196578884Y-101510025D01*
X196639709Y-101322826D01*
X196650052Y-101257525D01*
X196670500Y-101128422D01*
X196670500Y-101056577D01*
X201794500Y-101056577D01*
X201794500Y-101253422D01*
X201825290Y-101447826D01*
X201886117Y-101635029D01*
X201955148Y-101770509D01*
X201975476Y-101810405D01*
X202091172Y-101969646D01*
X202230354Y-102108828D01*
X202389595Y-102224524D01*
X202439024Y-102249709D01*
X202564970Y-102313882D01*
X202564972Y-102313882D01*
X202564975Y-102313884D01*
X202655988Y-102343456D01*
X202752173Y-102374709D01*
X202946578Y-102405500D01*
X202946583Y-102405500D01*
X203143422Y-102405500D01*
X203337826Y-102374709D01*
X203352891Y-102369814D01*
X203525025Y-102313884D01*
X203700405Y-102224524D01*
X203859646Y-102108828D01*
X203998828Y-101969646D01*
X204114524Y-101810405D01*
X204203884Y-101635025D01*
X204264709Y-101447826D01*
X204271892Y-101402472D01*
X204295500Y-101253422D01*
X204295500Y-101056577D01*
X208294500Y-101056577D01*
X208294500Y-101253422D01*
X208325290Y-101447826D01*
X208386117Y-101635029D01*
X208455148Y-101770509D01*
X208475476Y-101810405D01*
X208591172Y-101969646D01*
X208730354Y-102108828D01*
X208889595Y-102224524D01*
X208939024Y-102249709D01*
X209064970Y-102313882D01*
X209064972Y-102313882D01*
X209064975Y-102313884D01*
X209155988Y-102343456D01*
X209252173Y-102374709D01*
X209446578Y-102405500D01*
X209446583Y-102405500D01*
X209643422Y-102405500D01*
X209837826Y-102374709D01*
X209852891Y-102369814D01*
X210025025Y-102313884D01*
X210200405Y-102224524D01*
X210359646Y-102108828D01*
X210498828Y-101969646D01*
X210614524Y-101810405D01*
X210703884Y-101635025D01*
X210764709Y-101447826D01*
X210771892Y-101402472D01*
X210795500Y-101253422D01*
X210795500Y-101056577D01*
X210764709Y-100862173D01*
X210708657Y-100689665D01*
X210703884Y-100674975D01*
X210703882Y-100674972D01*
X210703882Y-100674970D01*
X210640081Y-100549754D01*
X210614524Y-100499595D01*
X210498828Y-100340354D01*
X210359646Y-100201172D01*
X210200405Y-100085476D01*
X210161973Y-100065894D01*
X210025029Y-99996117D01*
X209837826Y-99935290D01*
X209643422Y-99904500D01*
X209643417Y-99904500D01*
X209446583Y-99904500D01*
X209446578Y-99904500D01*
X209252173Y-99935290D01*
X209064970Y-99996117D01*
X208889594Y-100085476D01*
X208830152Y-100128664D01*
X208730354Y-100201172D01*
X208730352Y-100201174D01*
X208730351Y-100201174D01*
X208591174Y-100340351D01*
X208591174Y-100340352D01*
X208591172Y-100340354D01*
X208565669Y-100375456D01*
X208475476Y-100499594D01*
X208386117Y-100674970D01*
X208325290Y-100862173D01*
X208294500Y-101056577D01*
X204295500Y-101056577D01*
X204264709Y-100862173D01*
X204208657Y-100689665D01*
X204203884Y-100674975D01*
X204203882Y-100674972D01*
X204203882Y-100674970D01*
X204140081Y-100549754D01*
X204114524Y-100499595D01*
X203998828Y-100340354D01*
X203859646Y-100201172D01*
X203700405Y-100085476D01*
X203661973Y-100065894D01*
X203525025Y-99996115D01*
X203481180Y-99981869D01*
X203423505Y-99942431D01*
X203396308Y-99878072D01*
X203395500Y-99863939D01*
X203395500Y-91097525D01*
X214653300Y-91097525D01*
X214653300Y-91242475D01*
X214688787Y-91374911D01*
X214690817Y-91382488D01*
X214763288Y-91508011D01*
X214763293Y-91508017D01*
X214816981Y-91561705D01*
X214850466Y-91623028D01*
X214853300Y-91649386D01*
X214853300Y-99359945D01*
X214872159Y-99430329D01*
X214877185Y-99449084D01*
X214877187Y-99449090D01*
X214923327Y-99529008D01*
X214923331Y-99529013D01*
X216009241Y-100614923D01*
X216042726Y-100676246D01*
X216037742Y-100745938D01*
X216032045Y-100758898D01*
X216011119Y-100799967D01*
X216011116Y-100799974D01*
X215950290Y-100987173D01*
X215919500Y-101181577D01*
X215919500Y-101378422D01*
X215950290Y-101572826D01*
X216011117Y-101760029D01*
X216100476Y-101935405D01*
X216216172Y-102094646D01*
X216355354Y-102233828D01*
X216514595Y-102349524D01*
X216554417Y-102369814D01*
X216689970Y-102438882D01*
X216689972Y-102438882D01*
X216689975Y-102438884D01*
X216790317Y-102471487D01*
X216877173Y-102499709D01*
X217071578Y-102530500D01*
X217071583Y-102530500D01*
X217268422Y-102530500D01*
X217462826Y-102499709D01*
X217650025Y-102438884D01*
X217825405Y-102349524D01*
X217984646Y-102233828D01*
X218123828Y-102094646D01*
X218239524Y-101935405D01*
X218328884Y-101760025D01*
X218389709Y-101572826D01*
X218394514Y-101542488D01*
X218420500Y-101378422D01*
X218420500Y-101181577D01*
X218389709Y-100987173D01*
X218328882Y-100799970D01*
X218272679Y-100689665D01*
X218239524Y-100624595D01*
X218123828Y-100465354D01*
X217984646Y-100326172D01*
X217825405Y-100210476D01*
X217807145Y-100201172D01*
X217650029Y-100121117D01*
X217462826Y-100060290D01*
X217268422Y-100029500D01*
X217268417Y-100029500D01*
X217071583Y-100029500D01*
X217071578Y-100029500D01*
X216877173Y-100060290D01*
X216689974Y-100121116D01*
X216689967Y-100121119D01*
X216648898Y-100142045D01*
X216580228Y-100154941D01*
X216515488Y-100128664D01*
X216504923Y-100119241D01*
X215590619Y-99204937D01*
X215557134Y-99143614D01*
X215554300Y-99117256D01*
X215554300Y-91649386D01*
X215573985Y-91582347D01*
X215590619Y-91561705D01*
X215612139Y-91540185D01*
X215644309Y-91508015D01*
X215716784Y-91382485D01*
X215754300Y-91242475D01*
X215754300Y-91097525D01*
X215716784Y-90957515D01*
X215677534Y-90889533D01*
X215644311Y-90831988D01*
X215644306Y-90831982D01*
X215541817Y-90729493D01*
X215541811Y-90729488D01*
X215416288Y-90657017D01*
X215416289Y-90657017D01*
X215404806Y-90653940D01*
X215276275Y-90619500D01*
X215131325Y-90619500D01*
X215002793Y-90653940D01*
X214991311Y-90657017D01*
X214865788Y-90729488D01*
X214865782Y-90729493D01*
X214763293Y-90831982D01*
X214763288Y-90831988D01*
X214690817Y-90957511D01*
X214690816Y-90957515D01*
X214653300Y-91097525D01*
X203395500Y-91097525D01*
X203395500Y-89109386D01*
X203415185Y-89042347D01*
X203431819Y-89021705D01*
X203441013Y-89012511D01*
X203485509Y-88968015D01*
X203557984Y-88842485D01*
X203595500Y-88702475D01*
X203595500Y-88557525D01*
X203557984Y-88417515D01*
X203541827Y-88389531D01*
X203485511Y-88291988D01*
X203485506Y-88291982D01*
X203383017Y-88189493D01*
X203383011Y-88189488D01*
X203257488Y-88117017D01*
X203257489Y-88117017D01*
X203246006Y-88113940D01*
X203117475Y-88079500D01*
X202972525Y-88079500D01*
X202843993Y-88113940D01*
X202832511Y-88117017D01*
X202706988Y-88189488D01*
X202706982Y-88189493D01*
X202604493Y-88291982D01*
X202604488Y-88291988D01*
X202532017Y-88417511D01*
X202532016Y-88417515D01*
X202494500Y-88557525D01*
X202494500Y-88702475D01*
X202516477Y-88784493D01*
X202532017Y-88842488D01*
X202604488Y-88968011D01*
X202604493Y-88968017D01*
X202658181Y-89021705D01*
X202691666Y-89083028D01*
X202694500Y-89109386D01*
X202694500Y-99863939D01*
X202674815Y-99930978D01*
X202622011Y-99976733D01*
X202608820Y-99981869D01*
X202564974Y-99996115D01*
X202389594Y-100085476D01*
X202330152Y-100128664D01*
X202230354Y-100201172D01*
X202230352Y-100201174D01*
X202230351Y-100201174D01*
X202091174Y-100340351D01*
X202091174Y-100340352D01*
X202091172Y-100340354D01*
X202065669Y-100375456D01*
X201975476Y-100499594D01*
X201886117Y-100674970D01*
X201825290Y-100862173D01*
X201794500Y-101056577D01*
X196670500Y-101056577D01*
X196670500Y-100931577D01*
X196639709Y-100737173D01*
X196578882Y-100549970D01*
X196522760Y-100439824D01*
X196489524Y-100374595D01*
X196373828Y-100215354D01*
X196234646Y-100076172D01*
X196075405Y-99960476D01*
X196062754Y-99954030D01*
X195900029Y-99871117D01*
X195712826Y-99810290D01*
X195518422Y-99779500D01*
X195518417Y-99779500D01*
X195321583Y-99779500D01*
X195321578Y-99779500D01*
X195127173Y-99810290D01*
X194939970Y-99871117D01*
X194764594Y-99960476D01*
X194696686Y-100009815D01*
X194605354Y-100076172D01*
X194605352Y-100076174D01*
X194605351Y-100076174D01*
X194466174Y-100215351D01*
X194466174Y-100215352D01*
X194466172Y-100215354D01*
X194446824Y-100241984D01*
X194350476Y-100374594D01*
X194261117Y-100549970D01*
X194200290Y-100737173D01*
X194169500Y-100931577D01*
X190170500Y-100931577D01*
X190139709Y-100737173D01*
X190078882Y-100549970D01*
X190022760Y-100439824D01*
X189989524Y-100374595D01*
X189873828Y-100215354D01*
X189734646Y-100076172D01*
X189575405Y-99960476D01*
X189562754Y-99954030D01*
X189400029Y-99871117D01*
X189212826Y-99810290D01*
X189018422Y-99779500D01*
X189018417Y-99779500D01*
X188944500Y-99779500D01*
X188877461Y-99759815D01*
X188831706Y-99707011D01*
X188820500Y-99655500D01*
X188820500Y-94475377D01*
X188840185Y-94408338D01*
X188892989Y-94362583D01*
X188962147Y-94352639D01*
X189018106Y-94377960D01*
X189019131Y-94376550D01*
X189023069Y-94379411D01*
X189023072Y-94379414D01*
X189089587Y-94427740D01*
X189163213Y-94481233D01*
X189321794Y-94562033D01*
X189372591Y-94610007D01*
X189389500Y-94672518D01*
X189389500Y-96135414D01*
X189369815Y-96202453D01*
X189353181Y-96223095D01*
X189299493Y-96276782D01*
X189299488Y-96276788D01*
X189227017Y-96402311D01*
X189227016Y-96402315D01*
X189189500Y-96542325D01*
X189189500Y-96687275D01*
X189227016Y-96827285D01*
X189227017Y-96827288D01*
X189299488Y-96952811D01*
X189299490Y-96952813D01*
X189299491Y-96952815D01*
X189401985Y-97055309D01*
X189401986Y-97055310D01*
X189401988Y-97055311D01*
X189527511Y-97127782D01*
X189527512Y-97127782D01*
X189527515Y-97127784D01*
X189667525Y-97165300D01*
X189667528Y-97165300D01*
X189812472Y-97165300D01*
X189812475Y-97165300D01*
X189952485Y-97127784D01*
X190078015Y-97055309D01*
X190180509Y-96952815D01*
X190252984Y-96827285D01*
X190290500Y-96687275D01*
X190290500Y-96542325D01*
X190252984Y-96402315D01*
X190246530Y-96391137D01*
X190180511Y-96276788D01*
X190180506Y-96276782D01*
X190126819Y-96223095D01*
X190093334Y-96161772D01*
X190090500Y-96135414D01*
X190090500Y-94672518D01*
X190110185Y-94605479D01*
X190158206Y-94562033D01*
X190316786Y-94481233D01*
X190316785Y-94481233D01*
X190316788Y-94481232D01*
X190456928Y-94379414D01*
X190579414Y-94256928D01*
X190681232Y-94116788D01*
X190759873Y-93962445D01*
X190813402Y-93797701D01*
X190840500Y-93626611D01*
X190840500Y-93453389D01*
X191179500Y-93453389D01*
X191179500Y-93626611D01*
X191184206Y-93656324D01*
X191205452Y-93790469D01*
X191206598Y-93797701D01*
X191258749Y-93958205D01*
X191260128Y-93962447D01*
X191299643Y-94040000D01*
X191338768Y-94116788D01*
X191440586Y-94256928D01*
X191563072Y-94379414D01*
X191703212Y-94481232D01*
X191857555Y-94559873D01*
X192022299Y-94613402D01*
X192193389Y-94640500D01*
X192193390Y-94640500D01*
X192366610Y-94640500D01*
X192366611Y-94640500D01*
X192537701Y-94613402D01*
X192702445Y-94559873D01*
X192856788Y-94481232D01*
X192996928Y-94379414D01*
X193119414Y-94256928D01*
X193221232Y-94116788D01*
X193299873Y-93962445D01*
X193300896Y-93959294D01*
X193301610Y-93958250D01*
X193301734Y-93957952D01*
X193301796Y-93957977D01*
X193340327Y-93901618D01*
X193404683Y-93874415D01*
X193473530Y-93886323D01*
X193525011Y-93933562D01*
X193536760Y-93959287D01*
X193568904Y-94058217D01*
X193665379Y-94247557D01*
X193790272Y-94419459D01*
X193790276Y-94419464D01*
X193940535Y-94569723D01*
X193940540Y-94569727D01*
X194112442Y-94694620D01*
X194301782Y-94791095D01*
X194503871Y-94856757D01*
X194570000Y-94867231D01*
X194570000Y-93973012D01*
X194627007Y-94005925D01*
X194754174Y-94040000D01*
X194885826Y-94040000D01*
X195012993Y-94005925D01*
X195070000Y-93973012D01*
X195070000Y-94867230D01*
X195136126Y-94856757D01*
X195136129Y-94856757D01*
X195338217Y-94791095D01*
X195527557Y-94694620D01*
X195699459Y-94569727D01*
X195699464Y-94569723D01*
X195849723Y-94419464D01*
X195849727Y-94419459D01*
X195974620Y-94247557D01*
X196025015Y-94148654D01*
X196072990Y-94097858D01*
X196140811Y-94081063D01*
X196206946Y-94103600D01*
X196250397Y-94158315D01*
X196259500Y-94204949D01*
X196259500Y-94414678D01*
X196274032Y-94487735D01*
X196274033Y-94487739D01*
X196282141Y-94499873D01*
X196329399Y-94570601D01*
X196397294Y-94615966D01*
X196412260Y-94625966D01*
X196412264Y-94625967D01*
X196485321Y-94640499D01*
X196485324Y-94640500D01*
X196485326Y-94640500D01*
X198234676Y-94640500D01*
X198234677Y-94640499D01*
X198307740Y-94625966D01*
X198390601Y-94570601D01*
X198445966Y-94487740D01*
X198460500Y-94414674D01*
X198460500Y-92665326D01*
X198460500Y-92665323D01*
X198460499Y-92665321D01*
X198445967Y-92592264D01*
X198445966Y-92592260D01*
X198430269Y-92568768D01*
X198390601Y-92509399D01*
X198323434Y-92464520D01*
X198307739Y-92454033D01*
X198307735Y-92454032D01*
X198234677Y-92439500D01*
X198234674Y-92439500D01*
X196485326Y-92439500D01*
X196485323Y-92439500D01*
X196412264Y-92454032D01*
X196412260Y-92454033D01*
X196329399Y-92509399D01*
X196274033Y-92592260D01*
X196274032Y-92592264D01*
X196259500Y-92665321D01*
X196259500Y-92875050D01*
X196239815Y-92942089D01*
X196187011Y-92987844D01*
X196117853Y-92997788D01*
X196054297Y-92968763D01*
X196025015Y-92931345D01*
X195974620Y-92832442D01*
X195849727Y-92660540D01*
X195849723Y-92660535D01*
X195699464Y-92510276D01*
X195699459Y-92510272D01*
X195527557Y-92385379D01*
X195338215Y-92288903D01*
X195136124Y-92223241D01*
X195070000Y-92212768D01*
X195070000Y-93106988D01*
X195012993Y-93074075D01*
X194885826Y-93040000D01*
X194754174Y-93040000D01*
X194627007Y-93074075D01*
X194570000Y-93106988D01*
X194570000Y-92212768D01*
X194569999Y-92212768D01*
X194503875Y-92223241D01*
X194301784Y-92288903D01*
X194112442Y-92385379D01*
X193940540Y-92510272D01*
X193940535Y-92510276D01*
X193790276Y-92660535D01*
X193790272Y-92660540D01*
X193665379Y-92832442D01*
X193568904Y-93021783D01*
X193536760Y-93120712D01*
X193497322Y-93178388D01*
X193432964Y-93205586D01*
X193364117Y-93193671D01*
X193312642Y-93146427D01*
X193300898Y-93120712D01*
X193299873Y-93117555D01*
X193221232Y-92963212D01*
X193119414Y-92823072D01*
X192996928Y-92700586D01*
X192856788Y-92598768D01*
X192805179Y-92572472D01*
X192698205Y-92517966D01*
X192647409Y-92469991D01*
X192630500Y-92407481D01*
X192630500Y-90567786D01*
X192650185Y-90500747D01*
X192666819Y-90480105D01*
X192682124Y-90464800D01*
X192720509Y-90426415D01*
X192792984Y-90300885D01*
X192830500Y-90160875D01*
X192830500Y-90015925D01*
X192792984Y-89875915D01*
X192768684Y-89833827D01*
X192720511Y-89750388D01*
X192720506Y-89750382D01*
X192618017Y-89647893D01*
X192618011Y-89647888D01*
X192492488Y-89575417D01*
X192492489Y-89575417D01*
X192468835Y-89569079D01*
X192352475Y-89537900D01*
X192207525Y-89537900D01*
X192091165Y-89569079D01*
X192067511Y-89575417D01*
X191941988Y-89647888D01*
X191941982Y-89647893D01*
X191839493Y-89750382D01*
X191839488Y-89750388D01*
X191767017Y-89875911D01*
X191767016Y-89875915D01*
X191729500Y-90015925D01*
X191729500Y-90160875D01*
X191767016Y-90300885D01*
X191767017Y-90300888D01*
X191839488Y-90426411D01*
X191839493Y-90426417D01*
X191893181Y-90480105D01*
X191926666Y-90541428D01*
X191929500Y-90567786D01*
X191929500Y-92407481D01*
X191909815Y-92474520D01*
X191861795Y-92517966D01*
X191703211Y-92598768D01*
X191631961Y-92650535D01*
X191563072Y-92700586D01*
X191563070Y-92700588D01*
X191563069Y-92700588D01*
X191440588Y-92823069D01*
X191440588Y-92823070D01*
X191440586Y-92823072D01*
X191404954Y-92872115D01*
X191338768Y-92963211D01*
X191260128Y-93117552D01*
X191206597Y-93282302D01*
X191179500Y-93453389D01*
X190840500Y-93453389D01*
X190813402Y-93282299D01*
X190759873Y-93117555D01*
X190681232Y-92963212D01*
X190579414Y-92823072D01*
X190456928Y-92700586D01*
X190316788Y-92598768D01*
X190162445Y-92520127D01*
X189997701Y-92466598D01*
X189997699Y-92466597D01*
X189997698Y-92466597D01*
X189866271Y-92445781D01*
X189826611Y-92439500D01*
X189653389Y-92439500D01*
X189613728Y-92445781D01*
X189482302Y-92466597D01*
X189317552Y-92520128D01*
X189163211Y-92598768D01*
X189091961Y-92650535D01*
X189023072Y-92700586D01*
X189023069Y-92700588D01*
X189019131Y-92703450D01*
X189018094Y-92702024D01*
X188961255Y-92727485D01*
X188892171Y-92717039D01*
X188839700Y-92670902D01*
X188820500Y-92604622D01*
X188820500Y-86425186D01*
X188840185Y-86358147D01*
X188856819Y-86337505D01*
X188910509Y-86283815D01*
X188982984Y-86158285D01*
X189020500Y-86018275D01*
X189020500Y-85873325D01*
X189014891Y-85852392D01*
X189016554Y-85782543D01*
X189055717Y-85724681D01*
X189119945Y-85697177D01*
X189134666Y-85696300D01*
X215891942Y-85696300D01*
X215891944Y-85696300D01*
X215936363Y-85684397D01*
X215968456Y-85680173D01*
X237633129Y-85680173D01*
X237700168Y-85699858D01*
X237720810Y-85716492D01*
X238113181Y-86108863D01*
X238146666Y-86170186D01*
X238149500Y-86196544D01*
X238149500Y-95525500D01*
X238129815Y-95592539D01*
X238077011Y-95638294D01*
X238025500Y-95649500D01*
X226696544Y-95649500D01*
X226667098Y-95640853D01*
X226637116Y-95634331D01*
X226632102Y-95630577D01*
X226629505Y-95629815D01*
X226608862Y-95613180D01*
X226566818Y-95571135D01*
X226533333Y-95509812D01*
X226530500Y-95483455D01*
X226530500Y-94672518D01*
X226550185Y-94605479D01*
X226598206Y-94562033D01*
X226756786Y-94481233D01*
X226756785Y-94481233D01*
X226756788Y-94481232D01*
X226896928Y-94379414D01*
X227019414Y-94256928D01*
X227121232Y-94116788D01*
X227199873Y-93962445D01*
X227215600Y-93914042D01*
X227255036Y-93856368D01*
X227319394Y-93829169D01*
X227388241Y-93841083D01*
X227395531Y-93844974D01*
X227422420Y-93860499D01*
X227433012Y-93866614D01*
X227522156Y-93890500D01*
X227587481Y-93890500D01*
X227654520Y-93910185D01*
X227697966Y-93958205D01*
X227764433Y-94088654D01*
X227778768Y-94116788D01*
X227880586Y-94256928D01*
X228003072Y-94379414D01*
X228143212Y-94481232D01*
X228297555Y-94559873D01*
X228462299Y-94613402D01*
X228633389Y-94640500D01*
X228633390Y-94640500D01*
X228806610Y-94640500D01*
X228806611Y-94640500D01*
X228977701Y-94613402D01*
X229142445Y-94559873D01*
X229296788Y-94481232D01*
X229436928Y-94379414D01*
X229559414Y-94256928D01*
X229661232Y-94116788D01*
X229739873Y-93962445D01*
X229793402Y-93797701D01*
X229820500Y-93626611D01*
X229820500Y-93453389D01*
X230159500Y-93453389D01*
X230159500Y-93626611D01*
X230164206Y-93656324D01*
X230185452Y-93790469D01*
X230186598Y-93797701D01*
X230238749Y-93958205D01*
X230240128Y-93962447D01*
X230279643Y-94040000D01*
X230318768Y-94116788D01*
X230420586Y-94256928D01*
X230543072Y-94379414D01*
X230683212Y-94481232D01*
X230837555Y-94559873D01*
X231002299Y-94613402D01*
X231173389Y-94640500D01*
X231173390Y-94640500D01*
X231346610Y-94640500D01*
X231346611Y-94640500D01*
X231517701Y-94613402D01*
X231682445Y-94559873D01*
X231836788Y-94481232D01*
X231976928Y-94379414D01*
X232099414Y-94256928D01*
X232201232Y-94116788D01*
X232279873Y-93962445D01*
X232280896Y-93959294D01*
X232281610Y-93958250D01*
X232281734Y-93957952D01*
X232281796Y-93957977D01*
X232320327Y-93901618D01*
X232384683Y-93874415D01*
X232453530Y-93886323D01*
X232505011Y-93933562D01*
X232516760Y-93959287D01*
X232548904Y-94058217D01*
X232645379Y-94247557D01*
X232770272Y-94419459D01*
X232770276Y-94419464D01*
X232920535Y-94569723D01*
X232920540Y-94569727D01*
X233092442Y-94694620D01*
X233281782Y-94791095D01*
X233483871Y-94856757D01*
X233550000Y-94867231D01*
X233550000Y-93973012D01*
X233607007Y-94005925D01*
X233734174Y-94040000D01*
X233865826Y-94040000D01*
X233992993Y-94005925D01*
X234050000Y-93973012D01*
X234050000Y-94867230D01*
X234116126Y-94856757D01*
X234116129Y-94856757D01*
X234318217Y-94791095D01*
X234507557Y-94694620D01*
X234679459Y-94569727D01*
X234679464Y-94569723D01*
X234829723Y-94419464D01*
X234829727Y-94419459D01*
X234954620Y-94247557D01*
X235005015Y-94148654D01*
X235052990Y-94097858D01*
X235120811Y-94081063D01*
X235186946Y-94103600D01*
X235230397Y-94158315D01*
X235239500Y-94204949D01*
X235239500Y-94414678D01*
X235254032Y-94487735D01*
X235254033Y-94487739D01*
X235262141Y-94499873D01*
X235309399Y-94570601D01*
X235377294Y-94615966D01*
X235392260Y-94625966D01*
X235392264Y-94625967D01*
X235465321Y-94640499D01*
X235465324Y-94640500D01*
X235465326Y-94640500D01*
X237214676Y-94640500D01*
X237214677Y-94640499D01*
X237287740Y-94625966D01*
X237370601Y-94570601D01*
X237425966Y-94487740D01*
X237440500Y-94414674D01*
X237440500Y-92665326D01*
X237440500Y-92665323D01*
X237440499Y-92665321D01*
X237425967Y-92592264D01*
X237425966Y-92592260D01*
X237410269Y-92568768D01*
X237370601Y-92509399D01*
X237303434Y-92464520D01*
X237287739Y-92454033D01*
X237287735Y-92454032D01*
X237214677Y-92439500D01*
X237214674Y-92439500D01*
X235465326Y-92439500D01*
X235465323Y-92439500D01*
X235392264Y-92454032D01*
X235392260Y-92454033D01*
X235309399Y-92509399D01*
X235254033Y-92592260D01*
X235254032Y-92592264D01*
X235239500Y-92665321D01*
X235239500Y-92875050D01*
X235219815Y-92942089D01*
X235167011Y-92987844D01*
X235097853Y-92997788D01*
X235034297Y-92968763D01*
X235005015Y-92931345D01*
X234954620Y-92832442D01*
X234829727Y-92660540D01*
X234829723Y-92660535D01*
X234679464Y-92510276D01*
X234679459Y-92510272D01*
X234507557Y-92385379D01*
X234318215Y-92288903D01*
X234116124Y-92223241D01*
X234050000Y-92212768D01*
X234050000Y-93106988D01*
X233992993Y-93074075D01*
X233865826Y-93040000D01*
X233734174Y-93040000D01*
X233607007Y-93074075D01*
X233550000Y-93106988D01*
X233550000Y-92212768D01*
X233549999Y-92212768D01*
X233483875Y-92223241D01*
X233281784Y-92288903D01*
X233092442Y-92385379D01*
X232920540Y-92510272D01*
X232920535Y-92510276D01*
X232770276Y-92660535D01*
X232770272Y-92660540D01*
X232645379Y-92832442D01*
X232548904Y-93021783D01*
X232516760Y-93120712D01*
X232477322Y-93178388D01*
X232412964Y-93205586D01*
X232344117Y-93193671D01*
X232292642Y-93146427D01*
X232280898Y-93120712D01*
X232279873Y-93117555D01*
X232201232Y-92963212D01*
X232099414Y-92823072D01*
X231976928Y-92700586D01*
X231836788Y-92598768D01*
X231682445Y-92520127D01*
X231517701Y-92466598D01*
X231517699Y-92466597D01*
X231517698Y-92466597D01*
X231386271Y-92445781D01*
X231346611Y-92439500D01*
X231173389Y-92439500D01*
X231133728Y-92445781D01*
X231002302Y-92466597D01*
X230837552Y-92520128D01*
X230683211Y-92598768D01*
X230611961Y-92650535D01*
X230543072Y-92700586D01*
X230543070Y-92700588D01*
X230543069Y-92700588D01*
X230420588Y-92823069D01*
X230420588Y-92823070D01*
X230420586Y-92823072D01*
X230384954Y-92872115D01*
X230318768Y-92963211D01*
X230240128Y-93117552D01*
X230186597Y-93282302D01*
X230159500Y-93453389D01*
X229820500Y-93453389D01*
X229793402Y-93282299D01*
X229739873Y-93117555D01*
X229661232Y-92963212D01*
X229559414Y-92823072D01*
X229436928Y-92700586D01*
X229296788Y-92598768D01*
X229142445Y-92520127D01*
X228977701Y-92466598D01*
X228977699Y-92466597D01*
X228977698Y-92466597D01*
X228846271Y-92445781D01*
X228806611Y-92439500D01*
X228633389Y-92439500D01*
X228593728Y-92445781D01*
X228462302Y-92466597D01*
X228297552Y-92520128D01*
X228143211Y-92598768D01*
X228071961Y-92650535D01*
X228003072Y-92700586D01*
X228003070Y-92700588D01*
X228003069Y-92700588D01*
X227880588Y-92823069D01*
X227880588Y-92823070D01*
X227880586Y-92823072D01*
X227880584Y-92823075D01*
X227862557Y-92847886D01*
X227807225Y-92890550D01*
X227737612Y-92896526D01*
X227675818Y-92863918D01*
X227674560Y-92862678D01*
X226882613Y-92070731D01*
X226882608Y-92070727D01*
X226802690Y-92024587D01*
X226802689Y-92024586D01*
X226802688Y-92024586D01*
X226713544Y-92000700D01*
X223150456Y-92000700D01*
X223061311Y-92024586D01*
X222981387Y-92070731D01*
X222981384Y-92070733D01*
X222207831Y-92844286D01*
X222207829Y-92844289D01*
X222191273Y-92872964D01*
X222140704Y-92921178D01*
X222072097Y-92934399D01*
X222007233Y-92908430D01*
X221983569Y-92883846D01*
X221975046Y-92872115D01*
X221939414Y-92823072D01*
X221816928Y-92700586D01*
X221676788Y-92598768D01*
X221522445Y-92520127D01*
X221357701Y-92466598D01*
X221357699Y-92466597D01*
X221357698Y-92466597D01*
X221226271Y-92445781D01*
X221186611Y-92439500D01*
X221013389Y-92439500D01*
X220973728Y-92445781D01*
X220842302Y-92466597D01*
X220677552Y-92520128D01*
X220523211Y-92598768D01*
X220451961Y-92650535D01*
X220383072Y-92700586D01*
X220383070Y-92700588D01*
X220383069Y-92700588D01*
X220260588Y-92823069D01*
X220260588Y-92823070D01*
X220260586Y-92823072D01*
X220224954Y-92872115D01*
X220158768Y-92963211D01*
X220080128Y-93117552D01*
X220026597Y-93282302D01*
X219999500Y-93453389D01*
X219999500Y-93626611D01*
X220004206Y-93656324D01*
X220025452Y-93790469D01*
X220026598Y-93797701D01*
X220078749Y-93958205D01*
X220080128Y-93962447D01*
X220119643Y-94040000D01*
X220158768Y-94116788D01*
X220260586Y-94256928D01*
X220383072Y-94379414D01*
X220523212Y-94481232D01*
X220677555Y-94559873D01*
X220842299Y-94613402D01*
X221013389Y-94640500D01*
X221013390Y-94640500D01*
X221186610Y-94640500D01*
X221186611Y-94640500D01*
X221357701Y-94613402D01*
X221522445Y-94559873D01*
X221676788Y-94481232D01*
X221816928Y-94379414D01*
X221926119Y-94270223D01*
X221987442Y-94236738D01*
X222057134Y-94241722D01*
X222113067Y-94283594D01*
X222137484Y-94349058D01*
X222137800Y-94357904D01*
X222137800Y-96873656D01*
X222118115Y-96940695D01*
X222101481Y-96961337D01*
X221814637Y-97248181D01*
X221753314Y-97281666D01*
X221726956Y-97284500D01*
X221651025Y-97284500D01*
X221522493Y-97318940D01*
X221511011Y-97322017D01*
X221385488Y-97394488D01*
X221385482Y-97394493D01*
X221282993Y-97496982D01*
X221282988Y-97496988D01*
X221210517Y-97622511D01*
X221210516Y-97622515D01*
X221173000Y-97762525D01*
X221173000Y-97907475D01*
X221210516Y-98047485D01*
X221210517Y-98047488D01*
X221282988Y-98173011D01*
X221282990Y-98173013D01*
X221282991Y-98173015D01*
X221385485Y-98275509D01*
X221385486Y-98275510D01*
X221385488Y-98275511D01*
X221511011Y-98347982D01*
X221511012Y-98347982D01*
X221511015Y-98347984D01*
X221651025Y-98385500D01*
X221651028Y-98385500D01*
X221795972Y-98385500D01*
X221795975Y-98385500D01*
X221935985Y-98347984D01*
X222061515Y-98275509D01*
X222164009Y-98173015D01*
X222236484Y-98047485D01*
X222274000Y-97907475D01*
X222274000Y-97831544D01*
X222293685Y-97764505D01*
X222310319Y-97743863D01*
X222500319Y-97553863D01*
X222561642Y-97520378D01*
X222631334Y-97525362D01*
X222687267Y-97567234D01*
X222711684Y-97632698D01*
X222712000Y-97641544D01*
X222712000Y-99245614D01*
X222692315Y-99312653D01*
X222675681Y-99333295D01*
X222621993Y-99386982D01*
X222621988Y-99386988D01*
X222549517Y-99512511D01*
X222549516Y-99512515D01*
X222512000Y-99652525D01*
X222512000Y-99797475D01*
X222548928Y-99935290D01*
X222549517Y-99937488D01*
X222621988Y-100063011D01*
X222621990Y-100063013D01*
X222621991Y-100063015D01*
X222724485Y-100165509D01*
X222754685Y-100182945D01*
X222769359Y-100191417D01*
X222817575Y-100241984D01*
X222830798Y-100310591D01*
X222804830Y-100375456D01*
X222795041Y-100386485D01*
X222716171Y-100465355D01*
X222600476Y-100624594D01*
X222511117Y-100799970D01*
X222450290Y-100987173D01*
X222419500Y-101181577D01*
X222419500Y-101378422D01*
X222450290Y-101572826D01*
X222511117Y-101760029D01*
X222600476Y-101935405D01*
X222716172Y-102094646D01*
X222855354Y-102233828D01*
X223014595Y-102349524D01*
X223054417Y-102369814D01*
X223189970Y-102438882D01*
X223189972Y-102438882D01*
X223189975Y-102438884D01*
X223290317Y-102471487D01*
X223377173Y-102499709D01*
X223571578Y-102530500D01*
X223571583Y-102530500D01*
X223768422Y-102530500D01*
X223962826Y-102499709D01*
X224150025Y-102438884D01*
X224325405Y-102349524D01*
X224484646Y-102233828D01*
X224623828Y-102094646D01*
X224739524Y-101935405D01*
X224828884Y-101760025D01*
X224889709Y-101572826D01*
X224894514Y-101542488D01*
X224920500Y-101378422D01*
X224920500Y-101181577D01*
X224889709Y-100987173D01*
X224828882Y-100799970D01*
X224772679Y-100689665D01*
X224739524Y-100624595D01*
X224623828Y-100465354D01*
X224484646Y-100326172D01*
X224325405Y-100210476D01*
X224307145Y-100201172D01*
X224150029Y-100121117D01*
X223962826Y-100060290D01*
X223768422Y-100029500D01*
X223768417Y-100029500D01*
X223712429Y-100029500D01*
X223645390Y-100009815D01*
X223599635Y-99957011D01*
X223589691Y-99887853D01*
X223592654Y-99873407D01*
X223595191Y-99863939D01*
X223613000Y-99797475D01*
X223613000Y-99652525D01*
X223575484Y-99512515D01*
X223538865Y-99449090D01*
X223503011Y-99386988D01*
X223503006Y-99386982D01*
X223449319Y-99333295D01*
X223415834Y-99271972D01*
X223413000Y-99245614D01*
X223413000Y-95465743D01*
X223432685Y-95398704D01*
X223449319Y-95378062D01*
X223654765Y-95172616D01*
X223920469Y-94906912D01*
X223949153Y-94857231D01*
X223966613Y-94826990D01*
X223966676Y-94826757D01*
X223969722Y-94815388D01*
X223990500Y-94737844D01*
X223990500Y-94663700D01*
X223991747Y-94654975D01*
X224002726Y-94630878D01*
X224010185Y-94605479D01*
X224017187Y-94599144D01*
X224020718Y-94591395D01*
X224038176Y-94580154D01*
X224058206Y-94562033D01*
X224216786Y-94481233D01*
X224216785Y-94481233D01*
X224216788Y-94481232D01*
X224356928Y-94379414D01*
X224479414Y-94256928D01*
X224581232Y-94116788D01*
X224659873Y-93962445D01*
X224713402Y-93797701D01*
X224740500Y-93626611D01*
X224740500Y-93453389D01*
X224713402Y-93282299D01*
X224659873Y-93117555D01*
X224581232Y-92963212D01*
X224534277Y-92898585D01*
X224510798Y-92832780D01*
X224526623Y-92764726D01*
X224576729Y-92716031D01*
X224634596Y-92701700D01*
X225185404Y-92701700D01*
X225252443Y-92721385D01*
X225298198Y-92774189D01*
X225308142Y-92843347D01*
X225285722Y-92898585D01*
X225282361Y-92903212D01*
X225238768Y-92963211D01*
X225160128Y-93117552D01*
X225106597Y-93282302D01*
X225079500Y-93453389D01*
X225079500Y-93626611D01*
X225084206Y-93656324D01*
X225105452Y-93790469D01*
X225106598Y-93797701D01*
X225158749Y-93958205D01*
X225160128Y-93962447D01*
X225199643Y-94040000D01*
X225238768Y-94116788D01*
X225340586Y-94256928D01*
X225463072Y-94379414D01*
X225529587Y-94427740D01*
X225603213Y-94481233D01*
X225761794Y-94562033D01*
X225812591Y-94610007D01*
X225829500Y-94672518D01*
X225829500Y-95726144D01*
X225845214Y-95784788D01*
X225845213Y-95784788D01*
X225845214Y-95784790D01*
X225853384Y-95815284D01*
X225853385Y-95815286D01*
X225899527Y-95895208D01*
X225899529Y-95895211D01*
X225899530Y-95895212D01*
X226219531Y-96215212D01*
X226284788Y-96280469D01*
X226284791Y-96280470D01*
X226284794Y-96280473D01*
X226364706Y-96326611D01*
X226364707Y-96326611D01*
X226364712Y-96326614D01*
X226453856Y-96350500D01*
X226453858Y-96350500D01*
X238546142Y-96350500D01*
X238546144Y-96350500D01*
X238635288Y-96326614D01*
X238715212Y-96280469D01*
X238780469Y-96215212D01*
X238826614Y-96135288D01*
X238850500Y-96046144D01*
X238850500Y-85953856D01*
X238826614Y-85864712D01*
X238787522Y-85797003D01*
X238780472Y-85784791D01*
X238780468Y-85784786D01*
X238044886Y-85049204D01*
X238044881Y-85049200D01*
X237964963Y-85003060D01*
X237964962Y-85003059D01*
X237964961Y-85003059D01*
X237875817Y-84979173D01*
X215815783Y-84979173D01*
X215771364Y-84991075D01*
X215739271Y-84995300D01*
X180108054Y-84995300D01*
X180064156Y-85007062D01*
X180064156Y-85007063D01*
X180018912Y-85019186D01*
X180018911Y-85019186D01*
X180018909Y-85019187D01*
X179938991Y-85065327D01*
X179938986Y-85065331D01*
X177219531Y-87784786D01*
X177219525Y-87784794D01*
X177182022Y-87849753D01*
X177182022Y-87849754D01*
X177173387Y-87864709D01*
X177173386Y-87864712D01*
X177149500Y-87953856D01*
X177149500Y-96303456D01*
X177129815Y-96370495D01*
X177113181Y-96391137D01*
X176564737Y-96939581D01*
X176503414Y-96973066D01*
X176477056Y-96975900D01*
X148749386Y-96975900D01*
X148719945Y-96967255D01*
X148689959Y-96960732D01*
X148684943Y-96956977D01*
X148682347Y-96956215D01*
X148661705Y-96939581D01*
X148656819Y-96934695D01*
X148623334Y-96873372D01*
X148620500Y-96847014D01*
X148620500Y-94612518D01*
X148640185Y-94545479D01*
X148688206Y-94502033D01*
X148846786Y-94421233D01*
X148846785Y-94421233D01*
X148846788Y-94421232D01*
X148986928Y-94319414D01*
X149109414Y-94196928D01*
X149211232Y-94056788D01*
X149289873Y-93902445D01*
X149343402Y-93737701D01*
X149370500Y-93566611D01*
X149370500Y-93393389D01*
X149709500Y-93393389D01*
X149709500Y-93566611D01*
X149710960Y-93575826D01*
X149729868Y-93695214D01*
X149736598Y-93737701D01*
X149789858Y-93901618D01*
X149790128Y-93902447D01*
X149813466Y-93948250D01*
X149868768Y-94056788D01*
X149970586Y-94196928D01*
X150093072Y-94319414D01*
X150233212Y-94421232D01*
X150387555Y-94499873D01*
X150552299Y-94553402D01*
X150723389Y-94580500D01*
X150723390Y-94580500D01*
X150896610Y-94580500D01*
X150896611Y-94580500D01*
X151067701Y-94553402D01*
X151232445Y-94499873D01*
X151386788Y-94421232D01*
X151526928Y-94319414D01*
X151649414Y-94196928D01*
X151751232Y-94056788D01*
X151829873Y-93902445D01*
X151883402Y-93737701D01*
X151910500Y-93566611D01*
X151910500Y-93393389D01*
X151883402Y-93222299D01*
X151829873Y-93057555D01*
X151751232Y-92903212D01*
X151649414Y-92763072D01*
X151526928Y-92640586D01*
X151386788Y-92538768D01*
X151232445Y-92460127D01*
X151067701Y-92406598D01*
X151067699Y-92406597D01*
X151067698Y-92406597D01*
X150936271Y-92385781D01*
X150896611Y-92379500D01*
X150723389Y-92379500D01*
X150683728Y-92385781D01*
X150552302Y-92406597D01*
X150387552Y-92460128D01*
X150233211Y-92538768D01*
X150173345Y-92582264D01*
X150093072Y-92640586D01*
X150093070Y-92640588D01*
X150093069Y-92640588D01*
X149970588Y-92763069D01*
X149970588Y-92763070D01*
X149970586Y-92763072D01*
X149934261Y-92813069D01*
X149868768Y-92903211D01*
X149790128Y-93057552D01*
X149736597Y-93222302D01*
X149718430Y-93337007D01*
X149709500Y-93393389D01*
X149370500Y-93393389D01*
X149343402Y-93222299D01*
X149289873Y-93057555D01*
X149211232Y-92903212D01*
X149109414Y-92763072D01*
X148986928Y-92640586D01*
X148846788Y-92538768D01*
X148692445Y-92460127D01*
X148527701Y-92406598D01*
X148527699Y-92406597D01*
X148527698Y-92406597D01*
X148396271Y-92385781D01*
X148356611Y-92379500D01*
X148183389Y-92379500D01*
X148143728Y-92385781D01*
X148012302Y-92406597D01*
X147847552Y-92460128D01*
X147693211Y-92538768D01*
X147633345Y-92582264D01*
X147553072Y-92640586D01*
X147553070Y-92640588D01*
X147553069Y-92640588D01*
X147430588Y-92763069D01*
X147430588Y-92763070D01*
X147430586Y-92763072D01*
X147394261Y-92813069D01*
X147328768Y-92903211D01*
X147250128Y-93057552D01*
X147196597Y-93222302D01*
X147178430Y-93337007D01*
X147169500Y-93393389D01*
X147169500Y-93566611D01*
X147170960Y-93575826D01*
X147189868Y-93695214D01*
X147196598Y-93737701D01*
X147249858Y-93901618D01*
X147250128Y-93902447D01*
X147273466Y-93948250D01*
X147328768Y-94056788D01*
X147430586Y-94196928D01*
X147553072Y-94319414D01*
X147642897Y-94384676D01*
X147693213Y-94421233D01*
X147851794Y-94502033D01*
X147902591Y-94550007D01*
X147919500Y-94612518D01*
X147919500Y-96847014D01*
X147899815Y-96914053D01*
X147883181Y-96934695D01*
X147829493Y-96988382D01*
X147829488Y-96988388D01*
X147757017Y-97113911D01*
X147757016Y-97113915D01*
X147719500Y-97253925D01*
X147719500Y-97398875D01*
X147757016Y-97538885D01*
X147757017Y-97538888D01*
X147829488Y-97664411D01*
X147829490Y-97664413D01*
X147829491Y-97664415D01*
X147931985Y-97766909D01*
X147931986Y-97766910D01*
X147931988Y-97766911D01*
X148057511Y-97839382D01*
X148057512Y-97839382D01*
X148057515Y-97839384D01*
X148197525Y-97876900D01*
X148197528Y-97876900D01*
X148342472Y-97876900D01*
X148342475Y-97876900D01*
X148482485Y-97839384D01*
X148608015Y-97766909D01*
X148661705Y-97713219D01*
X148723028Y-97679734D01*
X148749386Y-97676900D01*
X176719742Y-97676900D01*
X176719744Y-97676900D01*
X176808888Y-97653014D01*
X176819512Y-97646880D01*
X176888812Y-97606870D01*
X177780470Y-96715212D01*
X177826614Y-96635288D01*
X177835935Y-96600500D01*
X177850500Y-96546144D01*
X177850500Y-93453389D01*
X181019500Y-93453389D01*
X181019500Y-93626611D01*
X181024206Y-93656324D01*
X181045452Y-93790469D01*
X181046598Y-93797701D01*
X181098749Y-93958205D01*
X181100128Y-93962447D01*
X181139643Y-94040000D01*
X181178768Y-94116788D01*
X181280586Y-94256928D01*
X181403072Y-94379414D01*
X181543212Y-94481232D01*
X181697555Y-94559873D01*
X181862299Y-94613402D01*
X182033389Y-94640500D01*
X182033390Y-94640500D01*
X182206610Y-94640500D01*
X182206611Y-94640500D01*
X182377701Y-94613402D01*
X182542445Y-94559873D01*
X182696788Y-94481232D01*
X182836928Y-94379414D01*
X182959414Y-94256928D01*
X183061232Y-94116788D01*
X183139873Y-93962445D01*
X183193402Y-93797701D01*
X183220500Y-93626611D01*
X183220500Y-93453389D01*
X183193402Y-93282299D01*
X183139873Y-93117555D01*
X183061232Y-92963212D01*
X182959414Y-92823072D01*
X182836928Y-92700586D01*
X182696788Y-92598768D01*
X182542445Y-92520127D01*
X182377701Y-92466598D01*
X182377699Y-92466597D01*
X182377698Y-92466597D01*
X182246271Y-92445781D01*
X182206611Y-92439500D01*
X182033389Y-92439500D01*
X181993728Y-92445781D01*
X181862302Y-92466597D01*
X181697552Y-92520128D01*
X181543211Y-92598768D01*
X181471961Y-92650535D01*
X181403072Y-92700586D01*
X181403070Y-92700588D01*
X181403069Y-92700588D01*
X181280588Y-92823069D01*
X181280588Y-92823070D01*
X181280586Y-92823072D01*
X181244954Y-92872115D01*
X181178768Y-92963211D01*
X181100128Y-93117552D01*
X181046597Y-93282302D01*
X181019500Y-93453389D01*
X177850500Y-93453389D01*
X177850500Y-88196544D01*
X177870185Y-88129505D01*
X177886819Y-88108863D01*
X180263063Y-85732619D01*
X180324386Y-85699134D01*
X180350744Y-85696300D01*
X187805334Y-85696300D01*
X187872373Y-85715985D01*
X187918128Y-85768789D01*
X187928072Y-85837947D01*
X187925109Y-85852389D01*
X187919500Y-85873325D01*
X187919500Y-86018275D01*
X187950068Y-86132355D01*
X187957017Y-86158288D01*
X188029488Y-86283811D01*
X188029493Y-86283817D01*
X188083181Y-86337505D01*
X188116666Y-86398828D01*
X188119500Y-86425186D01*
X188119500Y-92604622D01*
X188099815Y-92671661D01*
X188047011Y-92717416D01*
X187977853Y-92727360D01*
X187921888Y-92702046D01*
X187920869Y-92703450D01*
X187916930Y-92700588D01*
X187916928Y-92700586D01*
X187776788Y-92598768D01*
X187622445Y-92520127D01*
X187457701Y-92466598D01*
X187457699Y-92466597D01*
X187457698Y-92466597D01*
X187326271Y-92445781D01*
X187286611Y-92439500D01*
X187113389Y-92439500D01*
X187073728Y-92445781D01*
X186942302Y-92466597D01*
X186777552Y-92520128D01*
X186623211Y-92598768D01*
X186551961Y-92650535D01*
X186483072Y-92700586D01*
X186483069Y-92700588D01*
X186479131Y-92703450D01*
X186478094Y-92702024D01*
X186421255Y-92727485D01*
X186352171Y-92717039D01*
X186299700Y-92670902D01*
X186280500Y-92604622D01*
X186280500Y-87650986D01*
X186300185Y-87583947D01*
X186316819Y-87563305D01*
X186370509Y-87509615D01*
X186442984Y-87384085D01*
X186480500Y-87244075D01*
X186480500Y-87099125D01*
X186442984Y-86959115D01*
X186391675Y-86870246D01*
X186370511Y-86833588D01*
X186370506Y-86833582D01*
X186268017Y-86731093D01*
X186268011Y-86731088D01*
X186142488Y-86658617D01*
X186142489Y-86658617D01*
X186131006Y-86655540D01*
X186002475Y-86621100D01*
X185857525Y-86621100D01*
X185728993Y-86655540D01*
X185717511Y-86658617D01*
X185591988Y-86731088D01*
X185591982Y-86731093D01*
X185489493Y-86833582D01*
X185489488Y-86833588D01*
X185417017Y-86959111D01*
X185417016Y-86959115D01*
X185379500Y-87099125D01*
X185379500Y-87244075D01*
X185417016Y-87384085D01*
X185417017Y-87384088D01*
X185489488Y-87509611D01*
X185489493Y-87509617D01*
X185543181Y-87563305D01*
X185576666Y-87624628D01*
X185579500Y-87650986D01*
X185579500Y-92604622D01*
X185559815Y-92671661D01*
X185507011Y-92717416D01*
X185437853Y-92727360D01*
X185381888Y-92702046D01*
X185380869Y-92703450D01*
X185376930Y-92700588D01*
X185376928Y-92700586D01*
X185236788Y-92598768D01*
X185082445Y-92520127D01*
X184917701Y-92466598D01*
X184917699Y-92466597D01*
X184917698Y-92466597D01*
X184786271Y-92445781D01*
X184746611Y-92439500D01*
X184573389Y-92439500D01*
X184533728Y-92445781D01*
X184402302Y-92466597D01*
X184237552Y-92520128D01*
X184083211Y-92598768D01*
X184011961Y-92650535D01*
X183943072Y-92700586D01*
X183943070Y-92700588D01*
X183943069Y-92700588D01*
X183820588Y-92823069D01*
X183820588Y-92823070D01*
X183820586Y-92823072D01*
X183784954Y-92872115D01*
X183718768Y-92963211D01*
X183640128Y-93117552D01*
X183586597Y-93282302D01*
X183559500Y-93453389D01*
X183559500Y-93626611D01*
X183564206Y-93656324D01*
X183585452Y-93790469D01*
X183586598Y-93797701D01*
X183638749Y-93958205D01*
X183640128Y-93962447D01*
X183679643Y-94040000D01*
X183718768Y-94116788D01*
X183820586Y-94256928D01*
X183943072Y-94379414D01*
X184009587Y-94427740D01*
X184083213Y-94481233D01*
X184241794Y-94562033D01*
X184292591Y-94610007D01*
X184309500Y-94672518D01*
X184309500Y-100850614D01*
X184289815Y-100917653D01*
X184273181Y-100938295D01*
X184219493Y-100991982D01*
X184219488Y-100991988D01*
X184147017Y-101117511D01*
X184147016Y-101117515D01*
X184109500Y-101257525D01*
X184109500Y-101402475D01*
X184147016Y-101542485D01*
X184147017Y-101542488D01*
X184219488Y-101668011D01*
X184219490Y-101668013D01*
X184219491Y-101668015D01*
X184321985Y-101770509D01*
X184321986Y-101770510D01*
X184321988Y-101770511D01*
X184447511Y-101842982D01*
X184447512Y-101842982D01*
X184447515Y-101842984D01*
X184587525Y-101880500D01*
X184587528Y-101880500D01*
X184732472Y-101880500D01*
X184732475Y-101880500D01*
X184872485Y-101842984D01*
X184998015Y-101770509D01*
X185100509Y-101668015D01*
X185172984Y-101542485D01*
X185210500Y-101402475D01*
X185210500Y-101257525D01*
X185172984Y-101117515D01*
X185137801Y-101056577D01*
X185100511Y-100991988D01*
X185100506Y-100991982D01*
X185046819Y-100938295D01*
X185013334Y-100876972D01*
X185010500Y-100850614D01*
X185010500Y-94672518D01*
X185030185Y-94605479D01*
X185078206Y-94562033D01*
X185236786Y-94481233D01*
X185236785Y-94481233D01*
X185236788Y-94481232D01*
X185376928Y-94379414D01*
X185376930Y-94379411D01*
X185380869Y-94376550D01*
X185381909Y-94377982D01*
X185438704Y-94352520D01*
X185507792Y-94362942D01*
X185560278Y-94409062D01*
X185579500Y-94475377D01*
X185579500Y-102586143D01*
X185603386Y-102675287D01*
X185603387Y-102675290D01*
X185649527Y-102755208D01*
X185649531Y-102755213D01*
X187759241Y-104864923D01*
X187792726Y-104926246D01*
X187787742Y-104995938D01*
X187782045Y-105008898D01*
X187761119Y-105049967D01*
X187761116Y-105049974D01*
X187700290Y-105237173D01*
X187669500Y-105431577D01*
X187669500Y-105628422D01*
X187700290Y-105822826D01*
X187761117Y-106010029D01*
X187824806Y-106135025D01*
X187850476Y-106185405D01*
X187966172Y-106344646D01*
X188105354Y-106483828D01*
X188264595Y-106599524D01*
X188347455Y-106641743D01*
X188439970Y-106688882D01*
X188439972Y-106688882D01*
X188439975Y-106688884D01*
X188540317Y-106721487D01*
X188627173Y-106749709D01*
X188651279Y-106753527D01*
X188714414Y-106783456D01*
X188751345Y-106842768D01*
X188750347Y-106912630D01*
X188711737Y-106970863D01*
X188647774Y-106998977D01*
X188631881Y-107000000D01*
X137045925Y-107000000D01*
X136978886Y-106980315D01*
X136933131Y-106927511D01*
X136921927Y-106876673D01*
X136899780Y-102786704D01*
X136892428Y-101428937D01*
X137675499Y-101428937D01*
X137714101Y-101622996D01*
X137714104Y-101623006D01*
X137789820Y-101805802D01*
X137789827Y-101805815D01*
X137899753Y-101970330D01*
X137899756Y-101970334D01*
X138039665Y-102110243D01*
X138039669Y-102110246D01*
X138204184Y-102220172D01*
X138204197Y-102220179D01*
X138349826Y-102280500D01*
X138386998Y-102295897D01*
X138387002Y-102295897D01*
X138387003Y-102295898D01*
X138581062Y-102334500D01*
X138581065Y-102334500D01*
X138778937Y-102334500D01*
X138909495Y-102308529D01*
X138973002Y-102295897D01*
X139145312Y-102224524D01*
X139155802Y-102220179D01*
X139155802Y-102220178D01*
X139155809Y-102220176D01*
X139320331Y-102110246D01*
X139460246Y-101970331D01*
X139570176Y-101805809D01*
X139645897Y-101623002D01*
X139668370Y-101510025D01*
X139684500Y-101428937D01*
X139684500Y-101231062D01*
X139645898Y-101037003D01*
X139645897Y-101037002D01*
X139645897Y-101036998D01*
X139618272Y-100970305D01*
X139570179Y-100854197D01*
X139570172Y-100854184D01*
X139460246Y-100689669D01*
X139460243Y-100689665D01*
X139320334Y-100549756D01*
X139320330Y-100549753D01*
X139155815Y-100439827D01*
X139155802Y-100439820D01*
X138973006Y-100364104D01*
X138972996Y-100364101D01*
X138778937Y-100325500D01*
X138778935Y-100325500D01*
X138581065Y-100325500D01*
X138581063Y-100325500D01*
X138387003Y-100364101D01*
X138386993Y-100364104D01*
X138204197Y-100439820D01*
X138204184Y-100439827D01*
X138039669Y-100549753D01*
X138039665Y-100549756D01*
X137899756Y-100689665D01*
X137899753Y-100689669D01*
X137789827Y-100854184D01*
X137789820Y-100854197D01*
X137714104Y-101036993D01*
X137714101Y-101037003D01*
X137675500Y-101231062D01*
X137675500Y-101231065D01*
X137675500Y-101428935D01*
X137675500Y-101428937D01*
X137675499Y-101428937D01*
X136892428Y-101428937D01*
X136891327Y-101225644D01*
X136890221Y-101021476D01*
X136888360Y-101022097D01*
X136848533Y-101028458D01*
X125107815Y-100970304D01*
X125107814Y-100970304D01*
X125078560Y-106876614D01*
X125058544Y-106943555D01*
X125005514Y-106989048D01*
X124954562Y-107000000D01*
X55118707Y-107000000D01*
X55051668Y-106980315D01*
X55005913Y-106927511D01*
X54995969Y-106858353D01*
X55024994Y-106794797D01*
X55071252Y-106761439D01*
X55297021Y-106667923D01*
X55535479Y-106530249D01*
X55753928Y-106362628D01*
X55948628Y-106167928D01*
X56116249Y-105949479D01*
X56253923Y-105711021D01*
X56359295Y-105456632D01*
X56430560Y-105190666D01*
X56466500Y-104917674D01*
X56466500Y-104642326D01*
X56430560Y-104369334D01*
X56359295Y-104103368D01*
X56253923Y-103848979D01*
X56253921Y-103848976D01*
X56253919Y-103848971D01*
X56204732Y-103763778D01*
X56116249Y-103610521D01*
X55948628Y-103392072D01*
X55948623Y-103392066D01*
X55753933Y-103197376D01*
X55753926Y-103197370D01*
X55535483Y-103029754D01*
X55535482Y-103029753D01*
X55535479Y-103029751D01*
X55440407Y-102974861D01*
X55297028Y-102892080D01*
X55297017Y-102892075D01*
X55042630Y-102786704D01*
X54909649Y-102751072D01*
X54776666Y-102715440D01*
X54776660Y-102715439D01*
X54776655Y-102715438D01*
X54503684Y-102679501D01*
X54503679Y-102679500D01*
X54503674Y-102679500D01*
X54228326Y-102679500D01*
X54228320Y-102679500D01*
X54228315Y-102679501D01*
X53955344Y-102715438D01*
X53955337Y-102715439D01*
X53955334Y-102715440D01*
X53899125Y-102730500D01*
X53689369Y-102786704D01*
X53434982Y-102892075D01*
X53434971Y-102892080D01*
X53196516Y-103029754D01*
X52978073Y-103197370D01*
X52978066Y-103197376D01*
X52783376Y-103392066D01*
X52783370Y-103392073D01*
X52726709Y-103465916D01*
X52670281Y-103507119D01*
X52600535Y-103511274D01*
X52539615Y-103477062D01*
X52506862Y-103415344D01*
X52504333Y-103390281D01*
X52504536Y-103221802D01*
X52506688Y-101428937D01*
X122435499Y-101428937D01*
X122474101Y-101622996D01*
X122474104Y-101623006D01*
X122549820Y-101805802D01*
X122549827Y-101805815D01*
X122659753Y-101970330D01*
X122659756Y-101970334D01*
X122799665Y-102110243D01*
X122799669Y-102110246D01*
X122964184Y-102220172D01*
X122964197Y-102220179D01*
X123109826Y-102280500D01*
X123146998Y-102295897D01*
X123147002Y-102295897D01*
X123147003Y-102295898D01*
X123341062Y-102334500D01*
X123341065Y-102334500D01*
X123538937Y-102334500D01*
X123669495Y-102308529D01*
X123733002Y-102295897D01*
X123905312Y-102224524D01*
X123915802Y-102220179D01*
X123915802Y-102220178D01*
X123915809Y-102220176D01*
X124080331Y-102110246D01*
X124220246Y-101970331D01*
X124330176Y-101805809D01*
X124405897Y-101623002D01*
X124428370Y-101510025D01*
X124444500Y-101428937D01*
X124444500Y-101231062D01*
X124405898Y-101037003D01*
X124405897Y-101037002D01*
X124405897Y-101036998D01*
X124378272Y-100970305D01*
X124330179Y-100854197D01*
X124330172Y-100854184D01*
X124220246Y-100689669D01*
X124220243Y-100689665D01*
X124080334Y-100549756D01*
X124080330Y-100549753D01*
X123915815Y-100439827D01*
X123915802Y-100439820D01*
X123733006Y-100364104D01*
X123732996Y-100364101D01*
X123538937Y-100325500D01*
X123538935Y-100325500D01*
X123341065Y-100325500D01*
X123341063Y-100325500D01*
X123147003Y-100364101D01*
X123146993Y-100364104D01*
X122964197Y-100439820D01*
X122964184Y-100439827D01*
X122799669Y-100549753D01*
X122799665Y-100549756D01*
X122659756Y-100689665D01*
X122659753Y-100689669D01*
X122549827Y-100854184D01*
X122549820Y-100854197D01*
X122474104Y-101036993D01*
X122474101Y-101037003D01*
X122435500Y-101231062D01*
X122435500Y-101231065D01*
X122435500Y-101428935D01*
X122435500Y-101428937D01*
X122435499Y-101428937D01*
X52506688Y-101428937D01*
X52516275Y-93443389D01*
X64067000Y-93443389D01*
X64067000Y-93616610D01*
X64090929Y-93767697D01*
X64094098Y-93787701D01*
X64147627Y-93952445D01*
X64226268Y-94106788D01*
X64328086Y-94246928D01*
X64450572Y-94369414D01*
X64590712Y-94471232D01*
X64745055Y-94549873D01*
X64909799Y-94603402D01*
X65080889Y-94630500D01*
X65080890Y-94630500D01*
X65254110Y-94630500D01*
X65254111Y-94630500D01*
X65425201Y-94603402D01*
X65589945Y-94549873D01*
X65744288Y-94471232D01*
X65884428Y-94369414D01*
X66006914Y-94246928D01*
X66108732Y-94106788D01*
X66187373Y-93952445D01*
X66240902Y-93787701D01*
X66268000Y-93616611D01*
X66268000Y-93443389D01*
X66607000Y-93443389D01*
X66607000Y-93616610D01*
X66630929Y-93767697D01*
X66634098Y-93787701D01*
X66687627Y-93952445D01*
X66766268Y-94106788D01*
X66868086Y-94246928D01*
X66990572Y-94369414D01*
X67130712Y-94471232D01*
X67285055Y-94549873D01*
X67449799Y-94603402D01*
X67620889Y-94630500D01*
X67620890Y-94630500D01*
X67794110Y-94630500D01*
X67794111Y-94630500D01*
X67965201Y-94603402D01*
X68129945Y-94549873D01*
X68284288Y-94471232D01*
X68424428Y-94369414D01*
X68546914Y-94246928D01*
X68648732Y-94106788D01*
X68727373Y-93952445D01*
X68780902Y-93787701D01*
X68808000Y-93616611D01*
X68808000Y-93443389D01*
X69147000Y-93443389D01*
X69147000Y-93616610D01*
X69170929Y-93767697D01*
X69174098Y-93787701D01*
X69227627Y-93952445D01*
X69306268Y-94106788D01*
X69408086Y-94246928D01*
X69530572Y-94369414D01*
X69599453Y-94419459D01*
X69670713Y-94471233D01*
X69829294Y-94552033D01*
X69880091Y-94600007D01*
X69897000Y-94662518D01*
X69897000Y-95206214D01*
X69877315Y-95273253D01*
X69860681Y-95293895D01*
X69806993Y-95347582D01*
X69806988Y-95347588D01*
X69734517Y-95473111D01*
X69734516Y-95473115D01*
X69697000Y-95613125D01*
X69697000Y-95758075D01*
X69734136Y-95896666D01*
X69734517Y-95898088D01*
X69806988Y-96023611D01*
X69806990Y-96023613D01*
X69806991Y-96023615D01*
X69909485Y-96126109D01*
X69909486Y-96126110D01*
X69909488Y-96126111D01*
X70035011Y-96198582D01*
X70035012Y-96198582D01*
X70035015Y-96198584D01*
X70175025Y-96236100D01*
X70175028Y-96236100D01*
X70319972Y-96236100D01*
X70319975Y-96236100D01*
X70459985Y-96198584D01*
X70585515Y-96126109D01*
X70688009Y-96023615D01*
X70760484Y-95898085D01*
X70798000Y-95758075D01*
X70798000Y-95613125D01*
X70760484Y-95473115D01*
X70729003Y-95418589D01*
X70688011Y-95347588D01*
X70688006Y-95347582D01*
X70634319Y-95293895D01*
X70600834Y-95232572D01*
X70598000Y-95206214D01*
X70598000Y-94662518D01*
X70617685Y-94595479D01*
X70665706Y-94552033D01*
X70824286Y-94471233D01*
X70824285Y-94471233D01*
X70824288Y-94471232D01*
X70964428Y-94369414D01*
X71086914Y-94246928D01*
X71188732Y-94106788D01*
X71267373Y-93952445D01*
X71320902Y-93787701D01*
X71348000Y-93616611D01*
X71348000Y-93443389D01*
X71687000Y-93443389D01*
X71687000Y-93616610D01*
X71710929Y-93767697D01*
X71714098Y-93787701D01*
X71767627Y-93952445D01*
X71846268Y-94106788D01*
X71948086Y-94246928D01*
X72070572Y-94369414D01*
X72210712Y-94471232D01*
X72365055Y-94549873D01*
X72529799Y-94603402D01*
X72700889Y-94630500D01*
X72700890Y-94630500D01*
X72874110Y-94630500D01*
X72874111Y-94630500D01*
X73045201Y-94603402D01*
X73209945Y-94549873D01*
X73364288Y-94471232D01*
X73504428Y-94369414D01*
X73626914Y-94246928D01*
X73728732Y-94106788D01*
X73807373Y-93952445D01*
X73860902Y-93787701D01*
X73888000Y-93616611D01*
X73888000Y-93443389D01*
X74227000Y-93443389D01*
X74227000Y-93616610D01*
X74250929Y-93767697D01*
X74254098Y-93787701D01*
X74307627Y-93952445D01*
X74386268Y-94106788D01*
X74488086Y-94246928D01*
X74610572Y-94369414D01*
X74750712Y-94471232D01*
X74905055Y-94549873D01*
X75069799Y-94603402D01*
X75240889Y-94630500D01*
X75240890Y-94630500D01*
X75414110Y-94630500D01*
X75414111Y-94630500D01*
X75585201Y-94603402D01*
X75749945Y-94549873D01*
X75904288Y-94471232D01*
X76044428Y-94369414D01*
X76166914Y-94246928D01*
X76268732Y-94106788D01*
X76347373Y-93952445D01*
X76348396Y-93949294D01*
X76349110Y-93948250D01*
X76349234Y-93947952D01*
X76349296Y-93947977D01*
X76387827Y-93891618D01*
X76452183Y-93864415D01*
X76521030Y-93876323D01*
X76572511Y-93923562D01*
X76584260Y-93949287D01*
X76616404Y-94048217D01*
X76712879Y-94237557D01*
X76837772Y-94409459D01*
X76837776Y-94409464D01*
X76988035Y-94559723D01*
X76988040Y-94559727D01*
X77159942Y-94684620D01*
X77349282Y-94781095D01*
X77551371Y-94846757D01*
X77617500Y-94857231D01*
X77617500Y-93963012D01*
X77674507Y-93995925D01*
X77801674Y-94030000D01*
X77933326Y-94030000D01*
X78060493Y-93995925D01*
X78117500Y-93963012D01*
X78117500Y-94857230D01*
X78183626Y-94846757D01*
X78183629Y-94846757D01*
X78385717Y-94781095D01*
X78575057Y-94684620D01*
X78746959Y-94559727D01*
X78746964Y-94559723D01*
X78897223Y-94409464D01*
X78897227Y-94409459D01*
X79022120Y-94237557D01*
X79072515Y-94138654D01*
X79120490Y-94087858D01*
X79188311Y-94071063D01*
X79254446Y-94093600D01*
X79297897Y-94148315D01*
X79307000Y-94194949D01*
X79307000Y-94404678D01*
X79321532Y-94477735D01*
X79321533Y-94477739D01*
X79337766Y-94502033D01*
X79376899Y-94560601D01*
X79454600Y-94612518D01*
X79459760Y-94615966D01*
X79459764Y-94615967D01*
X79532821Y-94630499D01*
X79532824Y-94630500D01*
X79532826Y-94630500D01*
X81282176Y-94630500D01*
X81282177Y-94630499D01*
X81355240Y-94615966D01*
X81438101Y-94560601D01*
X81493276Y-94478025D01*
X100952400Y-94478025D01*
X100952400Y-94622975D01*
X100989410Y-94761095D01*
X100989917Y-94762988D01*
X101062388Y-94888511D01*
X101062390Y-94888513D01*
X101062391Y-94888515D01*
X101164885Y-94991009D01*
X101164886Y-94991010D01*
X101164888Y-94991011D01*
X101290411Y-95063482D01*
X101290412Y-95063482D01*
X101290415Y-95063484D01*
X101430425Y-95101000D01*
X101430428Y-95101000D01*
X101575372Y-95101000D01*
X101575375Y-95101000D01*
X101715385Y-95063484D01*
X101743567Y-95047212D01*
X101805567Y-95030600D01*
X107229942Y-95030600D01*
X107229944Y-95030600D01*
X107319088Y-95006714D01*
X107334898Y-94997586D01*
X107399012Y-94960570D01*
X108179385Y-94180197D01*
X108240708Y-94146712D01*
X108310400Y-94151696D01*
X108366333Y-94193568D01*
X108367352Y-94194949D01*
X108390586Y-94226928D01*
X108513072Y-94349414D01*
X108602897Y-94414676D01*
X108653213Y-94451233D01*
X108811794Y-94532033D01*
X108862591Y-94580007D01*
X108879500Y-94642518D01*
X108879500Y-95017611D01*
X108859815Y-95084650D01*
X108807011Y-95130405D01*
X108787594Y-95137386D01*
X108656111Y-95172617D01*
X108530588Y-95245088D01*
X108530582Y-95245093D01*
X108428093Y-95347582D01*
X108428088Y-95347588D01*
X108355617Y-95473111D01*
X108355616Y-95473115D01*
X108318100Y-95613125D01*
X108318100Y-95758075D01*
X108355236Y-95896666D01*
X108355617Y-95898088D01*
X108428088Y-96023611D01*
X108428090Y-96023613D01*
X108428091Y-96023615D01*
X108530585Y-96126109D01*
X108530586Y-96126110D01*
X108530588Y-96126111D01*
X108656111Y-96198582D01*
X108656112Y-96198582D01*
X108656115Y-96198584D01*
X108796125Y-96236100D01*
X108796128Y-96236100D01*
X108941072Y-96236100D01*
X108941075Y-96236100D01*
X109081085Y-96198584D01*
X109206615Y-96126109D01*
X109260305Y-96072419D01*
X109321628Y-96038934D01*
X109347986Y-96036100D01*
X120139056Y-96036100D01*
X120206095Y-96055785D01*
X120226737Y-96072419D01*
X122467420Y-98313102D01*
X122500905Y-98374425D01*
X122495921Y-98444117D01*
X122494301Y-98448233D01*
X122474103Y-98496997D01*
X122474101Y-98497004D01*
X122435500Y-98691062D01*
X122435500Y-98691065D01*
X122435500Y-98888935D01*
X122435500Y-98888937D01*
X122435499Y-98888937D01*
X122474101Y-99082996D01*
X122474104Y-99083006D01*
X122549820Y-99265802D01*
X122549827Y-99265815D01*
X122659752Y-99430329D01*
X122659755Y-99430333D01*
X122799665Y-99570243D01*
X122799669Y-99570246D01*
X122964184Y-99680172D01*
X122964197Y-99680179D01*
X123146993Y-99755895D01*
X123146998Y-99755897D01*
X123147002Y-99755897D01*
X123147003Y-99755898D01*
X123341062Y-99794500D01*
X123341065Y-99794500D01*
X123538937Y-99794500D01*
X123713305Y-99759815D01*
X123733002Y-99755897D01*
X123915809Y-99680176D01*
X124080331Y-99570246D01*
X124138066Y-99512511D01*
X124220245Y-99430333D01*
X124220248Y-99430329D01*
X124330172Y-99265815D01*
X124330172Y-99265814D01*
X124330176Y-99265809D01*
X124405897Y-99083002D01*
X124444500Y-98888935D01*
X124444500Y-98691065D01*
X124444500Y-98691062D01*
X124405898Y-98497003D01*
X124405897Y-98497002D01*
X124405897Y-98496998D01*
X124355126Y-98374425D01*
X124330179Y-98314197D01*
X124330172Y-98314184D01*
X124220246Y-98149669D01*
X124220243Y-98149665D01*
X124080334Y-98009756D01*
X124080330Y-98009753D01*
X123915815Y-97899827D01*
X123915802Y-97899820D01*
X123733006Y-97824104D01*
X123732996Y-97824101D01*
X123538937Y-97785500D01*
X123538935Y-97785500D01*
X123341065Y-97785500D01*
X123341063Y-97785500D01*
X123147004Y-97824101D01*
X123146997Y-97824103D01*
X123098233Y-97844301D01*
X123028764Y-97851768D01*
X122966285Y-97820492D01*
X122963102Y-97817420D01*
X120550813Y-95405131D01*
X120550808Y-95405127D01*
X120470890Y-95358987D01*
X120470885Y-95358985D01*
X120449989Y-95353385D01*
X120449989Y-95353386D01*
X120415866Y-95344243D01*
X120381744Y-95335100D01*
X120381743Y-95335100D01*
X109704500Y-95335100D01*
X109637461Y-95315415D01*
X109591706Y-95262611D01*
X109580500Y-95211100D01*
X109580500Y-94642518D01*
X109600185Y-94575479D01*
X109648206Y-94532033D01*
X109806786Y-94451233D01*
X109806785Y-94451233D01*
X109806788Y-94451232D01*
X109946928Y-94349414D01*
X110069414Y-94226928D01*
X110171232Y-94086788D01*
X110249873Y-93932445D01*
X110265601Y-93884041D01*
X110305036Y-93826368D01*
X110369394Y-93799169D01*
X110438241Y-93811083D01*
X110445531Y-93814974D01*
X110472420Y-93830499D01*
X110483012Y-93836614D01*
X110572156Y-93860500D01*
X110637481Y-93860500D01*
X110704520Y-93880185D01*
X110747966Y-93928205D01*
X110805694Y-94041502D01*
X110828768Y-94086788D01*
X110930586Y-94226928D01*
X111053072Y-94349414D01*
X111193212Y-94451232D01*
X111347555Y-94529873D01*
X111512299Y-94583402D01*
X111683389Y-94610500D01*
X111683390Y-94610500D01*
X111856610Y-94610500D01*
X111856611Y-94610500D01*
X112027701Y-94583402D01*
X112192445Y-94529873D01*
X112346788Y-94451232D01*
X112486928Y-94349414D01*
X112609414Y-94226928D01*
X112711232Y-94086788D01*
X112789873Y-93932445D01*
X112843402Y-93767701D01*
X112870500Y-93596611D01*
X112870500Y-93423389D01*
X112843402Y-93252299D01*
X112789873Y-93087555D01*
X112711232Y-92933212D01*
X112609414Y-92793072D01*
X112486928Y-92670586D01*
X112346788Y-92568768D01*
X112212356Y-92500272D01*
X112192447Y-92490128D01*
X112192446Y-92490127D01*
X112192445Y-92490127D01*
X112027701Y-92436598D01*
X112027699Y-92436597D01*
X112027698Y-92436597D01*
X111888306Y-92414520D01*
X111856611Y-92409500D01*
X111683389Y-92409500D01*
X111651694Y-92414520D01*
X111512302Y-92436597D01*
X111347552Y-92490128D01*
X111193211Y-92568768D01*
X111142894Y-92605326D01*
X111053072Y-92670586D01*
X111053070Y-92670588D01*
X111053069Y-92670588D01*
X110930585Y-92793072D01*
X110912600Y-92817827D01*
X110857269Y-92860492D01*
X110787655Y-92866470D01*
X110725861Y-92833863D01*
X110724602Y-92832621D01*
X110392257Y-92500276D01*
X109969812Y-92077830D01*
X109969811Y-92077829D01*
X109969808Y-92077827D01*
X109889890Y-92031687D01*
X109889889Y-92031686D01*
X109889888Y-92031686D01*
X109800744Y-92007800D01*
X108633056Y-92007800D01*
X108543912Y-92031686D01*
X108543911Y-92031686D01*
X108543909Y-92031687D01*
X108543906Y-92031688D01*
X108463994Y-92077826D01*
X108463985Y-92077833D01*
X107724372Y-92817446D01*
X107663049Y-92850931D01*
X107593357Y-92845947D01*
X107537424Y-92804075D01*
X107536409Y-92802700D01*
X107529414Y-92793072D01*
X107406928Y-92670586D01*
X107266788Y-92568768D01*
X107132356Y-92500272D01*
X107112447Y-92490128D01*
X107112446Y-92490127D01*
X107112445Y-92490127D01*
X106947701Y-92436598D01*
X106947699Y-92436597D01*
X106947697Y-92436597D01*
X106873131Y-92424787D01*
X106809996Y-92394858D01*
X106773065Y-92335546D01*
X106774063Y-92265684D01*
X106804846Y-92214635D01*
X109962663Y-89056819D01*
X110023986Y-89023334D01*
X110050344Y-89020500D01*
X122415065Y-89020500D01*
X122482104Y-89040185D01*
X122527859Y-89092989D01*
X122529626Y-89097047D01*
X122549822Y-89145806D01*
X122549827Y-89145815D01*
X122659753Y-89310330D01*
X122659756Y-89310334D01*
X122799665Y-89450243D01*
X122799669Y-89450246D01*
X122964184Y-89560172D01*
X122964197Y-89560179D01*
X123050429Y-89595897D01*
X123146998Y-89635897D01*
X123147002Y-89635897D01*
X123147003Y-89635898D01*
X123341062Y-89674500D01*
X123341065Y-89674500D01*
X123538937Y-89674500D01*
X123672720Y-89647888D01*
X123733002Y-89635897D01*
X123915809Y-89560176D01*
X124080331Y-89450246D01*
X124220246Y-89310331D01*
X124330176Y-89145809D01*
X124405897Y-88963002D01*
X124429870Y-88842485D01*
X124444500Y-88768937D01*
X124444500Y-88571062D01*
X124405898Y-88377003D01*
X124405897Y-88377002D01*
X124405897Y-88376998D01*
X124391975Y-88343387D01*
X124330179Y-88194197D01*
X124330172Y-88194184D01*
X124220246Y-88029669D01*
X124220243Y-88029665D01*
X124080334Y-87889756D01*
X124080330Y-87889753D01*
X123915815Y-87779827D01*
X123915802Y-87779820D01*
X123733006Y-87704104D01*
X123732996Y-87704101D01*
X123538937Y-87665500D01*
X123538935Y-87665500D01*
X123341065Y-87665500D01*
X123341063Y-87665500D01*
X123147003Y-87704101D01*
X123146993Y-87704104D01*
X122964197Y-87779820D01*
X122964184Y-87779827D01*
X122799669Y-87889753D01*
X122799665Y-87889756D01*
X122659756Y-88029665D01*
X122659753Y-88029669D01*
X122549827Y-88194184D01*
X122549822Y-88194193D01*
X122529626Y-88242953D01*
X122485785Y-88297356D01*
X122419491Y-88319421D01*
X122415065Y-88319500D01*
X109807656Y-88319500D01*
X109718512Y-88343386D01*
X109718509Y-88343387D01*
X109638591Y-88389527D01*
X109638586Y-88389531D01*
X105195438Y-92832678D01*
X105134115Y-92866163D01*
X105064423Y-92861179D01*
X105008490Y-92819307D01*
X105007494Y-92817957D01*
X104989414Y-92793072D01*
X104866928Y-92670586D01*
X104726788Y-92568768D01*
X104592356Y-92500272D01*
X104572447Y-92490128D01*
X104572446Y-92490127D01*
X104572445Y-92490127D01*
X104407701Y-92436598D01*
X104407699Y-92436597D01*
X104407698Y-92436597D01*
X104268306Y-92414520D01*
X104236611Y-92409500D01*
X104063389Y-92409500D01*
X104031694Y-92414520D01*
X103892302Y-92436597D01*
X103727552Y-92490128D01*
X103573211Y-92568768D01*
X103522894Y-92605326D01*
X103433072Y-92670586D01*
X103433070Y-92670588D01*
X103433069Y-92670588D01*
X103310588Y-92793069D01*
X103310588Y-92793070D01*
X103310586Y-92793072D01*
X103274059Y-92843347D01*
X103208768Y-92933211D01*
X103130128Y-93087552D01*
X103076597Y-93252302D01*
X103050513Y-93416993D01*
X103049500Y-93423389D01*
X103049500Y-93596611D01*
X103052459Y-93615293D01*
X103075452Y-93760469D01*
X103076598Y-93767701D01*
X103128749Y-93928205D01*
X103130128Y-93932447D01*
X103208770Y-94086792D01*
X103242135Y-94132714D01*
X103265616Y-94198520D01*
X103249791Y-94266574D01*
X103199686Y-94315269D01*
X103141818Y-94329600D01*
X102082617Y-94329600D01*
X102015578Y-94309915D01*
X101975230Y-94267600D01*
X101943411Y-94212488D01*
X101943406Y-94212482D01*
X101840917Y-94109993D01*
X101840911Y-94109988D01*
X101715388Y-94037517D01*
X101715389Y-94037517D01*
X101680681Y-94028217D01*
X101575375Y-94000000D01*
X101430425Y-94000000D01*
X101325119Y-94028217D01*
X101290411Y-94037517D01*
X101164888Y-94109988D01*
X101164882Y-94109993D01*
X101062393Y-94212482D01*
X101062388Y-94212488D01*
X100989917Y-94338011D01*
X100989916Y-94338015D01*
X100952400Y-94478025D01*
X81493276Y-94478025D01*
X81493466Y-94477740D01*
X81493467Y-94477735D01*
X81499833Y-94445735D01*
X81499838Y-94445707D01*
X81504706Y-94421232D01*
X81508000Y-94404674D01*
X81508000Y-92655326D01*
X81508000Y-92655323D01*
X81507999Y-92655321D01*
X81493467Y-92582264D01*
X81493466Y-92582260D01*
X81480105Y-92562264D01*
X81438101Y-92499399D01*
X81374042Y-92456597D01*
X81355239Y-92444033D01*
X81355235Y-92444032D01*
X81282177Y-92429500D01*
X81282174Y-92429500D01*
X79532826Y-92429500D01*
X79532823Y-92429500D01*
X79459764Y-92444032D01*
X79459760Y-92444033D01*
X79376899Y-92499399D01*
X79321533Y-92582260D01*
X79321532Y-92582264D01*
X79307000Y-92655321D01*
X79307000Y-92865050D01*
X79287315Y-92932089D01*
X79234511Y-92977844D01*
X79165353Y-92987788D01*
X79101797Y-92958763D01*
X79072515Y-92921345D01*
X79022120Y-92822442D01*
X78897227Y-92650540D01*
X78897223Y-92650535D01*
X78746964Y-92500276D01*
X78746959Y-92500272D01*
X78575057Y-92375379D01*
X78385715Y-92278903D01*
X78183624Y-92213241D01*
X78117500Y-92202768D01*
X78117500Y-93096988D01*
X78060493Y-93064075D01*
X77933326Y-93030000D01*
X77801674Y-93030000D01*
X77674507Y-93064075D01*
X77617500Y-93096988D01*
X77617500Y-92202768D01*
X77617499Y-92202768D01*
X77551375Y-92213241D01*
X77349284Y-92278903D01*
X77159942Y-92375379D01*
X76988040Y-92500272D01*
X76988035Y-92500276D01*
X76837776Y-92650535D01*
X76837772Y-92650540D01*
X76712879Y-92822442D01*
X76616404Y-93011783D01*
X76584260Y-93110712D01*
X76544822Y-93168388D01*
X76480464Y-93195586D01*
X76411617Y-93183671D01*
X76360142Y-93136427D01*
X76348398Y-93110712D01*
X76347373Y-93107555D01*
X76268732Y-92953212D01*
X76166914Y-92813072D01*
X76044428Y-92690586D01*
X75904288Y-92588768D01*
X75872305Y-92572472D01*
X75745705Y-92507966D01*
X75694909Y-92459991D01*
X75678000Y-92397481D01*
X75678000Y-91516286D01*
X75697685Y-91449247D01*
X75714319Y-91428605D01*
X75768009Y-91374915D01*
X75840484Y-91249385D01*
X75878000Y-91109375D01*
X75878000Y-90964425D01*
X75840484Y-90824415D01*
X75837646Y-90819500D01*
X75768011Y-90698888D01*
X75768006Y-90698882D01*
X75665517Y-90596393D01*
X75665511Y-90596388D01*
X75539988Y-90523917D01*
X75539989Y-90523917D01*
X75528506Y-90520840D01*
X75399975Y-90486400D01*
X75255025Y-90486400D01*
X75126493Y-90520840D01*
X75115011Y-90523917D01*
X74989488Y-90596388D01*
X74989482Y-90596393D01*
X74886993Y-90698882D01*
X74886988Y-90698888D01*
X74814517Y-90824411D01*
X74814516Y-90824415D01*
X74777000Y-90964425D01*
X74777000Y-91109375D01*
X74814516Y-91249385D01*
X74814517Y-91249388D01*
X74886988Y-91374911D01*
X74886993Y-91374917D01*
X74940681Y-91428605D01*
X74974166Y-91489928D01*
X74977000Y-91516286D01*
X74977000Y-92397481D01*
X74957315Y-92464520D01*
X74909295Y-92507966D01*
X74750711Y-92588768D01*
X74679391Y-92640586D01*
X74610572Y-92690586D01*
X74610570Y-92690588D01*
X74610569Y-92690588D01*
X74488088Y-92813069D01*
X74488088Y-92813070D01*
X74488086Y-92813072D01*
X74453633Y-92860492D01*
X74386268Y-92953211D01*
X74307628Y-93107552D01*
X74307627Y-93107554D01*
X74307627Y-93107555D01*
X74287495Y-93169513D01*
X74254097Y-93272302D01*
X74227000Y-93443389D01*
X73888000Y-93443389D01*
X73860902Y-93272299D01*
X73807373Y-93107555D01*
X73728732Y-92953212D01*
X73626914Y-92813072D01*
X73504428Y-92690586D01*
X73364288Y-92588768D01*
X73209945Y-92510127D01*
X73045201Y-92456598D01*
X73045199Y-92456597D01*
X73045198Y-92456597D01*
X72913771Y-92435781D01*
X72874111Y-92429500D01*
X72700889Y-92429500D01*
X72661228Y-92435781D01*
X72529802Y-92456597D01*
X72365052Y-92510128D01*
X72210711Y-92588768D01*
X72139391Y-92640586D01*
X72070572Y-92690586D01*
X72070570Y-92690588D01*
X72070569Y-92690588D01*
X71948088Y-92813069D01*
X71948088Y-92813070D01*
X71948086Y-92813072D01*
X71913633Y-92860492D01*
X71846268Y-92953211D01*
X71767628Y-93107552D01*
X71767627Y-93107554D01*
X71767627Y-93107555D01*
X71747495Y-93169513D01*
X71714097Y-93272302D01*
X71687000Y-93443389D01*
X71348000Y-93443389D01*
X71320902Y-93272299D01*
X71267373Y-93107555D01*
X71188732Y-92953212D01*
X71086914Y-92813072D01*
X70964428Y-92690586D01*
X70824288Y-92588768D01*
X70669945Y-92510127D01*
X70505201Y-92456598D01*
X70505199Y-92456597D01*
X70505198Y-92456597D01*
X70373771Y-92435781D01*
X70334111Y-92429500D01*
X70160889Y-92429500D01*
X70121228Y-92435781D01*
X69989802Y-92456597D01*
X69825052Y-92510128D01*
X69670711Y-92588768D01*
X69599391Y-92640586D01*
X69530572Y-92690586D01*
X69530570Y-92690588D01*
X69530569Y-92690588D01*
X69408088Y-92813069D01*
X69408088Y-92813070D01*
X69408086Y-92813072D01*
X69373633Y-92860492D01*
X69306268Y-92953211D01*
X69227628Y-93107552D01*
X69227627Y-93107554D01*
X69227627Y-93107555D01*
X69207495Y-93169513D01*
X69174097Y-93272302D01*
X69147000Y-93443389D01*
X68808000Y-93443389D01*
X68780902Y-93272299D01*
X68727373Y-93107555D01*
X68648732Y-92953212D01*
X68546914Y-92813072D01*
X68424428Y-92690586D01*
X68284288Y-92588768D01*
X68129945Y-92510127D01*
X67965201Y-92456598D01*
X67965199Y-92456597D01*
X67965198Y-92456597D01*
X67833771Y-92435781D01*
X67794111Y-92429500D01*
X67620889Y-92429500D01*
X67581228Y-92435781D01*
X67449802Y-92456597D01*
X67285052Y-92510128D01*
X67130711Y-92588768D01*
X67059391Y-92640586D01*
X66990572Y-92690586D01*
X66990570Y-92690588D01*
X66990569Y-92690588D01*
X66868088Y-92813069D01*
X66868088Y-92813070D01*
X66868086Y-92813072D01*
X66833633Y-92860492D01*
X66766268Y-92953211D01*
X66687628Y-93107552D01*
X66687627Y-93107554D01*
X66687627Y-93107555D01*
X66667495Y-93169513D01*
X66634097Y-93272302D01*
X66607000Y-93443389D01*
X66268000Y-93443389D01*
X66240902Y-93272299D01*
X66187373Y-93107555D01*
X66108732Y-92953212D01*
X66006914Y-92813072D01*
X65884428Y-92690586D01*
X65744288Y-92588768D01*
X65589945Y-92510127D01*
X65425201Y-92456598D01*
X65425199Y-92456597D01*
X65425198Y-92456597D01*
X65293771Y-92435781D01*
X65254111Y-92429500D01*
X65080889Y-92429500D01*
X65041228Y-92435781D01*
X64909802Y-92456597D01*
X64745052Y-92510128D01*
X64590711Y-92588768D01*
X64519391Y-92640586D01*
X64450572Y-92690586D01*
X64450570Y-92690588D01*
X64450569Y-92690588D01*
X64328088Y-92813069D01*
X64328088Y-92813070D01*
X64328086Y-92813072D01*
X64293633Y-92860492D01*
X64226268Y-92953211D01*
X64147628Y-93107552D01*
X64147627Y-93107554D01*
X64147627Y-93107555D01*
X64127495Y-93169513D01*
X64094097Y-93272302D01*
X64067000Y-93443389D01*
X52516275Y-93443389D01*
X52527971Y-83700221D01*
X52547735Y-83633209D01*
X52600594Y-83587518D01*
X52669764Y-83577657D01*
X52733285Y-83606759D01*
X52750346Y-83624888D01*
X52783370Y-83667926D01*
X52783376Y-83667933D01*
X52978066Y-83862623D01*
X52978072Y-83862628D01*
X53196521Y-84030249D01*
X53349778Y-84118732D01*
X53434971Y-84167919D01*
X53434976Y-84167921D01*
X53434979Y-84167923D01*
X53689368Y-84273295D01*
X53955334Y-84344560D01*
X54228326Y-84380500D01*
X54228333Y-84380500D01*
X54503667Y-84380500D01*
X54503674Y-84380500D01*
X54776666Y-84344560D01*
X55042632Y-84273295D01*
X55297021Y-84167923D01*
X55535479Y-84030249D01*
X55753928Y-83862628D01*
X55948628Y-83667928D01*
X56116249Y-83449479D01*
X56253923Y-83211021D01*
X56359295Y-82956632D01*
X56430560Y-82690666D01*
X56466500Y-82417674D01*
X56466500Y-82142326D01*
X56430560Y-81869334D01*
X56359295Y-81603368D01*
X56253923Y-81348979D01*
X56253921Y-81348976D01*
X56253919Y-81348971D01*
X56182944Y-81226040D01*
X56116249Y-81110521D01*
X56013041Y-80976017D01*
X55948629Y-80892073D01*
X55948623Y-80892066D01*
X55753933Y-80697376D01*
X55753926Y-80697370D01*
X55535483Y-80529754D01*
X55535482Y-80529753D01*
X55535479Y-80529751D01*
X55415533Y-80460500D01*
X55297028Y-80392080D01*
X55297017Y-80392075D01*
X55042630Y-80286704D01*
X54874457Y-80241643D01*
X54776666Y-80215440D01*
X54776660Y-80215439D01*
X54776655Y-80215438D01*
X54503684Y-80179501D01*
X54503679Y-80179500D01*
X54503674Y-80179500D01*
X54228326Y-80179500D01*
X54228320Y-80179500D01*
X54228315Y-80179501D01*
X53955344Y-80215438D01*
X53955337Y-80215439D01*
X53955334Y-80215440D01*
X53899125Y-80230500D01*
X53689369Y-80286704D01*
X53434982Y-80392075D01*
X53434971Y-80392080D01*
X53196516Y-80529754D01*
X52978073Y-80697370D01*
X52978066Y-80697376D01*
X52783376Y-80892066D01*
X52783367Y-80892076D01*
X52753761Y-80930660D01*
X52697333Y-80971863D01*
X52627587Y-80976017D01*
X52566667Y-80941804D01*
X52533914Y-80880086D01*
X52531386Y-80855030D01*
X52532528Y-79904351D01*
X52552293Y-79837335D01*
X52605152Y-79791644D01*
X52656528Y-79780500D01*
X66657779Y-79780500D01*
X122547707Y-79847595D01*
G37*
%TD.AperFunction*%
%TD*%
M02*
