%TF.GenerationSoftware,KiCad,Pcbnew,10.0.3*%
%TF.CreationDate,2026-08-28T22:21:34-04:00*%
%TF.ProjectId,hot_info_orbs,686f745f-696e-4666-9f5f-6f7262732e6b,rev?*%
%TF.SameCoordinates,Original*%
%TF.FileFunction,Legend,Bot*%
%TF.FilePolarity,Positive*%
%FSLAX46Y46*%
G04 Gerber Fmt 4.6, Leading zero omitted, Abs format (unit mm)*
G04 Created by KiCad (PCBNEW 10.0.3) date 2026-08-28 22:21:34*
%MOMM*%
%LPD*%
G01*
G04 APERTURE LIST*
%ADD10C,0.100000*%
%ADD11C,0.200000*%
%ADD12C,0.150000*%
%ADD13C,0.127000*%
G04 APERTURE END LIST*
D10*
X174633104Y-94598972D02*
X173833104Y-94265639D01*
X173833104Y-94265639D02*
X174633104Y-93932306D01*
X173909295Y-93027544D02*
X173871200Y-93075163D01*
X173871200Y-93075163D02*
X173833104Y-93218020D01*
X173833104Y-93218020D02*
X173833104Y-93313258D01*
X173833104Y-93313258D02*
X173871200Y-93456115D01*
X173871200Y-93456115D02*
X173947390Y-93551353D01*
X173947390Y-93551353D02*
X174023580Y-93598972D01*
X174023580Y-93598972D02*
X174175961Y-93646591D01*
X174175961Y-93646591D02*
X174290247Y-93646591D01*
X174290247Y-93646591D02*
X174442628Y-93598972D01*
X174442628Y-93598972D02*
X174518819Y-93551353D01*
X174518819Y-93551353D02*
X174595009Y-93456115D01*
X174595009Y-93456115D02*
X174633104Y-93313258D01*
X174633104Y-93313258D02*
X174633104Y-93218020D01*
X174633104Y-93218020D02*
X174595009Y-93075163D01*
X174595009Y-93075163D02*
X174556914Y-93027544D01*
X173909295Y-92027544D02*
X173871200Y-92075163D01*
X173871200Y-92075163D02*
X173833104Y-92218020D01*
X173833104Y-92218020D02*
X173833104Y-92313258D01*
X173833104Y-92313258D02*
X173871200Y-92456115D01*
X173871200Y-92456115D02*
X173947390Y-92551353D01*
X173947390Y-92551353D02*
X174023580Y-92598972D01*
X174023580Y-92598972D02*
X174175961Y-92646591D01*
X174175961Y-92646591D02*
X174290247Y-92646591D01*
X174290247Y-92646591D02*
X174442628Y-92598972D01*
X174442628Y-92598972D02*
X174518819Y-92551353D01*
X174518819Y-92551353D02*
X174595009Y-92456115D01*
X174595009Y-92456115D02*
X174633104Y-92313258D01*
X174633104Y-92313258D02*
X174633104Y-92218020D01*
X174633104Y-92218020D02*
X174595009Y-92075163D01*
X174595009Y-92075163D02*
X174556914Y-92027544D01*
X134906115Y-81061937D02*
X134572782Y-81061937D01*
X134429925Y-81480985D02*
X134906115Y-81480985D01*
X134906115Y-81480985D02*
X134906115Y-80680985D01*
X134906115Y-80680985D02*
X134429925Y-80680985D01*
X134048972Y-81442890D02*
X133906115Y-81480985D01*
X133906115Y-81480985D02*
X133668020Y-81480985D01*
X133668020Y-81480985D02*
X133572782Y-81442890D01*
X133572782Y-81442890D02*
X133525163Y-81404794D01*
X133525163Y-81404794D02*
X133477544Y-81328604D01*
X133477544Y-81328604D02*
X133477544Y-81252413D01*
X133477544Y-81252413D02*
X133525163Y-81176223D01*
X133525163Y-81176223D02*
X133572782Y-81138128D01*
X133572782Y-81138128D02*
X133668020Y-81100032D01*
X133668020Y-81100032D02*
X133858496Y-81061937D01*
X133858496Y-81061937D02*
X133953734Y-81023842D01*
X133953734Y-81023842D02*
X134001353Y-80985747D01*
X134001353Y-80985747D02*
X134048972Y-80909556D01*
X134048972Y-80909556D02*
X134048972Y-80833366D01*
X134048972Y-80833366D02*
X134001353Y-80757175D01*
X134001353Y-80757175D02*
X133953734Y-80719080D01*
X133953734Y-80719080D02*
X133858496Y-80680985D01*
X133858496Y-80680985D02*
X133620401Y-80680985D01*
X133620401Y-80680985D02*
X133477544Y-80719080D01*
X133048972Y-81480985D02*
X133048972Y-80680985D01*
X133048972Y-80680985D02*
X132668020Y-80680985D01*
X132668020Y-80680985D02*
X132572782Y-80719080D01*
X132572782Y-80719080D02*
X132525163Y-80757175D01*
X132525163Y-80757175D02*
X132477544Y-80833366D01*
X132477544Y-80833366D02*
X132477544Y-80947651D01*
X132477544Y-80947651D02*
X132525163Y-81023842D01*
X132525163Y-81023842D02*
X132572782Y-81061937D01*
X132572782Y-81061937D02*
X132668020Y-81100032D01*
X132668020Y-81100032D02*
X133048972Y-81100032D01*
X132144210Y-80680985D02*
X131525163Y-80680985D01*
X131525163Y-80680985D02*
X131858496Y-80985747D01*
X131858496Y-80985747D02*
X131715639Y-80985747D01*
X131715639Y-80985747D02*
X131620401Y-81023842D01*
X131620401Y-81023842D02*
X131572782Y-81061937D01*
X131572782Y-81061937D02*
X131525163Y-81138128D01*
X131525163Y-81138128D02*
X131525163Y-81328604D01*
X131525163Y-81328604D02*
X131572782Y-81404794D01*
X131572782Y-81404794D02*
X131620401Y-81442890D01*
X131620401Y-81442890D02*
X131715639Y-81480985D01*
X131715639Y-81480985D02*
X132001353Y-81480985D01*
X132001353Y-81480985D02*
X132096591Y-81442890D01*
X132096591Y-81442890D02*
X132144210Y-81404794D01*
X131144210Y-80757175D02*
X131096591Y-80719080D01*
X131096591Y-80719080D02*
X131001353Y-80680985D01*
X131001353Y-80680985D02*
X130763258Y-80680985D01*
X130763258Y-80680985D02*
X130668020Y-80719080D01*
X130668020Y-80719080D02*
X130620401Y-80757175D01*
X130620401Y-80757175D02*
X130572782Y-80833366D01*
X130572782Y-80833366D02*
X130572782Y-80909556D01*
X130572782Y-80909556D02*
X130620401Y-81023842D01*
X130620401Y-81023842D02*
X131191829Y-81480985D01*
X131191829Y-81480985D02*
X130572782Y-81480985D01*
X134382306Y-82007035D02*
X134477544Y-81968940D01*
X134477544Y-81968940D02*
X134620401Y-81968940D01*
X134620401Y-81968940D02*
X134763258Y-82007035D01*
X134763258Y-82007035D02*
X134858496Y-82083225D01*
X134858496Y-82083225D02*
X134906115Y-82159416D01*
X134906115Y-82159416D02*
X134953734Y-82311797D01*
X134953734Y-82311797D02*
X134953734Y-82426083D01*
X134953734Y-82426083D02*
X134906115Y-82578464D01*
X134906115Y-82578464D02*
X134858496Y-82654654D01*
X134858496Y-82654654D02*
X134763258Y-82730845D01*
X134763258Y-82730845D02*
X134620401Y-82768940D01*
X134620401Y-82768940D02*
X134525163Y-82768940D01*
X134525163Y-82768940D02*
X134382306Y-82730845D01*
X134382306Y-82730845D02*
X134334687Y-82692749D01*
X134334687Y-82692749D02*
X134334687Y-82426083D01*
X134334687Y-82426083D02*
X134525163Y-82426083D01*
X133715639Y-81968940D02*
X133525163Y-81968940D01*
X133525163Y-81968940D02*
X133429925Y-82007035D01*
X133429925Y-82007035D02*
X133334687Y-82083225D01*
X133334687Y-82083225D02*
X133287068Y-82235606D01*
X133287068Y-82235606D02*
X133287068Y-82502273D01*
X133287068Y-82502273D02*
X133334687Y-82654654D01*
X133334687Y-82654654D02*
X133429925Y-82730845D01*
X133429925Y-82730845D02*
X133525163Y-82768940D01*
X133525163Y-82768940D02*
X133715639Y-82768940D01*
X133715639Y-82768940D02*
X133810877Y-82730845D01*
X133810877Y-82730845D02*
X133906115Y-82654654D01*
X133906115Y-82654654D02*
X133953734Y-82502273D01*
X133953734Y-82502273D02*
X133953734Y-82235606D01*
X133953734Y-82235606D02*
X133906115Y-82083225D01*
X133906115Y-82083225D02*
X133810877Y-82007035D01*
X133810877Y-82007035D02*
X133715639Y-81968940D01*
X132858496Y-82349892D02*
X132525163Y-82349892D01*
X132382306Y-82768940D02*
X132858496Y-82768940D01*
X132858496Y-82768940D02*
X132858496Y-81968940D01*
X132858496Y-81968940D02*
X132382306Y-81968940D01*
X132001353Y-82730845D02*
X131858496Y-82768940D01*
X131858496Y-82768940D02*
X131620401Y-82768940D01*
X131620401Y-82768940D02*
X131525163Y-82730845D01*
X131525163Y-82730845D02*
X131477544Y-82692749D01*
X131477544Y-82692749D02*
X131429925Y-82616559D01*
X131429925Y-82616559D02*
X131429925Y-82540368D01*
X131429925Y-82540368D02*
X131477544Y-82464178D01*
X131477544Y-82464178D02*
X131525163Y-82426083D01*
X131525163Y-82426083D02*
X131620401Y-82387987D01*
X131620401Y-82387987D02*
X131810877Y-82349892D01*
X131810877Y-82349892D02*
X131906115Y-82311797D01*
X131906115Y-82311797D02*
X131953734Y-82273702D01*
X131953734Y-82273702D02*
X132001353Y-82197511D01*
X132001353Y-82197511D02*
X132001353Y-82121321D01*
X132001353Y-82121321D02*
X131953734Y-82045130D01*
X131953734Y-82045130D02*
X131906115Y-82007035D01*
X131906115Y-82007035D02*
X131810877Y-81968940D01*
X131810877Y-81968940D02*
X131572782Y-81968940D01*
X131572782Y-81968940D02*
X131429925Y-82007035D01*
X130048972Y-81968940D02*
X129858496Y-81968940D01*
X129858496Y-81968940D02*
X129763258Y-82007035D01*
X129763258Y-82007035D02*
X129668020Y-82083225D01*
X129668020Y-82083225D02*
X129620401Y-82235606D01*
X129620401Y-82235606D02*
X129620401Y-82502273D01*
X129620401Y-82502273D02*
X129668020Y-82654654D01*
X129668020Y-82654654D02*
X129763258Y-82730845D01*
X129763258Y-82730845D02*
X129858496Y-82768940D01*
X129858496Y-82768940D02*
X130048972Y-82768940D01*
X130048972Y-82768940D02*
X130144210Y-82730845D01*
X130144210Y-82730845D02*
X130239448Y-82654654D01*
X130239448Y-82654654D02*
X130287067Y-82502273D01*
X130287067Y-82502273D02*
X130287067Y-82235606D01*
X130287067Y-82235606D02*
X130239448Y-82083225D01*
X130239448Y-82083225D02*
X130144210Y-82007035D01*
X130144210Y-82007035D02*
X130048972Y-81968940D01*
X129191829Y-82768940D02*
X129191829Y-81968940D01*
X129191829Y-81968940D02*
X128620401Y-82768940D01*
X128620401Y-82768940D02*
X128620401Y-81968940D01*
X135048972Y-83256895D02*
X134477544Y-83256895D01*
X134763258Y-84056895D02*
X134763258Y-83256895D01*
X134144210Y-84056895D02*
X134144210Y-83256895D01*
X134144210Y-83637847D02*
X133572782Y-83637847D01*
X133572782Y-84056895D02*
X133572782Y-83256895D01*
X133096591Y-84056895D02*
X133096591Y-83256895D01*
X132668020Y-84018800D02*
X132525163Y-84056895D01*
X132525163Y-84056895D02*
X132287068Y-84056895D01*
X132287068Y-84056895D02*
X132191830Y-84018800D01*
X132191830Y-84018800D02*
X132144211Y-83980704D01*
X132144211Y-83980704D02*
X132096592Y-83904514D01*
X132096592Y-83904514D02*
X132096592Y-83828323D01*
X132096592Y-83828323D02*
X132144211Y-83752133D01*
X132144211Y-83752133D02*
X132191830Y-83714038D01*
X132191830Y-83714038D02*
X132287068Y-83675942D01*
X132287068Y-83675942D02*
X132477544Y-83637847D01*
X132477544Y-83637847D02*
X132572782Y-83599752D01*
X132572782Y-83599752D02*
X132620401Y-83561657D01*
X132620401Y-83561657D02*
X132668020Y-83485466D01*
X132668020Y-83485466D02*
X132668020Y-83409276D01*
X132668020Y-83409276D02*
X132620401Y-83333085D01*
X132620401Y-83333085D02*
X132572782Y-83294990D01*
X132572782Y-83294990D02*
X132477544Y-83256895D01*
X132477544Y-83256895D02*
X132239449Y-83256895D01*
X132239449Y-83256895D02*
X132096592Y-83294990D01*
X130953734Y-84018800D02*
X130810877Y-84056895D01*
X130810877Y-84056895D02*
X130572782Y-84056895D01*
X130572782Y-84056895D02*
X130477544Y-84018800D01*
X130477544Y-84018800D02*
X130429925Y-83980704D01*
X130429925Y-83980704D02*
X130382306Y-83904514D01*
X130382306Y-83904514D02*
X130382306Y-83828323D01*
X130382306Y-83828323D02*
X130429925Y-83752133D01*
X130429925Y-83752133D02*
X130477544Y-83714038D01*
X130477544Y-83714038D02*
X130572782Y-83675942D01*
X130572782Y-83675942D02*
X130763258Y-83637847D01*
X130763258Y-83637847D02*
X130858496Y-83599752D01*
X130858496Y-83599752D02*
X130906115Y-83561657D01*
X130906115Y-83561657D02*
X130953734Y-83485466D01*
X130953734Y-83485466D02*
X130953734Y-83409276D01*
X130953734Y-83409276D02*
X130906115Y-83333085D01*
X130906115Y-83333085D02*
X130858496Y-83294990D01*
X130858496Y-83294990D02*
X130763258Y-83256895D01*
X130763258Y-83256895D02*
X130525163Y-83256895D01*
X130525163Y-83256895D02*
X130382306Y-83294990D01*
X129953734Y-84056895D02*
X129953734Y-83256895D01*
X129477544Y-84056895D02*
X129477544Y-83256895D01*
X129477544Y-83256895D02*
X129239449Y-83256895D01*
X129239449Y-83256895D02*
X129096592Y-83294990D01*
X129096592Y-83294990D02*
X129001354Y-83371180D01*
X129001354Y-83371180D02*
X128953735Y-83447371D01*
X128953735Y-83447371D02*
X128906116Y-83599752D01*
X128906116Y-83599752D02*
X128906116Y-83714038D01*
X128906116Y-83714038D02*
X128953735Y-83866419D01*
X128953735Y-83866419D02*
X129001354Y-83942609D01*
X129001354Y-83942609D02*
X129096592Y-84018800D01*
X129096592Y-84018800D02*
X129239449Y-84056895D01*
X129239449Y-84056895D02*
X129477544Y-84056895D01*
X128477544Y-83637847D02*
X128144211Y-83637847D01*
X128001354Y-84056895D02*
X128477544Y-84056895D01*
X128477544Y-84056895D02*
X128477544Y-83256895D01*
X128477544Y-83256895D02*
X128001354Y-83256895D01*
X166955009Y-94022306D02*
X166993104Y-94117544D01*
X166993104Y-94117544D02*
X166993104Y-94260401D01*
X166993104Y-94260401D02*
X166955009Y-94403258D01*
X166955009Y-94403258D02*
X166878819Y-94498496D01*
X166878819Y-94498496D02*
X166802628Y-94546115D01*
X166802628Y-94546115D02*
X166650247Y-94593734D01*
X166650247Y-94593734D02*
X166535961Y-94593734D01*
X166535961Y-94593734D02*
X166383580Y-94546115D01*
X166383580Y-94546115D02*
X166307390Y-94498496D01*
X166307390Y-94498496D02*
X166231200Y-94403258D01*
X166231200Y-94403258D02*
X166193104Y-94260401D01*
X166193104Y-94260401D02*
X166193104Y-94165163D01*
X166193104Y-94165163D02*
X166231200Y-94022306D01*
X166231200Y-94022306D02*
X166269295Y-93974687D01*
X166269295Y-93974687D02*
X166535961Y-93974687D01*
X166535961Y-93974687D02*
X166535961Y-94165163D01*
X166193104Y-93546115D02*
X166993104Y-93546115D01*
X166993104Y-93546115D02*
X166193104Y-92974687D01*
X166193104Y-92974687D02*
X166993104Y-92974687D01*
X166193104Y-92498496D02*
X166993104Y-92498496D01*
X166993104Y-92498496D02*
X166993104Y-92260401D01*
X166993104Y-92260401D02*
X166955009Y-92117544D01*
X166955009Y-92117544D02*
X166878819Y-92022306D01*
X166878819Y-92022306D02*
X166802628Y-91974687D01*
X166802628Y-91974687D02*
X166650247Y-91927068D01*
X166650247Y-91927068D02*
X166535961Y-91927068D01*
X166535961Y-91927068D02*
X166383580Y-91974687D01*
X166383580Y-91974687D02*
X166307390Y-92022306D01*
X166307390Y-92022306D02*
X166231200Y-92117544D01*
X166231200Y-92117544D02*
X166193104Y-92260401D01*
X166193104Y-92260401D02*
X166193104Y-92498496D01*
D11*
X133261904Y-101166504D02*
X132785714Y-101166504D01*
X133357142Y-101452219D02*
X133023809Y-100452219D01*
X133023809Y-100452219D02*
X132690476Y-101452219D01*
X132357142Y-100785552D02*
X132357142Y-101452219D01*
X132357142Y-100880790D02*
X132309523Y-100833171D01*
X132309523Y-100833171D02*
X132214285Y-100785552D01*
X132214285Y-100785552D02*
X132071428Y-100785552D01*
X132071428Y-100785552D02*
X131976190Y-100833171D01*
X131976190Y-100833171D02*
X131928571Y-100928409D01*
X131928571Y-100928409D02*
X131928571Y-101452219D01*
X131595237Y-100785552D02*
X131214285Y-100785552D01*
X131452380Y-100452219D02*
X131452380Y-101309361D01*
X131452380Y-101309361D02*
X131404761Y-101404600D01*
X131404761Y-101404600D02*
X131309523Y-101452219D01*
X131309523Y-101452219D02*
X131214285Y-101452219D01*
X130499999Y-101404600D02*
X130595237Y-101452219D01*
X130595237Y-101452219D02*
X130785713Y-101452219D01*
X130785713Y-101452219D02*
X130880951Y-101404600D01*
X130880951Y-101404600D02*
X130928570Y-101309361D01*
X130928570Y-101309361D02*
X130928570Y-100928409D01*
X130928570Y-100928409D02*
X130880951Y-100833171D01*
X130880951Y-100833171D02*
X130785713Y-100785552D01*
X130785713Y-100785552D02*
X130595237Y-100785552D01*
X130595237Y-100785552D02*
X130499999Y-100833171D01*
X130499999Y-100833171D02*
X130452380Y-100928409D01*
X130452380Y-100928409D02*
X130452380Y-101023647D01*
X130452380Y-101023647D02*
X130928570Y-101118885D01*
X130023808Y-100785552D02*
X130023808Y-101452219D01*
X130023808Y-100880790D02*
X129976189Y-100833171D01*
X129976189Y-100833171D02*
X129880951Y-100785552D01*
X129880951Y-100785552D02*
X129738094Y-100785552D01*
X129738094Y-100785552D02*
X129642856Y-100833171D01*
X129642856Y-100833171D02*
X129595237Y-100928409D01*
X129595237Y-100928409D02*
X129595237Y-101452219D01*
X129119046Y-100785552D02*
X129119046Y-101452219D01*
X129119046Y-100880790D02*
X129071427Y-100833171D01*
X129071427Y-100833171D02*
X128976189Y-100785552D01*
X128976189Y-100785552D02*
X128833332Y-100785552D01*
X128833332Y-100785552D02*
X128738094Y-100833171D01*
X128738094Y-100833171D02*
X128690475Y-100928409D01*
X128690475Y-100928409D02*
X128690475Y-101452219D01*
X127785713Y-101452219D02*
X127785713Y-100928409D01*
X127785713Y-100928409D02*
X127833332Y-100833171D01*
X127833332Y-100833171D02*
X127928570Y-100785552D01*
X127928570Y-100785552D02*
X128119046Y-100785552D01*
X128119046Y-100785552D02*
X128214284Y-100833171D01*
X127785713Y-101404600D02*
X127880951Y-101452219D01*
X127880951Y-101452219D02*
X128119046Y-101452219D01*
X128119046Y-101452219D02*
X128214284Y-101404600D01*
X128214284Y-101404600D02*
X128261903Y-101309361D01*
X128261903Y-101309361D02*
X128261903Y-101214123D01*
X128261903Y-101214123D02*
X128214284Y-101118885D01*
X128214284Y-101118885D02*
X128119046Y-101071266D01*
X128119046Y-101071266D02*
X127880951Y-101071266D01*
X127880951Y-101071266D02*
X127785713Y-101023647D01*
D12*
X132091904Y-85704819D02*
X132091904Y-86514342D01*
X132091904Y-86514342D02*
X132044285Y-86609580D01*
X132044285Y-86609580D02*
X131996666Y-86657200D01*
X131996666Y-86657200D02*
X131901428Y-86704819D01*
X131901428Y-86704819D02*
X131710952Y-86704819D01*
X131710952Y-86704819D02*
X131615714Y-86657200D01*
X131615714Y-86657200D02*
X131568095Y-86609580D01*
X131568095Y-86609580D02*
X131520476Y-86514342D01*
X131520476Y-86514342D02*
X131520476Y-85704819D01*
X131091904Y-85800057D02*
X131044285Y-85752438D01*
X131044285Y-85752438D02*
X130949047Y-85704819D01*
X130949047Y-85704819D02*
X130710952Y-85704819D01*
X130710952Y-85704819D02*
X130615714Y-85752438D01*
X130615714Y-85752438D02*
X130568095Y-85800057D01*
X130568095Y-85800057D02*
X130520476Y-85895295D01*
X130520476Y-85895295D02*
X130520476Y-85990533D01*
X130520476Y-85990533D02*
X130568095Y-86133390D01*
X130568095Y-86133390D02*
X131139523Y-86704819D01*
X131139523Y-86704819D02*
X130520476Y-86704819D01*
%TO.C,DS4*%
D10*
X180188750Y-89250000D02*
X198908750Y-89250000D01*
X198908750Y-95290000D01*
X180188750Y-95290000D01*
X180188750Y-89250000D01*
%TO.C,DS5*%
X219168750Y-89250000D02*
X237888750Y-89250000D01*
X237888750Y-95290000D01*
X219168750Y-95290000D01*
X219168750Y-89250000D01*
%TO.C,DS3*%
X141258750Y-89190000D02*
X159978750Y-89190000D01*
X159978750Y-95230000D01*
X141258750Y-95230000D01*
X141258750Y-89190000D01*
%TO.C,DS2*%
X102218750Y-89220000D02*
X120938750Y-89220000D01*
X120938750Y-95260000D01*
X102218750Y-95260000D01*
X102218750Y-89220000D01*
%TO.C,DS1*%
X63236250Y-89240000D02*
X81956250Y-89240000D01*
X81956250Y-95280000D01*
X63236250Y-95280000D01*
X63236250Y-89240000D01*
%TO.C,U2*%
D13*
X122060000Y-80420000D02*
X122060000Y-101920000D01*
X123060000Y-102920000D02*
X139060000Y-102920000D01*
X126730000Y-79420000D02*
X123060000Y-79420000D01*
X135670000Y-79420000D02*
X126730000Y-79420000D01*
X139060000Y-79420000D02*
X135670000Y-79420000D01*
X140060000Y-101920000D02*
X140060000Y-80420000D01*
X122060000Y-80420000D02*
G75*
G02*
X123060000Y-79420000I1000000J0D01*
G01*
X123060000Y-102920000D02*
G75*
G02*
X122060000Y-101920000I0J1000000D01*
G01*
X139060000Y-79420000D02*
G75*
G02*
X140060000Y-80420000I1J-999999D01*
G01*
X140060000Y-101920000D02*
G75*
G02*
X139060000Y-102920000I-999999J-1D01*
G01*
D11*
X140910000Y-81010000D02*
G75*
G02*
X140710000Y-81010000I-100000J0D01*
G01*
X140710000Y-81010000D02*
G75*
G02*
X140910000Y-81010000I100000J0D01*
G01*
%TD*%
M02*
